G04*
G04 #@! TF.GenerationSoftware,Altium Limited,Altium Designer,22.8.2 (66)*
G04*
G04 Layer_Color=16711935*
%FSLAX25Y25*%
%MOIN*%
G70*
G04*
G04 #@! TF.SameCoordinates,F23DE1FB-CEBC-40D8-82DF-6EE2EAA0B71B*
G04*
G04*
G04 #@! TF.FilePolarity,Positive*
G04*
G01*
G75*
%ADD13C,0.00300*%
%ADD20C,0.00500*%
%ADD21C,0.00800*%
%ADD143C,0.00000*%
%ADD144C,0.00100*%
%ADD145C,0.00394*%
G36*
X107427Y63892D02*
Y62089D01*
X105136D01*
Y63892D01*
X107427D01*
D02*
G37*
G36*
X115352Y60192D02*
Y58378D01*
X113036D01*
Y60192D01*
X115352D01*
D02*
G37*
G36*
X115350Y67592D02*
Y65800D01*
X113036D01*
Y67592D01*
X115350D01*
D02*
G37*
D13*
X441505Y121406D02*
X438173Y124738D01*
X441505D02*
X438173Y121406D01*
X441505Y123072D02*
X438173D01*
X439839Y124738D02*
Y121406D01*
D20*
X508546Y91622D02*
X531774D01*
Y73905D02*
Y91622D01*
X508546Y73905D02*
X531774D01*
X508546D02*
Y91622D01*
Y27598D02*
X531774D01*
Y9882D02*
Y27598D01*
X508546Y9882D02*
X531774D01*
X508546D02*
Y27598D01*
X579412Y159391D02*
X602640D01*
Y141674D02*
Y159391D01*
X579412Y141674D02*
X602640D01*
X579412D02*
Y159391D01*
X579412Y91622D02*
X602640D01*
Y73905D02*
Y91622D01*
X579412Y73905D02*
X602640D01*
X579412D02*
Y91622D01*
Y27598D02*
X602640D01*
Y9882D02*
Y27598D01*
X579412Y9882D02*
X602640D01*
X579412D02*
Y27598D01*
X650278Y159391D02*
X673506D01*
Y141674D02*
Y159391D01*
X650278Y141674D02*
X673506D01*
X650278D02*
Y159391D01*
X650278Y91622D02*
X673506D01*
Y73905D02*
Y91622D01*
X650278Y73905D02*
X673506D01*
X650278D02*
Y91622D01*
X650278Y27598D02*
X673506D01*
Y9882D02*
Y27598D01*
X650278Y9882D02*
X673506D01*
X650278D02*
Y27598D01*
X721091Y159382D02*
X744319D01*
Y141665D02*
Y159382D01*
X721091Y141665D02*
X744319D01*
X721091D02*
Y159382D01*
X721091Y91622D02*
X744319D01*
Y73905D02*
Y91622D01*
X721091Y73905D02*
X744319D01*
X721091D02*
Y91622D01*
X721091Y27598D02*
X744319D01*
Y9882D02*
Y27598D01*
X721091Y9882D02*
X744319D01*
X721091D02*
Y27598D01*
X508546Y159391D02*
X531774D01*
Y141674D02*
Y159391D01*
X508546Y141674D02*
X531774D01*
X508546D02*
Y159391D01*
X484449Y121063D02*
Y128937D01*
X452559Y121063D02*
X484449D01*
X452559D02*
Y128937D01*
X484449D01*
X193504Y111496D02*
X202165D01*
X193504Y116850D02*
X202165D01*
X193504Y111496D02*
Y116850D01*
X202165Y111496D02*
Y116850D01*
X212402Y139764D02*
Y147638D01*
Y139764D02*
X244291D01*
Y147638D01*
X212402D02*
X244291D01*
X123031Y175394D02*
X154579D01*
X123031D02*
X154579D01*
Y193898D01*
X123031D02*
X154579D01*
X123031Y175394D02*
Y193898D01*
X222244Y176181D02*
Y193898D01*
X199016D02*
X222244D01*
X199016Y176181D02*
Y193898D01*
Y176181D02*
X222244D01*
X40551D02*
X63779D01*
X40551D02*
Y193898D01*
X63779D01*
Y176181D02*
Y193898D01*
X85630Y175394D02*
Y193898D01*
X117177D01*
Y175394D02*
Y193898D01*
X85630Y175394D02*
X117177D01*
X85630D02*
X117177D01*
X3110Y91063D02*
X16575D01*
Y109724D01*
X3110D02*
X16575D01*
X3110Y91063D02*
Y109724D01*
X2953Y51181D02*
X21457D01*
X2953D02*
Y82728D01*
X21457D01*
Y51181D02*
Y82728D01*
Y51181D02*
Y82728D01*
D21*
X107636Y68592D02*
X112836D01*
Y57392D02*
Y68592D01*
X107636Y57392D02*
X112836D01*
X107636D02*
Y68592D01*
D143*
X731505Y53046D02*
X731856Y52198D01*
X732705Y51846D01*
X733553Y52198D01*
X733905Y53046D01*
X518960Y117070D02*
X519311Y116221D01*
X520160Y115870D01*
X521008Y116221D01*
X521360Y117070D01*
X518960Y53046D02*
X519311Y52198D01*
X520160Y51846D01*
X521008Y52198D01*
X521360Y53046D01*
X589826Y184839D02*
X590177Y183990D01*
X591026Y183639D01*
X591875Y183990D01*
X592226Y184839D01*
X589826Y117070D02*
X590177Y116221D01*
X591026Y115870D01*
X591875Y116221D01*
X592226Y117070D01*
X589826Y53046D02*
X590177Y52198D01*
X591026Y51846D01*
X591875Y52198D01*
X592226Y53046D01*
X660692Y184839D02*
X661044Y183990D01*
X661892Y183639D01*
X662741Y183990D01*
X663092Y184839D01*
X660692Y117070D02*
X661044Y116221D01*
X661892Y115870D01*
X662741Y116221D01*
X663092Y117070D01*
X660692Y53046D02*
X661044Y52198D01*
X661892Y51846D01*
X662741Y52198D01*
X663092Y53046D01*
X731505Y184830D02*
X731856Y183981D01*
X732705Y183630D01*
X733553Y183981D01*
X733905Y184830D01*
X731505Y117070D02*
X731856Y116221D01*
X732705Y115870D01*
X733553Y116221D01*
X733905Y117070D01*
X518960Y184839D02*
X519311Y183991D01*
X520160Y183639D01*
X521008Y183991D01*
X521360Y184839D01*
X435255Y120271D02*
X434904Y121120D01*
X434055Y121471D01*
X433207Y121120D01*
X432855Y120271D01*
X206897Y136436D02*
X206049Y136085D01*
X205697Y135236D01*
X206049Y134388D01*
X206897Y134036D01*
X208564Y91617D02*
X207814Y92050D01*
Y91184D01*
X208564Y91617D01*
X52591Y157210D02*
X51841Y157643D01*
Y156777D01*
X52591Y157210D01*
X58300Y141872D02*
X57550Y142305D01*
Y141439D01*
X58300Y141872D01*
X90664Y87517D02*
X89914Y87950D01*
Y87084D01*
X90664Y87517D01*
X87416Y139902D02*
X87767Y139053D01*
X88616Y138702D01*
X89464Y139053D01*
X89816Y139902D01*
X358784Y152343D02*
X359633Y152695D01*
X359984Y153543D01*
X359633Y154392D01*
X358784Y154743D01*
D144*
X723205Y33646D02*
Y53046D01*
X742205D01*
Y33646D02*
Y53046D01*
X723205Y33646D02*
X742205D01*
Y49346D02*
X746855D01*
Y47346D02*
Y49346D01*
X742205Y47346D02*
X746855D01*
X742205D02*
Y49346D01*
Y39346D02*
X746855D01*
Y37346D02*
Y39346D01*
X742205Y37346D02*
X746855D01*
X742205D02*
Y39346D01*
X718555Y37346D02*
X723205D01*
X718555D02*
Y39346D01*
X723205D01*
Y37346D02*
Y39346D01*
X718555Y47346D02*
X723205D01*
X718555D02*
Y49346D01*
X723205D01*
Y47346D02*
Y49346D01*
X510660Y97670D02*
Y117070D01*
X529660D01*
Y97670D02*
Y117070D01*
X510660Y97670D02*
X529660D01*
Y113370D02*
X534310D01*
Y111370D02*
Y113370D01*
X529660Y111370D02*
X534310D01*
X529660D02*
Y113370D01*
Y103370D02*
X534310D01*
Y101370D02*
Y103370D01*
X529660Y101370D02*
X534310D01*
X529660D02*
Y103370D01*
X506010Y101370D02*
X510660D01*
X506010D02*
Y103370D01*
X510660D01*
Y101370D02*
Y103370D01*
X506010Y111370D02*
X510660D01*
X506010D02*
Y113370D01*
X510660D01*
Y111370D02*
Y113370D01*
Y33646D02*
Y53046D01*
X529660D01*
Y33646D02*
Y53046D01*
X510660Y33646D02*
X529660D01*
Y49346D02*
X534310D01*
Y47346D02*
Y49346D01*
X529660Y47346D02*
X534310D01*
X529660D02*
Y49346D01*
Y39346D02*
X534310D01*
Y37346D02*
Y39346D01*
X529660Y37346D02*
X534310D01*
X529660D02*
Y39346D01*
X506010Y37346D02*
X510660D01*
X506010D02*
Y39346D01*
X510660D01*
Y37346D02*
Y39346D01*
X506010Y47346D02*
X510660D01*
X506010D02*
Y49346D01*
X510660D01*
Y47346D02*
Y49346D01*
X581526Y165439D02*
Y184839D01*
X600526D01*
Y165439D02*
Y184839D01*
X581526Y165439D02*
X600526D01*
Y181139D02*
X605176D01*
Y179139D02*
Y181139D01*
X600526Y179139D02*
X605176D01*
X600526D02*
Y181139D01*
Y171139D02*
X605176D01*
Y169139D02*
Y171139D01*
X600526Y169139D02*
X605176D01*
X600526D02*
Y171139D01*
X576876Y169139D02*
X581526D01*
X576876D02*
Y171139D01*
X581526D01*
Y169139D02*
Y171139D01*
X576876Y179139D02*
X581526D01*
X576876D02*
Y181139D01*
X581526D01*
Y179139D02*
Y181139D01*
X581526Y97670D02*
Y117070D01*
X600526D01*
Y97670D02*
Y117070D01*
X581526Y97670D02*
X600526D01*
Y113370D02*
X605176D01*
Y111370D02*
Y113370D01*
X600526Y111370D02*
X605176D01*
X600526D02*
Y113370D01*
Y103370D02*
X605176D01*
Y101370D02*
Y103370D01*
X600526Y101370D02*
X605176D01*
X600526D02*
Y103370D01*
X576876Y101370D02*
X581526D01*
X576876D02*
Y103370D01*
X581526D01*
Y101370D02*
Y103370D01*
X576876Y111370D02*
X581526D01*
X576876D02*
Y113370D01*
X581526D01*
Y111370D02*
Y113370D01*
Y33646D02*
Y53046D01*
X600526D01*
Y33646D02*
Y53046D01*
X581526Y33646D02*
X600526D01*
Y49346D02*
X605176D01*
Y47346D02*
Y49346D01*
X600526Y47346D02*
X605176D01*
X600526D02*
Y49346D01*
Y39346D02*
X605176D01*
Y37346D02*
Y39346D01*
X600526Y37346D02*
X605176D01*
X600526D02*
Y39346D01*
X576876Y37346D02*
X581526D01*
X576876D02*
Y39346D01*
X581526D01*
Y37346D02*
Y39346D01*
X576876Y47346D02*
X581526D01*
X576876D02*
Y49346D01*
X581526D01*
Y47346D02*
Y49346D01*
X652392Y165439D02*
Y184839D01*
X671392D01*
Y165439D02*
Y184839D01*
X652392Y165439D02*
X671392D01*
Y181139D02*
X676042D01*
Y179139D02*
Y181139D01*
X671392Y179139D02*
X676042D01*
X671392D02*
Y181139D01*
Y171139D02*
X676042D01*
Y169139D02*
Y171139D01*
X671392Y169139D02*
X676042D01*
X671392D02*
Y171139D01*
X647742Y169139D02*
X652392D01*
X647742D02*
Y171139D01*
X652392D01*
Y169139D02*
Y171139D01*
X647742Y179139D02*
X652392D01*
X647742D02*
Y181139D01*
X652392D01*
Y179139D02*
Y181139D01*
X652392Y97670D02*
Y117070D01*
X671392D01*
Y97670D02*
Y117070D01*
X652392Y97670D02*
X671392D01*
Y113370D02*
X676042D01*
Y111370D02*
Y113370D01*
X671392Y111370D02*
X676042D01*
X671392D02*
Y113370D01*
Y103370D02*
X676042D01*
Y101370D02*
Y103370D01*
X671392Y101370D02*
X676042D01*
X671392D02*
Y103370D01*
X647742Y101370D02*
X652392D01*
X647742D02*
Y103370D01*
X652392D01*
Y101370D02*
Y103370D01*
X647742Y111370D02*
X652392D01*
X647742D02*
Y113370D01*
X652392D01*
Y111370D02*
Y113370D01*
X652392Y33646D02*
Y53046D01*
X671392D01*
Y33646D02*
Y53046D01*
X652392Y33646D02*
X671392D01*
Y49346D02*
X676042D01*
Y47346D02*
Y49346D01*
X671392Y47346D02*
X676042D01*
X671392D02*
Y49346D01*
Y39346D02*
X676042D01*
Y37346D02*
Y39346D01*
X671392Y37346D02*
X676042D01*
X671392D02*
Y39346D01*
X647742Y37346D02*
X652392D01*
X647742D02*
Y39346D01*
X652392D01*
Y37346D02*
Y39346D01*
X647742Y47346D02*
X652392D01*
X647742D02*
Y49346D01*
X652392D01*
Y47346D02*
Y49346D01*
X723205Y165430D02*
Y184830D01*
X742205D01*
Y165430D02*
Y184830D01*
X723205Y165430D02*
X742205D01*
Y181130D02*
X746855D01*
Y179130D02*
Y181130D01*
X742205Y179130D02*
X746855D01*
X742205D02*
Y181130D01*
Y171130D02*
X746855D01*
Y169130D02*
Y171130D01*
X742205Y169130D02*
X746855D01*
X742205D02*
Y171130D01*
X718555Y169130D02*
X723205D01*
X718555D02*
Y171130D01*
X723205D01*
Y169130D02*
Y171130D01*
X718555Y179130D02*
X723205D01*
X718555D02*
Y181130D01*
X723205D01*
Y179130D02*
Y181130D01*
X723205Y97670D02*
Y117070D01*
X742205D01*
Y97670D02*
Y117070D01*
X723205Y97670D02*
X742205D01*
Y113370D02*
X746855D01*
Y111370D02*
Y113370D01*
X742205Y111370D02*
X746855D01*
X742205D02*
Y113370D01*
Y103370D02*
X746855D01*
Y101370D02*
Y103370D01*
X742205Y101370D02*
X746855D01*
X742205D02*
Y103370D01*
X718555Y101370D02*
X723205D01*
X718555D02*
Y103370D01*
X723205D01*
Y101370D02*
Y103370D01*
X718555Y111370D02*
X723205D01*
X718555D02*
Y113370D01*
X723205D01*
Y111370D02*
Y113370D01*
X510660Y165439D02*
Y184839D01*
X529660D01*
Y165439D02*
Y184839D01*
X510660Y165439D02*
X529660D01*
Y181139D02*
X534310Y181139D01*
Y179139D02*
Y181139D01*
X529660Y179139D02*
X534310D01*
X529660D02*
Y181139D01*
Y171139D02*
X534310D01*
Y169139D02*
Y171139D01*
X529660Y169139D02*
X534310Y169139D01*
X529660Y169139D02*
Y171139D01*
X506010Y169139D02*
X510660Y169139D01*
X506010Y169139D02*
Y171139D01*
X510660D01*
Y169139D02*
Y171139D01*
X506010Y179139D02*
X510660D01*
X506010D02*
Y181139D01*
X510660Y181139D01*
Y179139D02*
Y181139D01*
X441755Y120271D02*
Y139571D01*
X426355Y120271D02*
X441755D01*
X426355D02*
Y139571D01*
X441755D01*
X422255Y121421D02*
X426355D01*
X422255D02*
Y123421D01*
X426355Y123421D01*
Y121421D02*
Y123421D01*
X422255Y126421D02*
X426355Y126421D01*
X422255Y126421D02*
Y128421D01*
X426355D01*
Y126421D02*
Y128421D01*
X422255Y131421D02*
X426355D01*
X422255D02*
Y133421D01*
X426355Y133421D01*
Y131421D02*
Y133421D01*
X422255Y136421D02*
X426355Y136421D01*
X422255Y136421D02*
Y138421D01*
X426355D01*
Y136421D02*
Y138421D01*
X441755D02*
X445855D01*
Y136421D02*
Y138421D01*
X441755Y136421D02*
X445855Y136421D01*
X441755Y136421D02*
Y138421D01*
Y133421D02*
X445855Y133421D01*
Y131421D02*
Y133421D01*
X441755Y131421D02*
X445855D01*
X441755D02*
Y133421D01*
Y128421D02*
X445855D01*
Y126421D02*
Y128421D01*
X441755Y126421D02*
X445855Y126421D01*
X441755Y126421D02*
Y128421D01*
Y123421D02*
X445855Y123421D01*
Y121421D02*
Y123421D01*
X441755Y121421D02*
X445855D01*
X441755D02*
Y123421D01*
X287106Y60256D02*
X292106Y65256D01*
X298366D02*
X299862D01*
X298366D02*
X299862D01*
X295807D02*
X297303D01*
X295807D02*
X297303D01*
X293248D02*
X294744D01*
X293248D02*
X294744D01*
X290689D02*
X292185D01*
X290689D02*
X292185D01*
X287106Y60177D02*
Y61673D01*
Y60177D02*
Y61673D01*
Y57618D02*
Y59114D01*
Y57618D02*
Y59114D01*
Y55059D02*
Y56555D01*
Y55059D02*
Y56555D01*
Y52500D02*
Y53996D01*
Y52500D02*
Y53996D01*
X290689Y48917D02*
X292185D01*
X290689D02*
X292185D01*
X293248D02*
X294744D01*
X293248D02*
X294744D01*
X295807D02*
X297303D01*
X295807D02*
X297303D01*
X298366D02*
X299862D01*
X298366D02*
X299862D01*
X303445Y52500D02*
Y53996D01*
Y52500D02*
Y53996D01*
Y55059D02*
Y56555D01*
Y55059D02*
Y56555D01*
Y57618D02*
Y59114D01*
Y57618D02*
Y59114D01*
Y60177D02*
Y61673D01*
Y60177D02*
Y61673D01*
Y48917D02*
Y65256D01*
X287106D02*
X303445D01*
X287106Y48917D02*
X303445D01*
X287106D02*
Y65256D01*
X187197Y143086D02*
X206897D01*
X206897Y127386D01*
X187197D02*
X206897D01*
X187197D02*
Y143086D01*
X205547Y123036D02*
Y127386D01*
X203547Y123036D02*
X205547D01*
X203547D02*
Y127386D01*
X200547Y123036D02*
Y127386D01*
X198547Y123036D02*
X200547D01*
X198547Y127386D02*
X198547Y123036D01*
X195547Y127386D02*
X195547Y123036D01*
X193547D02*
X195547D01*
X193547Y127386D02*
X193547Y123036D01*
X190547Y123036D02*
Y127386D01*
X188547Y123036D02*
X190547Y123036D01*
X188547Y123036D02*
Y127386D01*
Y143086D02*
Y147436D01*
X190547D01*
Y143086D02*
Y147436D01*
X188547Y143086D02*
X190547Y143086D01*
X193547D02*
Y147436D01*
X195547D01*
X195547Y143086D01*
X193547Y143086D02*
X195547Y143086D01*
X198547Y147436D02*
X198547Y143086D01*
X198547Y147436D02*
X200547D01*
Y143086D02*
Y147436D01*
X198547Y143086D02*
X200547D01*
X203547D02*
Y147436D01*
X205547D01*
Y143086D02*
Y147436D01*
X203547Y143086D02*
X205547D01*
X210267Y85517D02*
Y93617D01*
Y85517D02*
X218867D01*
Y93617D01*
X210267D02*
X218867D01*
X52051Y156210D02*
X54051D01*
X52051Y154860D02*
Y156210D01*
Y154860D02*
X54051D01*
Y156210D01*
X59531D02*
X61532D01*
X59531Y154860D02*
Y156210D01*
Y154860D02*
X61532D01*
Y156210D01*
X55791Y163310D02*
X57791D01*
Y164660D01*
X55791D02*
X57791D01*
X55791Y163310D02*
Y164660D01*
X51091Y156210D02*
X62491D01*
Y163310D01*
X51091D02*
X62491D01*
X51091Y156210D02*
Y163310D01*
X58800Y140872D02*
Y146372D01*
X57650Y138701D02*
Y140872D01*
X55650D02*
X57650D01*
X55650Y138701D02*
X57650D01*
X55650D02*
Y140872D01*
X51900Y146372D02*
X53900D01*
X47000Y140872D02*
X58800D01*
X47000Y146372D02*
X58800D01*
X50150Y138701D02*
Y140872D01*
X48150D02*
X50150D01*
X48150Y138701D02*
X50150D01*
X48150D02*
Y140872D01*
X47000D02*
Y146372D01*
X53900D02*
Y148543D01*
X51900D02*
X53900D01*
X51900Y146372D02*
Y148543D01*
X79361Y85517D02*
X87961D01*
X79361D02*
Y93617D01*
X87961D01*
Y85517D02*
Y93617D01*
X85466Y128502D02*
Y139902D01*
X91766D01*
Y128502D02*
Y139902D01*
X85466Y128502D02*
X91766D01*
Y138942D02*
X94116D01*
Y136942D02*
Y138942D01*
X91766Y136942D02*
X94116D01*
X91766D02*
Y138942D01*
Y131462D02*
X94116D01*
Y129462D02*
Y131462D01*
X91766Y129462D02*
X94116D01*
X91766D02*
Y131462D01*
X83116Y129462D02*
X85466D01*
X83116D02*
Y131462D01*
X85466D01*
Y129462D02*
Y131462D01*
X83116Y133202D02*
X85466D01*
X83116D02*
Y135202D01*
X85466D01*
Y133202D02*
Y135202D01*
X83116Y136942D02*
X85466D01*
X83116D02*
Y138942D01*
X85466D01*
Y136942D02*
Y138942D01*
X79319Y180037D02*
Y184137D01*
Y180037D02*
X81119D01*
Y184137D01*
X79319D02*
X81119D01*
X68319Y180037D02*
Y184137D01*
X66519D02*
X68319D01*
X66519Y180037D02*
Y184137D01*
Y180037D02*
X68319D01*
X77444Y178337D02*
X79319Y180212D01*
X77444Y185837D02*
X79319Y183962D01*
X68319Y185837D02*
X79319D01*
X68319Y178337D02*
Y185837D01*
Y178337D02*
X79319D01*
Y185837D01*
X358784Y161393D02*
X393184D01*
X358784Y145693D02*
Y161393D01*
Y145693D02*
X393184D01*
Y161393D01*
X359984Y141343D02*
Y145693D01*
Y141343D02*
X361984D01*
Y145693D01*
X359984D02*
X361984D01*
X364984D02*
X364984Y141343D01*
X366984D01*
X366984Y145693D02*
X366984Y141343D01*
X364984Y145693D02*
X366984D01*
X369984D02*
X369984Y141343D01*
X371984D01*
Y145693D01*
X369984D02*
X371984D01*
X374984Y141343D02*
Y145693D01*
Y141343D02*
X376984D01*
Y145693D01*
X374984D02*
X376984D01*
X379984Y141343D02*
Y145693D01*
Y141343D02*
X381984D01*
X381984Y145693D01*
X379984D02*
X381984D01*
X384984Y141343D02*
X384984Y145693D01*
X384984Y141343D02*
X386984D01*
X386984Y145693D01*
X384984D02*
X386984D01*
X389984Y141343D02*
Y145693D01*
Y141343D02*
X391984Y141343D01*
Y145693D01*
X389984D02*
X391984D01*
Y161393D02*
Y165743D01*
X389984Y165743D02*
X391984Y165743D01*
X389984Y161393D02*
Y165743D01*
Y161393D02*
X391984D01*
X386984D02*
Y165743D01*
X384984Y165743D02*
X386984Y165743D01*
X384984Y161393D02*
Y165743D01*
Y161393D02*
X386984D01*
X381984D02*
Y165743D01*
X379984Y165743D02*
X381984Y165743D01*
X379984Y161393D02*
Y165743D01*
Y161393D02*
X381984D01*
X376984D02*
Y165743D01*
X374984Y165743D02*
X376984Y165743D01*
X374984Y161393D02*
X374984Y165743D01*
X374984Y161393D02*
X376984D01*
X371984D02*
Y165743D01*
X369984Y165743D02*
X371984Y165743D01*
X369984Y165743D02*
X369984Y161393D01*
X371984Y161393D01*
X366984Y161393D02*
Y165743D01*
X364984Y165743D02*
X366984Y165743D01*
X364984Y161393D02*
Y165743D01*
Y161393D02*
X366984Y161393D01*
X361984Y161393D02*
Y165743D01*
X359984Y165743D02*
X361984Y165743D01*
X359984Y161393D02*
Y165743D01*
Y161393D02*
X361984D01*
D145*
X492699Y103039D02*
X496439D01*
X492699Y109732D02*
X496439D01*
X492699Y103039D02*
Y109732D01*
X496439Y103039D02*
Y109732D01*
X492699Y39015D02*
X496439D01*
X492699Y45708D02*
X496439D01*
X492699Y39015D02*
Y45708D01*
X496439Y39015D02*
Y45708D01*
X563565Y170808D02*
X567306D01*
X563565Y177501D02*
X567306D01*
X563565Y170808D02*
Y177501D01*
X567306Y170808D02*
Y177501D01*
X563565Y103039D02*
X567306D01*
X563565Y109732D02*
X567306D01*
X563565Y103039D02*
Y109732D01*
X567306Y103039D02*
Y109732D01*
X563565Y39015D02*
X567306D01*
X563565Y45708D02*
X567306D01*
X563565Y39015D02*
Y45708D01*
X567306Y39015D02*
Y45708D01*
X634432Y170808D02*
X638172D01*
X634432Y177501D02*
X638172D01*
X634432Y170808D02*
Y177501D01*
X638172Y170808D02*
Y177501D01*
X634432Y103039D02*
X638172D01*
X634432Y109732D02*
X638172D01*
X634432Y103039D02*
Y109732D01*
X638172Y103039D02*
Y109732D01*
X634432Y39015D02*
X638172D01*
X634432Y45708D02*
X638172D01*
X634432Y39015D02*
Y45708D01*
X638172Y39015D02*
Y45708D01*
X705244Y170799D02*
X708984D01*
X705244Y177492D02*
X708984D01*
X705244Y170799D02*
Y177492D01*
X708984Y170799D02*
Y177492D01*
X705244Y103039D02*
X708984D01*
X705244Y109732D02*
X708984D01*
X705244Y103039D02*
Y109732D01*
X708984Y103039D02*
Y109732D01*
X705244Y39015D02*
X708984D01*
X705244Y45708D02*
X708984D01*
X705244Y39015D02*
Y45708D01*
X708984Y39015D02*
Y45708D01*
X492699Y170808D02*
X496439D01*
X492699Y177501D02*
X496439D01*
X492699Y170808D02*
Y177501D01*
X496439Y170808D02*
Y177501D01*
X429724Y63090D02*
Y66831D01*
X436417Y63090D02*
Y66831D01*
X429724D02*
X436417D01*
X429724Y63090D02*
X436417D01*
X301575Y103445D02*
Y107185D01*
X294882Y103445D02*
Y107185D01*
X301575D01*
X294882Y103445D02*
X301575D01*
X451378Y61122D02*
Y64862D01*
X458071Y61122D02*
Y64862D01*
X451378D02*
X458071D01*
X451378Y61122D02*
X458071D01*
X457185Y68012D02*
Y71752D01*
X450295Y68012D02*
Y71752D01*
X457185Y71752D01*
X450295Y68012D02*
X457185Y68012D01*
X461122Y118209D02*
Y121949D01*
X454232Y118209D02*
Y121949D01*
X461122Y121949D01*
X454232Y118209D02*
X461122Y118209D01*
Y128051D02*
Y131791D01*
X454232Y128051D02*
Y131791D01*
X461122Y131791D01*
X454232Y128051D02*
X461122Y128051D01*
X411516Y116535D02*
X415256D01*
X411516Y109843D02*
X415256D01*
Y116535D01*
X411516Y109843D02*
Y116535D01*
X432185Y131398D02*
X435925D01*
X432185Y124508D02*
X435925D01*
X432185Y131398D02*
X432185Y124508D01*
X435925D02*
X435925Y131398D01*
X430709Y144783D02*
Y148524D01*
X437402Y144783D02*
Y148524D01*
X430709D02*
X437402D01*
X430709Y144783D02*
X437402D01*
X430709Y151673D02*
Y155413D01*
X437402Y151673D02*
Y155413D01*
X430709D02*
X437402D01*
X430709Y151673D02*
X437402D01*
X358366Y123622D02*
Y130315D01*
X362106Y123622D02*
Y130315D01*
X358366D02*
X362106D01*
X358366Y123622D02*
X362106D01*
X366240Y130315D02*
X369980D01*
X366240Y123622D02*
X369980D01*
X366240D02*
Y130315D01*
X369980Y123622D02*
Y130315D01*
X374114Y130413D02*
X377854D01*
X374114Y123524D02*
X377854D01*
X374114Y130413D02*
X374114Y123524D01*
X377854D02*
X377854Y130413D01*
X207283Y178248D02*
Y181988D01*
X213976Y178248D02*
Y181988D01*
X207283Y178248D02*
X213976D01*
X207283Y181988D02*
X213976D01*
X267717Y47343D02*
Y51083D01*
X261024Y47343D02*
Y51083D01*
Y47343D02*
X267717D01*
X261024Y51083D02*
X267717D01*
X261024Y54232D02*
Y57973D01*
X267717Y54232D02*
X267717Y57973D01*
X261024D02*
X267717D01*
X261024Y54232D02*
X267717D01*
X267717Y61122D02*
Y64862D01*
X261024Y61122D02*
Y64862D01*
Y61122D02*
X267717D01*
X261024Y64862D02*
X267717D01*
X291831Y47146D02*
X298721Y47146D01*
X291831Y43406D02*
X298721Y43406D01*
Y47146D01*
X291831Y43406D02*
Y47146D01*
Y34547D02*
Y38287D01*
X298721Y34547D02*
Y38287D01*
X291831Y34547D02*
X298721Y34547D01*
X291831Y38287D02*
X298721Y38287D01*
X281594Y53642D02*
Y60532D01*
X285335Y53642D02*
Y60532D01*
X281594D02*
X285335D01*
X281594Y53642D02*
X285335D01*
X272736D02*
X276476D01*
X272736Y60532D02*
X276476D01*
Y53642D02*
Y60532D01*
X272736Y53642D02*
Y60532D01*
X285531Y75394D02*
X289272D01*
X285531Y82087D02*
X289272D01*
X285531Y75394D02*
Y82087D01*
X289272Y75394D02*
Y82087D01*
X278642Y82087D02*
X282382D01*
X278642Y75394D02*
X282382D01*
X282382Y82087D01*
X278642Y75394D02*
Y82087D01*
X271752Y75394D02*
X275492D01*
X271752Y82087D02*
X275492D01*
X271752D02*
X271752Y75394D01*
X275492D02*
Y82087D01*
X185138Y68405D02*
X188878D01*
X185138Y75295D02*
X188878D01*
X185138Y68405D02*
X185138Y75295D01*
X188878D02*
X188878Y68405D01*
X179232Y142126D02*
X182972D01*
X179232Y135433D02*
X182972D01*
Y142126D01*
X179232Y135433D02*
Y142126D01*
X179232Y121653D02*
X182973D01*
X179232Y128347D02*
X182973D01*
X179232Y121653D02*
Y128347D01*
X182973Y121653D02*
Y128347D01*
X242618Y129387D02*
X249508Y129387D01*
X242618Y133127D02*
X249508Y133127D01*
X242618Y129387D02*
Y133127D01*
X249508Y129387D02*
Y133127D01*
X201279Y120177D02*
Y123917D01*
X194390Y120177D02*
Y123917D01*
X201279Y123917D01*
X194390Y120177D02*
X201279Y120177D01*
X141785Y45559D02*
Y49300D01*
X135092Y45559D02*
Y49300D01*
Y45559D02*
X141785D01*
X135092Y49300D02*
X141785D01*
X135057Y56191D02*
X141750D01*
X135057Y52451D02*
X141750D01*
X135057D02*
Y56191D01*
X141750Y52451D02*
Y56191D01*
X286811Y140847D02*
Y144587D01*
X280118Y140847D02*
Y144587D01*
X286811D01*
X280118Y140847D02*
X286811D01*
X120177Y76279D02*
X123917D01*
X120177Y69390D02*
X123917D01*
X120177Y76279D02*
X120177Y69390D01*
X123917D02*
X123917Y76279D01*
X168701Y49311D02*
Y53051D01*
X162008Y49311D02*
Y53051D01*
Y49311D02*
X168701D01*
X162008Y53051D02*
X168701D01*
X162008Y56201D02*
Y59941D01*
X168701Y56201D02*
Y59941D01*
X162008D02*
X168701D01*
X162008Y56201D02*
X168701D01*
X161909Y64075D02*
Y67815D01*
X168799Y64075D02*
Y67815D01*
X161909Y67815D02*
X168799Y67815D01*
X161909Y64075D02*
X168799Y64075D01*
X143799Y90158D02*
X147539D01*
X143799Y96850D02*
X147539D01*
X143799Y90158D02*
Y96850D01*
X147539Y90158D02*
Y96850D01*
X136319Y101476D02*
Y105217D01*
X129429Y101476D02*
Y105217D01*
Y101476D02*
X136319Y101476D01*
X129429Y105217D02*
X136319Y105217D01*
X129429Y114075D02*
X136319Y114075D01*
X129429Y110335D02*
X136319Y110335D01*
X129429Y110335D02*
Y114075D01*
X136319Y110335D02*
Y114075D01*
Y93602D02*
Y97342D01*
X129429Y93602D02*
Y97342D01*
Y93602D02*
X136319Y93602D01*
X129429Y97342D02*
X136319Y97342D01*
X62598Y146752D02*
X69291D01*
X62598Y150492D02*
X69291D01*
X62598Y146752D02*
Y150492D01*
X69291Y146752D02*
Y150492D01*
X168799Y79823D02*
Y83563D01*
X161909Y79823D02*
Y83563D01*
Y79823D02*
X168799Y79823D01*
X161909Y83563D02*
X168799Y83563D01*
X168701Y71949D02*
Y75689D01*
X162008Y71949D02*
Y75689D01*
Y71949D02*
X168701D01*
X162008Y75689D02*
X168701D01*
X157579Y96850D02*
X161319D01*
X157579Y90158D02*
X161319D01*
Y96850D01*
X157579Y90158D02*
Y96850D01*
X150689D02*
X154429D01*
X150689Y90158D02*
X154429D01*
Y96850D01*
X150689Y90158D02*
Y96850D01*
X164469D02*
X168209D01*
X164469Y90158D02*
X168209D01*
Y96850D01*
X164469Y90158D02*
Y96850D01*
X152067Y87697D02*
Y91437D01*
X145177Y87697D02*
Y91437D01*
X152067Y91437D01*
X145177Y87697D02*
X152067Y87697D01*
X148721Y72342D02*
X152461D01*
X148721Y79232D02*
X152461D01*
X152461Y72342D01*
X148721D02*
X148721Y79232D01*
X104823Y76673D02*
X111713Y76673D01*
X104823Y72933D02*
X111713Y72933D01*
X104823Y72933D02*
Y76673D01*
X111713Y72933D02*
Y76673D01*
X132776Y69390D02*
X132776Y76279D01*
X129035D02*
X129035Y69390D01*
X132776D01*
X129035Y76279D02*
X132776D01*
X124114Y70957D02*
X127854D01*
X124114Y64265D02*
X127854D01*
Y70957D01*
X124114Y64265D02*
Y70957D01*
X269783Y154921D02*
X273524D01*
X269783Y148228D02*
X273524D01*
X269783D02*
Y154921D01*
X273524Y148228D02*
Y154921D01*
X253543Y136909D02*
X260236D01*
X253543Y140650D02*
X260236D01*
Y136909D02*
Y140650D01*
X253543Y136909D02*
Y140650D01*
Y146752D02*
X260236D01*
X253543Y150492D02*
X260236D01*
Y146752D02*
Y150492D01*
X253543Y146752D02*
Y150492D01*
X249431Y154085D02*
Y157825D01*
X242542Y154085D02*
Y157825D01*
X249431Y157825D01*
X242542Y154085D02*
X249431Y154085D01*
X82776Y130413D02*
X86516D01*
X82776Y137303D02*
X86516D01*
Y130413D02*
Y137303D01*
X82776Y130413D02*
Y137303D01*
X91634Y130413D02*
X91634Y137303D01*
X95374D02*
X95374Y130413D01*
X91634Y137303D02*
X95374D01*
X91634Y130413D02*
X95374D01*
X100492D02*
Y137303D01*
X104232Y130413D02*
Y137303D01*
X100492D02*
X104232D01*
X100492Y130413D02*
X104232D01*
X131398Y178248D02*
Y181988D01*
X138287Y178248D02*
Y181988D01*
X131398Y178248D02*
X138287Y178248D01*
X131398Y181988D02*
X138287Y181988D01*
X131398Y170374D02*
Y174114D01*
X138287Y170374D02*
Y174114D01*
X131398Y170374D02*
X138287Y170374D01*
X131398Y174114D02*
X138287Y174114D01*
X55610Y178248D02*
Y181988D01*
X48720Y178248D02*
Y181988D01*
X55610Y181988D01*
X48720Y178248D02*
X55610Y178248D01*
X47343Y124606D02*
X51083D01*
X47343Y131299D02*
X51083D01*
Y124606D02*
Y131299D01*
X47343Y124606D02*
Y131299D01*
X54232Y131299D02*
X57973D01*
X54232Y124606D02*
X57973D01*
X54232D02*
Y131299D01*
X57973Y124606D02*
Y131299D01*
X77165Y188979D02*
Y192719D01*
X70472Y188979D02*
Y192719D01*
Y188979D02*
X77165D01*
X70472Y192719D02*
X77165D01*
X70374Y170374D02*
Y174114D01*
X77264Y170374D02*
Y174114D01*
X70374Y174114D02*
X77264Y174114D01*
X70374Y170374D02*
X77264Y170374D01*
X138189Y162500D02*
Y166240D01*
X131496Y162500D02*
Y166240D01*
Y162500D02*
X138189D01*
X131496Y166240D02*
X138189D01*
Y168405D02*
Y172146D01*
X131496Y168405D02*
Y172146D01*
Y168405D02*
X138189D01*
X131496Y172146D02*
X138189D01*
X172711Y181988D02*
Y185728D01*
X179601Y181988D02*
Y185728D01*
X172711Y181988D02*
X179601Y181988D01*
X172711Y185728D02*
X179601Y185728D01*
X185433Y169390D02*
Y173130D01*
X178740Y169390D02*
Y173130D01*
Y169390D02*
X185433D01*
X178740Y173130D02*
X185433D01*
X248524Y174311D02*
Y178051D01*
X241634Y174311D02*
Y178051D01*
X248524Y178051D01*
X241634Y174311D02*
X248524Y174311D01*
Y182185D02*
Y185925D01*
X241634Y182185D02*
Y185925D01*
X248524Y185925D01*
X241634Y182185D02*
X248524Y182185D01*
X224016Y169390D02*
Y173130D01*
X230709Y169390D02*
Y173130D01*
X224016D02*
X230709D01*
X224016Y169390D02*
X230709D01*
X273524Y183563D02*
X273524Y190453D01*
X269783D02*
X269783Y183563D01*
X273524D01*
X269783Y190453D02*
X273524D01*
X282382Y183563D02*
X282382Y190453D01*
X278642D02*
X278642Y183563D01*
X282382D01*
X278642Y190453D02*
X282382D01*
X410335Y182185D02*
Y185925D01*
X403445Y182185D02*
Y185925D01*
X410335Y185925D01*
X403445Y182185D02*
X410335Y182185D01*
X392571Y139121D02*
Y142862D01*
X399264Y139121D02*
Y142862D01*
X392571D02*
X399264D01*
X392571Y139121D02*
X399264D01*
X376806Y139203D02*
X376806Y142943D01*
X383499D02*
X383499Y139203D01*
X376806Y142943D02*
X383499D01*
X376806Y139203D02*
X383499D01*
X357382Y148130D02*
X361122D01*
X357382Y155020D02*
X361122D01*
X357382Y148130D02*
Y155020D01*
X361122Y148130D02*
Y155020D01*
X349508Y155020D02*
X353248D01*
X349508Y148130D02*
X353248D01*
X353248Y155020D01*
X349508D02*
X349508Y148130D01*
X39272Y104823D02*
Y111713D01*
X35531Y104823D02*
Y111713D01*
X39272D01*
X35531Y104823D02*
X39272D01*
X29429Y111713D02*
X29429Y104823D01*
X25689D02*
X25689Y111713D01*
X29429D01*
X25689Y104823D02*
X29429D01*
M02*
