G04*
G04 #@! TF.GenerationSoftware,Altium Limited,Altium Designer,22.8.2 (66)*
G04*
G04 Layer_Physical_Order=4*
G04 Layer_Color=16711680*
%FSLAX25Y25*%
%MOIN*%
G70*
G04*
G04 #@! TF.SameCoordinates,F23DE1FB-CEBC-40D8-82DF-6EE2EAA0B71B*
G04*
G04*
G04 #@! TF.FilePolarity,Positive*
G04*
G01*
G75*
%ADD11C,0.00787*%
%ADD16C,0.02000*%
%ADD73R,0.03937X0.03543*%
%ADD74R,0.03543X0.03937*%
%ADD75R,0.09843X0.11811*%
%ADD76R,0.06299X0.03937*%
%ADD88R,0.06000X0.04724*%
%ADD97R,0.04724X0.04331*%
%ADD98R,0.04724X0.06000*%
%ADD104R,0.04331X0.04724*%
%ADD111C,0.00984*%
%ADD113R,0.05150X0.05150*%
%ADD114C,0.05150*%
%ADD115C,0.01181*%
%ADD116C,0.01575*%
%ADD117C,0.04528*%
%ADD118R,0.04528X0.04528*%
%ADD119R,0.04528X0.04528*%
%ADD120O,0.20079X0.20472*%
G04:AMPARAMS|DCode=121|XSize=68.9mil|YSize=68.9mil|CornerRadius=17.22mil|HoleSize=0mil|Usage=FLASHONLY|Rotation=0.000|XOffset=0mil|YOffset=0mil|HoleType=Round|Shape=RoundedRectangle|*
%AMROUNDEDRECTD121*
21,1,0.06890,0.03445,0,0,0.0*
21,1,0.03445,0.06890,0,0,0.0*
1,1,0.03445,0.01722,-0.01722*
1,1,0.03445,-0.01722,-0.01722*
1,1,0.03445,-0.01722,0.01722*
1,1,0.03445,0.01722,0.01722*
%
%ADD121ROUNDEDRECTD121*%
G04:AMPARAMS|DCode=122|XSize=49.21mil|YSize=47.24mil|CornerRadius=11.81mil|HoleSize=0mil|Usage=FLASHONLY|Rotation=180.000|XOffset=0mil|YOffset=0mil|HoleType=Round|Shape=RoundedRectangle|*
%AMROUNDEDRECTD122*
21,1,0.04921,0.02362,0,0,180.0*
21,1,0.02559,0.04724,0,0,180.0*
1,1,0.02362,-0.01280,0.01181*
1,1,0.02362,0.01280,0.01181*
1,1,0.02362,0.01280,-0.01181*
1,1,0.02362,-0.01280,-0.01181*
%
%ADD122ROUNDEDRECTD122*%
%ADD123C,0.01968*%
%ADD124C,0.05000*%
%ADD133R,0.03780X0.05433*%
%ADD134R,0.09843X0.09055*%
%ADD135R,0.02400X0.06400*%
%ADD136R,0.02200X0.09000*%
G36*
X276447Y194843D02*
X276512Y194370D01*
X276512Y194343D01*
Y191508D01*
X280512D01*
X284512D01*
Y194343D01*
X284576Y194843D01*
X779528Y194843D01*
X780105D01*
X781239Y194618D01*
X782307Y194176D01*
X783267Y193534D01*
X784085Y192716D01*
X784727Y191755D01*
X785169Y190688D01*
X785394Y189554D01*
X785394Y188976D01*
X785394Y7874D01*
Y7296D01*
X785169Y6163D01*
X784727Y5095D01*
X784085Y4134D01*
X783267Y3317D01*
X782307Y2675D01*
X781239Y2232D01*
X780105Y2007D01*
X779528Y2007D01*
X7874Y2007D01*
X7296Y2007D01*
X6163Y2232D01*
X5095Y2675D01*
X4134Y3317D01*
X3317Y4134D01*
X2675Y5095D01*
X2232Y6163D01*
X2007Y7296D01*
Y7874D01*
X2007Y113411D01*
X2507Y113510D01*
X2602Y113281D01*
X3045Y112838D01*
X3624Y112598D01*
X4250D01*
X4829Y112838D01*
X5272Y113281D01*
X5512Y113860D01*
Y114487D01*
X5272Y115065D01*
X4829Y115508D01*
X4250Y115748D01*
X3624D01*
X3045Y115508D01*
X2602Y115065D01*
X2507Y114836D01*
X2007Y114936D01*
Y188976D01*
Y189554D01*
X2232Y190688D01*
X2675Y191755D01*
X3317Y192716D01*
X4134Y193534D01*
X5095Y194176D01*
X6163Y194618D01*
X7296Y194843D01*
X7874Y194843D01*
X276447Y194843D01*
D02*
G37*
%LPC*%
G36*
X274819Y193913D02*
X272153D01*
Y191051D01*
X274819D01*
Y193913D01*
D02*
G37*
G36*
X271153D02*
X268488D01*
Y191051D01*
X271153D01*
Y193913D01*
D02*
G37*
G36*
X384120Y194334D02*
X382898D01*
Y190366D01*
X386866D01*
Y191589D01*
X386772Y192299D01*
X386498Y192962D01*
X386062Y193530D01*
X385493Y193967D01*
X384831Y194241D01*
X384120Y194334D01*
D02*
G37*
G36*
X381898D02*
X380675D01*
X379964Y194241D01*
X379302Y193967D01*
X378733Y193530D01*
X378297Y192962D01*
X378023Y192299D01*
X377929Y191589D01*
Y190366D01*
X381898D01*
Y194334D01*
D02*
G37*
G36*
X355045Y194334D02*
X353823D01*
Y190366D01*
X357791D01*
Y191589D01*
X357698Y192299D01*
X357423Y192962D01*
X356987Y193530D01*
X356418Y193967D01*
X355756Y194241D01*
X355045Y194334D01*
D02*
G37*
G36*
X352823D02*
X351600D01*
X350890Y194241D01*
X350227Y193967D01*
X349659Y193530D01*
X349222Y192962D01*
X348948Y192299D01*
X348854Y191589D01*
Y190366D01*
X352823D01*
Y194334D01*
D02*
G37*
G36*
X284512Y190508D02*
X281012D01*
Y187646D01*
X284512D01*
Y190508D01*
D02*
G37*
G36*
X280012D02*
X276512D01*
Y187646D01*
X280012D01*
Y190508D01*
D02*
G37*
G36*
X134169Y190272D02*
X131405D01*
Y187508D01*
X134169D01*
Y190272D01*
D02*
G37*
G36*
X130405D02*
X127642D01*
Y187508D01*
X130405D01*
Y190272D01*
D02*
G37*
G36*
X274819Y190051D02*
X272153D01*
Y187189D01*
X274819D01*
Y190051D01*
D02*
G37*
G36*
X271153D02*
X268488D01*
Y187189D01*
X271153D01*
Y190051D01*
D02*
G37*
G36*
X386866Y189366D02*
X382898D01*
Y185398D01*
X384120D01*
X384831Y185491D01*
X385493Y185766D01*
X386062Y186202D01*
X386498Y186771D01*
X386772Y187433D01*
X386866Y188144D01*
Y189366D01*
D02*
G37*
G36*
X381898D02*
X377929D01*
Y188144D01*
X378023Y187433D01*
X378297Y186771D01*
X378733Y186202D01*
X379302Y185766D01*
X379964Y185491D01*
X380675Y185398D01*
X381898D01*
Y189366D01*
D02*
G37*
G36*
X357791Y189366D02*
X353823D01*
Y185398D01*
X355045D01*
X355756Y185491D01*
X356418Y185766D01*
X356987Y186202D01*
X357423Y186771D01*
X357698Y187433D01*
X357791Y188144D01*
Y189366D01*
D02*
G37*
G36*
X352823D02*
X348854D01*
Y188144D01*
X348948Y187433D01*
X349222Y186771D01*
X349659Y186202D01*
X350227Y185766D01*
X350890Y185491D01*
X351600Y185398D01*
X352823D01*
Y189366D01*
D02*
G37*
G36*
X244488Y186811D02*
X238583D01*
Y185059D01*
X237506D01*
X237096Y185468D01*
X236517Y185708D01*
X235891D01*
X235312Y185468D01*
X234869Y185025D01*
X234629Y184447D01*
Y183820D01*
X234869Y183241D01*
X235312Y182798D01*
X235891Y182558D01*
X236517D01*
X237096Y182798D01*
X237349Y183052D01*
X238583D01*
Y181299D01*
X240532D01*
Y178937D01*
X238583D01*
Y173748D01*
X238583Y173425D01*
X238156Y173248D01*
X234668D01*
X227088Y180828D01*
X226762Y181045D01*
X226378Y181122D01*
X216339D01*
Y182677D01*
X211614D01*
Y177559D01*
X216339D01*
Y179115D01*
X225962D01*
X233542Y171535D01*
X233868Y171317D01*
X234252Y171241D01*
X313737D01*
X314069Y170909D01*
X314344Y170795D01*
X314245Y170295D01*
X219426D01*
X219042Y170219D01*
X218716Y170001D01*
X189546Y140831D01*
X189077D01*
X188498Y140591D01*
X188055Y140148D01*
X187816Y139569D01*
Y138943D01*
X188055Y138364D01*
X188498Y137921D01*
X189077Y137681D01*
X189704D01*
X190282Y137921D01*
X190726Y138364D01*
X190965Y138943D01*
Y139412D01*
X219841Y168288D01*
X322287D01*
X322671Y168364D01*
X322997Y168582D01*
X335381Y180965D01*
X335849D01*
X336428Y181205D01*
X336871Y181648D01*
X337111Y182227D01*
Y182853D01*
X336871Y183432D01*
X336428Y183875D01*
X335849Y184115D01*
X335223D01*
X334644Y183875D01*
X334201Y183432D01*
X333962Y182853D01*
Y182385D01*
X321872Y170295D01*
X315676D01*
X315577Y170795D01*
X315853Y170909D01*
X316296Y171352D01*
X316535Y171931D01*
Y172557D01*
X316296Y173136D01*
X315853Y173579D01*
X315274Y173819D01*
X314647D01*
X314069Y173579D01*
X313737Y173248D01*
X251984D01*
Y175681D01*
X248622D01*
X245260D01*
Y173556D01*
X244987Y173423D01*
X244488Y173702D01*
Y178937D01*
X242539D01*
Y181299D01*
X244488D01*
Y186811D01*
D02*
G37*
G36*
X406299Y186811D02*
X400394D01*
Y185032D01*
X399854D01*
X399523Y185363D01*
X398944Y185603D01*
X398318D01*
X397739Y185363D01*
X397296Y184920D01*
X397056Y184342D01*
Y183715D01*
X397296Y183136D01*
X397739Y182693D01*
X398318Y182454D01*
X398944D01*
X399523Y182693D01*
X399854Y183025D01*
X400394D01*
Y181299D01*
X406299D01*
Y186811D01*
D02*
G37*
G36*
X251984Y187221D02*
X249122D01*
Y184555D01*
X251984D01*
Y187221D01*
D02*
G37*
G36*
X248122D02*
X245260D01*
Y184555D01*
X248122D01*
Y187221D01*
D02*
G37*
G36*
X413795Y187221D02*
X410933D01*
Y184555D01*
X413795D01*
Y187221D01*
D02*
G37*
G36*
X409933D02*
X407071D01*
Y184555D01*
X409933D01*
Y187221D01*
D02*
G37*
G36*
X175975Y187024D02*
X173113D01*
Y184358D01*
X175975D01*
Y187024D01*
D02*
G37*
G36*
X172113D02*
X169250D01*
Y184358D01*
X172113D01*
Y187024D01*
D02*
G37*
G36*
X101781Y189862D02*
X101030D01*
X100304Y189668D01*
X99653Y189292D01*
X99121Y188760D01*
X98746Y188110D01*
X98551Y187384D01*
Y186632D01*
X98746Y185906D01*
X99121Y185255D01*
X99653Y184724D01*
X100304Y184348D01*
X101030Y184153D01*
X101781D01*
X102507Y184348D01*
X103158Y184724D01*
X103690Y185255D01*
X104065Y185906D01*
X104260Y186632D01*
Y187384D01*
X104065Y188110D01*
X103690Y188760D01*
X103158Y189292D01*
X102507Y189668D01*
X101781Y189862D01*
D02*
G37*
G36*
X96358D02*
X90650D01*
Y184153D01*
X96358D01*
Y189862D01*
D02*
G37*
G36*
X274409Y186417D02*
X268898D01*
Y183617D01*
X268049D01*
X267718Y183949D01*
X267139Y184189D01*
X266512D01*
X265934Y183949D01*
X265491Y183506D01*
X265251Y182927D01*
Y182301D01*
X265491Y181722D01*
X265934Y181279D01*
X266512Y181039D01*
X267139D01*
X267718Y181279D01*
X268049Y181610D01*
X268898D01*
Y180512D01*
X274409D01*
Y182461D01*
X276921D01*
Y180055D01*
X284102D01*
Y185961D01*
X276921D01*
Y184468D01*
X274409D01*
Y186417D01*
D02*
G37*
G36*
X182652Y186614D02*
X176746D01*
Y181102D01*
X182652D01*
Y182855D01*
X183860D01*
X184193Y182522D01*
X184771Y182283D01*
X185398D01*
X185977Y182522D01*
X186420Y182965D01*
X186659Y183544D01*
Y184171D01*
X186420Y184749D01*
X185977Y185192D01*
X185398Y185432D01*
X184771D01*
X184193Y185192D01*
X183862Y184862D01*
X182652D01*
Y186614D01*
D02*
G37*
G36*
X251984Y183555D02*
X249122D01*
Y180890D01*
X251984D01*
Y183555D01*
D02*
G37*
G36*
X248122D02*
X245260D01*
Y180890D01*
X248122D01*
Y183555D01*
D02*
G37*
G36*
X413795Y183555D02*
X410933D01*
Y180890D01*
X413795D01*
Y183555D01*
D02*
G37*
G36*
X409933D02*
X407071D01*
Y180890D01*
X409933D01*
Y183555D01*
D02*
G37*
G36*
X175975Y183358D02*
X173113D01*
Y180693D01*
X175975D01*
Y183358D01*
D02*
G37*
G36*
X172113D02*
X169250D01*
Y180693D01*
X172113D01*
Y183358D01*
D02*
G37*
G36*
X59071Y183283D02*
X56209D01*
Y180618D01*
X59071D01*
Y183283D01*
D02*
G37*
G36*
X55209D02*
X52346D01*
Y180618D01*
X55209D01*
Y183283D01*
D02*
G37*
G36*
X134169Y186508D02*
X127642D01*
Y183744D01*
X127842D01*
X127937Y183283D01*
X127937Y183244D01*
Y180618D01*
X131299D01*
X134661D01*
Y183283D01*
X134264D01*
X134169Y183744D01*
X134169Y183783D01*
Y186508D01*
D02*
G37*
G36*
X379232Y182932D02*
X378453D01*
Y180028D01*
X381456D01*
Y180709D01*
X381287Y181560D01*
X380805Y182281D01*
X380083Y182763D01*
X379232Y182932D01*
D02*
G37*
G36*
X359547D02*
X358768D01*
Y180028D01*
X361771D01*
Y180709D01*
X361602Y181560D01*
X361120Y182281D01*
X360398Y182763D01*
X359547Y182932D01*
D02*
G37*
G36*
X377453D02*
X376673D01*
X375822Y182763D01*
X375101Y182281D01*
X374619Y181560D01*
X374449Y180709D01*
Y180028D01*
X377453D01*
Y182932D01*
D02*
G37*
G36*
X357768D02*
X356988D01*
X356137Y182763D01*
X355416Y182281D01*
X354934Y181560D01*
X354764Y180709D01*
Y180028D01*
X357768D01*
Y182932D01*
D02*
G37*
G36*
X768217Y188396D02*
Y177665D01*
X778766D01*
X778654Y179095D01*
X778248Y180784D01*
X777583Y182389D01*
X776675Y183871D01*
X775547Y185192D01*
X774225Y186321D01*
X772744Y187229D01*
X771138Y187894D01*
X769449Y188299D01*
X768217Y188396D01*
D02*
G37*
G36*
X767217D02*
X765984Y188299D01*
X764295Y187894D01*
X762689Y187229D01*
X761208Y186321D01*
X759886Y185192D01*
X758758Y183871D01*
X757850Y182389D01*
X757185Y180784D01*
X756779Y179095D01*
X756667Y177665D01*
X767217D01*
Y188396D01*
D02*
G37*
G36*
X433571D02*
Y177665D01*
X444121D01*
X444008Y179095D01*
X443602Y180784D01*
X442937Y182389D01*
X442029Y183871D01*
X440901Y185192D01*
X439580Y186321D01*
X438098Y187229D01*
X436493Y187894D01*
X434803Y188299D01*
X433571Y188396D01*
D02*
G37*
G36*
X432571D02*
X431339Y188299D01*
X429649Y187894D01*
X428044Y187229D01*
X426562Y186321D01*
X425241Y185192D01*
X424112Y183871D01*
X423204Y182389D01*
X422539Y180784D01*
X422134Y179095D01*
X422021Y177665D01*
X432571D01*
Y188396D01*
D02*
G37*
G36*
X20185D02*
Y177665D01*
X30735D01*
X30622Y179095D01*
X30217Y180784D01*
X29552Y182389D01*
X28644Y183871D01*
X27515Y185192D01*
X26194Y186321D01*
X24712Y187229D01*
X23107Y187894D01*
X21417Y188299D01*
X20185Y188396D01*
D02*
G37*
G36*
X19185D02*
X17953Y188299D01*
X16263Y187894D01*
X14658Y187229D01*
X13176Y186321D01*
X11855Y185192D01*
X10726Y183871D01*
X9819Y182389D01*
X9154Y180784D01*
X8748Y179095D01*
X8635Y177665D01*
X19185D01*
Y188396D01*
D02*
G37*
G36*
X209858Y190370D02*
X203528D01*
Y184039D01*
X206280D01*
Y182677D01*
X204921D01*
Y177559D01*
X209646D01*
Y182677D01*
X208287D01*
Y184039D01*
X209858D01*
Y190370D01*
D02*
G37*
G36*
X59071Y179618D02*
X56209D01*
Y176953D01*
X59071D01*
Y179618D01*
D02*
G37*
G36*
X55209D02*
X52346D01*
Y176953D01*
X55209D01*
Y179618D01*
D02*
G37*
G36*
X130799Y179618D02*
X127937D01*
Y176953D01*
X130799D01*
Y179618D01*
D02*
G37*
G36*
X251984Y179347D02*
X249122D01*
Y176681D01*
X251984D01*
Y179347D01*
D02*
G37*
G36*
X248122D02*
X245260D01*
Y176681D01*
X248122D01*
Y179347D01*
D02*
G37*
G36*
X381456Y179028D02*
X378453D01*
Y176123D01*
X379232D01*
X380083Y176292D01*
X380805Y176774D01*
X381287Y177495D01*
X381456Y178347D01*
Y179028D01*
D02*
G37*
G36*
X377453D02*
X374449D01*
Y178347D01*
X374619Y177495D01*
X375101Y176774D01*
X375822Y176292D01*
X376673Y176123D01*
X377453D01*
Y179028D01*
D02*
G37*
G36*
X361771D02*
X358768D01*
Y176123D01*
X359547D01*
X360398Y176292D01*
X361120Y176774D01*
X361602Y177495D01*
X361771Y178347D01*
Y179028D01*
D02*
G37*
G36*
X357768D02*
X354764D01*
Y178347D01*
X354934Y177495D01*
X355416Y176774D01*
X356137Y176292D01*
X356988Y176123D01*
X357768D01*
Y179028D01*
D02*
G37*
G36*
X147081Y189862D02*
X146329D01*
X145603Y189668D01*
X144952Y189292D01*
X144421Y188760D01*
X144045Y188110D01*
X143850Y187384D01*
Y186632D01*
X144045Y185906D01*
X144421Y185255D01*
X144952Y184724D01*
X145603Y184348D01*
X145701Y184322D01*
Y180979D01*
X139723Y175000D01*
X135846D01*
Y176356D01*
X136852Y177362D01*
X141339D01*
Y182874D01*
X139811D01*
Y184322D01*
X139909Y184348D01*
X140560Y184724D01*
X141091Y185255D01*
X141467Y185906D01*
X141661Y186632D01*
Y187384D01*
X141467Y188110D01*
X141091Y188760D01*
X140560Y189292D01*
X139909Y189668D01*
X139183Y189862D01*
X138431D01*
X137705Y189668D01*
X137055Y189292D01*
X136523Y188760D01*
X136147Y188110D01*
X135953Y187384D01*
Y186632D01*
X136147Y185906D01*
X136523Y185255D01*
X137055Y184724D01*
X137705Y184348D01*
X137803Y184322D01*
Y182874D01*
X135433D01*
Y178815D01*
X135119Y178560D01*
X134661Y178758D01*
Y179618D01*
X131799D01*
Y176953D01*
X133690D01*
X133839Y176772D01*
Y175409D01*
X131799D01*
Y172244D01*
Y169079D01*
X133957D01*
X134133Y168815D01*
X140271Y162676D01*
X140597Y162459D01*
X140981Y162382D01*
X142477D01*
X142809Y162051D01*
X143387Y161811D01*
X144014D01*
X144593Y162051D01*
X145036Y162494D01*
X145276Y163073D01*
Y163699D01*
X145036Y164278D01*
X144593Y164721D01*
X144014Y164961D01*
X143387D01*
X142809Y164721D01*
X142477Y164389D01*
X141397D01*
X136760Y169026D01*
X136951Y169488D01*
X141339D01*
Y173778D01*
X147414Y179853D01*
X147632Y180179D01*
X147708Y180563D01*
Y184322D01*
X147806Y184348D01*
X148457Y184724D01*
X148989Y185255D01*
X149364Y185906D01*
X149559Y186632D01*
Y187384D01*
X149364Y188110D01*
X148989Y188760D01*
X148457Y189292D01*
X147806Y189668D01*
X147081Y189862D01*
D02*
G37*
G36*
X224335Y176731D02*
X223709D01*
X223130Y176491D01*
X222687Y176048D01*
X222447Y175470D01*
Y174843D01*
X222687Y174264D01*
X223130Y173821D01*
X223709Y173582D01*
X224335D01*
X224914Y173821D01*
X225357Y174264D01*
X225597Y174843D01*
Y175470D01*
X225357Y176048D01*
X224914Y176491D01*
X224335Y176731D01*
D02*
G37*
G36*
X130799Y175409D02*
X127937D01*
Y172744D01*
X130799D01*
Y175409D01*
D02*
G37*
G36*
X174526Y172835D02*
X173899D01*
X173321Y172595D01*
X172878Y172152D01*
X172638Y171573D01*
Y170947D01*
X172878Y170368D01*
X173321Y169925D01*
X173899Y169685D01*
X174526D01*
X175105Y169925D01*
X175548Y170368D01*
X175787Y170947D01*
Y171573D01*
X175548Y172152D01*
X175105Y172595D01*
X174526Y172835D01*
D02*
G37*
G36*
X560987Y172263D02*
X560360D01*
X559781Y172023D01*
X559450Y171692D01*
X528956D01*
X528572Y171616D01*
X528246Y171398D01*
X455864Y99016D01*
X455395D01*
X454817Y98776D01*
X454374Y98333D01*
X454134Y97754D01*
Y97128D01*
X454374Y96549D01*
X454817Y96106D01*
X455395Y95866D01*
X456022D01*
X456601Y96106D01*
X457044Y96549D01*
X457283Y97128D01*
Y97597D01*
X529372Y169685D01*
X559450D01*
X559781Y169353D01*
X560360Y169114D01*
X560987D01*
X561565Y169353D01*
X562008Y169796D01*
X562248Y170375D01*
Y171002D01*
X562008Y171580D01*
X561565Y172023D01*
X560987Y172263D01*
D02*
G37*
G36*
X130799Y171744D02*
X127937D01*
Y169079D01*
X130799D01*
Y171744D01*
D02*
G37*
G36*
X778766Y176665D02*
X768217D01*
Y165934D01*
X769449Y166031D01*
X771138Y166437D01*
X772744Y167102D01*
X774225Y168010D01*
X775547Y169138D01*
X776675Y170460D01*
X777583Y171941D01*
X778248Y173547D01*
X778654Y175236D01*
X778766Y176665D01*
D02*
G37*
G36*
X767217D02*
X756667D01*
X756779Y175236D01*
X757185Y173547D01*
X757850Y171941D01*
X758758Y170460D01*
X759886Y169138D01*
X761208Y168010D01*
X762689Y167102D01*
X764295Y166437D01*
X765984Y166031D01*
X767217Y165934D01*
Y176665D01*
D02*
G37*
G36*
X444121D02*
X433571D01*
Y165934D01*
X434803Y166031D01*
X436493Y166437D01*
X438098Y167102D01*
X439580Y168010D01*
X440901Y169138D01*
X442029Y170460D01*
X442937Y171941D01*
X443602Y173547D01*
X444008Y175236D01*
X444121Y176665D01*
D02*
G37*
G36*
X432571D02*
X422021D01*
X422134Y175236D01*
X422539Y173547D01*
X423204Y171941D01*
X424112Y170460D01*
X425241Y169138D01*
X426562Y168010D01*
X428044Y167102D01*
X429649Y166437D01*
X431339Y166031D01*
X432571Y165934D01*
Y176665D01*
D02*
G37*
G36*
X30735D02*
X20185D01*
Y165934D01*
X21417Y166031D01*
X23107Y166437D01*
X24712Y167102D01*
X26194Y168010D01*
X27515Y169138D01*
X28644Y170460D01*
X29552Y171941D01*
X30217Y173547D01*
X30622Y175236D01*
X30735Y176665D01*
D02*
G37*
G36*
X19185D02*
X8635D01*
X8748Y175236D01*
X9154Y173547D01*
X9819Y171941D01*
X10726Y170460D01*
X11855Y169138D01*
X13176Y168010D01*
X14658Y167102D01*
X16263Y166437D01*
X17953Y166031D01*
X19185Y165934D01*
Y176665D01*
D02*
G37*
G36*
X66945Y169898D02*
X61524D01*
Y164870D01*
X66945D01*
Y169898D01*
D02*
G37*
G36*
X60524D02*
X55102D01*
Y164870D01*
X60524D01*
Y169898D01*
D02*
G37*
G36*
X362675Y168534D02*
X359294D01*
Y164639D01*
X358794Y164485D01*
X358571Y164707D01*
X357993Y164947D01*
X357366D01*
X356787Y164707D01*
X356344Y164264D01*
X356104Y163685D01*
Y163059D01*
X356344Y162480D01*
X356787Y162037D01*
X357366Y161797D01*
X357993D01*
X358571Y162037D01*
X358794Y162259D01*
X359294Y162105D01*
Y158353D01*
X362675D01*
Y168534D01*
D02*
G37*
G36*
X127901Y165997D02*
X127274D01*
X126695Y165757D01*
X126252Y165314D01*
X126013Y164736D01*
Y164109D01*
X126252Y163530D01*
X126695Y163087D01*
X127274Y162848D01*
X127901D01*
X128479Y163087D01*
X128922Y163530D01*
X129162Y164109D01*
Y164736D01*
X128922Y165314D01*
X128479Y165757D01*
X127901Y165997D01*
D02*
G37*
G36*
X51394Y190370D02*
X45063D01*
Y184039D01*
X47618D01*
Y182874D01*
X45669D01*
Y177362D01*
X47518D01*
Y171754D01*
X45252Y169488D01*
X35827D01*
Y159252D01*
X46850D01*
Y167964D01*
X49403Y170516D01*
X49642Y170874D01*
X49726Y171297D01*
Y177362D01*
X51575D01*
Y182874D01*
X49626D01*
Y184039D01*
X51394D01*
Y190370D01*
D02*
G37*
G36*
X66945Y163870D02*
X61524D01*
Y158843D01*
X66945D01*
Y163870D01*
D02*
G37*
G36*
X60524D02*
X55102D01*
Y158843D01*
X60524D01*
Y163870D01*
D02*
G37*
G36*
X392675Y168534D02*
X389294D01*
Y158353D01*
X392675D01*
Y168534D01*
D02*
G37*
G36*
X383623Y173483D02*
X340034D01*
X339650Y173407D01*
X339325Y173189D01*
X335311Y169176D01*
X334842D01*
X334263Y168936D01*
X333820Y168493D01*
X333581Y167914D01*
Y167287D01*
X333820Y166709D01*
X334263Y166266D01*
X334842Y166026D01*
X335469D01*
X336048Y166266D01*
X336491Y166709D01*
X336730Y167287D01*
Y167756D01*
X340450Y171476D01*
X344777D01*
X345042Y170976D01*
X344882Y170589D01*
Y169962D01*
X345122Y169384D01*
X345565Y168940D01*
X346143Y168701D01*
X346770D01*
X347349Y168940D01*
X347680Y169272D01*
X378932D01*
X379404Y168800D01*
X379294Y168534D01*
X379294D01*
Y158353D01*
X382675D01*
Y168534D01*
X381963D01*
Y168663D01*
X381887Y169047D01*
X381670Y169373D01*
X380066Y170976D01*
X380067Y171016D01*
X380223Y171476D01*
X383207D01*
X384981Y169702D01*
Y168534D01*
X384294D01*
Y158353D01*
X387675D01*
Y168534D01*
X386988D01*
Y170118D01*
X386911Y170502D01*
X386694Y170828D01*
X384332Y173189D01*
X384007Y173407D01*
X383623Y173483D01*
D02*
G37*
G36*
X377675Y168534D02*
X374294D01*
Y158353D01*
X377675D01*
Y168534D01*
D02*
G37*
G36*
X352676Y161024D02*
X352049D01*
X351470Y160784D01*
X351027Y160341D01*
X350787Y159762D01*
Y159136D01*
X351027Y158557D01*
X351470Y158114D01*
X352049Y157874D01*
X352676D01*
X353254Y158114D01*
X353697Y158557D01*
X353937Y159136D01*
Y159762D01*
X353697Y160341D01*
X353254Y160784D01*
X352676Y161024D01*
D02*
G37*
G36*
X252892Y159120D02*
X250030D01*
Y156455D01*
X252892D01*
Y159120D01*
D02*
G37*
G36*
X249030D02*
X246168D01*
Y156455D01*
X249030D01*
Y159120D01*
D02*
G37*
G36*
X372675Y168534D02*
X369294D01*
Y158353D01*
X369981D01*
Y156575D01*
X370057Y156191D01*
X370275Y155865D01*
X370998Y155141D01*
X370813Y154663D01*
X370424Y154617D01*
X367189Y157853D01*
X367396Y158353D01*
X367675D01*
Y168534D01*
X364294D01*
Y158353D01*
X364981D01*
Y157638D01*
X365057Y157254D01*
X365275Y156928D01*
X369369Y152834D01*
X369695Y152616D01*
X370053Y152545D01*
X370081Y152502D01*
X370131Y152036D01*
X369893Y151937D01*
X369450Y151495D01*
X369210Y150916D01*
Y150289D01*
X369450Y149710D01*
X369893Y149267D01*
X370059Y149198D01*
Y148734D01*
X369294D01*
Y138553D01*
X372675D01*
Y148734D01*
X372066D01*
Y149657D01*
X372120Y149710D01*
X372360Y150289D01*
Y150916D01*
X372120Y151495D01*
X371677Y151937D01*
X371430Y152040D01*
X371530Y152540D01*
X374584D01*
X375394Y151730D01*
Y151262D01*
X375633Y150683D01*
X376077Y150240D01*
X376655Y150000D01*
X377282D01*
X377861Y150240D01*
X378304Y150683D01*
X378543Y151262D01*
Y151888D01*
X378304Y152467D01*
X377861Y152910D01*
X377282Y153150D01*
X376813D01*
X375954Y154008D01*
X376161Y154508D01*
X388364D01*
X391142Y151730D01*
Y151262D01*
X391382Y150683D01*
X391825Y150240D01*
X392403Y150000D01*
X393030D01*
X393609Y150240D01*
X394052Y150683D01*
X394291Y151262D01*
Y151888D01*
X394052Y152467D01*
X393609Y152910D01*
X393030Y153150D01*
X392561D01*
X389489Y156221D01*
X389164Y156439D01*
X388779Y156515D01*
X372463D01*
X371988Y156991D01*
Y158353D01*
X372675D01*
Y168534D01*
D02*
G37*
G36*
X64056Y156534D02*
X63429D01*
X62850Y156295D01*
X62407Y155852D01*
X62168Y155273D01*
Y154646D01*
X62407Y154068D01*
X62850Y153624D01*
X63429Y153385D01*
X64056D01*
X64635Y153624D01*
X65078Y154068D01*
X65317Y154646D01*
Y155273D01*
X65078Y155852D01*
X64635Y156295D01*
X64056Y156534D01*
D02*
G37*
G36*
X274213Y157283D02*
X269094D01*
Y152559D01*
X274213D01*
Y153918D01*
X276403D01*
X276729Y153592D01*
X277308Y153352D01*
X277934D01*
X278513Y153592D01*
X278956Y154035D01*
X279196Y154614D01*
Y155240D01*
X278956Y155819D01*
X278513Y156262D01*
X277934Y156502D01*
X277308D01*
X276729Y156262D01*
X276392Y155925D01*
X274213D01*
Y157283D01*
D02*
G37*
G36*
X252892Y155455D02*
X250030D01*
Y152790D01*
X252892D01*
Y155455D01*
D02*
G37*
G36*
X249030D02*
X246168D01*
Y152790D01*
X249030D01*
Y155455D01*
D02*
G37*
G36*
X441659Y155100D02*
X441033D01*
X440454Y154860D01*
X440011Y154417D01*
X439771Y153838D01*
Y153212D01*
X440011Y152633D01*
X440454Y152190D01*
X441033Y151950D01*
X441659D01*
X442238Y152190D01*
X442681Y152633D01*
X442921Y153212D01*
Y153838D01*
X442681Y154417D01*
X442238Y154860D01*
X441659Y155100D01*
D02*
G37*
G36*
X71653Y151181D02*
X66929D01*
Y146063D01*
X71653D01*
Y147696D01*
X72188D01*
X72520Y147364D01*
X73098Y147125D01*
X73725D01*
X74304Y147364D01*
X74747Y147808D01*
X74986Y148386D01*
Y149013D01*
X74747Y149592D01*
X74304Y150035D01*
X73725Y150274D01*
X73098D01*
X72520Y150035D01*
X72188Y149703D01*
X71653D01*
Y151181D01*
D02*
G37*
G36*
X245396Y158711D02*
X239491D01*
Y153199D01*
X241319D01*
Y151378D01*
X238583D01*
Y146260D01*
X246063D01*
Y147618D01*
X246808D01*
X247139Y147287D01*
X247718Y147047D01*
X248345D01*
X248923Y147287D01*
X249367Y147730D01*
X249606Y148309D01*
Y148935D01*
X249367Y149514D01*
X248923Y149957D01*
X248345Y150197D01*
X247718D01*
X247139Y149957D01*
X246808Y149626D01*
X246063D01*
Y151378D01*
X243326D01*
Y153199D01*
X245396D01*
Y158711D01*
D02*
G37*
G36*
X53350Y153856D02*
X52724D01*
X52145Y153616D01*
X51702Y153173D01*
X51462Y152594D01*
Y151967D01*
X51677Y151448D01*
X51578Y151183D01*
X51435Y150948D01*
X51109D01*
Y143901D01*
X49650D01*
Y140201D01*
X51350D01*
Y143367D01*
X54359D01*
X54690Y143367D01*
X54859Y142937D01*
Y135910D01*
X55099D01*
Y133661D01*
X53543D01*
Y128937D01*
X58661D01*
Y133661D01*
X57106D01*
Y135910D01*
X58440D01*
Y143491D01*
X55190D01*
X54859Y143491D01*
X54690Y143921D01*
Y148603D01*
X60236D01*
Y146063D01*
X64961D01*
Y151181D01*
X60236D01*
Y150610D01*
X54690D01*
Y150948D01*
X54639D01*
X54497Y151183D01*
X54397Y151448D01*
X54612Y151967D01*
Y152594D01*
X54372Y153173D01*
X53929Y153616D01*
X53350Y153856D01*
D02*
G37*
G36*
X668995Y151533D02*
X662664D01*
Y145202D01*
X668995D01*
Y151533D01*
D02*
G37*
G36*
X658372D02*
X657538D01*
X656733Y151317D01*
X656011Y150900D01*
X655422Y150311D01*
X655006Y149589D01*
X654790Y148784D01*
Y147951D01*
X655006Y147145D01*
X655422Y146424D01*
X656011Y145834D01*
X656733Y145418D01*
X657538Y145202D01*
X658372D01*
X659177Y145418D01*
X659899Y145834D01*
X660488Y146424D01*
X660905Y147145D01*
X661121Y147951D01*
Y148784D01*
X660905Y149589D01*
X660488Y150311D01*
X659899Y150900D01*
X659177Y151317D01*
X658372Y151533D01*
D02*
G37*
G36*
X598128D02*
X591798D01*
Y145202D01*
X598128D01*
Y151533D01*
D02*
G37*
G36*
X587506D02*
X586672D01*
X585867Y151317D01*
X585145Y150900D01*
X584556Y150311D01*
X584139Y149589D01*
X583924Y148784D01*
Y147951D01*
X584139Y147145D01*
X584556Y146424D01*
X585145Y145834D01*
X585867Y145418D01*
X586672Y145202D01*
X587506D01*
X588311Y145418D01*
X589033Y145834D01*
X589622Y146424D01*
X590039Y147145D01*
X590254Y147951D01*
Y148784D01*
X590039Y149589D01*
X589622Y150311D01*
X589033Y150900D01*
X588311Y151317D01*
X587506Y151533D01*
D02*
G37*
G36*
X527262D02*
X520931D01*
Y145202D01*
X527262D01*
Y151533D01*
D02*
G37*
G36*
X516640D02*
X515806D01*
X515001Y151317D01*
X514279Y150900D01*
X513690Y150311D01*
X513273Y149589D01*
X513057Y148784D01*
Y147951D01*
X513273Y147145D01*
X513690Y146424D01*
X514279Y145834D01*
X515001Y145418D01*
X515806Y145202D01*
X516640D01*
X517445Y145418D01*
X518166Y145834D01*
X518756Y146424D01*
X519172Y147145D01*
X519388Y147951D01*
Y148784D01*
X519172Y149589D01*
X518756Y150311D01*
X518166Y150900D01*
X517445Y151317D01*
X516640Y151533D01*
D02*
G37*
G36*
X739807Y151524D02*
X733477D01*
Y145193D01*
X739807D01*
Y151524D01*
D02*
G37*
G36*
X729185D02*
X728351D01*
X727546Y151308D01*
X726824Y150891D01*
X726235Y150302D01*
X725818Y149580D01*
X725602Y148775D01*
Y147942D01*
X725818Y147136D01*
X726235Y146415D01*
X726824Y145825D01*
X727546Y145409D01*
X728351Y145193D01*
X729185D01*
X729990Y145409D01*
X730711Y145825D01*
X731301Y146415D01*
X731717Y147136D01*
X731933Y147942D01*
Y148775D01*
X731717Y149580D01*
X731301Y150302D01*
X730711Y150891D01*
X729990Y151308D01*
X729185Y151524D01*
D02*
G37*
G36*
X363084Y149143D02*
X361484D01*
Y144143D01*
X363084D01*
Y149143D01*
D02*
G37*
G36*
X360484D02*
X358884D01*
Y144143D01*
X360484D01*
Y149143D01*
D02*
G37*
G36*
X289583Y145685D02*
X287311D01*
Y143217D01*
X289583D01*
Y145685D01*
D02*
G37*
G36*
X286311D02*
X284039D01*
Y143217D01*
X286311D01*
Y145685D01*
D02*
G37*
G36*
X48650Y143901D02*
X46950D01*
Y140201D01*
X48650D01*
Y143901D01*
D02*
G37*
G36*
X280453Y148388D02*
X279827D01*
X279248Y148149D01*
X278805Y147706D01*
X278565Y147127D01*
Y146500D01*
X278805Y145922D01*
X278951Y145776D01*
X278744Y145276D01*
X277756D01*
Y140157D01*
X282480D01*
Y145276D01*
X281536D01*
X281329Y145776D01*
X281475Y145922D01*
X281715Y146500D01*
Y147127D01*
X281475Y147706D01*
X281032Y148149D01*
X280453Y148388D01*
D02*
G37*
G36*
X289583Y142217D02*
X287311D01*
Y139748D01*
X289583D01*
Y142217D01*
D02*
G37*
G36*
X286311D02*
X284039D01*
Y139748D01*
X286311D01*
Y142217D01*
D02*
G37*
G36*
X87402Y140354D02*
X81890D01*
Y138799D01*
X78979D01*
X78648Y139130D01*
X78069Y139370D01*
X77443D01*
X76864Y139130D01*
X76421Y138687D01*
X76181Y138109D01*
Y137482D01*
X76421Y136903D01*
X76864Y136460D01*
X77443Y136221D01*
X78069D01*
X78648Y136460D01*
X78979Y136792D01*
X81890D01*
Y134449D01*
X87402D01*
Y140354D01*
D02*
G37*
G36*
X387675Y148734D02*
X384294D01*
Y138553D01*
X387675D01*
Y148734D01*
D02*
G37*
G36*
X366455Y152165D02*
X365828D01*
X365250Y151926D01*
X364807Y151483D01*
X364567Y150904D01*
Y150277D01*
X364807Y149698D01*
X365138Y149367D01*
Y148734D01*
X364294D01*
Y138553D01*
X367675D01*
Y148734D01*
X367145D01*
Y149367D01*
X367477Y149698D01*
X367717Y150277D01*
Y150904D01*
X367477Y151483D01*
X367034Y151926D01*
X366455Y152165D01*
D02*
G37*
G36*
X382675Y148734D02*
X379294D01*
Y138553D01*
X382675D01*
Y148734D01*
D02*
G37*
G36*
X363084Y143143D02*
X361484D01*
Y138143D01*
X363084D01*
Y143143D01*
D02*
G37*
G36*
X360484D02*
X358884D01*
Y138143D01*
X360484D01*
Y143143D01*
D02*
G37*
G36*
X335943Y149213D02*
X335317D01*
X334738Y148973D01*
X334295Y148530D01*
X334055Y147951D01*
Y147482D01*
X311592Y125019D01*
X303654D01*
X303587Y125492D01*
X304166Y125731D01*
X304609Y126174D01*
X304849Y126753D01*
Y127380D01*
X304609Y127959D01*
X304166Y128402D01*
X303587Y128641D01*
X302960D01*
X302382Y128402D01*
X302098Y128118D01*
X252969D01*
Y130757D01*
X249607D01*
X246244D01*
Y128118D01*
X245755D01*
X245473Y128501D01*
X245473Y128618D01*
Y134013D01*
X243523D01*
Y136024D01*
X246063D01*
Y137776D01*
X246808D01*
X247139Y137444D01*
X247718Y137205D01*
X248345D01*
X248923Y137444D01*
X249367Y137888D01*
X249606Y138466D01*
Y139093D01*
X249367Y139672D01*
X248923Y140115D01*
X248345Y140354D01*
X247718D01*
X247139Y140115D01*
X246808Y139783D01*
X246063D01*
Y141142D01*
X238583D01*
Y136024D01*
X241516D01*
Y134013D01*
X239567D01*
Y128618D01*
X239567Y128501D01*
X239285Y128118D01*
X211793D01*
X201058Y138853D01*
X201100Y138955D01*
Y139582D01*
X200861Y140160D01*
X200418Y140603D01*
X199839Y140843D01*
X199212D01*
X198634Y140603D01*
X198191Y140160D01*
X197951Y139582D01*
Y138955D01*
X198191Y138376D01*
X198634Y137933D01*
X199212Y137693D01*
X199379D01*
X210668Y126405D01*
X210993Y126187D01*
X211378Y126111D01*
X302002D01*
X302382Y125731D01*
X302960Y125492D01*
X302894Y125019D01*
X209859D01*
X196058Y138821D01*
X196111Y138948D01*
Y139575D01*
X195871Y140153D01*
X195428Y140596D01*
X194850Y140836D01*
X194223D01*
X193644Y140596D01*
X193201Y140153D01*
X192961Y139575D01*
Y138948D01*
X193201Y138369D01*
X193644Y137926D01*
X194223Y137687D01*
X194369D01*
X194401Y137639D01*
X208734Y123306D01*
X209060Y123089D01*
X209444Y123012D01*
X312008D01*
X312392Y123089D01*
X312718Y123306D01*
X335474Y146063D01*
X335943D01*
X336522Y146303D01*
X336965Y146746D01*
X337205Y147325D01*
Y147951D01*
X336965Y148530D01*
X336522Y148973D01*
X335943Y149213D01*
D02*
G37*
G36*
X223228Y150197D02*
X212205D01*
Y137205D01*
X223228D01*
Y150197D01*
D02*
G37*
G36*
X68227Y140354D02*
X67600D01*
X67021Y140115D01*
X66578Y139672D01*
X66339Y139093D01*
Y138466D01*
X66578Y137888D01*
X67021Y137444D01*
X67600Y137205D01*
X68227D01*
X68805Y137444D01*
X69248Y137888D01*
X69488Y138466D01*
Y139093D01*
X69248Y139672D01*
X68805Y140115D01*
X68227Y140354D01*
D02*
G37*
G36*
X93972Y143256D02*
X93345D01*
X92767Y143016D01*
X92324Y142573D01*
X92084Y141994D01*
Y141368D01*
X92296Y140854D01*
X92189Y140575D01*
X92051Y140354D01*
X90748D01*
Y134449D01*
X96260D01*
Y136855D01*
X98772D01*
Y134906D01*
X105953D01*
Y136731D01*
X106421Y136970D01*
X107000Y136731D01*
X107626D01*
X108205Y136970D01*
X108648Y137413D01*
X108888Y137992D01*
Y138619D01*
X108648Y139197D01*
X108205Y139640D01*
X107626Y139880D01*
X107000D01*
X106421Y139640D01*
X105953Y139880D01*
Y140811D01*
X98772D01*
Y138862D01*
X96260D01*
Y140354D01*
X95266D01*
X95128Y140575D01*
X95021Y140854D01*
X95234Y141368D01*
Y141994D01*
X94994Y142573D01*
X94551Y143016D01*
X93972Y143256D01*
D02*
G37*
G36*
X377675Y148734D02*
X374294D01*
Y138553D01*
X374981D01*
Y138500D01*
X375057Y138116D01*
X375167Y137952D01*
X375106Y137806D01*
Y137180D01*
X375346Y136601D01*
X375601Y136346D01*
X375394Y135846D01*
X356946D01*
X356547Y136246D01*
X355968Y136485D01*
X355341D01*
X354763Y136246D01*
X354320Y135802D01*
X354080Y135224D01*
Y134597D01*
X354320Y134018D01*
X354763Y133575D01*
X355341Y133336D01*
X355968D01*
X356547Y133575D01*
X356810Y133839D01*
X372819D01*
Y131012D01*
X375984D01*
X379150D01*
Y133839D01*
X399606D01*
X399990Y133915D01*
X400316Y134133D01*
X402491Y136308D01*
X402743Y136216D01*
X402953Y136063D01*
Y135513D01*
X403193Y134935D01*
X403524Y134603D01*
Y130337D01*
X393285Y120098D01*
X379043D01*
X378740Y120472D01*
X378740Y120598D01*
Y126378D01*
X373228D01*
Y124626D01*
X370669D01*
Y125984D01*
X365551D01*
Y121260D01*
X370669D01*
Y122618D01*
X373228D01*
Y120598D01*
X373228Y120472D01*
X372925Y120098D01*
X341775D01*
X341443Y120430D01*
X340864Y120669D01*
X340238D01*
X339659Y120430D01*
X339216Y119986D01*
X338976Y119408D01*
Y118781D01*
X339216Y118202D01*
X339659Y117759D01*
X340238Y117520D01*
X340864D01*
X341443Y117759D01*
X341775Y118091D01*
X393701D01*
X394085Y118167D01*
X394410Y118385D01*
X405237Y129212D01*
X405455Y129537D01*
X405531Y129921D01*
Y134603D01*
X405863Y134935D01*
X406102Y135513D01*
Y136140D01*
X405863Y136719D01*
X405420Y137162D01*
X405144Y137276D01*
X405243Y137776D01*
X415748D01*
Y137482D01*
X415988Y136903D01*
X416431Y136460D01*
X417010Y136221D01*
X417636D01*
X418215Y136460D01*
X418658Y136903D01*
X418898Y137482D01*
Y138109D01*
X418658Y138687D01*
X418215Y139130D01*
X417636Y139370D01*
X417100D01*
X416981Y139489D01*
X416655Y139707D01*
X416271Y139783D01*
X403543D01*
X403159Y139707D01*
X402834Y139489D01*
X399191Y135846D01*
X394563D01*
X394229Y136346D01*
X394291Y136498D01*
Y137124D01*
X394052Y137703D01*
X393609Y138146D01*
X393094Y138359D01*
X393022Y138393D01*
X392675Y138684D01*
X392675Y138886D01*
Y148734D01*
X389294D01*
Y138553D01*
X391578D01*
X391616Y138490D01*
X391731Y138053D01*
X391382Y137703D01*
X391142Y137124D01*
Y136498D01*
X391205Y136346D01*
X390870Y135846D01*
X377969D01*
X377762Y136346D01*
X378016Y136601D01*
X378256Y137180D01*
Y137806D01*
X378016Y138385D01*
X377675Y138726D01*
Y148734D01*
D02*
G37*
G36*
X51350Y139201D02*
X49650D01*
Y135501D01*
X51350D01*
Y139201D01*
D02*
G37*
G36*
X48650D02*
X46950D01*
Y135501D01*
X48650D01*
Y139201D01*
D02*
G37*
G36*
X335943Y154134D02*
X335317D01*
X334738Y153894D01*
X334295Y153451D01*
X334055Y152872D01*
Y152403D01*
X316513Y134862D01*
X289102D01*
X289002Y135362D01*
X289278Y135476D01*
X289721Y135919D01*
X289961Y136498D01*
Y137124D01*
X289721Y137703D01*
X289278Y138146D01*
X288699Y138386D01*
X288073D01*
X287494Y138146D01*
X287162Y137815D01*
X276991D01*
X272657Y142148D01*
Y145866D01*
X274213D01*
Y150591D01*
X269094D01*
Y145866D01*
X270650D01*
Y141732D01*
X270726Y141348D01*
X270944Y141023D01*
X275865Y136101D01*
X276191Y135884D01*
X276575Y135808D01*
X287162D01*
X287494Y135476D01*
X287769Y135362D01*
X287670Y134862D01*
X260082D01*
X259750Y135193D01*
X259172Y135433D01*
X258545D01*
X257966Y135193D01*
X257523Y134750D01*
X257283Y134171D01*
Y133545D01*
X257523Y132966D01*
X257966Y132523D01*
X258545Y132283D01*
X259172D01*
X259750Y132523D01*
X260082Y132855D01*
X316929D01*
X317313Y132931D01*
X317639Y133149D01*
X335474Y150984D01*
X335943D01*
X336522Y151224D01*
X336965Y151667D01*
X337205Y152246D01*
Y152872D01*
X336965Y153451D01*
X336522Y153894D01*
X335943Y154134D01*
D02*
G37*
G36*
X437220Y134858D02*
X434555D01*
Y131996D01*
X437220D01*
Y134858D01*
D02*
G37*
G36*
X433555D02*
X430890D01*
Y131996D01*
X433555D01*
Y134858D01*
D02*
G37*
G36*
X52181Y134071D02*
X49713D01*
Y131799D01*
X52181D01*
Y134071D01*
D02*
G37*
G36*
X48713D02*
X46244D01*
Y131799D01*
X48713D01*
Y134071D01*
D02*
G37*
G36*
X252969Y134423D02*
X250107D01*
Y131757D01*
X252969D01*
Y134423D01*
D02*
G37*
G36*
X249107D02*
X246244D01*
Y131757D01*
X249107D01*
Y134423D01*
D02*
G37*
G36*
X96669Y133677D02*
X94004D01*
Y130815D01*
X96669D01*
Y133677D01*
D02*
G37*
G36*
X93004D02*
X90339D01*
Y130815D01*
X93004D01*
Y133677D01*
D02*
G37*
G36*
X87811D02*
X85146D01*
Y130815D01*
X87811D01*
Y133677D01*
D02*
G37*
G36*
X84146D02*
X81480D01*
Y130815D01*
X84146D01*
Y133677D01*
D02*
G37*
G36*
X181342Y133615D02*
X180716D01*
X180137Y133375D01*
X179694Y132932D01*
X179454Y132354D01*
Y131727D01*
X179694Y131148D01*
X180137Y130705D01*
X180716Y130465D01*
X181342D01*
X181921Y130705D01*
X182364Y131148D01*
X182604Y131727D01*
Y132354D01*
X182364Y132932D01*
X181921Y133375D01*
X181342Y133615D01*
D02*
G37*
G36*
X464583Y133087D02*
X461720D01*
Y130421D01*
X464583D01*
Y133087D01*
D02*
G37*
G36*
X460720D02*
X457858D01*
Y130421D01*
X460720D01*
Y133087D01*
D02*
G37*
G36*
X106362Y133221D02*
X102862D01*
Y130358D01*
X106362D01*
Y133221D01*
D02*
G37*
G36*
X101862D02*
X98362D01*
Y130358D01*
X101862D01*
Y133221D01*
D02*
G37*
G36*
X52181Y130799D02*
X49713D01*
Y128528D01*
X52181D01*
Y130799D01*
D02*
G37*
G36*
X48713D02*
X46244D01*
Y128528D01*
X48713D01*
Y130799D01*
D02*
G37*
G36*
X78069Y131496D02*
X77443D01*
X76864Y131256D01*
X76421Y130813D01*
X76181Y130235D01*
Y129608D01*
X76421Y129029D01*
X76864Y128586D01*
X77443Y128347D01*
X78069D01*
X78648Y128586D01*
X79091Y129029D01*
X79331Y129608D01*
Y130235D01*
X79091Y130813D01*
X78648Y131256D01*
X78069Y131496D01*
D02*
G37*
G36*
X437220Y130996D02*
X434555D01*
Y128134D01*
X437220D01*
Y130996D01*
D02*
G37*
G36*
X433555D02*
X430890D01*
Y128134D01*
X433555D01*
Y130996D01*
D02*
G37*
G36*
X362795Y132677D02*
X357677D01*
Y131318D01*
X356787D01*
X356403Y131242D01*
X356077Y131025D01*
X355732Y130680D01*
X355263D01*
X354684Y130440D01*
X354241Y129997D01*
X354001Y129418D01*
Y128791D01*
X354241Y128213D01*
X354684Y127770D01*
X355263Y127530D01*
X355890D01*
X356468Y127770D01*
X356911Y128213D01*
X357151Y128791D01*
X357177Y128815D01*
X357677Y128596D01*
Y127953D01*
X362795D01*
Y129311D01*
X365551D01*
Y127953D01*
X370669D01*
Y132677D01*
X365551D01*
Y131318D01*
X362795D01*
Y132677D01*
D02*
G37*
G36*
X457087Y132677D02*
X451181D01*
Y127165D01*
X457087D01*
Y132677D01*
D02*
G37*
G36*
X379150Y130012D02*
X376484D01*
Y127150D01*
X379150D01*
Y130012D01*
D02*
G37*
G36*
X375484D02*
X372819D01*
Y127150D01*
X375484D01*
Y130012D01*
D02*
G37*
G36*
X96669Y129815D02*
X94004D01*
Y126953D01*
X96669D01*
Y129815D01*
D02*
G37*
G36*
X93004D02*
X90339D01*
Y126953D01*
X93004D01*
Y129815D01*
D02*
G37*
G36*
X87811D02*
X85146D01*
Y126953D01*
X87811D01*
Y129815D01*
D02*
G37*
G36*
X84146D02*
X81480D01*
Y126953D01*
X84146D01*
Y129815D01*
D02*
G37*
G36*
X36086Y132956D02*
X35273D01*
X34487Y132745D01*
X33782Y132338D01*
X33206Y131763D01*
X32800Y131058D01*
X32589Y130272D01*
Y129458D01*
X32800Y128672D01*
X33206Y127967D01*
X33782Y127392D01*
X34487Y126985D01*
X35273Y126774D01*
X36086D01*
X36873Y126985D01*
X37577Y127392D01*
X38153Y127967D01*
X38560Y128672D01*
X38770Y129458D01*
Y130272D01*
X38560Y131058D01*
X38153Y131763D01*
X37577Y132338D01*
X36873Y132745D01*
X36086Y132956D01*
D02*
G37*
G36*
X14433D02*
X13619D01*
X12833Y132745D01*
X12128Y132338D01*
X11553Y131763D01*
X11146Y131058D01*
X10936Y130272D01*
Y129458D01*
X11146Y128672D01*
X11553Y127967D01*
X12128Y127392D01*
X12833Y126985D01*
X13619Y126774D01*
X14433D01*
X15219Y126985D01*
X15924Y127392D01*
X16499Y127967D01*
X16906Y128672D01*
X17117Y129458D01*
Y130272D01*
X16906Y131058D01*
X16499Y131763D01*
X15924Y132338D01*
X15219Y132745D01*
X14433Y132956D01*
D02*
G37*
G36*
X464583Y129421D02*
X461720D01*
Y126756D01*
X464583D01*
Y129421D01*
D02*
G37*
G36*
X460720D02*
X457858D01*
Y126756D01*
X460720D01*
Y129421D01*
D02*
G37*
G36*
X106362Y129358D02*
X102862D01*
Y126496D01*
X106362D01*
Y129358D01*
D02*
G37*
G36*
X101862D02*
X98362D01*
Y126496D01*
X101862D01*
Y129358D01*
D02*
G37*
G36*
X363205Y126394D02*
X360736D01*
Y124122D01*
X363205D01*
Y126394D01*
D02*
G37*
G36*
X359736D02*
X357268D01*
Y124122D01*
X359736D01*
Y126394D01*
D02*
G37*
G36*
X204740Y125213D02*
X201878D01*
Y122547D01*
X204740D01*
Y125213D01*
D02*
G37*
G36*
X200878D02*
X198016D01*
Y122547D01*
X200878D01*
Y125213D01*
D02*
G37*
G36*
X363205Y123122D02*
X360736D01*
Y120850D01*
X363205D01*
Y123122D01*
D02*
G37*
G36*
X359736D02*
X357268D01*
Y120850D01*
X359736D01*
Y123122D01*
D02*
G37*
G36*
X464583Y123244D02*
X461720D01*
Y120579D01*
X464583D01*
Y123244D01*
D02*
G37*
G36*
X460720D02*
X457858D01*
Y120579D01*
X460720D01*
Y123244D01*
D02*
G37*
G36*
X51772Y126969D02*
X46654D01*
Y122244D01*
X51772D01*
Y123451D01*
X53543D01*
Y122244D01*
X54403D01*
X54680Y121744D01*
X54528Y121376D01*
Y120750D01*
X54767Y120171D01*
X55210Y119728D01*
X55789Y119488D01*
X56416D01*
X56994Y119728D01*
X57437Y120171D01*
X57677Y120750D01*
Y121376D01*
X57525Y121744D01*
X57802Y122244D01*
X58661D01*
Y126969D01*
X53543D01*
Y125458D01*
X51772D01*
Y126969D01*
D02*
G37*
G36*
X204740Y121547D02*
X201878D01*
Y118882D01*
X204740D01*
Y121547D01*
D02*
G37*
G36*
X200878D02*
X198016D01*
Y118882D01*
X200878D01*
Y121547D01*
D02*
G37*
G36*
X436811Y127362D02*
X431299D01*
Y121457D01*
X432499D01*
X432720Y120971D01*
X432480Y120392D01*
Y119765D01*
X432720Y119187D01*
X433163Y118744D01*
X433742Y118504D01*
X434368D01*
X434947Y118744D01*
X435390Y119187D01*
X435630Y119765D01*
Y120392D01*
X435390Y120971D01*
X435611Y121457D01*
X436811D01*
Y127362D01*
D02*
G37*
G36*
X457087Y122835D02*
X451181D01*
Y117323D01*
X457087D01*
Y122835D01*
D02*
G37*
G36*
X36627Y123169D02*
X35814D01*
X35028Y122959D01*
X34323Y122552D01*
X33747Y121976D01*
X33340Y121272D01*
X33130Y120486D01*
Y119672D01*
X33340Y118886D01*
X33747Y118181D01*
X34323Y117606D01*
X35028Y117199D01*
X35814Y116988D01*
X36627D01*
X37413Y117199D01*
X38118Y117606D01*
X38693Y118181D01*
X39100Y118886D01*
X39311Y119672D01*
Y120486D01*
X39100Y121272D01*
X38693Y121976D01*
X38118Y122552D01*
X37413Y122959D01*
X36627Y123169D01*
D02*
G37*
G36*
X14186D02*
X13373D01*
X12587Y122959D01*
X11882Y122552D01*
X11306Y121976D01*
X10900Y121272D01*
X10689Y120486D01*
Y119672D01*
X10900Y118886D01*
X11306Y118181D01*
X11882Y117606D01*
X12587Y117199D01*
X13373Y116988D01*
X14186D01*
X14972Y117199D01*
X15677Y117606D01*
X16253Y118181D01*
X16659Y118886D01*
X16870Y119672D01*
Y120486D01*
X16659Y121272D01*
X16253Y121976D01*
X15677Y122552D01*
X14972Y122959D01*
X14186Y123169D01*
D02*
G37*
G36*
X464583Y119579D02*
X461720D01*
Y116913D01*
X464583D01*
Y119579D01*
D02*
G37*
G36*
X460720D02*
X457858D01*
Y116913D01*
X460720D01*
Y119579D01*
D02*
G37*
G36*
X204165Y117480D02*
X199205D01*
Y110866D01*
X204165D01*
Y113170D01*
X205469D01*
X205801Y112838D01*
X206380Y112598D01*
X207006D01*
X207585Y112838D01*
X208028Y113281D01*
X208268Y113860D01*
Y114487D01*
X208028Y115065D01*
X207585Y115508D01*
X207006Y115748D01*
X206380D01*
X205801Y115508D01*
X205469Y115177D01*
X204165D01*
Y117480D01*
D02*
G37*
G36*
X16061Y115748D02*
X15435D01*
X14856Y115508D01*
X14413Y115065D01*
X14173Y114487D01*
Y113860D01*
X14413Y113281D01*
X14856Y112838D01*
X15435Y112598D01*
X16061D01*
X16640Y112838D01*
X17083Y113281D01*
X17323Y113860D01*
Y114487D01*
X17083Y115065D01*
X16640Y115508D01*
X16061Y115748D01*
D02*
G37*
G36*
X10156D02*
X9529D01*
X8951Y115508D01*
X8507Y115065D01*
X8268Y114487D01*
Y113860D01*
X8507Y113281D01*
X8951Y112838D01*
X9529Y112598D01*
X10156D01*
X10735Y112838D01*
X11178Y113281D01*
X11417Y113860D01*
Y114487D01*
X11178Y115065D01*
X10735Y115508D01*
X10156Y115748D01*
D02*
G37*
G36*
X771920Y115670D02*
X771293D01*
X770715Y115430D01*
X770271Y114987D01*
X770032Y114408D01*
Y113782D01*
X770271Y113203D01*
X770715Y112760D01*
X771293Y112520D01*
X771920D01*
X772499Y112760D01*
X772942Y113203D01*
X773181Y113782D01*
Y114408D01*
X772942Y114987D01*
X772499Y115430D01*
X771920Y115670D01*
D02*
G37*
G36*
X192886Y128488D02*
X192260D01*
X191681Y128248D01*
X191238Y127805D01*
X190998Y127226D01*
Y126600D01*
X191238Y126021D01*
X191569Y125690D01*
Y124803D01*
X191339D01*
Y119291D01*
X192981D01*
Y117480D01*
X191504D01*
Y110866D01*
X196465D01*
Y117480D01*
X194988D01*
Y119291D01*
X197244D01*
Y124803D01*
X193576D01*
Y125690D01*
X193908Y126021D01*
X194148Y126600D01*
Y127226D01*
X193908Y127805D01*
X193465Y128248D01*
X192886Y128488D01*
D02*
G37*
G36*
X27872Y113779D02*
X27246D01*
X26667Y113540D01*
X26224Y113097D01*
X25984Y112518D01*
Y111891D01*
X26224Y111313D01*
X26667Y110870D01*
X27246Y110630D01*
X27872D01*
X28451Y110870D01*
X28894Y111313D01*
X29134Y111891D01*
Y112518D01*
X28894Y113097D01*
X28451Y113540D01*
X27872Y113779D01*
D02*
G37*
G36*
X37715Y113779D02*
X37088D01*
X36509Y113540D01*
X36066Y113097D01*
X35827Y112518D01*
Y111891D01*
X36066Y111313D01*
X36509Y110870D01*
X37088Y110630D01*
X37715D01*
X38294Y110870D01*
X38737Y111313D01*
X38976Y111891D01*
Y112518D01*
X38737Y113097D01*
X38294Y113540D01*
X37715Y113779D01*
D02*
G37*
G36*
X335812Y143913D02*
X335186D01*
X334607Y143673D01*
X334164Y143230D01*
X333924Y142652D01*
Y142183D01*
X313808Y122066D01*
X219488D01*
X219104Y121990D01*
X218779Y121773D01*
X207261Y110256D01*
X189392D01*
X182677Y116970D01*
Y117439D01*
X182437Y118018D01*
X181994Y118461D01*
X181416Y118701D01*
X180789D01*
X180210Y118461D01*
X179767Y118018D01*
X179528Y117439D01*
Y116813D01*
X179767Y116234D01*
X180210Y115791D01*
X180789Y115551D01*
X181258D01*
X188267Y108542D01*
X188592Y108325D01*
X188976Y108248D01*
X207677D01*
X208061Y108325D01*
X208387Y108542D01*
X219904Y120060D01*
X314224D01*
X314608Y120136D01*
X314933Y120353D01*
X335343Y140764D01*
X335812D01*
X336391Y141003D01*
X336834Y141446D01*
X337074Y142025D01*
Y142652D01*
X336834Y143230D01*
X336391Y143673D01*
X335812Y143913D01*
D02*
G37*
G36*
X417636Y111811D02*
X417010D01*
X416431Y111571D01*
X415988Y111128D01*
X415748Y110549D01*
Y109923D01*
X415988Y109344D01*
X416431Y108901D01*
X417010Y108661D01*
X417636D01*
X418215Y108901D01*
X418658Y109344D01*
X418898Y109923D01*
Y110549D01*
X418658Y111128D01*
X418215Y111571D01*
X417636Y111811D01*
D02*
G37*
G36*
X304346Y108283D02*
X302075D01*
Y105815D01*
X304346D01*
Y108283D01*
D02*
G37*
G36*
X301075D02*
X298803D01*
Y105815D01*
X301075D01*
Y108283D01*
D02*
G37*
G36*
X10027Y111922D02*
X9213D01*
X8427Y111711D01*
X7722Y111304D01*
X7147Y110729D01*
X6740Y110024D01*
X6530Y109238D01*
Y108424D01*
X6740Y107638D01*
X7147Y106933D01*
X7722Y106358D01*
X8427Y105951D01*
X9213Y105741D01*
X10027D01*
X10813Y105951D01*
X11518Y106358D01*
X12093Y106933D01*
X12500Y107638D01*
X12711Y108424D01*
Y109238D01*
X12500Y110024D01*
X12093Y110729D01*
X11518Y111304D01*
X10813Y111711D01*
X10027Y111922D01*
D02*
G37*
G36*
X295300Y112434D02*
X294673D01*
X294094Y112194D01*
X293651Y111751D01*
X293411Y111172D01*
Y110546D01*
X293651Y109967D01*
X293983Y109635D01*
Y107874D01*
X292520D01*
Y102756D01*
X297244D01*
Y107874D01*
X295990D01*
Y109635D01*
X296321Y109967D01*
X296561Y110546D01*
Y111172D01*
X296321Y111751D01*
X295878Y112194D01*
X295300Y112434D01*
D02*
G37*
G36*
X304346Y104815D02*
X302075D01*
Y102347D01*
X304346D01*
Y104815D01*
D02*
G37*
G36*
X301075D02*
X298803D01*
Y102347D01*
X301075D01*
Y104815D01*
D02*
G37*
G36*
X561177Y104518D02*
X560551D01*
X559972Y104278D01*
X559529Y103835D01*
X559289Y103256D01*
Y102787D01*
X553934Y97432D01*
X495658D01*
X495327Y97764D01*
X494748Y98003D01*
X494122D01*
X493543Y97764D01*
X493100Y97321D01*
X492860Y96742D01*
Y96115D01*
X493100Y95537D01*
X493543Y95094D01*
X494122Y94854D01*
X494748D01*
X495327Y95094D01*
X495658Y95425D01*
X554350D01*
X554734Y95501D01*
X555059Y95719D01*
X560709Y101368D01*
X561177D01*
X561756Y101608D01*
X562199Y102051D01*
X562439Y102630D01*
Y103256D01*
X562199Y103835D01*
X561756Y104278D01*
X561177Y104518D01*
D02*
G37*
G36*
X220786Y100000D02*
X220159D01*
X219580Y99760D01*
X219137Y99317D01*
X218898Y98738D01*
Y98112D01*
X219137Y97533D01*
X219580Y97090D01*
X220159Y96850D01*
X220786D01*
X221364Y97090D01*
X221808Y97533D01*
X222047Y98112D01*
Y98738D01*
X221808Y99317D01*
X221364Y99760D01*
X220786Y100000D01*
D02*
G37*
G36*
X214880D02*
X214254D01*
X213675Y99760D01*
X213232Y99317D01*
X212992Y98738D01*
Y98112D01*
X213232Y97533D01*
X213675Y97090D01*
X214254Y96850D01*
X214880D01*
X215459Y97090D01*
X215902Y97533D01*
X216142Y98112D01*
Y98738D01*
X215902Y99317D01*
X215459Y99760D01*
X214880Y100000D01*
D02*
G37*
G36*
X170609Y98513D02*
X169983D01*
X169404Y98273D01*
X168961Y97830D01*
X168721Y97251D01*
Y96624D01*
X168961Y96046D01*
X169404Y95603D01*
X169983Y95363D01*
X170609D01*
X171188Y95603D01*
X171631Y96046D01*
X171871Y96624D01*
Y97251D01*
X171631Y97830D01*
X171188Y98273D01*
X170609Y98513D01*
D02*
G37*
G36*
X631117Y172204D02*
X630490D01*
X629911Y171964D01*
X629468Y171521D01*
X629229Y170942D01*
Y170473D01*
X592053Y133298D01*
X504341D01*
X503957Y133221D01*
X503632Y133003D01*
X464151Y93523D01*
X456932D01*
X456601Y93855D01*
X456022Y94095D01*
X455395D01*
X454817Y93855D01*
X454374Y93412D01*
X454134Y92833D01*
Y92206D01*
X454374Y91628D01*
X454817Y91185D01*
X455395Y90945D01*
X456022D01*
X456601Y91185D01*
X456932Y91516D01*
X464567D01*
X464951Y91593D01*
X465276Y91810D01*
X504757Y131290D01*
X592468D01*
X592852Y131367D01*
X593178Y131584D01*
X630648Y169054D01*
X631117D01*
X631696Y169294D01*
X632138Y169737D01*
X632378Y170316D01*
Y170942D01*
X632138Y171521D01*
X631696Y171964D01*
X631117Y172204D01*
D02*
G37*
G36*
X90535Y95598D02*
X89908D01*
X89329Y95358D01*
X88886Y94915D01*
X88647Y94336D01*
Y93710D01*
X88886Y93131D01*
X89329Y92688D01*
X89908Y92448D01*
X90535D01*
X91114Y92688D01*
X91557Y93131D01*
X91796Y93710D01*
Y94336D01*
X91557Y94915D01*
X91114Y95358D01*
X90535Y95598D01*
D02*
G37*
G36*
X194211Y94095D02*
X193584D01*
X193006Y93855D01*
X192563Y93412D01*
X192323Y92833D01*
Y92206D01*
X192563Y91628D01*
X193006Y91185D01*
X193584Y90945D01*
X194211D01*
X194790Y91185D01*
X195233Y91628D01*
X195473Y92206D01*
Y92833D01*
X195233Y93412D01*
X194790Y93855D01*
X194211Y94095D01*
D02*
G37*
G36*
X306536Y93969D02*
X305910D01*
X305331Y93729D01*
X304888Y93286D01*
X304648Y92707D01*
Y92081D01*
X304888Y91502D01*
X305331Y91059D01*
X305910Y90819D01*
X306536D01*
X307115Y91059D01*
X307558Y91502D01*
X307798Y92081D01*
Y92707D01*
X307558Y93286D01*
X307115Y93729D01*
X306536Y93969D01*
D02*
G37*
G36*
X106878Y93610D02*
X106251D01*
X105672Y93371D01*
X105229Y92928D01*
X104990Y92349D01*
Y91722D01*
X105229Y91144D01*
X105672Y90701D01*
X106251Y90461D01*
X106878D01*
X107456Y90701D01*
X107899Y91144D01*
X108139Y91722D01*
Y92349D01*
X107899Y92928D01*
X107456Y93371D01*
X106878Y93610D01*
D02*
G37*
G36*
X155527Y92732D02*
X152665D01*
Y90067D01*
X155527D01*
Y92732D01*
D02*
G37*
G36*
X151665D02*
X148803D01*
Y90067D01*
X151665D01*
Y92732D01*
D02*
G37*
G36*
X129637Y92941D02*
X129010D01*
X128431Y92702D01*
X127989Y92259D01*
X127749Y91680D01*
Y91053D01*
X127989Y90474D01*
X128431Y90031D01*
X129010Y89792D01*
X129637D01*
X130216Y90031D01*
X130659Y90474D01*
X130898Y91053D01*
Y91680D01*
X130659Y92259D01*
X130216Y92702D01*
X129637Y92941D01*
D02*
G37*
G36*
X10249Y101516D02*
X9436D01*
X8650Y101305D01*
X7945Y100898D01*
X7369Y100323D01*
X6963Y99618D01*
X6752Y98832D01*
Y98018D01*
X6963Y97232D01*
X7369Y96527D01*
X7945Y95952D01*
X8650Y95545D01*
X9057Y95436D01*
Y94918D01*
X8650Y94809D01*
X7945Y94402D01*
X7369Y93827D01*
X6963Y93122D01*
X6752Y92336D01*
Y91522D01*
X6963Y90736D01*
X7369Y90031D01*
X7945Y89456D01*
X8650Y89049D01*
X9436Y88839D01*
X10249D01*
X11035Y89049D01*
X11740Y89456D01*
X12316Y90031D01*
X12722Y90736D01*
X12933Y91522D01*
Y92336D01*
X12722Y93122D01*
X12316Y93827D01*
X11740Y94402D01*
X11035Y94809D01*
X10628Y94918D01*
Y95436D01*
X11035Y95545D01*
X11740Y95952D01*
X12316Y96527D01*
X12722Y97232D01*
X12933Y98018D01*
Y98832D01*
X12722Y99618D01*
X12316Y100323D01*
X11740Y100898D01*
X11035Y101305D01*
X10249Y101516D01*
D02*
G37*
G36*
X93817Y91142D02*
X93191D01*
X92612Y90902D01*
X92169Y90459D01*
X91929Y89880D01*
Y89254D01*
X92169Y88675D01*
X92612Y88232D01*
X93191Y87992D01*
X93817D01*
X94396Y88232D01*
X94839Y88675D01*
X95079Y89254D01*
Y89880D01*
X94839Y90459D01*
X94396Y90902D01*
X93817Y91142D01*
D02*
G37*
G36*
X702502Y172442D02*
X701876D01*
X701297Y172202D01*
X700854Y171759D01*
X700614Y171180D01*
Y170712D01*
X665629Y135726D01*
X665411Y135401D01*
X665335Y135017D01*
Y114589D01*
X638364Y87618D01*
X500239D01*
X499908Y87949D01*
X499632Y88063D01*
X499732Y88563D01*
X618641D01*
X619025Y88640D01*
X619350Y88857D01*
X631616Y101124D01*
X632085D01*
X632664Y101363D01*
X633107Y101806D01*
X633347Y102385D01*
Y103012D01*
X633107Y103591D01*
X632664Y104033D01*
X632085Y104273D01*
X631459D01*
X630880Y104033D01*
X630437Y103591D01*
X630197Y103012D01*
Y102543D01*
X618225Y90570D01*
X495318D01*
X494986Y90902D01*
X494408Y91142D01*
X493781D01*
X493202Y90902D01*
X492759Y90459D01*
X492520Y89880D01*
Y89254D01*
X492759Y88675D01*
X493202Y88232D01*
X493781Y87992D01*
X494408D01*
X494986Y88232D01*
X495318Y88563D01*
X498300D01*
X498399Y88063D01*
X498124Y87949D01*
X497681Y87506D01*
X497441Y86927D01*
Y86301D01*
X497681Y85722D01*
X498124Y85279D01*
X498702Y85039D01*
X499329D01*
X499908Y85279D01*
X500239Y85611D01*
X638779D01*
X639164Y85687D01*
X639489Y85905D01*
X667048Y113464D01*
X667266Y113789D01*
X667342Y114173D01*
Y134601D01*
X702034Y169292D01*
X702502D01*
X703081Y169532D01*
X703524Y169975D01*
X703764Y170554D01*
Y171180D01*
X703524Y171759D01*
X703081Y172202D01*
X702502Y172442D01*
D02*
G37*
G36*
X155527Y89067D02*
X152665D01*
Y86402D01*
X155527D01*
Y89067D01*
D02*
G37*
G36*
X151665D02*
X148803D01*
Y86402D01*
X151665D01*
Y89067D01*
D02*
G37*
G36*
X81354Y92516D02*
X80541D01*
X79755Y92305D01*
X79050Y91898D01*
X78474Y91323D01*
X78068Y90618D01*
X77857Y89832D01*
Y89018D01*
X78068Y88232D01*
X78474Y87528D01*
X79050Y86952D01*
X79755Y86545D01*
X80541Y86335D01*
X81354D01*
X82140Y86545D01*
X82845Y86952D01*
X83421Y87528D01*
X83828Y88232D01*
X84038Y89018D01*
Y89832D01*
X83828Y90618D01*
X83421Y91323D01*
X82845Y91898D01*
X82140Y92305D01*
X81354Y92516D01*
D02*
G37*
G36*
X138109Y89173D02*
X137482D01*
X136903Y88933D01*
X136460Y88490D01*
X136221Y87912D01*
Y87285D01*
X136460Y86706D01*
X136903Y86263D01*
X137482Y86024D01*
X138109D01*
X138687Y86263D01*
X139130Y86706D01*
X139370Y87285D01*
Y87912D01*
X139130Y88490D01*
X138687Y88933D01*
X138109Y89173D01*
D02*
G37*
G36*
X148031Y92323D02*
X142126D01*
Y86811D01*
X142986D01*
X143263Y86311D01*
X143110Y85943D01*
Y85317D01*
X143350Y84738D01*
X143793Y84295D01*
X144372Y84055D01*
X144998D01*
X145577Y84295D01*
X146020Y84738D01*
X146260Y85317D01*
Y85943D01*
X146107Y86311D01*
X146384Y86811D01*
X148031D01*
Y92323D01*
D02*
G37*
G36*
X134657Y85214D02*
X134030D01*
X133452Y84974D01*
X133009Y84531D01*
X132769Y83952D01*
Y83325D01*
X132790Y83274D01*
X132366Y82991D01*
X132273Y83084D01*
X131694Y83324D01*
X131068D01*
X130489Y83084D01*
X130046Y82641D01*
X129806Y82062D01*
Y81436D01*
X130046Y80857D01*
X130206Y80697D01*
X129999Y80197D01*
X126906D01*
Y77335D01*
X130905D01*
X134906D01*
Y80197D01*
X132763D01*
X132556Y80697D01*
X132716Y80857D01*
X132956Y81436D01*
Y82062D01*
X132934Y82114D01*
X133358Y82397D01*
X133452Y82304D01*
X134030Y82064D01*
X134657D01*
X135236Y82304D01*
X135679Y82747D01*
X135918Y83325D01*
Y83952D01*
X135679Y84531D01*
X135236Y84974D01*
X134657Y85214D01*
D02*
G37*
G36*
X208359Y85026D02*
X207732D01*
X207153Y84786D01*
X206710Y84343D01*
X206470Y83764D01*
Y83138D01*
X206710Y82559D01*
X207153Y82116D01*
X207732Y81876D01*
X208359D01*
X208937Y82116D01*
X209380Y82559D01*
X209620Y83138D01*
Y83764D01*
X209380Y84343D01*
X208937Y84786D01*
X208359Y85026D01*
D02*
G37*
G36*
X153756Y82693D02*
X151091D01*
Y79831D01*
X153756D01*
Y82693D01*
D02*
G37*
G36*
X150091D02*
X147425D01*
Y79831D01*
X150091D01*
Y82693D01*
D02*
G37*
G36*
X187321Y82284D02*
X186695D01*
X186116Y82044D01*
X185673Y81601D01*
X185433Y81022D01*
Y80395D01*
X185673Y79817D01*
X186116Y79374D01*
X186695Y79134D01*
X187321D01*
X187900Y79374D01*
X188343Y79817D01*
X188583Y80395D01*
Y81022D01*
X188343Y81601D01*
X187900Y82044D01*
X187321Y82284D01*
D02*
G37*
G36*
X430431Y89173D02*
X429805D01*
X429226Y88933D01*
X428783Y88490D01*
X428543Y87912D01*
Y87285D01*
X428783Y86706D01*
X429226Y86263D01*
X429805Y86024D01*
X430274D01*
X438022Y78275D01*
X437815Y77775D01*
X436439D01*
X431693Y82522D01*
Y82990D01*
X431453Y83569D01*
X431010Y84012D01*
X430431Y84252D01*
X429805D01*
X429226Y84012D01*
X428783Y83569D01*
X428543Y82990D01*
Y82364D01*
X428783Y81785D01*
X429226Y81342D01*
X429805Y81102D01*
X430274D01*
X435314Y76062D01*
X435640Y75845D01*
X436024Y75768D01*
X468088D01*
X472835Y71022D01*
Y70553D01*
X473074Y69974D01*
X473517Y69531D01*
X474096Y69291D01*
X474723D01*
X475302Y69531D01*
X475744Y69974D01*
X475984Y70553D01*
Y71179D01*
X475744Y71758D01*
X475302Y72201D01*
X474723Y72441D01*
X474257D01*
X473945Y72813D01*
X474020Y73019D01*
X474173Y73228D01*
X474723D01*
X475302Y73468D01*
X475744Y73911D01*
X475984Y74490D01*
Y75116D01*
X475744Y75695D01*
X475302Y76138D01*
X475150Y76201D01*
X475111Y76397D01*
X474893Y76723D01*
X472166Y79450D01*
X471841Y79667D01*
X471457Y79744D01*
X439392D01*
X431693Y87443D01*
Y87912D01*
X431453Y88490D01*
X431010Y88933D01*
X430431Y89173D01*
D02*
G37*
G36*
X739807Y83763D02*
X733477D01*
Y77433D01*
X739807D01*
Y83763D01*
D02*
G37*
G36*
X729185D02*
X728351D01*
X727546Y83548D01*
X726824Y83131D01*
X726235Y82542D01*
X725818Y81820D01*
X725602Y81015D01*
Y80181D01*
X725818Y79376D01*
X726235Y78654D01*
X726824Y78065D01*
X727546Y77648D01*
X728351Y77433D01*
X729185D01*
X729990Y77648D01*
X730712Y78065D01*
X731301Y78654D01*
X731717Y79376D01*
X731933Y80181D01*
Y81015D01*
X731717Y81820D01*
X731301Y82542D01*
X730712Y83131D01*
X729990Y83548D01*
X729185Y83763D01*
D02*
G37*
G36*
X668995D02*
X662664D01*
Y77433D01*
X668995D01*
Y83763D01*
D02*
G37*
G36*
X658372D02*
X657538D01*
X656733Y83548D01*
X656011Y83131D01*
X655422Y82542D01*
X655006Y81820D01*
X654790Y81015D01*
Y80181D01*
X655006Y79376D01*
X655422Y78654D01*
X656011Y78065D01*
X656733Y77648D01*
X657538Y77433D01*
X658372D01*
X659177Y77648D01*
X659899Y78065D01*
X660488Y78654D01*
X660905Y79376D01*
X661120Y80181D01*
Y81015D01*
X660905Y81820D01*
X660488Y82542D01*
X659899Y83131D01*
X659177Y83548D01*
X658372Y83763D01*
D02*
G37*
G36*
X598128Y83763D02*
X591798D01*
Y77433D01*
X598128D01*
Y83763D01*
D02*
G37*
G36*
X587506D02*
X586672D01*
X585867Y83548D01*
X585145Y83131D01*
X584556Y82542D01*
X584139Y81820D01*
X583924Y81015D01*
Y80181D01*
X584139Y79376D01*
X584556Y78654D01*
X585145Y78065D01*
X585867Y77648D01*
X586672Y77433D01*
X587506D01*
X588311Y77648D01*
X589033Y78065D01*
X589622Y78654D01*
X590039Y79376D01*
X590254Y80181D01*
Y81015D01*
X590039Y81820D01*
X589622Y82542D01*
X589033Y83131D01*
X588311Y83548D01*
X587506Y83763D01*
D02*
G37*
G36*
X527262D02*
X520931D01*
Y77433D01*
X527262D01*
Y83763D01*
D02*
G37*
G36*
X516640D02*
X515806D01*
X515001Y83548D01*
X514279Y83131D01*
X513690Y82542D01*
X513273Y81820D01*
X513058Y81015D01*
Y80181D01*
X513273Y79376D01*
X513690Y78654D01*
X514279Y78065D01*
X515001Y77648D01*
X515806Y77433D01*
X516640D01*
X517445Y77648D01*
X518166Y78065D01*
X518756Y78654D01*
X519172Y79376D01*
X519388Y80181D01*
Y81015D01*
X519172Y81820D01*
X518756Y82542D01*
X518166Y83131D01*
X517445Y83548D01*
X516640Y83763D01*
D02*
G37*
G36*
X771936Y80168D02*
X771309D01*
X770730Y79929D01*
X770288Y79486D01*
X770048Y78907D01*
Y78280D01*
X770288Y77702D01*
X770730Y77259D01*
X771309Y77019D01*
X771936D01*
X772515Y77259D01*
X772958Y77702D01*
X773197Y78280D01*
Y78907D01*
X772958Y79486D01*
X772515Y79929D01*
X771936Y80168D01*
D02*
G37*
G36*
X125213Y79740D02*
X122547D01*
Y76878D01*
X125213D01*
Y79740D01*
D02*
G37*
G36*
X121547D02*
X118882D01*
Y76878D01*
X121547D01*
Y79740D01*
D02*
G37*
G36*
X150091Y78831D02*
X147425D01*
Y75968D01*
X150091D01*
Y78831D01*
D02*
G37*
G36*
X292574Y76909D02*
X291948D01*
X291369Y76669D01*
X290926Y76226D01*
X290686Y75647D01*
Y75021D01*
X290926Y74442D01*
X291369Y73999D01*
X291948Y73759D01*
X292574D01*
X293153Y73999D01*
X293596Y74442D01*
X293836Y75021D01*
Y75647D01*
X293596Y76226D01*
X293153Y76669D01*
X292574Y76909D01*
D02*
G37*
G36*
X134906Y76335D02*
X131405D01*
Y73472D01*
X134906D01*
Y76335D01*
D02*
G37*
G36*
X130405D02*
X126906D01*
Y73472D01*
X130405D01*
Y76335D01*
D02*
G37*
G36*
X125213Y75878D02*
X122547D01*
Y73016D01*
X125213D01*
Y75878D01*
D02*
G37*
G36*
X121547D02*
X118882D01*
Y73016D01*
X121547D01*
Y75878D01*
D02*
G37*
G36*
X702440Y104678D02*
X701813D01*
X701234Y104438D01*
X700792Y103996D01*
X700552Y103417D01*
Y102948D01*
X670458Y72854D01*
X509274D01*
X500591Y81537D01*
Y82006D01*
X500351Y82585D01*
X499908Y83028D01*
X499329Y83268D01*
X498702D01*
X498124Y83028D01*
X497681Y82585D01*
X497441Y82006D01*
Y81380D01*
X497681Y80801D01*
X498124Y80358D01*
X498702Y80118D01*
X499171D01*
X508149Y71141D01*
X508474Y70923D01*
X508858Y70847D01*
X670873D01*
X671258Y70923D01*
X671583Y71141D01*
X701971Y101529D01*
X702440D01*
X703019Y101768D01*
X703462Y102211D01*
X703701Y102790D01*
Y103417D01*
X703462Y103996D01*
X703019Y104438D01*
X702440Y104678D01*
D02*
G37*
G36*
X460646Y73047D02*
X457783D01*
Y70382D01*
X460646D01*
Y73047D01*
D02*
G37*
G36*
X456783D02*
X453921D01*
Y70382D01*
X456783D01*
Y73047D01*
D02*
G37*
G36*
X296862Y70507D02*
X296236D01*
X295657Y70267D01*
X295214Y69824D01*
X294974Y69245D01*
Y68619D01*
X295214Y68040D01*
X295657Y67597D01*
X296236Y67357D01*
X296862D01*
X297441Y67597D01*
X297884Y68040D01*
X298124Y68619D01*
Y69245D01*
X297884Y69824D01*
X297441Y70267D01*
X296862Y70507D01*
D02*
G37*
G36*
X69211Y70472D02*
X68584D01*
X68006Y70233D01*
X67563Y69790D01*
X67323Y69211D01*
Y68584D01*
X67563Y68006D01*
X68006Y67563D01*
X68584Y67323D01*
X69211D01*
X69790Y67563D01*
X70233Y68006D01*
X70472Y68584D01*
Y69211D01*
X70233Y69790D01*
X69790Y70233D01*
X69211Y70472D01*
D02*
G37*
G36*
X453150Y72638D02*
X447244D01*
Y70885D01*
X444882D01*
X444498Y70809D01*
X444173Y70591D01*
X443223Y69642D01*
X442754D01*
X442175Y69402D01*
X441732Y68959D01*
X441493Y68380D01*
Y67753D01*
X441732Y67175D01*
X442175Y66732D01*
X442754Y66492D01*
X443381D01*
X443959Y66732D01*
X444402Y67175D01*
X444642Y67753D01*
Y68222D01*
X445298Y68878D01*
X447244D01*
Y67126D01*
X453150D01*
Y72638D01*
D02*
G37*
G36*
X460646Y69382D02*
X457783D01*
Y66716D01*
X460646D01*
Y69382D01*
D02*
G37*
G36*
X456783D02*
X453921D01*
Y66716D01*
X456783D01*
Y69382D01*
D02*
G37*
G36*
X153756Y78831D02*
X151091D01*
Y75968D01*
X152925D01*
X153150Y75470D01*
X152954Y75216D01*
X152362D01*
X152265Y75197D01*
X147835D01*
Y69291D01*
X152725D01*
X152834Y69171D01*
X153007Y68791D01*
X152821Y68341D01*
Y67715D01*
X153061Y67136D01*
X153504Y66693D01*
X154083Y66453D01*
X154709D01*
X155288Y66693D01*
X155731Y67136D01*
X155971Y67715D01*
Y68341D01*
X155731Y68920D01*
X155288Y69363D01*
X154709Y69603D01*
X154083D01*
X153847Y69505D01*
X153347Y69839D01*
Y73209D01*
X153518D01*
X153902Y73286D01*
X154228Y73503D01*
X155175Y74450D01*
X155644D01*
X156223Y74690D01*
X156666Y75133D01*
X156905Y75712D01*
Y76338D01*
X156666Y76917D01*
X156223Y77360D01*
X155644Y77600D01*
X155017D01*
X154439Y77360D01*
X154256Y77178D01*
X153756Y77385D01*
Y78831D01*
D02*
G37*
G36*
X267045Y100984D02*
X266419D01*
X265840Y100744D01*
X265397Y100302D01*
X265158Y99723D01*
Y99254D01*
X260230Y94327D01*
X260013Y94001D01*
X259936Y93617D01*
Y68351D01*
X259605Y68019D01*
X259365Y67441D01*
Y66814D01*
X259605Y66235D01*
X260048Y65792D01*
X260627Y65553D01*
X261253D01*
X261832Y65792D01*
X262275Y66235D01*
X262515Y66814D01*
Y67441D01*
X262275Y68019D01*
X261944Y68351D01*
Y93202D01*
X266577Y97835D01*
X267045D01*
X267624Y98074D01*
X268067Y98517D01*
X268307Y99096D01*
Y99723D01*
X268067Y100302D01*
X267624Y100744D01*
X267045Y100984D01*
D02*
G37*
G36*
X10218Y69811D02*
X9467D01*
X8741Y69617D01*
X8090Y69241D01*
X7559Y68709D01*
X7183Y68058D01*
X6988Y67333D01*
Y66581D01*
X7183Y65855D01*
X7559Y65204D01*
X8090Y64673D01*
X8741Y64297D01*
X9467Y64102D01*
X10218D01*
X10944Y64297D01*
X11595Y64673D01*
X12127Y65204D01*
X12502Y65855D01*
X12697Y66581D01*
Y67333D01*
X12502Y68058D01*
X12127Y68709D01*
X11595Y69241D01*
X10944Y69617D01*
X10218Y69811D01*
D02*
G37*
G36*
X440650Y66475D02*
X440024D01*
X439445Y66235D01*
X439002Y65792D01*
X438762Y65213D01*
Y64587D01*
X439002Y64008D01*
X439445Y63565D01*
X440024Y63325D01*
X440650D01*
X441229Y63565D01*
X441672Y64008D01*
X441912Y64587D01*
Y65213D01*
X441672Y65792D01*
X441229Y66235D01*
X440650Y66475D01*
D02*
G37*
G36*
X134496Y71787D02*
X127315D01*
Y65882D01*
X128747D01*
Y65238D01*
X128416Y64906D01*
X128176Y64328D01*
Y63701D01*
X128416Y63122D01*
X128859Y62679D01*
X129437Y62440D01*
X130064D01*
X130643Y62679D01*
X130942Y62979D01*
X131366Y63009D01*
X131549Y62935D01*
X131911Y62574D01*
X132490Y62334D01*
X133116D01*
X133695Y62574D01*
X134138Y63016D01*
X134378Y63595D01*
Y64222D01*
X134138Y64801D01*
X133695Y65244D01*
X133361Y65382D01*
X133461Y65882D01*
X134496D01*
Y71787D01*
D02*
G37*
G36*
X149526Y64967D02*
X148900D01*
X148321Y64727D01*
X147878Y64284D01*
X147638Y63706D01*
Y63079D01*
X147878Y62500D01*
X148321Y62057D01*
X148900Y61818D01*
X149526D01*
X150105Y62057D01*
X150548Y62500D01*
X150788Y63079D01*
Y63706D01*
X150548Y64284D01*
X150105Y64727D01*
X149526Y64967D01*
D02*
G37*
G36*
X283778Y68504D02*
X283151D01*
X282573Y68264D01*
X282130Y67821D01*
X281890Y67242D01*
Y66616D01*
X282130Y66037D01*
X282361Y65806D01*
Y63583D01*
X280709D01*
Y61734D01*
X278197D01*
Y64039D01*
X271016D01*
Y58134D01*
X278197D01*
Y59526D01*
X280709D01*
Y57677D01*
X286221D01*
Y63583D01*
X284568D01*
Y65806D01*
X284800Y66037D01*
X285039Y66616D01*
Y67242D01*
X284800Y67821D01*
X284357Y68264D01*
X283778Y68504D01*
D02*
G37*
G36*
X204053Y64567D02*
X203427D01*
X202848Y64327D01*
X202405Y63884D01*
X202165Y63305D01*
Y62679D01*
X202405Y62100D01*
X202848Y61657D01*
X203427Y61417D01*
X204053D01*
X204632Y61657D01*
X205075Y62100D01*
X205315Y62679D01*
Y63305D01*
X205075Y63884D01*
X204632Y64327D01*
X204053Y64567D01*
D02*
G37*
G36*
X74132D02*
X73506D01*
X72927Y64327D01*
X72484Y63884D01*
X72244Y63305D01*
Y62679D01*
X72484Y62100D01*
X72927Y61657D01*
X73506Y61417D01*
X74132D01*
X74711Y61657D01*
X75154Y62100D01*
X75394Y62679D01*
Y63305D01*
X75154Y63884D01*
X74711Y64327D01*
X74132Y64567D01*
D02*
G37*
G36*
X69211D02*
X68584D01*
X68006Y64327D01*
X67563Y63884D01*
X67323Y63305D01*
Y62679D01*
X67563Y62100D01*
X68006Y61657D01*
X68584Y61417D01*
X69211D01*
X69790Y61657D01*
X70233Y62100D01*
X70473Y62679D01*
Y63305D01*
X70233Y63884D01*
X69790Y64327D01*
X69211Y64567D01*
D02*
G37*
G36*
X209494Y64455D02*
X208867D01*
X208288Y64215D01*
X207845Y63772D01*
X207606Y63193D01*
Y62567D01*
X207845Y61988D01*
X208288Y61545D01*
X208867Y61305D01*
X209494D01*
X210072Y61545D01*
X210515Y61988D01*
X210755Y62567D01*
Y63193D01*
X210515Y63772D01*
X210072Y64215D01*
X209494Y64455D01*
D02*
G37*
G36*
X297142Y60227D02*
X296509D01*
X295925Y59985D01*
X295575Y59635D01*
X295276Y59577D01*
X294976Y59635D01*
X294627Y59985D01*
X294042Y60227D01*
X293409D01*
X292825Y59985D01*
X292377Y59538D01*
X292135Y58953D01*
Y58320D01*
X292377Y57736D01*
X292727Y57386D01*
X292785Y57087D01*
X292727Y56787D01*
X292377Y56438D01*
X292135Y55853D01*
Y55220D01*
X292377Y54636D01*
X292825Y54188D01*
X293409Y53946D01*
X294042D01*
X294627Y54188D01*
X294976Y54538D01*
X295276Y54596D01*
X295575Y54538D01*
X295925Y54188D01*
X296509Y53946D01*
X297142D01*
X297727Y54188D01*
X298174Y54636D01*
X298416Y55220D01*
Y55853D01*
X298174Y56438D01*
X297824Y56787D01*
X297766Y57087D01*
X297824Y57386D01*
X298174Y57736D01*
X298416Y58320D01*
Y58953D01*
X298174Y59538D01*
X297727Y59985D01*
X297142Y60227D01*
D02*
G37*
G36*
X152872Y62598D02*
X152246D01*
X151667Y62359D01*
X151224Y61916D01*
X150984Y61337D01*
Y60710D01*
X151224Y60132D01*
X151667Y59689D01*
X152246Y59449D01*
X152872D01*
X153451Y59689D01*
X153894Y60132D01*
X154134Y60710D01*
Y61337D01*
X153894Y61916D01*
X153451Y62359D01*
X152872Y62598D01*
D02*
G37*
G36*
X69211Y58661D02*
X68584D01*
X68006Y58422D01*
X67563Y57979D01*
X67323Y57400D01*
Y56773D01*
X67563Y56195D01*
X68006Y55752D01*
X68584Y55512D01*
X69211D01*
X69790Y55752D01*
X70233Y56195D01*
X70472Y56773D01*
Y57400D01*
X70233Y57979D01*
X69790Y58422D01*
X69211Y58661D01*
D02*
G37*
G36*
X204053Y58661D02*
X203427D01*
X202848Y58422D01*
X202405Y57979D01*
X202165Y57400D01*
Y56773D01*
X202405Y56195D01*
X202848Y55752D01*
X203427Y55512D01*
X204053D01*
X204632Y55752D01*
X205075Y56195D01*
X205315Y56773D01*
Y57400D01*
X205075Y57979D01*
X204632Y58422D01*
X204053Y58661D01*
D02*
G37*
G36*
X342833Y57677D02*
X342206D01*
X341628Y57437D01*
X341185Y56994D01*
X340945Y56416D01*
Y55789D01*
X341185Y55210D01*
X341628Y54767D01*
X342206Y54528D01*
X342833D01*
X343412Y54767D01*
X343855Y55210D01*
X344094Y55789D01*
Y56416D01*
X343855Y56994D01*
X343412Y57437D01*
X342833Y57677D01*
D02*
G37*
G36*
X286630Y56906D02*
X283965D01*
Y54043D01*
X286630D01*
Y56906D01*
D02*
G37*
G36*
X282965D02*
X280299D01*
Y54043D01*
X282965D01*
Y56906D01*
D02*
G37*
G36*
X278606Y56449D02*
X275106D01*
Y53587D01*
X278606D01*
Y56449D01*
D02*
G37*
G36*
X274106D02*
X270606D01*
Y53587D01*
X274106D01*
Y56449D01*
D02*
G37*
G36*
X124803Y72244D02*
X119291D01*
Y66339D01*
X121044D01*
Y63412D01*
X121120Y63028D01*
X121338Y62702D01*
X129595Y54445D01*
Y53976D01*
X129835Y53398D01*
X130278Y52955D01*
X130856Y52715D01*
X131483D01*
X132062Y52955D01*
X132505Y53398D01*
X132744Y53976D01*
Y54603D01*
X132505Y55182D01*
X132062Y55625D01*
X131483Y55864D01*
X131014D01*
X123051Y63828D01*
Y66339D01*
X124803D01*
Y72244D01*
D02*
G37*
G36*
X286630Y53043D02*
X283965D01*
Y50181D01*
X286630D01*
Y53043D01*
D02*
G37*
G36*
X282965D02*
X280299D01*
Y50181D01*
X282965D01*
Y53043D01*
D02*
G37*
G36*
X278606Y52587D02*
X275106D01*
Y49724D01*
X278606D01*
Y52587D01*
D02*
G37*
G36*
X274106D02*
X270606D01*
Y49724D01*
X274106D01*
Y52587D01*
D02*
G37*
G36*
X264093Y116732D02*
X263466D01*
X262888Y116492D01*
X262444Y116050D01*
X262205Y115471D01*
Y114844D01*
X262444Y114265D01*
X262776Y113934D01*
Y109668D01*
X201356Y48248D01*
X132129D01*
X131798Y48579D01*
X131219Y48819D01*
X130592D01*
X130014Y48579D01*
X129570Y48136D01*
X129331Y47557D01*
Y46931D01*
X129570Y46352D01*
X130014Y45909D01*
X130592Y45669D01*
X131219D01*
X131798Y45909D01*
X132129Y46241D01*
X201772D01*
X202156Y46317D01*
X202481Y46534D01*
X264489Y108542D01*
X264707Y108868D01*
X264783Y109252D01*
Y113934D01*
X265115Y114265D01*
X265354Y114844D01*
Y115471D01*
X265115Y116050D01*
X264672Y116492D01*
X264093Y116732D01*
D02*
G37*
G36*
X295094Y48441D02*
X292232D01*
Y45776D01*
X295094D01*
Y48441D01*
D02*
G37*
G36*
X291232D02*
X288370D01*
Y45776D01*
X291232D01*
Y48441D01*
D02*
G37*
G36*
X301772Y48031D02*
X295866D01*
Y42520D01*
X298172D01*
Y40008D01*
X296323D01*
Y32827D01*
X302228D01*
Y40008D01*
X300379D01*
Y42520D01*
X301772D01*
Y43022D01*
X302267Y43234D01*
X302846Y42994D01*
X303472D01*
X304051Y43234D01*
X304494Y43677D01*
X304733Y44256D01*
Y44882D01*
X304494Y45461D01*
X304051Y45904D01*
X303472Y46144D01*
X302846D01*
X302267Y45904D01*
X301772Y46116D01*
Y48031D01*
D02*
G37*
G36*
X295094Y44776D02*
X292232D01*
Y42110D01*
X295094D01*
Y44776D01*
D02*
G37*
G36*
X291232D02*
X288370D01*
Y42110D01*
X291232D01*
Y44776D01*
D02*
G37*
G36*
X9358Y41311D02*
Y39870D01*
X10799D01*
X10540Y40494D01*
X9982Y41052D01*
X9358Y41311D01*
D02*
G37*
G36*
X8358D02*
X7734Y41052D01*
X7176Y40494D01*
X6918Y39870D01*
X8358D01*
Y41311D01*
D02*
G37*
G36*
X499329Y78347D02*
X498702D01*
X498124Y78107D01*
X497681Y77664D01*
X497441Y77085D01*
Y76458D01*
X497681Y75880D01*
X498124Y75437D01*
X498702Y75197D01*
X499171D01*
X506180Y68188D01*
X506506Y67971D01*
X506890Y67894D01*
X644269D01*
X673793Y38371D01*
X674118Y38153D01*
X674503Y38077D01*
X700315D01*
X700646Y37745D01*
X701225Y37505D01*
X701852D01*
X702430Y37745D01*
X702873Y38188D01*
X703113Y38767D01*
Y39393D01*
X702873Y39972D01*
X702430Y40415D01*
X701852Y40655D01*
X701225D01*
X700646Y40415D01*
X700315Y40084D01*
X674918D01*
X645395Y69607D01*
X645069Y69825D01*
X644685Y69901D01*
X507305D01*
X500591Y76616D01*
Y77085D01*
X500351Y77664D01*
X499908Y78107D01*
X499329Y78347D01*
D02*
G37*
G36*
X10799Y38870D02*
X9358D01*
Y37429D01*
X9982Y37688D01*
X10540Y38246D01*
X10799Y38870D01*
D02*
G37*
G36*
X8358D02*
X6918D01*
X7176Y38246D01*
X7734Y37688D01*
X8358Y37429D01*
Y38870D01*
D02*
G37*
G36*
X456022Y89173D02*
X455395D01*
X454817Y88933D01*
X454374Y88490D01*
X454134Y87912D01*
Y87285D01*
X454374Y86706D01*
X454817Y86263D01*
X455395Y86024D01*
X456022D01*
X456601Y86263D01*
X456932Y86595D01*
X476946D01*
X525299Y38243D01*
X525624Y38025D01*
X526008Y37949D01*
X559883D01*
X560215Y37617D01*
X560794Y37378D01*
X561420D01*
X561999Y37617D01*
X562442Y38060D01*
X562682Y38639D01*
Y39266D01*
X562442Y39845D01*
X561999Y40288D01*
X561420Y40527D01*
X560794D01*
X560215Y40288D01*
X559883Y39956D01*
X526424D01*
X478072Y88308D01*
X477746Y88526D01*
X477362Y88602D01*
X456932D01*
X456601Y88933D01*
X456022Y89173D01*
D02*
G37*
G36*
Y84252D02*
X455395D01*
X454817Y84012D01*
X454374Y83569D01*
X454134Y82990D01*
Y82364D01*
X454374Y81785D01*
X454817Y81342D01*
X455395Y81102D01*
X456022D01*
X456601Y81342D01*
X456932Y81674D01*
X471041D01*
X489165Y63550D01*
Y40172D01*
X488833Y39840D01*
X488593Y39261D01*
Y38635D01*
X488833Y38056D01*
X489276Y37613D01*
X489855Y37373D01*
X490482D01*
X491060Y37613D01*
X491503Y38056D01*
X491743Y38635D01*
Y39261D01*
X491503Y39840D01*
X491172Y40172D01*
Y63966D01*
X491095Y64350D01*
X490878Y64675D01*
X472166Y83387D01*
X471841Y83604D01*
X471457Y83681D01*
X456932D01*
X456601Y84012D01*
X456022Y84252D01*
D02*
G37*
G36*
X499329Y73425D02*
X498702D01*
X498124Y73185D01*
X497681Y72742D01*
X497441Y72164D01*
Y71537D01*
X497681Y70958D01*
X498124Y70515D01*
X498702Y70276D01*
X499171D01*
X512086Y57361D01*
X512411Y57144D01*
X512795Y57067D01*
X612419D01*
X630445Y39041D01*
Y38572D01*
X630685Y37993D01*
X631128Y37550D01*
X631707Y37311D01*
X632333D01*
X632912Y37550D01*
X633355Y37993D01*
X633595Y38572D01*
Y39199D01*
X633355Y39777D01*
X632912Y40220D01*
X632333Y40460D01*
X631864D01*
X613544Y58780D01*
X613219Y58998D01*
X612835Y59074D01*
X513211D01*
X500591Y71695D01*
Y72164D01*
X500351Y72742D01*
X499908Y73185D01*
X499329Y73425D01*
D02*
G37*
G36*
X294638Y40417D02*
X291776D01*
Y36917D01*
X294638D01*
Y40417D01*
D02*
G37*
G36*
X290776D02*
X287913D01*
Y36917D01*
X290776D01*
Y40417D01*
D02*
G37*
G36*
X393030Y37008D02*
X392403D01*
X391825Y36768D01*
X391382Y36325D01*
X391142Y35746D01*
Y35120D01*
X391382Y34541D01*
X391825Y34098D01*
X392403Y33858D01*
X393030D01*
X393609Y34098D01*
X394052Y34541D01*
X394291Y35120D01*
Y35746D01*
X394052Y36325D01*
X393609Y36768D01*
X393030Y37008D01*
D02*
G37*
G36*
X294638Y35917D02*
X291776D01*
Y32417D01*
X294638D01*
Y35917D01*
D02*
G37*
G36*
X290776D02*
X287913D01*
Y32417D01*
X290776D01*
Y35917D01*
D02*
G37*
G36*
X768217Y30916D02*
Y20185D01*
X778766D01*
X778654Y21614D01*
X778248Y23304D01*
X777583Y24909D01*
X776675Y26391D01*
X775547Y27712D01*
X774225Y28841D01*
X772744Y29748D01*
X771138Y30413D01*
X769449Y30819D01*
X768217Y30916D01*
D02*
G37*
G36*
X767216D02*
X765984Y30819D01*
X764295Y30413D01*
X762689Y29748D01*
X761208Y28841D01*
X759886Y27712D01*
X758758Y26391D01*
X757850Y24909D01*
X757185Y23304D01*
X756779Y21614D01*
X756667Y20185D01*
X767216D01*
Y30916D01*
D02*
G37*
G36*
X433571D02*
Y20185D01*
X444121D01*
X444008Y21614D01*
X443602Y23304D01*
X442937Y24909D01*
X442029Y26391D01*
X440901Y27712D01*
X439580Y28841D01*
X438098Y29748D01*
X436493Y30413D01*
X434803Y30819D01*
X433571Y30916D01*
D02*
G37*
G36*
X432571D02*
X431339Y30819D01*
X429649Y30413D01*
X428044Y29748D01*
X426562Y28841D01*
X425241Y27712D01*
X424112Y26391D01*
X423204Y24909D01*
X422539Y23304D01*
X422134Y21614D01*
X422021Y20185D01*
X432571D01*
Y30916D01*
D02*
G37*
G36*
X20185D02*
Y20185D01*
X30735D01*
X30622Y21614D01*
X30217Y23304D01*
X29552Y24909D01*
X28644Y26391D01*
X27515Y27712D01*
X26194Y28841D01*
X24712Y29748D01*
X23107Y30413D01*
X21417Y30819D01*
X20185Y30916D01*
D02*
G37*
G36*
X19185D02*
X17953Y30819D01*
X16263Y30413D01*
X14658Y29748D01*
X13176Y28841D01*
X11855Y27712D01*
X10726Y26391D01*
X9819Y24909D01*
X9154Y23304D01*
X8748Y21614D01*
X8635Y20185D01*
X19185D01*
Y30916D01*
D02*
G37*
G36*
X739807Y19740D02*
X733477D01*
Y13409D01*
X739807D01*
Y19740D01*
D02*
G37*
G36*
X729185D02*
X728351D01*
X727546Y19524D01*
X726824Y19107D01*
X726235Y18518D01*
X725818Y17796D01*
X725602Y16991D01*
Y16158D01*
X725818Y15353D01*
X726235Y14631D01*
X726824Y14042D01*
X727546Y13625D01*
X728351Y13409D01*
X729185D01*
X729990Y13625D01*
X730711Y14042D01*
X731301Y14631D01*
X731717Y15353D01*
X731933Y16158D01*
Y16991D01*
X731717Y17796D01*
X731301Y18518D01*
X730711Y19107D01*
X729990Y19524D01*
X729185Y19740D01*
D02*
G37*
G36*
X668995D02*
X662664D01*
Y13409D01*
X668995D01*
Y19740D01*
D02*
G37*
G36*
X658372D02*
X657538D01*
X656733Y19524D01*
X656012Y19107D01*
X655422Y18518D01*
X655006Y17796D01*
X654790Y16991D01*
Y16158D01*
X655006Y15353D01*
X655422Y14631D01*
X656012Y14042D01*
X656733Y13625D01*
X657538Y13409D01*
X658372D01*
X659177Y13625D01*
X659899Y14042D01*
X660488Y14631D01*
X660905Y15353D01*
X661121Y16158D01*
Y16991D01*
X660905Y17796D01*
X660488Y18518D01*
X659899Y19107D01*
X659177Y19524D01*
X658372Y19740D01*
D02*
G37*
G36*
X598128D02*
X591798D01*
Y13409D01*
X598128D01*
Y19740D01*
D02*
G37*
G36*
X587506D02*
X586672D01*
X585867Y19524D01*
X585145Y19107D01*
X584556Y18518D01*
X584139Y17796D01*
X583924Y16991D01*
Y16158D01*
X584139Y15353D01*
X584556Y14631D01*
X585145Y14042D01*
X585867Y13625D01*
X586672Y13409D01*
X587506D01*
X588311Y13625D01*
X589033Y14042D01*
X589622Y14631D01*
X590039Y15353D01*
X590254Y16158D01*
Y16991D01*
X590039Y17796D01*
X589622Y18518D01*
X589033Y19107D01*
X588311Y19524D01*
X587506Y19740D01*
D02*
G37*
G36*
X527262D02*
X520931D01*
Y13409D01*
X527262D01*
Y19740D01*
D02*
G37*
G36*
X516640D02*
X515806D01*
X515001Y19524D01*
X514279Y19107D01*
X513690Y18518D01*
X513273Y17796D01*
X513058Y16991D01*
Y16158D01*
X513273Y15353D01*
X513690Y14631D01*
X514279Y14042D01*
X515001Y13625D01*
X515806Y13409D01*
X516640D01*
X517445Y13625D01*
X518166Y14042D01*
X518756Y14631D01*
X519172Y15353D01*
X519388Y16158D01*
Y16991D01*
X519172Y17796D01*
X518756Y18518D01*
X518166Y19107D01*
X517445Y19524D01*
X516640Y19740D01*
D02*
G37*
G36*
X778766Y19185D02*
X768217D01*
Y8454D01*
X769449Y8551D01*
X771138Y8957D01*
X772744Y9622D01*
X774225Y10530D01*
X775547Y11658D01*
X776675Y12979D01*
X777583Y14461D01*
X778248Y16066D01*
X778654Y17756D01*
X778766Y19185D01*
D02*
G37*
G36*
X767216D02*
X756667D01*
X756779Y17756D01*
X757185Y16066D01*
X757850Y14461D01*
X758758Y12979D01*
X759886Y11658D01*
X761208Y10530D01*
X762689Y9622D01*
X764295Y8957D01*
X765984Y8551D01*
X767216Y8454D01*
Y19185D01*
D02*
G37*
G36*
X444121D02*
X433571D01*
Y8454D01*
X434803Y8551D01*
X436493Y8957D01*
X438098Y9622D01*
X439580Y10530D01*
X440901Y11658D01*
X442029Y12979D01*
X442937Y14461D01*
X443602Y16066D01*
X444008Y17756D01*
X444121Y19185D01*
D02*
G37*
G36*
X432571D02*
X422021D01*
X422134Y17756D01*
X422539Y16066D01*
X423204Y14461D01*
X424112Y12979D01*
X425241Y11658D01*
X426562Y10530D01*
X428044Y9622D01*
X429649Y8957D01*
X431339Y8551D01*
X432571Y8454D01*
Y19185D01*
D02*
G37*
G36*
X30735D02*
X20185D01*
Y8454D01*
X21417Y8551D01*
X23107Y8957D01*
X24712Y9622D01*
X26194Y10530D01*
X27515Y11658D01*
X28644Y12979D01*
X29552Y14461D01*
X30217Y16066D01*
X30622Y17756D01*
X30735Y19185D01*
D02*
G37*
G36*
X19185D02*
X8635D01*
X8748Y17756D01*
X9154Y16066D01*
X9819Y14461D01*
X10726Y12979D01*
X11855Y11658D01*
X13176Y10530D01*
X14658Y9622D01*
X16263Y8957D01*
X17953Y8551D01*
X19185Y8454D01*
Y19185D01*
D02*
G37*
%LPD*%
D11*
X355655Y134911D02*
X355722Y134843D01*
X399606D01*
X403543Y138779D01*
X375984Y138500D02*
X376681Y137803D01*
X375984Y138500D02*
Y143643D01*
X376681Y137493D02*
Y137803D01*
X403543Y138779D02*
X416271D01*
X417255Y137795D01*
X417323D01*
X404528Y129921D02*
Y135759D01*
X393701Y119095D02*
X404528Y129921D01*
X340551Y119095D02*
X393701D01*
X494095Y89567D02*
X618641D01*
X631772Y102698D01*
X670873Y71850D02*
X702127Y103103D01*
X499016Y81693D02*
X508858Y71850D01*
X670873D01*
X644685Y68898D02*
X674503Y39080D01*
X701538D01*
X506890Y68898D02*
X644685D01*
X499016Y76772D02*
X506890Y68898D01*
X638779Y86614D02*
X666339Y114173D01*
Y135017D02*
X702189Y170867D01*
X666339Y114173D02*
Y135017D01*
X499016Y86614D02*
X638779D01*
X512795Y58071D02*
X612835D01*
X499016Y71850D02*
X512795Y58071D01*
X612835D02*
X632020Y38886D01*
X504341Y132294D02*
X592468D01*
X630803Y170629D01*
X464567Y92520D02*
X504341Y132294D01*
X455709Y92520D02*
X464567D01*
X477362Y87598D02*
X526008Y38952D01*
X561107D01*
X455709Y87598D02*
X477362D01*
X494435Y96429D02*
X554350D01*
X560864Y102943D01*
X455709Y97441D02*
X528956Y170688D01*
X560673D01*
X471457Y82677D02*
X490168Y63966D01*
Y38948D02*
Y63966D01*
X455709Y82677D02*
X471457D01*
X474184Y75029D02*
X474409Y74803D01*
X471457Y78740D02*
X474184Y76013D01*
Y75029D02*
Y76013D01*
X438976Y78740D02*
X471457D01*
X436024Y76772D02*
X468504D01*
X474409Y70866D01*
X430118Y87598D02*
Y87598D01*
Y87598D02*
X438976Y78740D01*
X430118Y82677D02*
X436024Y76772D01*
X294882Y105315D02*
X294986Y105419D01*
Y110859D01*
X294882Y105315D02*
Y105512D01*
X444882Y69882D02*
X450197D01*
X443067Y68067D02*
X444882Y69882D01*
X271654Y141732D02*
X276575Y136811D01*
X288386D01*
X271654Y141732D02*
Y148228D01*
X434055Y124409D02*
X434055Y124409D01*
Y120079D02*
Y124409D01*
X355576Y129105D02*
X356787Y130315D01*
X368110D01*
X375984Y123491D02*
X376131D01*
X368110Y123622D02*
X376001D01*
X370785Y150283D02*
Y150602D01*
Y150283D02*
X371063Y150005D01*
Y143722D02*
Y150005D01*
X280118Y142717D02*
Y146792D01*
X280140Y146814D01*
X234252Y172244D02*
X314961D01*
X226378Y180118D02*
X234252Y172244D01*
X213976Y180118D02*
X226378D01*
X207283D02*
Y186614D01*
X260940Y93617D02*
X266732Y99410D01*
X260940Y67127D02*
Y93617D01*
X258926Y133858D02*
X316929D01*
X335630Y152559D01*
X181102Y117126D02*
X188976Y109252D01*
X207677D01*
X219488Y121063D02*
X314224D01*
X207677Y109252D02*
X219488Y121063D01*
X314224D02*
X335499Y142338D01*
X192573Y123766D02*
X193984Y122354D01*
X192573Y123766D02*
Y126913D01*
X193984Y114173D02*
Y122354D01*
X201685Y114173D02*
X206693D01*
X303225Y127115D02*
X303274Y127066D01*
X211378Y127115D02*
X303225D01*
X199526Y138966D02*
X211378Y127115D01*
X195111Y138349D02*
X209444Y124016D01*
X312008D01*
X335630Y147638D01*
X194536Y138942D02*
Y139261D01*
Y138942D02*
X195111Y138367D01*
Y138349D02*
Y138367D01*
X199526Y138966D02*
Y139268D01*
X242323Y148819D02*
Y155834D01*
X242443Y155955D01*
X242520Y131258D02*
Y137388D01*
Y131258D02*
X242520Y131257D01*
X242150Y138410D02*
X242323Y138583D01*
X242150Y137758D02*
Y138410D01*
Y137758D02*
X242520Y137388D01*
X201772Y47244D02*
X263779Y109252D01*
Y115157D01*
X130905Y47244D02*
X201772D01*
X189391Y139256D02*
X219426Y169291D01*
X322287D01*
X335503Y182507D01*
X122047Y63412D02*
Y69882D01*
Y63412D02*
X131170Y54290D01*
X69369Y148700D02*
X73412D01*
X69291Y148622D02*
X69369Y148700D01*
X53037Y148937D02*
X53706Y149606D01*
X53037Y147295D02*
Y148937D01*
X52900Y147158D02*
X53037Y147295D01*
Y148937D02*
Y152281D01*
X53706Y149606D02*
X61614D01*
X62598Y148622D01*
X56102Y131299D02*
Y139154D01*
X56650Y139701D01*
X152362Y74213D02*
X153518D01*
X155331Y76025D01*
X150591Y72441D02*
X152362Y74213D01*
X144685Y89173D02*
X145079Y89567D01*
X144685Y85630D02*
Y89173D01*
X150591Y72244D02*
Y72441D01*
X129751Y67680D02*
X130905Y68835D01*
X129751Y64014D02*
Y67680D01*
X271654Y154921D02*
X277615D01*
X277621Y154927D01*
X242323Y148819D02*
X242520Y148622D01*
X248031D01*
X242323Y138583D02*
X242520Y138779D01*
X248031D01*
X102362Y137858D02*
X102809Y138305D01*
X107313D01*
X56102Y121063D02*
Y124454D01*
X56102Y121063D02*
X56102Y121063D01*
X49364Y124454D02*
X56102D01*
X84252Y137795D02*
X84646Y137402D01*
X77756Y137795D02*
X84252D01*
X93659Y137556D02*
X93961Y137858D01*
X93504Y137402D02*
X93659Y137556D01*
X93961Y137858D02*
X102362D01*
X93659Y137556D02*
Y141681D01*
X49213Y124606D02*
X49364Y124454D01*
X48622Y180118D02*
Y186811D01*
X134843Y176772D02*
X138189Y180118D01*
X134843Y169524D02*
X140981Y163386D01*
X134843Y169524D02*
Y176772D01*
X140981Y163386D02*
X143701D01*
X138189Y180118D02*
X138386D01*
X138807Y180539D01*
Y187008D01*
X146705Y180563D02*
Y187008D01*
X138386Y172244D02*
X146705Y180563D01*
X179699Y183858D02*
X185084D01*
X185084Y183857D01*
X236282Y184055D02*
X241535D01*
X236204Y184133D02*
X236282Y184055D01*
X241535Y176181D02*
Y184055D01*
X270803Y182614D02*
X271654Y183465D01*
X266826Y182614D02*
X270803D01*
X280055Y183465D02*
X280512Y183008D01*
X271654Y183465D02*
X280055D01*
X403320Y184028D02*
X403346Y184055D01*
X398631Y184028D02*
X403320D01*
X365984Y143643D02*
X366142Y143801D01*
Y150591D01*
X370984Y143643D02*
X371063Y143722D01*
X385984Y163443D02*
Y170118D01*
X365984Y157638D02*
X370079Y153543D01*
X365984Y157638D02*
Y163443D01*
X357679Y163372D02*
X360913D01*
X380960Y163468D02*
Y168663D01*
X379347Y170276D02*
X380960Y168663D01*
X370984Y156575D02*
Y163443D01*
X360913Y163372D02*
X360984Y163443D01*
X380960Y163468D02*
X380984Y163443D01*
X370984Y156575D02*
X372047Y155512D01*
X388779D01*
X392717Y151575D01*
X346457Y170276D02*
X379347D01*
X370079Y153543D02*
X375000D01*
X376969Y151575D01*
X383623Y172479D02*
X385984Y170118D01*
X340034Y172479D02*
X383623D01*
X335155Y167601D02*
X340034Y172479D01*
D16*
X293726Y55537D02*
D03*
Y58637D02*
D03*
X296826Y55537D02*
D03*
Y58637D02*
D03*
D73*
X360236Y130315D02*
D03*
Y123622D02*
D03*
X368110Y130315D02*
D03*
Y123622D02*
D03*
X271654Y154921D02*
D03*
Y148228D02*
D03*
X49213Y124606D02*
D03*
Y131299D02*
D03*
X56102Y131299D02*
D03*
Y124606D02*
D03*
D74*
X301575Y105315D02*
D03*
X294882D02*
D03*
X207283Y180118D02*
D03*
X213976D02*
D03*
X286811Y142717D02*
D03*
X280118D02*
D03*
X62598Y148622D02*
D03*
X69291D02*
D03*
D75*
X217717Y143701D02*
D03*
D76*
X242323Y138583D02*
D03*
Y148819D02*
D03*
D88*
X274606Y53087D02*
D03*
Y61087D02*
D03*
X130905Y68835D02*
D03*
Y76835D02*
D03*
X102362Y137858D02*
D03*
Y129858D02*
D03*
X280512Y183008D02*
D03*
Y191008D02*
D03*
D97*
X457283Y69882D02*
D03*
X450197D02*
D03*
X461221Y120079D02*
D03*
X454134D02*
D03*
X461221Y129921D02*
D03*
X454134D02*
D03*
X298819Y45276D02*
D03*
X291732D02*
D03*
X242520Y131257D02*
D03*
X249607D02*
D03*
X201378Y122047D02*
D03*
X194291D02*
D03*
X152165Y89567D02*
D03*
X145079D02*
D03*
X249530Y155955D02*
D03*
X242443D02*
D03*
X131299Y180118D02*
D03*
X138386D02*
D03*
X131299Y172244D02*
D03*
X138386D02*
D03*
X55709Y180118D02*
D03*
X48622D02*
D03*
X172613Y183858D02*
D03*
X179699D02*
D03*
X248622Y176181D02*
D03*
X241535D02*
D03*
X248622Y184055D02*
D03*
X241535D02*
D03*
X410433Y184055D02*
D03*
X403346D02*
D03*
D98*
X291276Y36417D02*
D03*
X299276D02*
D03*
D104*
X434055Y131496D02*
D03*
Y124409D02*
D03*
X375984Y130512D02*
D03*
Y123425D02*
D03*
X283465Y60630D02*
D03*
Y53543D02*
D03*
X122047Y76378D02*
D03*
Y69291D02*
D03*
X150591Y72244D02*
D03*
Y79331D02*
D03*
X84646Y130315D02*
D03*
Y137402D02*
D03*
X93504D02*
D03*
Y130315D02*
D03*
X271654Y183465D02*
D03*
Y190551D02*
D03*
D111*
X299276Y44819D02*
X299526Y44569D01*
X298819Y45276D02*
X299276Y44819D01*
X299526Y44569D02*
X303159D01*
X299276Y36417D02*
Y44819D01*
X274606Y61087D02*
X275063Y60630D01*
X283465D01*
X283465Y60630D02*
X283465Y60630D01*
X283465Y60630D02*
Y66929D01*
X41732Y164370D02*
X45768Y168405D01*
Y168442D02*
X48622Y171297D01*
X45768Y168405D02*
Y168442D01*
X48622Y171297D02*
Y180118D01*
X41339Y164370D02*
X41732D01*
D113*
X524097Y80598D02*
D03*
Y16575D02*
D03*
X594963Y148367D02*
D03*
X594963Y80598D02*
D03*
Y16575D02*
D03*
X665829Y148367D02*
D03*
X665829Y80598D02*
D03*
X665829Y16575D02*
D03*
X736642Y148358D02*
D03*
X736642Y80598D02*
D03*
X736642Y16575D02*
D03*
X524097Y148367D02*
D03*
X206693Y187205D02*
D03*
X48228D02*
D03*
D114*
X516223Y80598D02*
D03*
Y16575D02*
D03*
X587089Y148367D02*
D03*
X587089Y80598D02*
D03*
Y16575D02*
D03*
X657955Y148367D02*
D03*
X657955Y80598D02*
D03*
X657955Y16575D02*
D03*
X728768Y148358D02*
D03*
X728768Y80598D02*
D03*
X728768Y16575D02*
D03*
X516223Y148367D02*
D03*
X214567Y187205D02*
D03*
X56102D02*
D03*
D115*
X302916Y153032D02*
D03*
X300160Y155787D02*
D03*
X294648D02*
D03*
X297404Y158543D02*
D03*
X300160Y161299D02*
D03*
X297404Y164055D02*
D03*
X294648Y161299D02*
D03*
X302916Y158543D02*
D03*
X305672Y161299D02*
D03*
Y155787D02*
D03*
X302916Y164055D02*
D03*
X297404Y153032D02*
D03*
D116*
X136909Y71850D02*
D03*
X140748Y68012D02*
D03*
X144587Y71850D02*
D03*
X140748Y75689D02*
D03*
Y71850D02*
D03*
D117*
X146705Y187008D02*
D03*
X138807D02*
D03*
X101406D02*
D03*
X109303D02*
D03*
X9843Y66957D02*
D03*
Y74854D02*
D03*
D118*
X130905Y187008D02*
D03*
X93504D02*
D03*
D119*
X9843Y59055D02*
D03*
D120*
X19685Y19685D02*
D03*
Y177165D02*
D03*
X433071Y19685D02*
D03*
Y177165D02*
D03*
X767717D02*
D03*
X767717Y19685D02*
D03*
D121*
X353323Y189866D02*
D03*
X382398Y189866D02*
D03*
D122*
X377953Y179528D02*
D03*
X358268D02*
D03*
D123*
X355655Y134911D02*
D03*
X376681Y137493D02*
D03*
X417323Y137795D02*
D03*
X404528Y135827D02*
D03*
X376013Y130485D02*
D03*
X388779Y127953D02*
D03*
X702127Y103103D02*
D03*
X701538Y39080D02*
D03*
X702189Y170867D02*
D03*
X499016Y86614D02*
D03*
Y81693D02*
D03*
Y76772D02*
D03*
Y71850D02*
D03*
X632020Y38886D02*
D03*
X771623Y78594D02*
D03*
X771606Y114095D02*
D03*
X631772Y102698D02*
D03*
X494095Y89567D02*
D03*
X630803Y170629D02*
D03*
X561107Y38952D02*
D03*
X494435Y96429D02*
D03*
X560864Y102943D02*
D03*
X560673Y170688D02*
D03*
X455709Y97441D02*
D03*
X474409Y74803D02*
D03*
Y70866D02*
D03*
X490168Y38948D02*
D03*
X455877Y186712D02*
D03*
X714366Y38285D02*
D03*
X714366Y102309D02*
D03*
X714366Y170069D02*
D03*
X643553Y38285D02*
D03*
X643553Y102309D02*
D03*
X643553Y170078D02*
D03*
X572687Y38285D02*
D03*
Y102309D02*
D03*
X572687Y170078D02*
D03*
X501821Y38285D02*
D03*
Y102309D02*
D03*
X501821Y170078D02*
D03*
X466273Y102891D02*
D03*
X430118Y87598D02*
D03*
Y82677D02*
D03*
X455709D02*
D03*
Y87598D02*
D03*
Y92520D02*
D03*
X440337Y64900D02*
D03*
X301624Y110400D02*
D03*
X294986Y110859D02*
D03*
X287402Y111221D02*
D03*
X443067Y68067D02*
D03*
X333661Y92520D02*
D03*
X446850Y62992D02*
D03*
X457315Y74707D02*
D03*
X454198Y130155D02*
D03*
X454044Y120008D02*
D03*
X417323Y110236D02*
D03*
X288386Y136811D02*
D03*
X434055Y120079D02*
D03*
X435863Y136918D02*
D03*
X441346Y153525D02*
D03*
X355576Y129105D02*
D03*
X356299Y124016D02*
D03*
X376131Y123491D02*
D03*
X368110Y189961D02*
D03*
X370785Y150602D02*
D03*
X392717Y35433D02*
D03*
X306223Y92394D02*
D03*
X198819Y171260D02*
D03*
X280140Y146814D02*
D03*
X291339Y142717D02*
D03*
X314961Y172244D02*
D03*
X260940Y67127D02*
D03*
X260989Y44820D02*
D03*
X283465Y43307D02*
D03*
X287402Y45276D02*
D03*
X283160Y47702D02*
D03*
X303159Y44569D02*
D03*
X283465Y66929D02*
D03*
X303150Y50197D02*
D03*
X266732Y99410D02*
D03*
X292261Y75334D02*
D03*
X349410Y81693D02*
D03*
X342520Y75787D02*
D03*
Y56102D02*
D03*
X296549Y68932D02*
D03*
X287402Y50197D02*
D03*
X226378Y53150D02*
D03*
X181102Y67913D02*
D03*
X187008Y80709D02*
D03*
X186969Y63165D02*
D03*
X193898Y92520D02*
D03*
X258858Y133858D02*
D03*
X335630Y152559D02*
D03*
X181029Y132040D02*
D03*
X283465Y112205D02*
D03*
X181102Y117126D02*
D03*
X192573Y126913D02*
D03*
X206693Y114173D02*
D03*
X200640Y127352D02*
D03*
X303274Y127066D02*
D03*
X335484Y187583D02*
D03*
X223425Y57087D02*
D03*
X335499Y142338D02*
D03*
X40334Y8511D02*
D03*
X263779Y115157D02*
D03*
X130905Y47244D02*
D03*
X199526Y139268D02*
D03*
X194536Y139261D02*
D03*
X189391Y139256D02*
D03*
X229331Y57087D02*
D03*
X223425Y62992D02*
D03*
X229331Y68898D02*
D03*
X229422Y62945D02*
D03*
X208045Y83451D02*
D03*
X220472Y98425D02*
D03*
X214567D02*
D03*
X203740Y57087D02*
D03*
X209180Y62880D02*
D03*
X203740Y62992D02*
D03*
X152559Y61024D02*
D03*
X131170Y54290D02*
D03*
X117126Y71850D02*
D03*
Y76772D02*
D03*
X112441Y79961D02*
D03*
X122047Y69882D02*
D03*
X149213Y63392D02*
D03*
X154396Y68028D02*
D03*
X145669Y100394D02*
D03*
X170296Y96938D02*
D03*
X141732Y112205D02*
D03*
X136811Y118110D02*
D03*
X141732Y117126D02*
D03*
X140212Y121798D02*
D03*
X145669Y114173D02*
D03*
X129323Y91366D02*
D03*
X73412Y148700D02*
D03*
X63742Y154959D02*
D03*
X53037Y152281D02*
D03*
X155331Y76025D02*
D03*
X153543Y84646D02*
D03*
X173450Y81705D02*
D03*
X149606Y84646D02*
D03*
X144685Y85630D02*
D03*
X106564Y92036D02*
D03*
X73819Y62992D02*
D03*
X68898D02*
D03*
X68898Y68898D02*
D03*
Y57087D02*
D03*
X117081Y81471D02*
D03*
X122028Y81221D02*
D03*
X126787Y81158D02*
D03*
X137795Y87598D02*
D03*
X93504Y89567D02*
D03*
X90221Y94023D02*
D03*
X129751Y64014D02*
D03*
X134344Y83639D02*
D03*
X131381Y81749D02*
D03*
X132803Y63909D02*
D03*
X277621Y154927D02*
D03*
X253863Y131120D02*
D03*
X254347Y155494D02*
D03*
X248031Y148622D02*
D03*
Y138779D02*
D03*
X107313Y138305D02*
D03*
X67913Y138779D02*
D03*
X56102Y121063D02*
D03*
X84646Y125000D02*
D03*
X93504D02*
D03*
X78740Y133858D02*
D03*
X77756Y137795D02*
D03*
Y129921D02*
D03*
X93659Y141681D02*
D03*
X70866Y182087D02*
D03*
X65550Y172192D02*
D03*
X127587Y164422D02*
D03*
X143701Y163386D02*
D03*
X224022Y175156D02*
D03*
X185084Y183857D02*
D03*
X174213Y171260D02*
D03*
X168008Y183771D02*
D03*
X236204Y184133D02*
D03*
X253371Y184436D02*
D03*
X253657Y176306D02*
D03*
X285919Y190949D02*
D03*
X266826Y182614D02*
D03*
X266700Y188002D02*
D03*
X340594Y191225D02*
D03*
X340551Y119095D02*
D03*
X415363Y184028D02*
D03*
X398631D02*
D03*
X353346Y142717D02*
D03*
X376969Y151575D02*
D03*
X392717D02*
D03*
Y136811D02*
D03*
X357679Y163372D02*
D03*
X352362Y159449D02*
D03*
X357283Y143701D02*
D03*
X345520Y187269D02*
D03*
X346457Y170276D02*
D03*
X335630Y147638D02*
D03*
X335155Y167601D02*
D03*
X366142Y150591D02*
D03*
X335536Y182540D02*
D03*
X37402Y99213D02*
D03*
X27559D02*
D03*
X37402Y112205D02*
D03*
X27559Y112205D02*
D03*
X15748Y114173D02*
D03*
X9843D02*
D03*
X3937D02*
D03*
X8858Y39370D02*
D03*
D124*
X80948Y89425D02*
D03*
X35433Y149934D02*
D03*
X36220Y120079D02*
D03*
X13780D02*
D03*
Y149934D02*
D03*
X14026Y129865D02*
D03*
X35680D02*
D03*
X9620Y108831D02*
D03*
X9843Y91929D02*
D03*
Y98425D02*
D03*
D133*
X201685Y114173D02*
D03*
X193984D02*
D03*
D134*
X41339Y164370D02*
D03*
X61024D02*
D03*
D135*
X56650Y139701D02*
D03*
X49150D02*
D03*
X52900Y147158D02*
D03*
D136*
X360984Y143643D02*
D03*
X365984Y143643D02*
D03*
X370984D02*
D03*
X375984D02*
D03*
X380984Y143643D02*
D03*
X385984Y143643D02*
D03*
X390984Y143643D02*
D03*
Y163443D02*
D03*
X385984Y163443D02*
D03*
X380984D02*
D03*
X375984D02*
D03*
X370984D02*
D03*
X365984D02*
D03*
X360984D02*
D03*
M02*
