G04*
G04 #@! TF.GenerationSoftware,Altium Limited,Altium Designer,22.8.2 (66)*
G04*
G04 Layer_Color=32768*
%FSLAX25Y25*%
%MOIN*%
G70*
G04*
G04 #@! TF.SameCoordinates,F23DE1FB-CEBC-40D8-82DF-6EE2EAA0B71B*
G04*
G04*
G04 #@! TF.FilePolarity,Positive*
G04*
G01*
G75*
%ADD11C,0.00787*%
%ADD145C,0.00394*%
%ADD146C,0.00197*%
D11*
X161795Y175591D02*
X191748D01*
Y192520D01*
X161795D02*
X191748D01*
X161795Y175591D02*
Y192520D01*
X259661Y175787D02*
Y192717D01*
X229709Y175787D02*
X259661D01*
X229709D02*
Y192717D01*
X259661D01*
X392151Y175963D02*
Y192892D01*
X422104D01*
Y175963D02*
Y192892D01*
X392151Y175963D02*
X422104D01*
D145*
X491617Y100283D02*
X497522D01*
X491617Y112488D02*
X497522D01*
X491617Y100283D02*
Y112488D01*
X497522Y100283D02*
Y112488D01*
X494569Y104515D02*
Y108255D01*
X492699Y106385D02*
X496439D01*
X491617Y36259D02*
X497522D01*
X491617Y48464D02*
X497522D01*
X491617Y36259D02*
Y48464D01*
X497522Y36259D02*
Y48464D01*
X494569Y40492D02*
Y44232D01*
X492699Y42362D02*
X496439D01*
X562483Y168052D02*
X568388D01*
X562483Y180257D02*
X568388D01*
X562483Y168052D02*
Y180257D01*
X568388Y168052D02*
Y180257D01*
X565435Y172285D02*
Y176025D01*
X563565Y174155D02*
X567306D01*
X562483Y100283D02*
X568388D01*
X562483Y112488D02*
X568388D01*
X562483Y100283D02*
Y112488D01*
X568388Y100283D02*
Y112488D01*
X565436Y104515D02*
Y108255D01*
X563565Y106385D02*
X567306D01*
X562483Y36259D02*
X568388D01*
X562483Y48464D02*
X568388D01*
X562483Y36259D02*
Y48464D01*
X568388Y36259D02*
Y48464D01*
X565436Y40492D02*
Y44232D01*
X563565Y42362D02*
X567306D01*
X633349Y168052D02*
X639254D01*
X633349Y180257D02*
X639254D01*
X633349Y168052D02*
Y180257D01*
X639254Y168052D02*
Y180257D01*
X636302Y172285D02*
Y176025D01*
X634432Y174155D02*
X638172D01*
X633349Y100283D02*
X639254D01*
X633349Y112488D02*
X639254D01*
X633349Y100283D02*
Y112488D01*
X639254Y100283D02*
Y112488D01*
X636302Y104515D02*
Y108255D01*
X634432Y106385D02*
X638172D01*
X633349Y36259D02*
X639254D01*
X633349Y48464D02*
X639254D01*
X633349Y36259D02*
Y48464D01*
X639254Y36259D02*
Y48464D01*
X636302Y40492D02*
Y44232D01*
X634432Y42362D02*
X638172D01*
X704162Y168043D02*
X710067D01*
X704162Y180248D02*
X710067D01*
X704162Y168043D02*
Y180248D01*
X710067Y168043D02*
Y180248D01*
X707114Y172276D02*
Y176016D01*
X705244Y174146D02*
X708984D01*
X704162Y100283D02*
X710067D01*
X704162Y112488D02*
X710067D01*
X704162Y100283D02*
Y112488D01*
X710067Y100283D02*
Y112488D01*
X707114Y104515D02*
Y108255D01*
X705244Y106385D02*
X708984D01*
X704162Y36259D02*
X710067D01*
X704162Y48464D02*
X710067D01*
X704162Y36259D02*
Y48464D01*
X710067Y36259D02*
Y48464D01*
X707114Y40492D02*
Y44232D01*
X705244Y42362D02*
X708984D01*
X491616Y168052D02*
X497522D01*
X491616Y180257D02*
X497522D01*
X491616Y168052D02*
Y180257D01*
X497522Y168052D02*
Y180257D01*
X494569Y172285D02*
Y176025D01*
X492699Y174155D02*
X496439D01*
X426968Y62008D02*
Y67913D01*
X439173Y62008D02*
Y67913D01*
X426968D02*
X439173D01*
X426968Y62008D02*
X439173Y62008D01*
X431201Y64961D02*
X434941D01*
X433071Y63090D02*
Y66831D01*
X304331Y102362D02*
Y108268D01*
X292126Y102362D02*
Y108268D01*
X304331D01*
X292126Y102362D02*
X304331Y102362D01*
X296358Y105315D02*
X300098D01*
X298228Y103445D02*
Y107185D01*
X448622Y60039D02*
Y65945D01*
X460827Y60039D02*
Y65945D01*
X448622D02*
X460827D01*
X448622Y60039D02*
X460827Y60039D01*
X452854Y62992D02*
X456595D01*
X454724Y61122D02*
Y64862D01*
X446063Y70276D02*
X463386D01*
X446063D02*
Y100984D01*
X463386D01*
Y70276D02*
Y100984D01*
X460827Y70276D02*
X463386Y72835D01*
X461614Y65748D02*
X461614Y74016D01*
X445866Y65748D02*
Y74016D01*
X461614D01*
X445866Y65748D02*
X461614D01*
X451870Y69882D02*
X455610D01*
X453740Y68012D02*
Y71752D01*
X465551Y115945D02*
X465551Y124213D01*
X449803Y115945D02*
Y124213D01*
X465551D01*
X449803Y115945D02*
X465551D01*
X455807Y120079D02*
X459547D01*
X457677Y118209D02*
Y121949D01*
X465551Y125787D02*
X465551Y134055D01*
X449803Y125787D02*
Y134055D01*
X465551D01*
X449803Y125787D02*
X465551D01*
X455807Y129921D02*
X459547D01*
X457677Y128051D02*
Y131791D01*
X410433Y119291D02*
X416339D01*
X410433Y107087D02*
X416339D01*
Y119291D01*
X410433Y107087D02*
X410433Y119291D01*
X413386Y111319D02*
Y115059D01*
X411516Y113189D02*
X415256D01*
X429921Y135827D02*
X438189Y135827D01*
X429921Y120079D02*
X438189D01*
X429921D02*
Y135827D01*
X438189Y120079D02*
Y135827D01*
X434055Y126083D02*
Y129823D01*
X432185Y127953D02*
X435925D01*
X427953Y143701D02*
Y149606D01*
X440158Y143701D02*
Y149606D01*
X427953D02*
X440158D01*
X427953Y143701D02*
X440158Y143701D01*
X432185Y146653D02*
X435925D01*
X434055Y144783D02*
Y148524D01*
X427953Y150591D02*
Y156496D01*
X440158Y150591D02*
Y156496D01*
X427953D02*
X440158D01*
X427953Y150591D02*
X440158Y150591D01*
X432185Y153543D02*
X435925D01*
X434055Y151673D02*
Y155413D01*
X358366Y126969D02*
X362106D01*
X360236Y125098D02*
Y128839D01*
X357283Y120866D02*
Y133071D01*
X363189Y120866D02*
Y133071D01*
X357283D02*
X363189D01*
X357283Y120866D02*
X363189D01*
X365158Y133071D02*
X371063D01*
X365158Y120866D02*
X371063D01*
X365158D02*
Y133071D01*
X371063D02*
X371063Y120866D01*
X368110Y125098D02*
Y128839D01*
X366240Y126969D02*
X369980D01*
X371850Y134843D02*
X380118Y134843D01*
X371850Y119095D02*
X380118D01*
X371850D02*
Y134843D01*
X380118Y119095D02*
Y134843D01*
X375984Y125098D02*
Y128839D01*
X374114Y126969D02*
X377854D01*
X204528Y177165D02*
Y183071D01*
X216732Y177165D02*
Y183071D01*
X204528Y177165D02*
X216732D01*
X204528Y183071D02*
X216732Y183071D01*
X208760Y180118D02*
X212500D01*
X210630Y178248D02*
Y181988D01*
X270472Y46260D02*
Y52165D01*
X258268Y46260D02*
Y52165D01*
Y46260D02*
X270472D01*
X258268Y52165D02*
X270472Y52165D01*
X262500Y49213D02*
X266240D01*
X264370Y47343D02*
Y51083D01*
X258268Y53150D02*
Y59055D01*
X270472Y53150D02*
Y59055D01*
X258268D02*
X270472D01*
X258268Y53150D02*
X270472Y53150D01*
X262500Y56102D02*
X266240D01*
X264370Y54232D02*
Y57973D01*
X270472Y60039D02*
Y65945D01*
X258268Y60039D02*
Y65945D01*
Y60039D02*
X270472D01*
X258268Y65945D02*
X270472Y65945D01*
X262500Y62992D02*
X266240D01*
X264370Y61122D02*
Y64862D01*
X295276Y43406D02*
Y47146D01*
X293406Y45276D02*
X297146D01*
X287402Y49409D02*
X303150D01*
X287402Y41142D02*
X303150Y41142D01*
X303150Y49409D01*
X287402Y41142D02*
Y49409D01*
Y32283D02*
X287402Y40551D01*
X303150D02*
X303150Y32283D01*
X287402D02*
X303150D01*
X287402Y40551D02*
X303150D01*
X293406Y36417D02*
X297146D01*
X295276Y34547D02*
X295276Y38287D01*
X281594Y57087D02*
X285335D01*
X283465Y55216D02*
Y58957D01*
X279331Y49213D02*
Y64961D01*
X287598Y49213D02*
Y64961D01*
X279331D02*
X287598D01*
X279331Y49213D02*
X287598D01*
X270472D02*
X278740D01*
X270472Y64961D02*
X278740D01*
Y49213D02*
Y64961D01*
X270472Y49213D02*
Y64961D01*
X274606Y55216D02*
Y58957D01*
X272736Y57087D02*
X276476D01*
X298191Y86221D02*
Y98819D01*
Y86221D02*
X313939D01*
Y98819D01*
X298191D02*
X313939D01*
X284449Y72638D02*
X290354D01*
X284449Y84842D02*
X290354D01*
X284449Y72638D02*
Y84842D01*
X290354Y72638D02*
X290354Y84842D01*
X287402Y76870D02*
Y80610D01*
X285531Y78740D02*
X289272D01*
X277559Y84842D02*
X283465D01*
X277559Y72638D02*
X283465D01*
X283465Y84842D02*
X283465Y72638D01*
X277559D02*
X277559Y84842D01*
X280512Y80610D02*
X280512Y76870D01*
X278642Y78740D02*
X282382D01*
X270669Y72638D02*
X276575D01*
X270669Y84842D02*
X276575D01*
X270669Y72638D02*
Y84842D01*
X276575Y72638D02*
X276575Y84842D01*
X273622Y76870D02*
Y80610D01*
X271752Y78740D02*
X275492D01*
X182874Y63976D02*
X191142Y63976D01*
X182874Y79724D02*
X191142D01*
X182874Y63976D02*
Y79724D01*
X191142Y63976D02*
Y79724D01*
X187008Y69980D02*
Y73721D01*
X185138Y71850D02*
X188878D01*
X178150Y144882D02*
X184055D01*
X178150Y132677D02*
X184055D01*
Y144882D01*
X178150Y132677D02*
X178150Y144882D01*
X181102Y136909D02*
Y140650D01*
X179232Y138779D02*
X182972D01*
X178150Y118898D02*
X184055D01*
X178150Y131102D02*
X184055D01*
X178150Y118898D02*
Y131102D01*
X184055Y118898D02*
Y131102D01*
X181102Y123130D02*
Y126870D01*
X179232Y125000D02*
X182973D01*
X246063Y129387D02*
Y133127D01*
X244193Y131257D02*
X247933D01*
X238189Y127123D02*
X253937D01*
X238189Y135391D02*
X253937D01*
X238189Y127123D02*
Y135391D01*
X253937Y127123D02*
X253937Y135391D01*
X205709Y117913D02*
X205709Y126181D01*
X189961Y117913D02*
Y126181D01*
X205709D01*
X189961Y117913D02*
X205709D01*
X195965Y122047D02*
X199705D01*
X197835Y120177D02*
Y123917D01*
X144541Y44477D02*
Y50382D01*
X132336Y44477D02*
Y50382D01*
Y44477D02*
X144541D01*
X132336Y50382D02*
X144541Y50382D01*
X136569Y47429D02*
X140309D01*
X138439Y45559D02*
Y49300D01*
X138403Y52451D02*
Y56191D01*
X136533Y54321D02*
X140273D01*
X132301Y57274D02*
X144506Y57274D01*
X132301Y51368D02*
X144506D01*
X132301D02*
Y57274D01*
X144506Y51368D02*
Y57274D01*
X289567Y139764D02*
Y145669D01*
X277362Y139764D02*
Y145669D01*
X289567D01*
X277362Y139764D02*
X289567Y139764D01*
X281594Y142717D02*
X285335D01*
X283465Y140847D02*
Y144587D01*
X117913Y80709D02*
X126181Y80709D01*
X117913Y64961D02*
X126181D01*
X117913D02*
Y80709D01*
X126181Y64961D02*
Y80709D01*
X122047Y70965D02*
Y74705D01*
X120177Y72835D02*
X123917D01*
X171457Y48228D02*
Y54134D01*
X159252Y48228D02*
Y54134D01*
Y48228D02*
X171457D01*
X159252Y54134D02*
X171457Y54134D01*
X163484Y51181D02*
X167224D01*
X165354Y49311D02*
Y53051D01*
X159252Y55118D02*
Y61024D01*
X171457Y55118D02*
Y61024D01*
X159252D02*
X171457D01*
X159252Y55118D02*
X171457Y55118D01*
X163484Y58071D02*
X167224D01*
X165354Y56201D02*
Y59941D01*
X157480Y70079D02*
X157480Y61811D01*
X173228D02*
Y70079D01*
X157480D02*
X173228D01*
X157480Y61811D02*
X173228D01*
X163484Y65945D02*
X167224D01*
X165354Y64075D02*
Y67815D01*
X142717Y87402D02*
X148622D01*
X142717Y99606D02*
X148622D01*
X142717Y87402D02*
Y99606D01*
X148622Y87402D02*
Y99606D01*
X145669Y91634D02*
Y95374D01*
X143799Y93504D02*
X147539D01*
X140748Y107480D02*
X140748Y99213D01*
X125000D02*
Y107480D01*
Y99213D02*
X140748D01*
X125000Y107480D02*
X140748D01*
X131004Y103347D02*
X134744D01*
X132874Y101476D02*
Y105217D01*
Y110335D02*
Y114075D01*
X131004Y112205D02*
X134744D01*
X125000Y116339D02*
X140748D01*
X125000Y108071D02*
X140748D01*
X125000D02*
Y116339D01*
X140748D02*
X140748Y108071D01*
X140748Y99606D02*
X140748Y91339D01*
X125000D02*
Y99606D01*
Y91339D02*
X140748D01*
X125000Y99606D02*
X140748D01*
X131004Y95472D02*
X134744D01*
X132874Y93602D02*
Y97342D01*
X65945Y146752D02*
Y150492D01*
X64075Y148622D02*
X67815D01*
X59842Y145669D02*
X72047Y145669D01*
X59842Y151575D02*
X72047D01*
X59842Y145669D02*
Y151575D01*
X72047Y145669D02*
Y151575D01*
X173228Y85827D02*
X173228Y77559D01*
X157480D02*
Y85827D01*
Y77559D02*
X173228D01*
X157480Y85827D02*
X173228D01*
X163484Y81693D02*
X167224D01*
X165354Y79823D02*
Y83563D01*
X171457Y70866D02*
Y76772D01*
X159252Y70866D02*
Y76772D01*
Y70866D02*
X171457D01*
X159252Y76772D02*
X171457Y76772D01*
X163484Y73819D02*
X167224D01*
X165354Y71949D02*
Y75689D01*
X156496Y99606D02*
X162402D01*
X156496Y87402D02*
X162402D01*
Y99606D01*
X156496Y87402D02*
X156496Y99606D01*
X159449Y91634D02*
Y95374D01*
X157579Y93504D02*
X161319D01*
X149606Y99606D02*
X155512D01*
X149606Y87402D02*
X155512D01*
Y99606D01*
X149606Y87402D02*
X149606Y99606D01*
X152559Y91634D02*
Y95374D01*
X150689Y93504D02*
X154429D01*
X163386Y99606D02*
X169291D01*
X163386Y87402D02*
X169291D01*
Y99606D01*
X163386Y87402D02*
X163386Y99606D01*
X166339Y91634D02*
Y95374D01*
X164469Y93504D02*
X168209D01*
X156496Y85433D02*
X156496Y93701D01*
X140748Y85433D02*
Y93701D01*
X156496D01*
X140748Y85433D02*
X156496D01*
X146752Y89567D02*
X150492D01*
X148622Y87697D02*
Y91437D01*
X146457Y67913D02*
X154724Y67913D01*
X146457Y83661D02*
X154724D01*
Y67913D02*
Y83661D01*
X146457Y67913D02*
Y83661D01*
X150591Y73917D02*
Y77658D01*
X148721Y75787D02*
X152461D01*
X108268Y72933D02*
Y76673D01*
X106398Y74803D02*
X110138D01*
X100394Y78937D02*
X116142D01*
X100394Y70669D02*
X116142D01*
X100394D02*
Y78937D01*
X116142D02*
X116142Y70669D01*
X129035Y72835D02*
X132776D01*
X130905Y70964D02*
Y74705D01*
X135039Y64961D02*
Y80709D01*
X126772Y64961D02*
Y80709D01*
Y64961D02*
X135039D01*
X126772Y80709D02*
X135039Y80709D01*
X123031Y73713D02*
X128937D01*
X123031Y61509D02*
X128937D01*
Y73713D01*
X123031Y61509D02*
X123031Y73713D01*
X125984Y65741D02*
Y69481D01*
X124114Y67611D02*
X127854D01*
X268701Y157677D02*
X274606D01*
X268701Y145472D02*
X274606D01*
X268701D02*
Y157677D01*
X274606D02*
X274606Y145472D01*
X271654Y149705D02*
Y153445D01*
X269783Y151575D02*
X273524D01*
X256890Y136909D02*
Y140650D01*
X255020Y138779D02*
X258760D01*
X250787Y135827D02*
X262992Y135827D01*
X250787Y141732D02*
X262992D01*
Y135827D02*
Y141732D01*
X250787Y135827D02*
Y141732D01*
X256890Y146752D02*
Y150492D01*
X255020Y148622D02*
X258760D01*
X250787Y145669D02*
X262992Y145669D01*
X250787Y151575D02*
X262992D01*
Y145669D02*
Y151575D01*
X250787Y145669D02*
Y151575D01*
X253861Y151821D02*
X253861Y160089D01*
X238113Y151821D02*
Y160089D01*
X253861D01*
X238113Y151821D02*
X253861D01*
X244117Y155955D02*
X247857D01*
X245987Y154085D02*
Y157825D01*
X80512Y125984D02*
X88779D01*
X80512Y141732D02*
X88779D01*
Y125984D02*
Y141732D01*
X80512Y125984D02*
Y141732D01*
X84646Y131988D02*
Y135728D01*
X82776Y133858D02*
X86516D01*
X91634D02*
X95374D01*
X93504Y131988D02*
Y135728D01*
X89370Y125984D02*
Y141732D01*
X97638Y125984D02*
Y141732D01*
X89370D02*
X97638D01*
X89370Y125984D02*
X97638Y125984D01*
X100492Y133858D02*
X104232D01*
X102362Y131988D02*
Y135728D01*
X98228Y125984D02*
Y141732D01*
X106496Y125984D02*
Y141732D01*
X98228D02*
X106496D01*
X98228Y125984D02*
X106496D01*
X126969Y175984D02*
X126969Y184252D01*
X142717Y175984D02*
Y184252D01*
X126969Y175984D02*
X142717D01*
X126969Y184252D02*
X142717D01*
X132973Y180118D02*
X136713D01*
X134843Y178248D02*
Y181988D01*
X126969Y168110D02*
X126969Y176378D01*
X142717Y168110D02*
Y176378D01*
X126969Y168110D02*
X142717D01*
X126969Y176378D02*
X142717D01*
X132973Y172244D02*
X136713D01*
X134843Y170374D02*
Y174114D01*
X60039Y175984D02*
X60039Y184252D01*
X44291Y175984D02*
Y184252D01*
X60039D01*
X44291Y175984D02*
X60039D01*
X50295Y180118D02*
X54035D01*
X52165Y178248D02*
Y181988D01*
X46260Y121850D02*
X52165D01*
X46260Y134055D02*
X52165D01*
Y121850D02*
Y134055D01*
X46260D02*
X46260Y121850D01*
X49213Y126083D02*
Y129823D01*
X47343Y127953D02*
X51083D01*
X53150Y134055D02*
X59055D01*
X53150Y121850D02*
X59055D01*
X53150D02*
Y134055D01*
X59055D02*
X59055Y121850D01*
X56102Y126083D02*
Y129823D01*
X54232Y127953D02*
X57973D01*
X79921Y187896D02*
Y193801D01*
X67716Y187896D02*
Y193801D01*
Y187896D02*
X79921D01*
X67716Y193801D02*
X79921Y193801D01*
X71949Y190849D02*
X75689D01*
X73819Y188979D02*
Y192719D01*
X65945Y176378D02*
X65945Y168110D01*
X81693D02*
Y176378D01*
X65945D02*
X81693D01*
X65945Y168110D02*
X81693D01*
X71949Y172244D02*
X75689D01*
X73819Y170374D02*
Y174114D01*
X140945Y161417D02*
Y167323D01*
X128740Y161417D02*
Y167323D01*
Y161417D02*
X140945D01*
X128740Y167323D02*
X140945Y167323D01*
X132972Y164370D02*
X136713D01*
X134843Y162500D02*
Y166240D01*
X140945Y167323D02*
Y173228D01*
X128740Y167323D02*
Y173228D01*
Y167323D02*
X140945D01*
X128740Y173228D02*
X140945Y173228D01*
X132972Y170276D02*
X136713D01*
X134843Y168405D02*
Y172146D01*
X168282Y179724D02*
X168282Y187992D01*
X184030Y179724D02*
Y187992D01*
X168282Y179724D02*
X184030D01*
X168282Y187992D02*
X184030D01*
X174286Y183858D02*
X178026D01*
X176156Y181988D02*
Y185728D01*
X188189Y168307D02*
Y174213D01*
X175984Y168307D02*
Y174213D01*
Y168307D02*
X188189D01*
X175984Y174213D02*
X188189Y174213D01*
X180217Y171260D02*
X183957D01*
X182087Y169390D02*
Y173130D01*
X252953Y172047D02*
X252953Y180315D01*
X237205Y172047D02*
Y180315D01*
X252953D01*
X237205Y172047D02*
X252953D01*
X243209Y176181D02*
X246949D01*
X245079Y174311D02*
Y178051D01*
X252953Y179921D02*
X252953Y188189D01*
X237205Y179921D02*
Y188189D01*
X252953D01*
X237205Y179921D02*
X252953D01*
X243209Y184055D02*
X246949D01*
X245079Y182185D02*
Y185925D01*
X221260Y168307D02*
Y174213D01*
X233465Y168307D02*
Y174213D01*
X221260D02*
X233465D01*
X221260Y168307D02*
X233465Y168307D01*
X225492Y171260D02*
X229232D01*
X227362Y169390D02*
Y173130D01*
X269783Y187008D02*
X273524D01*
X271654Y185138D02*
Y188878D01*
X275787Y179134D02*
Y194882D01*
X267520Y179134D02*
Y194882D01*
Y179134D02*
X275787D01*
X267520Y194882D02*
X275787Y194882D01*
X278642Y187008D02*
X282382D01*
X280512Y185138D02*
Y188878D01*
X284646Y179134D02*
Y194882D01*
X276378Y179134D02*
Y194882D01*
Y179134D02*
X284646D01*
X276378Y194882D02*
X284646Y194882D01*
X414764Y179921D02*
X414764Y188189D01*
X399016Y179921D02*
Y188189D01*
X414764D01*
X399016Y179921D02*
X414764D01*
X405020Y184055D02*
X408760D01*
X406890Y182185D02*
Y185925D01*
X389815Y138039D02*
Y143944D01*
X402020Y138039D02*
Y143944D01*
X389815D02*
X402020D01*
X389815Y138039D02*
X402020Y138039D01*
X394047Y140992D02*
X397787D01*
X395917Y139121D02*
Y142862D01*
X374050Y138120D02*
Y144026D01*
X386255Y138120D02*
Y144026D01*
X374050Y144026D02*
X386255Y144026D01*
X374050Y138120D02*
X386255Y138120D01*
X378282Y141073D02*
X382023D01*
X380153Y142943D02*
X380153Y139203D01*
X355118Y143701D02*
X363386D01*
X355118Y159449D02*
X363386D01*
X355118Y143701D02*
Y159449D01*
X363386Y143701D02*
Y159449D01*
X359252Y149705D02*
Y153445D01*
X357382Y151575D02*
X361122D01*
X347244Y159449D02*
X355512Y159449D01*
X347244Y143701D02*
X355512D01*
Y159449D01*
X347244Y143701D02*
Y159449D01*
X351378Y149705D02*
Y153445D01*
X349508Y151575D02*
X353248D01*
X216717Y125717D02*
Y141465D01*
X229316D01*
Y125717D02*
Y141465D01*
X216717Y125717D02*
X229316D01*
X159419Y125717D02*
X172017D01*
Y141465D01*
X159419D02*
X172017D01*
X159419Y125717D02*
Y141465D01*
X140580Y141465D02*
X153179D01*
X140580Y125717D02*
Y141465D01*
Y125717D02*
X153179D01*
Y141465D01*
X449803Y143307D02*
Y155905D01*
Y143307D02*
X465551D01*
Y155905D01*
X449803D02*
X465551D01*
X405655Y143898D02*
Y156496D01*
Y143898D02*
X421403D01*
Y156496D01*
X405655D02*
X421403D01*
X242058Y86221D02*
Y98819D01*
Y86221D02*
X257806D01*
Y98819D01*
X242058D02*
X257806D01*
X98425Y86221D02*
Y98819D01*
Y86221D02*
X114173D01*
Y98819D01*
X98425D02*
X114173D01*
X186024Y86221D02*
Y98819D01*
Y86221D02*
X201772D01*
Y98819D01*
X186024D02*
X201772D01*
X35531Y108268D02*
X39272D01*
X37402Y106398D02*
Y110138D01*
X41535Y100394D02*
Y116142D01*
X33268Y100394D02*
Y116142D01*
X41535D01*
X33268Y100394D02*
X41535D01*
X25689Y108268D02*
X29429D01*
X27559Y106398D02*
Y110138D01*
X31693Y100394D02*
Y116142D01*
X23425Y100394D02*
Y116142D01*
X31693D01*
X23425Y100394D02*
X31693Y100394D01*
X99155Y132480D02*
Y145079D01*
Y132480D02*
X114903D01*
Y145079D01*
X99155D02*
X114903D01*
X449409Y179134D02*
X462008D01*
Y194882D01*
X449409D02*
X462008D01*
X449409Y179134D02*
Y194882D01*
X32480Y2559D02*
Y15157D01*
Y2559D02*
X48228D01*
Y15157D01*
X32480D02*
X48228D01*
X765354Y70866D02*
X777953D01*
Y86614D01*
X765354D02*
X777953D01*
X765354Y70866D02*
Y86614D01*
Y122047D02*
X777953D01*
X765354Y106299D02*
Y122047D01*
Y106299D02*
X777953D01*
Y122047D01*
X2559Y47244D02*
X15157D01*
X2559Y31496D02*
Y47244D01*
Y31496D02*
X15157D01*
Y47244D01*
X75787Y132480D02*
Y145079D01*
X60039D02*
X75787D01*
X60039Y132480D02*
Y145079D01*
Y132480D02*
X75787D01*
D146*
X507561Y92606D02*
X532758D01*
Y72921D02*
Y92606D01*
X507561Y72921D02*
X532758D01*
X507561D02*
Y92606D01*
Y28582D02*
X532758D01*
Y8897D02*
Y28582D01*
X507561Y8897D02*
X532758D01*
X507561D02*
Y28582D01*
X578428Y160375D02*
X603624D01*
Y140690D02*
Y160375D01*
X578428Y140690D02*
X603624D01*
X578428D02*
Y160375D01*
X578428Y92606D02*
X603624D01*
Y72921D02*
Y92606D01*
X578428Y72921D02*
X603624D01*
X578428D02*
Y92606D01*
Y28582D02*
X603624D01*
Y8897D02*
Y28582D01*
X578428Y8897D02*
X603624D01*
X578428D02*
Y28582D01*
X649294Y160375D02*
X674491D01*
Y140690D02*
Y160375D01*
X649294Y140690D02*
X674491D01*
X649294D02*
Y160375D01*
X649294Y92606D02*
X674490D01*
Y72921D02*
Y92606D01*
X649294Y72921D02*
X674490D01*
X649294D02*
Y92606D01*
X649294Y28582D02*
X674491D01*
Y8897D02*
Y28582D01*
X649294Y8897D02*
X674491D01*
X649294D02*
Y28582D01*
X720107Y160366D02*
X745303D01*
Y140681D02*
Y160366D01*
X720107Y140681D02*
X745303D01*
X720107D02*
Y160366D01*
X720107Y92606D02*
X745303D01*
Y72921D02*
Y92606D01*
X720107Y72921D02*
X745303D01*
X720107D02*
Y92606D01*
X720107Y28582D02*
X745303D01*
Y8897D02*
Y28582D01*
X720107Y8897D02*
X745303D01*
X720107D02*
Y28582D01*
X507561Y160375D02*
X532758D01*
Y140690D02*
Y160375D01*
X507561Y140690D02*
X532758D01*
X507561D02*
Y160375D01*
X450394Y133071D02*
X485433D01*
Y116929D02*
Y133071D01*
X450394Y116929D02*
X485433D01*
X450394D02*
Y133071D01*
X191110Y110472D02*
X204559D01*
X191110Y117874D02*
X204559D01*
Y110472D02*
Y117874D01*
X191110Y110472D02*
Y117874D01*
X211417Y151772D02*
X246457D01*
X211417Y135630D02*
Y151772D01*
Y135630D02*
X246457D01*
Y151772D01*
X122047Y174409D02*
X155563D01*
X122047Y194882D02*
X155563D01*
X122047Y174409D02*
Y194882D01*
X155563D02*
X155563Y174409D01*
X223228Y175197D02*
Y194882D01*
X198031D02*
X223228D01*
X198031Y175197D02*
Y194882D01*
Y175197D02*
X223228D01*
X39567D02*
X64764D01*
X39567D02*
Y194882D01*
X64764D01*
Y175197D02*
Y194882D01*
X118161D02*
X118161Y174409D01*
X84646D02*
Y194882D01*
X118161D01*
X84646Y174409D02*
X118161D01*
X2126Y88307D02*
X17559D01*
Y112480D01*
X2126D02*
X17559D01*
X2126Y88307D02*
Y112480D01*
X1969Y83713D02*
X22441D01*
X1969Y50197D02*
X22441D01*
X1969D02*
Y83713D01*
X22441Y50197D02*
Y83713D01*
M02*
