G04*
G04 #@! TF.GenerationSoftware,Altium Limited,Altium Designer,22.8.2 (66)*
G04*
G04 Layer_Physical_Order=2*
G04 Layer_Color=32768*
%FSLAX25Y25*%
%MOIN*%
G70*
G04*
G04 #@! TF.SameCoordinates,F23DE1FB-CEBC-40D8-82DF-6EE2EAA0B71B*
G04*
G04*
G04 #@! TF.FilePolarity,Negative*
G04*
G01*
G75*
%ADD124C,0.05000*%
%ADD125C,0.04000*%
%ADD126C,0.07150*%
%ADD127C,0.06800*%
D124*
X293726Y55537D02*
D03*
Y58637D02*
D03*
X296826Y55537D02*
D03*
Y58637D02*
D03*
X355655Y134911D02*
D03*
X376681Y137493D02*
D03*
X417323Y137795D02*
D03*
X404528Y135827D02*
D03*
X702127Y103103D02*
D03*
X701538Y39080D02*
D03*
X702189Y170867D02*
D03*
X499016Y86614D02*
D03*
Y81693D02*
D03*
Y76772D02*
D03*
Y71850D02*
D03*
X632020Y38886D02*
D03*
X771623Y78594D02*
D03*
X771606Y114095D02*
D03*
X631772Y102698D02*
D03*
X494095Y89567D02*
D03*
X630803Y170629D02*
D03*
X561107Y38952D02*
D03*
X494435Y96429D02*
D03*
X560864Y102943D02*
D03*
X560673Y170688D02*
D03*
X455709Y97441D02*
D03*
X474409Y74803D02*
D03*
Y70866D02*
D03*
X490168Y38948D02*
D03*
X430118Y87598D02*
D03*
Y82677D02*
D03*
X455709D02*
D03*
Y87598D02*
D03*
Y92520D02*
D03*
X440337Y64900D02*
D03*
X294986Y110859D02*
D03*
X443067Y68067D02*
D03*
X454198Y130155D02*
D03*
X454044Y120008D02*
D03*
X417323Y110236D02*
D03*
X288386Y136811D02*
D03*
X434055Y120079D02*
D03*
X441346Y153525D02*
D03*
X355576Y129105D02*
D03*
X376131Y123491D02*
D03*
X370785Y150602D02*
D03*
X392717Y35433D02*
D03*
X306223Y92394D02*
D03*
X280140Y146814D02*
D03*
X314961Y172244D02*
D03*
X260940Y67127D02*
D03*
X303159Y44569D02*
D03*
X283465Y66929D02*
D03*
X266732Y99410D02*
D03*
X292261Y75334D02*
D03*
X342520Y56102D02*
D03*
X296549Y68932D02*
D03*
X187008Y80709D02*
D03*
X193898Y92520D02*
D03*
X258858Y133858D02*
D03*
X335630Y152559D02*
D03*
X181029Y132040D02*
D03*
X181102Y117126D02*
D03*
X192573Y126913D02*
D03*
X206693Y114173D02*
D03*
X303274Y127066D02*
D03*
X335499Y142338D02*
D03*
X263779Y115157D02*
D03*
X130905Y47244D02*
D03*
X199526Y139268D02*
D03*
X194536Y139261D02*
D03*
X189391Y139256D02*
D03*
X208045Y83451D02*
D03*
X220472Y98425D02*
D03*
X214567D02*
D03*
X203740Y57087D02*
D03*
X209180Y62880D02*
D03*
X203740Y62992D02*
D03*
X152559Y61024D02*
D03*
X131170Y54290D02*
D03*
X122047Y69882D02*
D03*
X149213Y63392D02*
D03*
X154396Y68028D02*
D03*
X170296Y96938D02*
D03*
X129323Y91366D02*
D03*
X73412Y148700D02*
D03*
X63742Y154959D02*
D03*
X53037Y152281D02*
D03*
X155331Y76025D02*
D03*
X144685Y85630D02*
D03*
X106564Y92036D02*
D03*
X73819Y62992D02*
D03*
X68898D02*
D03*
X68898Y68898D02*
D03*
Y57087D02*
D03*
X137795Y87598D02*
D03*
X93504Y89567D02*
D03*
X90221Y94023D02*
D03*
X129751Y64014D02*
D03*
X134344Y83639D02*
D03*
X131381Y81749D02*
D03*
X132803Y63909D02*
D03*
X277621Y154927D02*
D03*
X248031Y148622D02*
D03*
Y138779D02*
D03*
X107313Y138305D02*
D03*
X67913Y138779D02*
D03*
X56102Y121063D02*
D03*
X77756Y137795D02*
D03*
Y129921D02*
D03*
X93659Y141681D02*
D03*
X127587Y164422D02*
D03*
X143701Y163386D02*
D03*
X224022Y175156D02*
D03*
X185084Y183857D02*
D03*
X174213Y171260D02*
D03*
X236204Y184133D02*
D03*
X266826Y182614D02*
D03*
X340551Y119095D02*
D03*
X398631Y184028D02*
D03*
X376969Y151575D02*
D03*
X392717D02*
D03*
Y136811D02*
D03*
X357679Y163372D02*
D03*
X352362Y159449D02*
D03*
X346457Y170276D02*
D03*
X335630Y147638D02*
D03*
X335155Y167601D02*
D03*
X366142Y150591D02*
D03*
X335536Y182540D02*
D03*
X37402Y112205D02*
D03*
X27559Y112205D02*
D03*
X15748Y114173D02*
D03*
X9843D02*
D03*
X3937D02*
D03*
D125*
X-0Y7874D02*
X67Y6846D01*
X268Y5836D01*
X599Y4861D01*
X1055Y3937D01*
X1627Y3081D01*
X2306Y2306D01*
X3081Y1627D01*
X3937Y1055D01*
X4861Y599D01*
X5836Y268D01*
X6846Y67D01*
X7874Y0D01*
X779528Y-0D02*
X780555Y67D01*
X781566Y268D01*
X782541Y599D01*
X783464Y1055D01*
X784321Y1627D01*
X785095Y2306D01*
X785774Y3081D01*
X786347Y3937D01*
X786802Y4861D01*
X787133Y5836D01*
X787334Y6846D01*
X787402Y7874D01*
Y188976D02*
X787334Y190004D01*
X787133Y191014D01*
X786802Y191990D01*
X786347Y192913D01*
X785774Y193770D01*
X785095Y194544D01*
X784321Y195223D01*
X783464Y195796D01*
X782541Y196251D01*
X781566Y196582D01*
X780555Y196783D01*
X779528Y196850D01*
X7874Y196850D02*
X6846Y196783D01*
X5836Y196582D01*
X4861Y196251D01*
X3937Y195796D01*
X3081Y195223D01*
X2306Y194544D01*
X1627Y193770D01*
X1055Y192913D01*
X599Y191990D01*
X268Y191014D01*
X67Y190004D01*
X0Y188976D01*
X7874Y0D02*
X779528Y-0D01*
X787402Y7874D02*
Y188976D01*
X7874Y196850D02*
X779528Y196850D01*
X-0Y7874D02*
Y188976D01*
D126*
X524097Y80598D02*
D03*
X516223D02*
D03*
X524097Y16575D02*
D03*
X516223D02*
D03*
X594963Y148367D02*
D03*
X587089D02*
D03*
X594963Y80598D02*
D03*
X587089D02*
D03*
X594963Y16575D02*
D03*
X587089D02*
D03*
X665829Y148367D02*
D03*
X657955D02*
D03*
X665829Y80598D02*
D03*
X657955D02*
D03*
X665829Y16575D02*
D03*
X657955D02*
D03*
X736642Y148358D02*
D03*
X728768D02*
D03*
X736642Y80598D02*
D03*
X728768D02*
D03*
X736642Y16575D02*
D03*
X728768D02*
D03*
X524097Y148367D02*
D03*
X516223D02*
D03*
X146705Y187008D02*
D03*
X138807D02*
D03*
X206693Y187205D02*
D03*
X48228D02*
D03*
X93504Y187008D02*
D03*
X101406D02*
D03*
X9843Y66957D02*
D03*
D127*
X80948Y89425D02*
D03*
X36220Y120079D02*
D03*
X13780D02*
D03*
X14026Y129865D02*
D03*
X35680D02*
D03*
X9620Y108831D02*
D03*
X9843Y91929D02*
D03*
Y98425D02*
D03*
M02*
