M48
;Layer_Color=9474304
;FILE_FORMAT=2:4
INCH,TZ
;TYPE=PLATED
T1F00S00C0.0079
T2F00S00C0.0100
T5F00S00C0.0280
T6F00S00C0.0315
T7F00S00C0.1181
%
T01
X29740Y15303
X30292
X30016Y15579
Y16130
X30292Y15854
X29740
Y16406
X30292
X30567Y16130
Y15579
X29465
Y16130
X14459Y7185
X14075
Y6801
Y7569
X13691Y7185
T02
X4033Y851
X77162Y7859
X77161Y11409
X71437Y10231
X70213Y10310
X64355Y10231
X63177Y10270
X63202Y3889
X64355Y3829
X70154Y3908
X71437Y3829
Y17007
X70219Y17087
X64355Y17008
X63080Y17063
X57269Y17008
X56067Y17069
X50182Y17008
X50182Y10231
X49443Y9643
X49409Y8957
X49902Y8661
Y8169
Y7677
Y7185
X47441Y7087
Y7480
X45731Y7471
X45571Y8268
Y8760
Y9252
Y9744
X46627Y10289
X45404Y12001
X45420Y13016
X49017Y3895
X50182Y3829
X56111Y3895
X57269Y3829
Y10231
X56086Y10294
X43406Y12008
X43586Y13692
X41732Y13780
X40453Y13583
X39272Y13681
X38878Y12795
X37601Y13048
X37613Y12349
X37668Y13749
X37697Y15157
X37078Y15060
X36614Y15059
X35728Y14370
X35335Y14272
X35565Y13491
X35558Y12910
X35630Y12402
X34055Y11909
X33550Y14234
X33563Y14764
Y15256
X33516Y16760
X34646Y17028
X35236Y15945
X35768Y16337
X33554Y18254
X31496Y17224
X30327Y12707
X30162Y11040
X30622Y9239
X33366Y9252
X34252Y7579
X34941Y8169
X34252Y5610
X30315Y5020
X30316Y4457
X29683Y5554
Y5864
X29655Y6893
X39272Y3543
X44034Y6490
X44307Y6807
X44685Y6299
X43012Y8268
Y8760
X41732Y11024
X39272Y15157
X44135Y15353
X29134Y14272
X28839Y13681
X28014Y14681
X27762Y15493
X25435Y15549
X24803Y14862
Y13878
X25386Y13112
X25886Y13386
X26378Y11516
X26673Y9941
X28346Y11220
X28740Y11122
X29499Y11086
X29226Y7533
X28346Y6693
X29373Y5864
Y5554
X28740Y5020
Y4528
X28346Y4331
X28316Y4770
X26099Y4482
X26094Y6713
X22933Y6890
X22942Y6295
X22933Y5709
X22343
Y6299
X22638Y5315
X20374Y5709
X20374Y6299
X20918Y6288
X20805Y8345
X21457Y9843
X22047
X20669Y11417
X20064Y12735
X19257Y12691
X19454Y13926
X19953Y13927
X18939Y13926
X18103Y13204
X18110Y11713
X17030Y9694
X17345Y8170
X18701Y8071
X18697Y6316
X18110Y6791
X15440Y6803
X15256Y6102
X14921Y6339
X15533Y7603
X15354Y8465
X14961
X14468Y8563
X14567Y10039
Y11417
X14173Y11220
Y11713
X14021Y12180
X14370Y16339
X17421Y17126
X19882
X22402Y17516
X25366Y17631
X19390Y9252
X13780Y8760
X13434Y8364
X13138Y8175
X12679Y8116
X12203Y8122
X11708Y8147
X11713Y7677
Y7185
X12205Y6988
X12975Y6401
X13280Y6391
X13117Y5429
X13091Y4724
X12932Y9137
X10656Y9204
X9350Y8957
X9022Y9402
X9350Y12500
X8465
X7776Y12992
X7874Y13386
X7776Y13780
X6791Y13878
X7341Y14870
X6374Y15496
X5304Y15228
X6555Y17219
X7087Y18209
X9366Y14168
X10731Y13831
X12759Y16442
X13681Y11811
X11244Y7996
X6890Y6890
X6890Y6299
X7382
X6890Y5709
X3740Y9921
X2756
X2756Y11220
X3740Y11220
X1575Y11417
X984
X394
X5610Y12106
X886Y3937
X16801Y18377
X18508Y18386
X23620Y18413
X25337Y18444
X26683Y18261
X26670Y18800
X28592Y19095
X33548Y18758
X34059Y19122
X34552Y18727
X36811Y18996
X39863Y18403
X41536
X45588Y18671
T05
X984Y9193
Y9843
X962Y10883
X1378Y12008
X1403Y12987
X1378Y14993
X3543
X3568Y12987
X3622Y12008
X8095Y8943
T06
X51622Y1657
X52410
X58709
X59496
X65796
X66583
X72877
X73664
X73664Y8060
X72877
X66583
X65796
X65796Y14837
X66583
X72877Y14836
X73664
X59496Y14837
X58709
X52410
X51622
X51622Y8060
X52410
X58709
X59496
X984Y7485
Y6696
Y5906
X4823Y18720
X5610
X9350Y18701
X10141
X10930
X13091
X13881
X14670
X20669Y18720
X21457
T07
X1969Y1969
X43307
X76772
X76772Y17717
X43307
X1969
M30
