G04*
G04 #@! TF.GenerationSoftware,Altium Limited,Altium Designer,22.8.2 (66)*
G04*
G04 Layer_Color=16711935*
%FSLAX25Y25*%
%MOIN*%
G70*
G04*
G04 #@! TF.SameCoordinates,F23DE1FB-CEBC-40D8-82DF-6EE2EAA0B71B*
G04*
G04*
G04 #@! TF.FilePolarity,Negative*
G04*
G01*
G75*
%ADD25R,0.04737X0.04343*%
%ADD26R,0.04343X0.04737*%
%ADD27R,0.10642X0.12611*%
%ADD28R,0.07099X0.04737*%
%ADD38R,0.06800X0.05524*%
%ADD47R,0.05524X0.05131*%
%ADD48R,0.05524X0.06800*%
%ADD54R,0.05131X0.05524*%
%ADD60R,0.05950X0.05950*%
%ADD61C,0.05950*%
%ADD64C,0.05328*%
%ADD65R,0.05328X0.05328*%
%ADD66R,0.05328X0.05328*%
%ADD67O,0.20879X0.21272*%
G04:AMPARAMS|DCode=68|XSize=76.77mil|YSize=76.77mil|CornerRadius=21.16mil|HoleSize=0mil|Usage=FLASHONLY|Rotation=0.000|XOffset=0mil|YOffset=0mil|HoleType=Round|Shape=RoundedRectangle|*
%AMROUNDEDRECTD68*
21,1,0.07677,0.03445,0,0,0.0*
21,1,0.03445,0.07677,0,0,0.0*
1,1,0.04232,0.01722,-0.01722*
1,1,0.04232,-0.01722,-0.01722*
1,1,0.04232,-0.01722,0.01722*
1,1,0.04232,0.01722,0.01722*
%
%ADD68ROUNDEDRECTD68*%
G04:AMPARAMS|DCode=69|XSize=57.21mil|YSize=55.24mil|CornerRadius=15.81mil|HoleSize=0mil|Usage=FLASHONLY|Rotation=180.000|XOffset=0mil|YOffset=0mil|HoleType=Round|Shape=RoundedRectangle|*
%AMROUNDEDRECTD69*
21,1,0.05721,0.02362,0,0,180.0*
21,1,0.02559,0.05524,0,0,180.0*
1,1,0.03162,-0.01280,0.01181*
1,1,0.03162,0.01280,0.01181*
1,1,0.03162,0.01280,-0.01181*
1,1,0.03162,-0.01280,-0.01181*
%
%ADD69ROUNDEDRECTD69*%
%ADD137R,0.04580X0.06233*%
%ADD138R,0.10642X0.09855*%
%ADD139R,0.03200X0.07200*%
%ADD140R,0.03000X0.09800*%
D25*
X360236Y130315D02*
D03*
Y123622D02*
D03*
X368110Y130315D02*
D03*
Y123622D02*
D03*
X271654Y154921D02*
D03*
Y148228D02*
D03*
X49213Y124606D02*
D03*
Y131299D02*
D03*
X56102Y131299D02*
D03*
Y124606D02*
D03*
D26*
X301575Y105315D02*
D03*
X294882D02*
D03*
X207283Y180118D02*
D03*
X213976D02*
D03*
X286811Y142717D02*
D03*
X280118D02*
D03*
X62598Y148622D02*
D03*
X69291D02*
D03*
D27*
X217717Y143701D02*
D03*
D28*
X242323Y138583D02*
D03*
Y148819D02*
D03*
D38*
X274606Y53087D02*
D03*
Y61087D02*
D03*
X130905Y68835D02*
D03*
Y76835D02*
D03*
X102362Y137858D02*
D03*
Y129858D02*
D03*
X280512Y183008D02*
D03*
Y191008D02*
D03*
D47*
X457283Y69882D02*
D03*
X450197D02*
D03*
X461221Y120079D02*
D03*
X454134D02*
D03*
X461221Y129921D02*
D03*
X454134D02*
D03*
X298819Y45276D02*
D03*
X291732D02*
D03*
X242520Y131257D02*
D03*
X249607D02*
D03*
X201378Y122047D02*
D03*
X194291D02*
D03*
X152165Y89567D02*
D03*
X145079D02*
D03*
X249530Y155955D02*
D03*
X242443D02*
D03*
X131299Y180118D02*
D03*
X138386D02*
D03*
X131299Y172244D02*
D03*
X138386D02*
D03*
X55709Y180118D02*
D03*
X48622D02*
D03*
X172613Y183858D02*
D03*
X179699D02*
D03*
X248622Y176181D02*
D03*
X241535D02*
D03*
X248622Y184055D02*
D03*
X241535D02*
D03*
X410433Y184055D02*
D03*
X403346D02*
D03*
D48*
X291276Y36417D02*
D03*
X299276D02*
D03*
D54*
X434055Y131496D02*
D03*
Y124409D02*
D03*
X375984Y130512D02*
D03*
Y123425D02*
D03*
X283465Y60630D02*
D03*
Y53543D02*
D03*
X122047Y76378D02*
D03*
Y69291D02*
D03*
X150591Y72244D02*
D03*
Y79331D02*
D03*
X84646Y130315D02*
D03*
Y137402D02*
D03*
X93504D02*
D03*
Y130315D02*
D03*
X271654Y183465D02*
D03*
Y190551D02*
D03*
D60*
X524097Y80598D02*
D03*
Y16575D02*
D03*
X594963Y148367D02*
D03*
X594963Y80598D02*
D03*
Y16575D02*
D03*
X665829Y148367D02*
D03*
X665829Y80598D02*
D03*
X665829Y16575D02*
D03*
X736642Y148358D02*
D03*
X736642Y80598D02*
D03*
X736642Y16575D02*
D03*
X524097Y148367D02*
D03*
X206693Y187205D02*
D03*
X48228D02*
D03*
D61*
X516223Y80598D02*
D03*
Y16575D02*
D03*
X587089Y148367D02*
D03*
X587089Y80598D02*
D03*
Y16575D02*
D03*
X657955Y148367D02*
D03*
X657955Y80598D02*
D03*
X657955Y16575D02*
D03*
X728768Y148358D02*
D03*
X728768Y80598D02*
D03*
X728768Y16575D02*
D03*
X516223Y148367D02*
D03*
X214567Y187205D02*
D03*
X56102D02*
D03*
D64*
X146705Y187008D02*
D03*
X138807D02*
D03*
X101406D02*
D03*
X109303D02*
D03*
X9843Y66957D02*
D03*
Y74854D02*
D03*
D65*
X130905Y187008D02*
D03*
X93504D02*
D03*
D66*
X9843Y59055D02*
D03*
D67*
X19685Y19685D02*
D03*
Y177165D02*
D03*
X433071Y19685D02*
D03*
Y177165D02*
D03*
X767717D02*
D03*
X767717Y19685D02*
D03*
D68*
X353323Y189866D02*
D03*
X382398Y189866D02*
D03*
D69*
X377953Y179528D02*
D03*
X358268D02*
D03*
D137*
X201685Y114173D02*
D03*
X193984D02*
D03*
D138*
X41339Y164370D02*
D03*
X61024D02*
D03*
D139*
X56650Y139701D02*
D03*
X49150D02*
D03*
X52900Y147158D02*
D03*
D140*
X360984Y143643D02*
D03*
X365984Y143643D02*
D03*
X370984D02*
D03*
X375984D02*
D03*
X380984Y143643D02*
D03*
X385984Y143643D02*
D03*
X390984Y143643D02*
D03*
Y163443D02*
D03*
X385984Y163443D02*
D03*
X380984D02*
D03*
X375984D02*
D03*
X370984D02*
D03*
X365984D02*
D03*
X360984D02*
D03*
M02*
