G04*
G04 #@! TF.GenerationSoftware,Altium Limited,Altium Designer,22.8.2 (66)*
G04*
G04 Layer_Color=255*
%FSLAX25Y25*%
%MOIN*%
G70*
G04*
G04 #@! TF.SameCoordinates,F23DE1FB-CEBC-40D8-82DF-6EE2EAA0B71B*
G04*
G04*
G04 #@! TF.FilePolarity,Positive*
G04*
G01*
G75*
%ADD16C,0.02000*%
%ADD73R,0.03937X0.03543*%
%ADD74R,0.03543X0.03937*%
%ADD75R,0.09843X0.11811*%
%ADD76R,0.06299X0.03937*%
%ADD88R,0.06000X0.04724*%
%ADD97R,0.04724X0.04331*%
%ADD98R,0.04724X0.06000*%
%ADD104R,0.04331X0.04724*%
%ADD113R,0.05150X0.05150*%
%ADD114C,0.05150*%
%ADD115C,0.01181*%
%ADD116C,0.01575*%
%ADD117C,0.04528*%
%ADD118R,0.04528X0.04528*%
%ADD119R,0.04528X0.04528*%
%ADD120O,0.20079X0.20472*%
G04:AMPARAMS|DCode=121|XSize=68.9mil|YSize=68.9mil|CornerRadius=17.22mil|HoleSize=0mil|Usage=FLASHONLY|Rotation=0.000|XOffset=0mil|YOffset=0mil|HoleType=Round|Shape=RoundedRectangle|*
%AMROUNDEDRECTD121*
21,1,0.06890,0.03445,0,0,0.0*
21,1,0.03445,0.06890,0,0,0.0*
1,1,0.03445,0.01722,-0.01722*
1,1,0.03445,-0.01722,-0.01722*
1,1,0.03445,-0.01722,0.01722*
1,1,0.03445,0.01722,0.01722*
%
%ADD121ROUNDEDRECTD121*%
G04:AMPARAMS|DCode=122|XSize=49.21mil|YSize=47.24mil|CornerRadius=11.81mil|HoleSize=0mil|Usage=FLASHONLY|Rotation=180.000|XOffset=0mil|YOffset=0mil|HoleType=Round|Shape=RoundedRectangle|*
%AMROUNDEDRECTD122*
21,1,0.04921,0.02362,0,0,180.0*
21,1,0.02559,0.04724,0,0,180.0*
1,1,0.02362,-0.01280,0.01181*
1,1,0.02362,0.01280,0.01181*
1,1,0.02362,0.01280,-0.01181*
1,1,0.02362,-0.01280,-0.01181*
%
%ADD122ROUNDEDRECTD122*%
%ADD133R,0.03780X0.05433*%
%ADD134R,0.09843X0.09055*%
%ADD135R,0.02400X0.06400*%
%ADD136R,0.02200X0.09000*%
D16*
X293726Y55537D02*
D03*
Y58637D02*
D03*
X296826Y55537D02*
D03*
Y58637D02*
D03*
D73*
X360236Y130315D02*
D03*
Y123622D02*
D03*
X368110Y130315D02*
D03*
Y123622D02*
D03*
X271654Y154921D02*
D03*
Y148228D02*
D03*
X49213Y124606D02*
D03*
Y131299D02*
D03*
X56102Y131299D02*
D03*
Y124606D02*
D03*
D74*
X301575Y105315D02*
D03*
X294882D02*
D03*
X207283Y180118D02*
D03*
X213976D02*
D03*
X286811Y142717D02*
D03*
X280118D02*
D03*
X62598Y148622D02*
D03*
X69291D02*
D03*
D75*
X217717Y143701D02*
D03*
D76*
X242323Y138583D02*
D03*
Y148819D02*
D03*
D88*
X274606Y53087D02*
D03*
Y61087D02*
D03*
X130905Y68835D02*
D03*
Y76835D02*
D03*
X102362Y137858D02*
D03*
Y129858D02*
D03*
X280512Y183008D02*
D03*
Y191008D02*
D03*
D97*
X457283Y69882D02*
D03*
X450197D02*
D03*
X461221Y120079D02*
D03*
X454134D02*
D03*
X461221Y129921D02*
D03*
X454134D02*
D03*
X298819Y45276D02*
D03*
X291732D02*
D03*
X242520Y131257D02*
D03*
X249607D02*
D03*
X201378Y122047D02*
D03*
X194291D02*
D03*
X152165Y89567D02*
D03*
X145079D02*
D03*
X249530Y155955D02*
D03*
X242443D02*
D03*
X131299Y180118D02*
D03*
X138386D02*
D03*
X131299Y172244D02*
D03*
X138386D02*
D03*
X55709Y180118D02*
D03*
X48622D02*
D03*
X172613Y183858D02*
D03*
X179699D02*
D03*
X248622Y176181D02*
D03*
X241535D02*
D03*
X248622Y184055D02*
D03*
X241535D02*
D03*
X410433Y184055D02*
D03*
X403346D02*
D03*
D98*
X291276Y36417D02*
D03*
X299276D02*
D03*
D104*
X434055Y131496D02*
D03*
Y124409D02*
D03*
X375984Y130512D02*
D03*
Y123425D02*
D03*
X283465Y60630D02*
D03*
Y53543D02*
D03*
X122047Y76378D02*
D03*
Y69291D02*
D03*
X150591Y72244D02*
D03*
Y79331D02*
D03*
X84646Y130315D02*
D03*
Y137402D02*
D03*
X93504D02*
D03*
Y130315D02*
D03*
X271654Y183465D02*
D03*
Y190551D02*
D03*
D113*
X524097Y80598D02*
D03*
Y16575D02*
D03*
X594963Y148367D02*
D03*
X594963Y80598D02*
D03*
Y16575D02*
D03*
X665829Y148367D02*
D03*
X665829Y80598D02*
D03*
X665829Y16575D02*
D03*
X736642Y148358D02*
D03*
X736642Y80598D02*
D03*
X736642Y16575D02*
D03*
X524097Y148367D02*
D03*
X206693Y187205D02*
D03*
X48228D02*
D03*
D114*
X516223Y80598D02*
D03*
Y16575D02*
D03*
X587089Y148367D02*
D03*
X587089Y80598D02*
D03*
Y16575D02*
D03*
X657955Y148367D02*
D03*
X657955Y80598D02*
D03*
X657955Y16575D02*
D03*
X728768Y148358D02*
D03*
X728768Y80598D02*
D03*
X728768Y16575D02*
D03*
X516223Y148367D02*
D03*
X214567Y187205D02*
D03*
X56102D02*
D03*
D115*
X302916Y153032D02*
D03*
X300160Y155787D02*
D03*
X294648D02*
D03*
X297404Y158543D02*
D03*
X300160Y161299D02*
D03*
X297404Y164055D02*
D03*
X294648Y161299D02*
D03*
X302916Y158543D02*
D03*
X305672Y161299D02*
D03*
Y155787D02*
D03*
X302916Y164055D02*
D03*
X297404Y153032D02*
D03*
D116*
X136909Y71850D02*
D03*
X140748Y68012D02*
D03*
X144587Y71850D02*
D03*
X140748Y75689D02*
D03*
Y71850D02*
D03*
D117*
X146705Y187008D02*
D03*
X138807D02*
D03*
X101406D02*
D03*
X109303D02*
D03*
X9843Y66957D02*
D03*
Y74854D02*
D03*
D118*
X130905Y187008D02*
D03*
X93504D02*
D03*
D119*
X9843Y59055D02*
D03*
D120*
X19685Y19685D02*
D03*
Y177165D02*
D03*
X433071Y19685D02*
D03*
Y177165D02*
D03*
X767717D02*
D03*
X767717Y19685D02*
D03*
D121*
X353323Y189866D02*
D03*
X382398Y189866D02*
D03*
D122*
X377953Y179528D02*
D03*
X358268D02*
D03*
D133*
X201685Y114173D02*
D03*
X193984D02*
D03*
D134*
X41339Y164370D02*
D03*
X61024D02*
D03*
D135*
X56650Y139701D02*
D03*
X49150D02*
D03*
X52900Y147158D02*
D03*
D136*
X360984Y143643D02*
D03*
X365984Y143643D02*
D03*
X370984D02*
D03*
X375984D02*
D03*
X380984Y143643D02*
D03*
X385984Y143643D02*
D03*
X390984Y143643D02*
D03*
Y163443D02*
D03*
X385984Y163443D02*
D03*
X380984D02*
D03*
X375984D02*
D03*
X370984D02*
D03*
X365984D02*
D03*
X360984D02*
D03*
M02*
