G04*
G04 #@! TF.GenerationSoftware,Altium Limited,Altium Designer,22.8.2 (66)*
G04*
G04 Layer_Physical_Order=1*
G04 Layer_Color=255*
%FSLAX25Y25*%
%MOIN*%
G70*
G04*
G04 #@! TF.SameCoordinates,F23DE1FB-CEBC-40D8-82DF-6EE2EAA0B71B*
G04*
G04*
G04 #@! TF.FilePolarity,Positive*
G04*
G01*
G75*
%ADD11C,0.00787*%
%ADD12C,0.01181*%
%ADD16C,0.02000*%
%ADD70R,0.05807X0.01772*%
%ADD71R,0.07874X0.05906*%
%ADD72R,0.06600X0.02200*%
%ADD73R,0.03937X0.03543*%
%ADD74R,0.03543X0.03937*%
%ADD75R,0.09843X0.11811*%
%ADD76R,0.06299X0.03937*%
%ADD77R,0.07800X0.02200*%
%ADD78R,0.05906X0.01772*%
%ADD79R,0.03150X0.03150*%
%ADD80R,0.03543X0.03543*%
%ADD81R,0.05906X0.03543*%
%ADD82R,0.03543X0.05906*%
%ADD83C,0.02756*%
%ADD84R,0.01378X0.03937*%
%ADD85R,0.03937X0.01378*%
%ADD86R,0.08504X0.08504*%
%ADD87R,0.13780X0.07874*%
%ADD88R,0.06000X0.04724*%
%ADD89R,0.02362X0.05906*%
%ADD90R,0.03000X0.05000*%
%ADD91R,0.10500X0.10000*%
%ADD92R,0.06693X0.07874*%
%ADD93R,0.05512X0.03937*%
%ADD94R,0.01063X0.03386*%
%ADD95R,0.03386X0.01063*%
%ADD96R,0.09646X0.09646*%
%ADD97R,0.04724X0.04331*%
%ADD98R,0.04724X0.06000*%
%ADD99R,0.02000X0.02000*%
%ADD100R,0.06400X0.02000*%
%ADD101R,0.03600X0.04300*%
%ADD102R,0.09843X0.06299*%
%ADD103R,0.03150X0.03150*%
%ADD104R,0.04331X0.04724*%
%ADD105R,0.07874X0.13780*%
%ADD106R,0.09843X0.11580*%
%ADD107R,0.12953X0.05276*%
%ADD108R,0.01575X0.05315*%
%ADD109R,0.05906X0.06102*%
%ADD110C,0.01968*%
%ADD111C,0.00984*%
%ADD112C,0.02756*%
%ADD113R,0.05150X0.05150*%
%ADD114C,0.05150*%
%ADD115C,0.01181*%
%ADD116C,0.01575*%
%ADD117C,0.04528*%
%ADD118R,0.04528X0.04528*%
%ADD119R,0.04528X0.04528*%
%ADD120O,0.20079X0.20472*%
G04:AMPARAMS|DCode=121|XSize=68.9mil|YSize=68.9mil|CornerRadius=17.22mil|HoleSize=0mil|Usage=FLASHONLY|Rotation=0.000|XOffset=0mil|YOffset=0mil|HoleType=Round|Shape=RoundedRectangle|*
%AMROUNDEDRECTD121*
21,1,0.06890,0.03445,0,0,0.0*
21,1,0.03445,0.06890,0,0,0.0*
1,1,0.03445,0.01722,-0.01722*
1,1,0.03445,-0.01722,-0.01722*
1,1,0.03445,-0.01722,0.01722*
1,1,0.03445,0.01722,0.01722*
%
%ADD121ROUNDEDRECTD121*%
G04:AMPARAMS|DCode=122|XSize=49.21mil|YSize=47.24mil|CornerRadius=11.81mil|HoleSize=0mil|Usage=FLASHONLY|Rotation=180.000|XOffset=0mil|YOffset=0mil|HoleType=Round|Shape=RoundedRectangle|*
%AMROUNDEDRECTD122*
21,1,0.04921,0.02362,0,0,180.0*
21,1,0.02559,0.04724,0,0,180.0*
1,1,0.02362,-0.01280,0.01181*
1,1,0.02362,0.01280,0.01181*
1,1,0.02362,0.01280,-0.01181*
1,1,0.02362,-0.01280,-0.01181*
%
%ADD122ROUNDEDRECTD122*%
%ADD123C,0.01968*%
%ADD124C,0.05000*%
G36*
X779528Y194843D02*
X780105D01*
X781239Y194618D01*
X782307Y194176D01*
X783267Y193534D01*
X784085Y192716D01*
X784727Y191755D01*
X785169Y190688D01*
X785394Y189554D01*
X785394Y188976D01*
X785394Y7874D01*
Y7296D01*
X785169Y6163D01*
X784727Y5095D01*
X784085Y4134D01*
X783267Y3317D01*
X782307Y2675D01*
X781239Y2232D01*
X780105Y2007D01*
X779528Y2007D01*
X381890Y2007D01*
Y11795D01*
X386311D01*
Y15748D01*
Y19701D01*
X381890D01*
Y21948D01*
X382283Y22205D01*
X382390Y22205D01*
X391339D01*
Y29291D01*
X382390D01*
X382283Y29291D01*
X381890Y29548D01*
Y31948D01*
X382283Y32205D01*
X382390Y32205D01*
X391339D01*
Y33879D01*
X391825Y34098D01*
X392403Y33858D01*
X393030D01*
X393609Y34098D01*
X394052Y34541D01*
X394291Y35120D01*
Y35746D01*
X394052Y36325D01*
X393609Y36768D01*
X393030Y37008D01*
X392403D01*
X391825Y36768D01*
X391339Y36987D01*
Y39291D01*
X382390D01*
X382283Y39291D01*
X381890Y39548D01*
Y41339D01*
X492010D01*
Y39951D01*
X491392D01*
X491060Y40283D01*
X490482Y40523D01*
X489855D01*
X489276Y40283D01*
X488833Y39840D01*
X488593Y39261D01*
Y38635D01*
X488833Y38056D01*
X489276Y37613D01*
X489855Y37373D01*
X490482D01*
X491060Y37613D01*
X491392Y37944D01*
X492010D01*
Y36653D01*
X497128D01*
Y41378D01*
X494095D01*
Y43346D01*
X497128D01*
Y46848D01*
X497623Y47343D01*
X503219D01*
Y46656D01*
X511000D01*
Y50037D01*
X503219D01*
Y49350D01*
X497207D01*
X496823Y49273D01*
X496497Y49056D01*
X495512Y48070D01*
X494095D01*
Y74699D01*
X494556Y74891D01*
X497441Y72006D01*
Y71537D01*
X497681Y70958D01*
X498124Y70515D01*
X498702Y70276D01*
X499329D01*
X499908Y70515D01*
X500351Y70958D01*
X500591Y71537D01*
Y72164D01*
X500351Y72742D01*
X499908Y73185D01*
X499329Y73425D01*
X498860D01*
X494095Y78191D01*
Y79620D01*
X494556Y79812D01*
X497441Y76927D01*
Y76458D01*
X497681Y75880D01*
X498124Y75437D01*
X498702Y75197D01*
X499329D01*
X499908Y75437D01*
X500351Y75880D01*
X500591Y76458D01*
Y77085D01*
X500351Y77664D01*
X499908Y78107D01*
X499329Y78347D01*
X498860D01*
X494706Y82501D01*
X494380Y82718D01*
X494095Y82775D01*
Y83347D01*
X495943D01*
X497441Y81849D01*
Y81380D01*
X497681Y80801D01*
X498124Y80358D01*
X498702Y80118D01*
X499329D01*
X499908Y80358D01*
X500351Y80801D01*
X500591Y81380D01*
Y82006D01*
X500351Y82585D01*
X499908Y83028D01*
X499329Y83268D01*
X498860D01*
X497068Y85060D01*
X496742Y85277D01*
X496358Y85354D01*
X494095D01*
Y85906D01*
X497605D01*
X497681Y85722D01*
X498124Y85279D01*
X498702Y85039D01*
X499329D01*
X499908Y85279D01*
X500351Y85722D01*
X500591Y86301D01*
Y86927D01*
X500351Y87506D01*
X499908Y87949D01*
X499329Y88189D01*
X498702D01*
X498124Y87949D01*
X498088Y87913D01*
X495375D01*
X495168Y88413D01*
X495430Y88675D01*
X495669Y89254D01*
Y89880D01*
X495430Y90459D01*
X494986Y90902D01*
X494408Y91142D01*
X494095D01*
Y94669D01*
X494279Y94854D01*
X494748D01*
X495327Y95094D01*
X495770Y95537D01*
X496010Y96115D01*
Y96742D01*
X495770Y97321D01*
X495327Y97764D01*
X494748Y98003D01*
X494122D01*
X494095Y98022D01*
Y100677D01*
X497128D01*
Y105401D01*
X494095D01*
Y107370D01*
X497128D01*
Y110872D01*
X497623Y111366D01*
X503219D01*
Y110679D01*
X511000D01*
Y114060D01*
X503219D01*
Y113373D01*
X497207D01*
X496823Y113297D01*
X496497Y113079D01*
X495512Y112094D01*
X494095D01*
Y168446D01*
X497128D01*
Y173170D01*
X494095D01*
Y175139D01*
X497128D01*
Y178641D01*
X497623Y179135D01*
X503219D01*
Y178448D01*
X511000D01*
Y181830D01*
X503219D01*
Y181142D01*
X497207D01*
X496823Y181066D01*
X496497Y180849D01*
X495512Y179863D01*
X494095D01*
Y194843D01*
X779528Y194843D01*
D02*
G37*
G36*
X322581Y112439D02*
X322658Y112055D01*
X322875Y111729D01*
X325817Y108787D01*
X325610Y108287D01*
X295300D01*
X294803Y108784D01*
X295010Y109284D01*
X295300D01*
X295878Y109524D01*
X296321Y109967D01*
X296561Y110546D01*
Y111172D01*
X296321Y111751D01*
X295878Y112194D01*
X295300Y112434D01*
X294673D01*
X294094Y112194D01*
X293651Y111751D01*
X293411Y111172D01*
Y110882D01*
X292982Y110605D01*
X290072Y113514D01*
X290264Y113976D01*
X291085Y113976D01*
X291447Y113976D01*
X295723D01*
X296085Y113976D01*
X296447Y113976D01*
X300723D01*
X301085Y113976D01*
X301447Y113976D01*
X305723D01*
X306085Y113976D01*
X306447Y113976D01*
X310723D01*
X311085Y113976D01*
X311447Y113976D01*
X315723D01*
X316085Y113976D01*
X316447Y113976D01*
X320723D01*
X321085Y113976D01*
X321447Y113976D01*
X322581D01*
Y112439D01*
D02*
G37*
G36*
X450772Y194843D02*
Y187508D01*
X455709D01*
X460646D01*
Y194843D01*
X482267D01*
Y131496D01*
X473622D01*
Y118504D01*
X482267D01*
Y101796D01*
X478620Y98149D01*
X470195D01*
Y99205D01*
X466291D01*
X462388D01*
Y97819D01*
X462797D01*
Y93110D01*
Y90551D01*
Y87992D01*
Y85433D01*
Y82874D01*
Y80315D01*
Y77756D01*
Y75197D01*
Y72638D01*
Y70079D01*
X465288D01*
Y67101D01*
X462183Y63996D01*
X460433D01*
Y65551D01*
X455709D01*
Y61929D01*
X454611Y60832D01*
X454150Y61023D01*
Y62492D01*
X451878D01*
Y60024D01*
X453150D01*
X453341Y59562D01*
X451870Y58090D01*
X428400D01*
X413843Y72647D01*
X414062Y73085D01*
X414087Y73111D01*
X428721D01*
Y67520D01*
X427362D01*
Y62402D01*
X432087D01*
Y67520D01*
X430728D01*
Y73111D01*
X439663D01*
Y70079D01*
X442064D01*
Y69290D01*
X441732Y68959D01*
X441493Y68380D01*
Y67753D01*
X441732Y67175D01*
X442175Y66732D01*
X442754Y66492D01*
X443381D01*
X443959Y66732D01*
X444402Y67175D01*
X444642Y67753D01*
Y68380D01*
X444402Y68959D01*
X444071Y69290D01*
Y70079D01*
X446652D01*
Y72638D01*
Y75197D01*
Y77756D01*
Y80788D01*
X454657D01*
X455041Y80864D01*
X455367Y81082D01*
X455389Y81105D01*
X455395Y81102D01*
X456022D01*
X456601Y81342D01*
X457044Y81785D01*
X457283Y82364D01*
Y82990D01*
X457044Y83569D01*
X456601Y84012D01*
X456022Y84252D01*
X455395D01*
X454817Y84012D01*
X454374Y83569D01*
X454134Y82990D01*
Y82795D01*
X446652D01*
Y83347D01*
X452461D01*
X452845Y83423D01*
X453170Y83641D01*
X455553Y86024D01*
X456022D01*
X456601Y86263D01*
X457044Y86706D01*
X457283Y87285D01*
Y87912D01*
X457044Y88490D01*
X456601Y88933D01*
X456022Y89173D01*
X455395D01*
X454817Y88933D01*
X454374Y88490D01*
X454134Y87912D01*
Y87443D01*
X452045Y85354D01*
X446652D01*
Y85906D01*
X450098D01*
X450483Y85982D01*
X450808Y86200D01*
X455553Y90945D01*
X456022D01*
X456601Y91185D01*
X457044Y91628D01*
X457283Y92206D01*
Y92833D01*
X457044Y93412D01*
X456601Y93855D01*
X456022Y94095D01*
X455395D01*
X454817Y93855D01*
X454374Y93412D01*
X454134Y92833D01*
Y92364D01*
X449683Y87913D01*
X446652D01*
Y88465D01*
X447736D01*
X448120Y88541D01*
X448446Y88759D01*
X455553Y95866D01*
X456022D01*
X456601Y96106D01*
X457044Y96549D01*
X457283Y97128D01*
Y97754D01*
X457044Y98333D01*
X456601Y98776D01*
X456022Y99016D01*
X455395D01*
X454817Y98776D01*
X454374Y98333D01*
X454134Y97754D01*
Y97285D01*
X447321Y90472D01*
X446652D01*
Y93110D01*
Y95669D01*
Y98228D01*
Y101181D01*
X439663D01*
Y98228D01*
Y95669D01*
Y93110D01*
Y90551D01*
Y87992D01*
Y85433D01*
Y82874D01*
Y80236D01*
X415278D01*
X414321Y81193D01*
X414322Y81201D01*
X414547Y81674D01*
X428895D01*
X429226Y81342D01*
X429805Y81102D01*
X430431D01*
X431010Y81342D01*
X431453Y81785D01*
X431693Y82364D01*
Y82990D01*
X431453Y83569D01*
X431010Y84012D01*
X430431Y84252D01*
X429805D01*
X429226Y84012D01*
X428895Y83681D01*
X414786D01*
X412354Y86112D01*
X412361Y86163D01*
X412579Y86595D01*
X428895D01*
X429226Y86263D01*
X429805Y86024D01*
X430431D01*
X431010Y86263D01*
X431453Y86706D01*
X431693Y87285D01*
Y87912D01*
X431453Y88490D01*
X431010Y88933D01*
X430431Y89173D01*
X429805D01*
X429226Y88933D01*
X428895Y88602D01*
X412830D01*
X389162Y112269D01*
X388837Y112487D01*
X388453Y112563D01*
X333780D01*
X330947Y115396D01*
Y121063D01*
X326447D01*
X326085Y121063D01*
X325723Y121063D01*
X321447D01*
X321085Y121063D01*
X320723Y121063D01*
X316447D01*
X316085Y121063D01*
X315723Y121063D01*
X311447D01*
X311085Y121063D01*
X310723Y121063D01*
X306447D01*
X306085Y121063D01*
X305723Y121063D01*
X301447D01*
X301085Y121063D01*
X300723Y121063D01*
X296447D01*
X296085Y121063D01*
X295723Y121063D01*
X291447D01*
X291085Y121063D01*
X290723Y121063D01*
X286356D01*
Y121473D01*
X284085D01*
Y117520D01*
Y113567D01*
X286356D01*
Y113976D01*
X287581D01*
Y113583D01*
X287658Y113199D01*
X287875Y112873D01*
X292402Y108347D01*
X292402Y108347D01*
X293930Y106818D01*
X293723Y106318D01*
X284864D01*
X280531Y110652D01*
Y113184D01*
X280813Y113567D01*
X283085D01*
Y117520D01*
Y121473D01*
X280813D01*
X280531Y121856D01*
Y129921D01*
X280455Y130305D01*
X280237Y130631D01*
X277717Y133151D01*
X277392Y133368D01*
X277008Y133444D01*
X275513D01*
X275160Y133798D01*
X275160Y134941D01*
X275160Y135303D01*
Y139579D01*
X275160Y139941D01*
X275160Y140303D01*
Y141437D01*
X275717D01*
X276101Y141514D01*
X276426Y141731D01*
X279934Y145239D01*
X280453D01*
X281032Y145479D01*
X281475Y145922D01*
X281715Y146500D01*
Y147127D01*
X281475Y147706D01*
X281032Y148149D01*
X280453Y148388D01*
X279827D01*
X279248Y148149D01*
X278805Y147706D01*
X278565Y147127D01*
Y146709D01*
X275660Y143803D01*
X275160Y144010D01*
X275160Y144941D01*
X275160Y145303D01*
Y146437D01*
X275887D01*
X276271Y146514D01*
X276596Y146731D01*
X278263Y148399D01*
X278481Y148724D01*
X278557Y149108D01*
Y153636D01*
X278956Y154035D01*
X279196Y154614D01*
Y155240D01*
X278956Y155819D01*
X278513Y156262D01*
X277934Y156502D01*
X277308D01*
X276729Y156262D01*
X276286Y155819D01*
X276046Y155240D01*
Y154614D01*
X276286Y154035D01*
X276550Y153770D01*
Y149524D01*
X275660Y148633D01*
X275160Y148840D01*
X275160Y149941D01*
X275160Y150303D01*
Y154579D01*
X275160Y154941D01*
X275160Y155303D01*
Y159803D01*
X275160D01*
Y160079D01*
X275160D01*
Y164579D01*
X275160Y164941D01*
X275160Y165303D01*
Y169579D01*
X275160Y169941D01*
X275160Y170303D01*
Y174579D01*
X275160Y174941D01*
X275160Y175303D01*
Y179579D01*
X275160Y179941D01*
X275160Y180303D01*
Y184669D01*
X275569D01*
Y186941D01*
X267664D01*
Y184669D01*
X267754D01*
X267910Y184325D01*
X267489Y184044D01*
X267139Y184189D01*
X266512D01*
X265934Y183949D01*
X265491Y183506D01*
X265251Y182927D01*
Y182301D01*
X265491Y181722D01*
X265934Y181279D01*
X266512Y181039D01*
X267139D01*
X267573Y181219D01*
X267968Y181031D01*
X268073Y180927D01*
X268073Y179941D01*
X268073Y179579D01*
Y178641D01*
X263268D01*
X262884Y178565D01*
X262558Y178347D01*
X258443Y174232D01*
X237208D01*
Y180709D01*
X241339D01*
Y188189D01*
X230315D01*
Y180709D01*
X235200D01*
Y173228D01*
Y172263D01*
X233071D01*
Y173819D01*
X228346D01*
Y168826D01*
X228346Y168701D01*
X228043Y168326D01*
X226681D01*
X226378Y168701D01*
X226378Y168826D01*
Y173819D01*
X225619D01*
X225473Y174067D01*
X225379Y174319D01*
X225597Y174843D01*
Y175470D01*
X225357Y176048D01*
X224914Y176491D01*
X224335Y176731D01*
X223709D01*
X223130Y176491D01*
X222687Y176048D01*
X222447Y175470D01*
Y174843D01*
X222664Y174319D01*
X222571Y174067D01*
X222425Y173819D01*
X221654D01*
Y168826D01*
X221654Y168701D01*
X221350Y168326D01*
X197798D01*
X197457Y168685D01*
X197457Y168826D01*
Y170760D01*
X194882D01*
X192307D01*
Y168826D01*
X192307Y168685D01*
X191966Y168326D01*
X189526D01*
X187795Y170057D01*
Y173819D01*
X186437D01*
Y180118D01*
X191142D01*
Y187598D01*
X180118D01*
Y180118D01*
X184430D01*
Y173819D01*
X183071D01*
Y168701D01*
X186313D01*
X188401Y166613D01*
X188727Y166396D01*
X189111Y166319D01*
X258858D01*
X259242Y166396D01*
X259568Y166613D01*
X264589Y171634D01*
X267720D01*
X268073Y171281D01*
X268073Y169941D01*
X268073Y169579D01*
Y168641D01*
X264094D01*
X263710Y168565D01*
X263385Y168347D01*
X259427Y164389D01*
X144924D01*
X144593Y164721D01*
X144014Y164961D01*
X143387D01*
X142809Y164721D01*
X142366Y164278D01*
X142126Y163699D01*
Y163073D01*
X142366Y162494D01*
X142809Y162051D01*
X143387Y161811D01*
X144014D01*
X144593Y162051D01*
X144924Y162382D01*
X259842D01*
X260227Y162459D01*
X260552Y162676D01*
X264510Y166634D01*
X267720D01*
X268073Y166281D01*
X268073Y164941D01*
X268073Y164579D01*
Y163641D01*
X265000D01*
X264616Y163565D01*
X264290Y163347D01*
X261395Y160452D01*
X143287D01*
X140551Y163188D01*
Y165437D01*
X147414Y172300D01*
X147632Y172626D01*
X147708Y173010D01*
Y184322D01*
X147806Y184348D01*
X148457Y184724D01*
X148989Y185255D01*
X149364Y185906D01*
X149559Y186632D01*
Y187384D01*
X149364Y188110D01*
X148989Y188760D01*
X148457Y189292D01*
X147806Y189668D01*
X147081Y189862D01*
X146329D01*
X145603Y189668D01*
X144952Y189292D01*
X144421Y188760D01*
X144045Y188110D01*
X143850Y187384D01*
Y186632D01*
X144045Y185906D01*
X144421Y185255D01*
X144952Y184724D01*
X145603Y184348D01*
X145701Y184322D01*
Y173426D01*
X141013Y168738D01*
X140551Y168929D01*
Y172835D01*
X139811D01*
Y184322D01*
X139909Y184348D01*
X140560Y184724D01*
X141091Y185255D01*
X141467Y185906D01*
X141661Y186632D01*
Y187384D01*
X141467Y188110D01*
X141091Y188760D01*
X140560Y189292D01*
X139909Y189668D01*
X139183Y189862D01*
X138431D01*
X137705Y189668D01*
X137055Y189292D01*
X136523Y188760D01*
X136147Y188110D01*
X135953Y187384D01*
Y186632D01*
X136147Y185906D01*
X136523Y185255D01*
X137055Y184724D01*
X137705Y184348D01*
X137803Y184322D01*
Y172835D01*
X135827D01*
Y167717D01*
X139305D01*
X139491Y167280D01*
X139202Y166929D01*
X135827D01*
Y161811D01*
X139090D01*
X141760Y159141D01*
X141552Y158641D01*
X92575D01*
X89191Y162025D01*
X89191Y162025D01*
X80315Y170901D01*
Y173606D01*
X81229Y174520D01*
X81446Y174845D01*
X81522Y175229D01*
Y179346D01*
X82910D01*
Y184827D01*
X79180D01*
X79120Y184839D01*
X74454D01*
X72854Y186439D01*
Y189471D01*
X72835Y189568D01*
Y193408D01*
X68110D01*
Y188289D01*
X70847D01*
Y186024D01*
X70923Y185640D01*
X71141Y185314D01*
X73329Y183126D01*
X73654Y182908D01*
X74038Y182832D01*
X78128D01*
Y179346D01*
X79515D01*
Y175645D01*
X78870Y175000D01*
X74410D01*
Y169488D01*
X78890D01*
X87062Y161316D01*
X84165Y158418D01*
X84053Y158465D01*
X83270D01*
X82546Y158165D01*
X81993Y157611D01*
X81693Y156888D01*
Y156105D01*
X81993Y155381D01*
X82546Y154827D01*
X83270Y154528D01*
X84053D01*
X84777Y154827D01*
X85330Y155381D01*
X85630Y156105D01*
Y156888D01*
X85584Y156999D01*
X88481Y159897D01*
X91450Y156928D01*
X91775Y156711D01*
X92159Y156634D01*
X267720D01*
X268073Y156281D01*
X268073Y154941D01*
X268073Y154579D01*
Y153641D01*
X138858D01*
X138474Y153565D01*
X138149Y153347D01*
X106868Y122066D01*
X57326D01*
X56994Y122398D01*
X56416Y122638D01*
X55789D01*
X55210Y122398D01*
X54767Y121955D01*
X54528Y121376D01*
Y120750D01*
X54767Y120171D01*
X55210Y119728D01*
X55789Y119488D01*
X56416D01*
X56994Y119728D01*
X57326Y120060D01*
X107283D01*
X107668Y120136D01*
X107993Y120353D01*
X139274Y151634D01*
X251068D01*
X251181Y151181D01*
X251181Y151134D01*
Y149626D01*
X249255D01*
X248923Y149957D01*
X248345Y150197D01*
X247718D01*
X247139Y149957D01*
X246696Y149514D01*
X246457Y148935D01*
Y148309D01*
X246696Y147730D01*
X247139Y147287D01*
X247718Y147047D01*
X248345D01*
X248923Y147287D01*
X249255Y147618D01*
X251181D01*
Y146063D01*
X255906D01*
Y151134D01*
X255906Y151181D01*
X256019Y151634D01*
X257761D01*
X257874Y151181D01*
X257874D01*
Y146063D01*
X262598D01*
Y151181D01*
X262598D01*
X262712Y151634D01*
X267720D01*
X268073Y151281D01*
X268073Y149941D01*
X268073Y149579D01*
Y148641D01*
X266732D01*
X266348Y148565D01*
X266023Y148347D01*
X259853Y142177D01*
X259635Y141852D01*
X259559Y141468D01*
Y141339D01*
X257874D01*
Y136221D01*
X262598Y136221D01*
X262776Y135794D01*
Y116381D01*
X262444Y116050D01*
X262205Y115471D01*
Y114844D01*
X262444Y114265D01*
X262888Y113822D01*
X263466Y113583D01*
X264093D01*
X264672Y113822D01*
X265115Y114265D01*
X265229Y114541D01*
X265729Y114442D01*
Y100633D01*
X265397Y100302D01*
X265158Y99723D01*
Y99096D01*
X265397Y98517D01*
X265840Y98074D01*
X266419Y97835D01*
X267045D01*
X267624Y98074D01*
X268067Y98517D01*
X268307Y99096D01*
Y99723D01*
X268067Y100302D01*
X267736Y100633D01*
Y119719D01*
X268073Y120079D01*
X268236Y120079D01*
X270613D01*
Y108305D01*
X270689Y107921D01*
X270907Y107595D01*
X277814Y100688D01*
X278139Y100471D01*
X278523Y100394D01*
X383257D01*
X427275Y56377D01*
X427600Y56160D01*
X427984Y56083D01*
X452285D01*
X452669Y56160D01*
X452995Y56377D01*
X457051Y60433D01*
X460433D01*
Y61989D01*
X462598D01*
X462983Y62065D01*
X463308Y62283D01*
X467001Y65975D01*
X467218Y66301D01*
X467295Y66685D01*
Y70079D01*
X469785D01*
Y73111D01*
X470746D01*
X472835Y71022D01*
Y70553D01*
X473074Y69974D01*
X473517Y69531D01*
X474096Y69291D01*
X474723D01*
X475302Y69531D01*
X475744Y69974D01*
X475984Y70553D01*
Y71179D01*
X475744Y71758D01*
X475302Y72201D01*
X474723Y72441D01*
X474257D01*
X473945Y72813D01*
X474020Y73019D01*
X474173Y73228D01*
X474723D01*
X475302Y73468D01*
X475744Y73911D01*
X475984Y74490D01*
Y75116D01*
X475744Y75695D01*
X475302Y76138D01*
X474723Y76378D01*
X474254D01*
X473249Y77383D01*
X472923Y77600D01*
X472539Y77677D01*
X469785D01*
Y78229D01*
X482267D01*
Y52165D01*
X390611D01*
X390354Y52559D01*
Y59646D01*
X381299D01*
Y54830D01*
X378635Y52165D01*
X364310D01*
X364173Y52165D01*
X363810Y52496D01*
Y57406D01*
X380799Y74395D01*
X381299Y74250D01*
Y72559D01*
X390354D01*
Y79646D01*
X381299D01*
Y77708D01*
X380236D01*
X380236Y77708D01*
X379622Y77586D01*
X379101Y77238D01*
X379101Y77238D01*
X361069Y59206D01*
X360721Y58685D01*
X360599Y58071D01*
X360599Y58071D01*
Y47529D01*
X352361Y39291D01*
X345866D01*
Y32205D01*
X354921D01*
Y37310D01*
X363340Y45728D01*
X363673Y46227D01*
X363711Y46234D01*
X364173Y46071D01*
Y24908D01*
X356618Y17354D01*
X354921D01*
Y19291D01*
X345866D01*
Y12205D01*
X354921D01*
Y14142D01*
X357283D01*
X357283Y14142D01*
X357898Y14265D01*
X358419Y14613D01*
X363711Y19905D01*
X364173Y19714D01*
Y2007D01*
X7874D01*
X7296Y2007D01*
X6163Y2232D01*
X5095Y2675D01*
X4134Y3317D01*
X3317Y4134D01*
X2675Y5095D01*
X2232Y6163D01*
X2007Y7296D01*
Y7874D01*
X2007Y113144D01*
X2507Y113341D01*
X2733Y113106D01*
Y111102D01*
X2776Y110887D01*
Y105630D01*
X16909D01*
Y110887D01*
X16952Y111102D01*
Y113150D01*
X17083Y113281D01*
X17323Y113860D01*
Y114487D01*
X17083Y115065D01*
X16640Y115508D01*
X16061Y115748D01*
X15435D01*
X14856Y115508D01*
X14413Y115065D01*
X14173Y114487D01*
Y113860D01*
X14413Y113281D01*
X14544Y113150D01*
Y112087D01*
X11047D01*
Y113150D01*
X11178Y113281D01*
X11417Y113860D01*
Y114487D01*
X11178Y115065D01*
X10735Y115508D01*
X10156Y115748D01*
X9529D01*
X8951Y115508D01*
X8507Y115065D01*
X8268Y114487D01*
Y113860D01*
X8507Y113281D01*
X8638Y113150D01*
Y112087D01*
X5141D01*
Y113150D01*
X5272Y113281D01*
X5512Y113860D01*
Y114487D01*
X5272Y115065D01*
X4829Y115508D01*
X4250Y115748D01*
X3624D01*
X3045Y115508D01*
X2602Y115065D01*
X2507Y114836D01*
X2007Y114936D01*
Y188976D01*
Y189554D01*
X2232Y190688D01*
X2675Y191755D01*
X3317Y192716D01*
X4134Y193534D01*
X5095Y194176D01*
X6163Y194618D01*
X7296Y194843D01*
X7874Y194843D01*
X450772Y194843D01*
D02*
G37*
%LPC*%
G36*
X679242Y182239D02*
X675442D01*
Y180639D01*
X679242D01*
Y182239D01*
D02*
G37*
G36*
X674442D02*
X670642D01*
Y180639D01*
X674442D01*
Y182239D01*
D02*
G37*
G36*
X608376D02*
X604576D01*
Y180639D01*
X608376D01*
Y182239D01*
D02*
G37*
G36*
X603576D02*
X599776D01*
Y180639D01*
X603576D01*
Y182239D01*
D02*
G37*
G36*
X537510D02*
X533710D01*
Y180639D01*
X537510D01*
Y182239D01*
D02*
G37*
G36*
X532710D02*
X528910D01*
Y180639D01*
X532710D01*
Y182239D01*
D02*
G37*
G36*
X750055Y182230D02*
X746255D01*
Y180630D01*
X750055D01*
Y182230D01*
D02*
G37*
G36*
X745255D02*
X741455D01*
Y180630D01*
X745255D01*
Y182230D01*
D02*
G37*
G36*
X652733Y181830D02*
X644952D01*
Y181142D01*
X638939D01*
X638555Y181066D01*
X638230Y180849D01*
X637245Y179863D01*
X633743D01*
Y175139D01*
X638861D01*
Y178641D01*
X639355Y179135D01*
X644952D01*
Y178448D01*
X652733D01*
Y181830D01*
D02*
G37*
G36*
X581867D02*
X574085D01*
Y181142D01*
X568073D01*
X567689Y181066D01*
X567364Y180849D01*
X566378Y179863D01*
X562876D01*
Y175139D01*
X567994D01*
Y178641D01*
X568489Y179135D01*
X574085D01*
Y178448D01*
X581867D01*
Y181830D01*
D02*
G37*
G36*
X723545Y181820D02*
X715764D01*
Y181133D01*
X709752D01*
X709368Y181057D01*
X709043Y180840D01*
X708057Y179854D01*
X704555D01*
Y175130D01*
X709673D01*
Y178632D01*
X710168Y179126D01*
X715764D01*
Y178439D01*
X723545D01*
Y181820D01*
D02*
G37*
G36*
X679242Y179639D02*
X675442D01*
Y178039D01*
X679242D01*
Y179639D01*
D02*
G37*
G36*
X674442D02*
X670642D01*
Y178039D01*
X674442D01*
Y179639D01*
D02*
G37*
G36*
X608376D02*
X604576D01*
Y178039D01*
X608376D01*
Y179639D01*
D02*
G37*
G36*
X603576D02*
X599776D01*
Y178039D01*
X603576D01*
Y179639D01*
D02*
G37*
G36*
X537510D02*
X533710D01*
Y178039D01*
X537510D01*
Y179639D01*
D02*
G37*
G36*
X532710D02*
X528910D01*
Y178039D01*
X532710D01*
Y179639D01*
D02*
G37*
G36*
X750055Y179630D02*
X746255D01*
Y178030D01*
X750055D01*
Y179630D01*
D02*
G37*
G36*
X745255D02*
X741455D01*
Y178030D01*
X745255D01*
Y179630D01*
D02*
G37*
G36*
X709673Y173161D02*
X704555D01*
Y171871D01*
X703413D01*
X703081Y172202D01*
X702502Y172442D01*
X701876D01*
X701297Y172202D01*
X700854Y171759D01*
X700614Y171180D01*
Y170554D01*
X700854Y169975D01*
X701297Y169532D01*
X701876Y169292D01*
X702502D01*
X703081Y169532D01*
X703413Y169864D01*
X704555D01*
Y168437D01*
X709673D01*
Y173161D01*
D02*
G37*
G36*
X567994Y173170D02*
X562876D01*
Y171692D01*
X561897D01*
X561565Y172023D01*
X560987Y172263D01*
X560360D01*
X559781Y172023D01*
X559338Y171580D01*
X559099Y171002D01*
Y170375D01*
X559338Y169796D01*
X559781Y169353D01*
X560360Y169114D01*
X560987D01*
X561565Y169353D01*
X561897Y169685D01*
X562876D01*
Y168446D01*
X567994D01*
Y173170D01*
D02*
G37*
G36*
X638861D02*
X633743D01*
Y171633D01*
X632027D01*
X631696Y171964D01*
X631117Y172204D01*
X630490D01*
X629911Y171964D01*
X629468Y171521D01*
X629229Y170942D01*
Y170316D01*
X629468Y169737D01*
X629911Y169294D01*
X630490Y169054D01*
X631117D01*
X631696Y169294D01*
X632027Y169625D01*
X633743D01*
Y168446D01*
X638861D01*
Y173170D01*
D02*
G37*
G36*
X652733Y171829D02*
X644952D01*
Y171614D01*
X644452Y171407D01*
X644445Y171413D01*
X643867Y171653D01*
X643240D01*
X642661Y171413D01*
X642218Y170970D01*
X641979Y170392D01*
Y169765D01*
X642218Y169186D01*
X642661Y168743D01*
X643240Y168504D01*
X643867D01*
X644445Y168743D01*
X644452Y168749D01*
X644952Y168542D01*
Y168448D01*
X652733D01*
Y171829D01*
D02*
G37*
G36*
X581867D02*
X574085D01*
Y171614D01*
X573585Y171407D01*
X573579Y171413D01*
X573000Y171653D01*
X572374D01*
X571795Y171413D01*
X571352Y170970D01*
X571112Y170392D01*
Y169765D01*
X571352Y169186D01*
X571795Y168743D01*
X572374Y168504D01*
X573000D01*
X573579Y168743D01*
X573585Y168749D01*
X574085Y168542D01*
Y168448D01*
X581867D01*
Y171829D01*
D02*
G37*
G36*
X511000D02*
X503219D01*
Y171614D01*
X502719Y171407D01*
X502713Y171413D01*
X502134Y171653D01*
X501508D01*
X500929Y171413D01*
X500486Y170970D01*
X500246Y170392D01*
Y169765D01*
X500486Y169186D01*
X500929Y168743D01*
X501508Y168504D01*
X502134D01*
X502713Y168743D01*
X502719Y168749D01*
X503219Y168542D01*
Y168448D01*
X511000D01*
Y171829D01*
D02*
G37*
G36*
X723545Y171820D02*
X715764D01*
Y171605D01*
X715264Y171398D01*
X715258Y171404D01*
X714679Y171644D01*
X714053D01*
X713474Y171404D01*
X713031Y170961D01*
X712791Y170383D01*
Y169756D01*
X713031Y169177D01*
X713474Y168734D01*
X714053Y168494D01*
X714679D01*
X715258Y168734D01*
X715264Y168740D01*
X715764Y168533D01*
Y168439D01*
X723545D01*
Y171820D01*
D02*
G37*
G36*
X767717Y188025D02*
X766048Y187894D01*
X764422Y187503D01*
X762876Y186863D01*
X761449Y185989D01*
X760177Y184902D01*
X759090Y183630D01*
X758216Y182203D01*
X757576Y180657D01*
X757185Y179030D01*
X757054Y177362D01*
Y176969D01*
X757185Y175301D01*
X757576Y173673D01*
X758216Y172128D01*
X759090Y170701D01*
X760177Y169429D01*
X761449Y168342D01*
X762876Y167468D01*
X764422Y166828D01*
X766048Y166437D01*
X767717Y166306D01*
X769385Y166437D01*
X771011Y166828D01*
X772557Y167468D01*
X773984Y168342D01*
X775256Y169429D01*
X776343Y170701D01*
X777217Y172128D01*
X777857Y173673D01*
X778248Y175301D01*
X778379Y176969D01*
Y177362D01*
X778248Y179030D01*
X777857Y180657D01*
X777217Y182203D01*
X776343Y183630D01*
X775256Y184902D01*
X773984Y185989D01*
X772557Y186863D01*
X771011Y187503D01*
X769385Y187894D01*
X767717Y188025D01*
D02*
G37*
G36*
X678833Y171829D02*
X671052D01*
Y168448D01*
X673738D01*
Y157979D01*
X667291Y151533D01*
X662664D01*
Y145202D01*
X668995D01*
Y149830D01*
X675794Y156629D01*
X675794Y156629D01*
X676055Y157019D01*
X676146Y157480D01*
Y168448D01*
X678833D01*
Y171829D01*
D02*
G37*
G36*
X658372Y151533D02*
X657538D01*
X656733Y151317D01*
X656011Y150900D01*
X655422Y150311D01*
X655006Y149589D01*
X654790Y148784D01*
Y147951D01*
X655006Y147145D01*
X655422Y146424D01*
X656011Y145834D01*
X656733Y145418D01*
X657538Y145202D01*
X658372D01*
X659177Y145418D01*
X659899Y145834D01*
X660488Y146424D01*
X660905Y147145D01*
X661121Y147951D01*
Y148784D01*
X660905Y149589D01*
X660488Y150311D01*
X659899Y150900D01*
X659177Y151317D01*
X658372Y151533D01*
D02*
G37*
G36*
X607967Y171829D02*
X600185D01*
Y168448D01*
X602872D01*
Y157979D01*
X596425Y151533D01*
X591798D01*
Y145202D01*
X598128D01*
Y149830D01*
X604927Y156629D01*
X604927Y156629D01*
X605189Y157019D01*
X605280Y157480D01*
Y168448D01*
X607967D01*
Y171829D01*
D02*
G37*
G36*
X587506Y151533D02*
X586672D01*
X585867Y151317D01*
X585145Y150900D01*
X584556Y150311D01*
X584139Y149589D01*
X583924Y148784D01*
Y147951D01*
X584139Y147145D01*
X584556Y146424D01*
X585145Y145834D01*
X585867Y145418D01*
X586672Y145202D01*
X587506D01*
X588311Y145418D01*
X589033Y145834D01*
X589622Y146424D01*
X590039Y147145D01*
X590254Y147951D01*
Y148784D01*
X590039Y149589D01*
X589622Y150311D01*
X589033Y150900D01*
X588311Y151317D01*
X587506Y151533D01*
D02*
G37*
G36*
X537100Y171829D02*
X529319D01*
Y168448D01*
X532006D01*
Y157979D01*
X525559Y151533D01*
X520931D01*
Y145202D01*
X527262D01*
Y149830D01*
X534061Y156629D01*
X534061Y156629D01*
X534322Y157019D01*
X534414Y157480D01*
Y168448D01*
X537100D01*
Y171829D01*
D02*
G37*
G36*
X516640Y151533D02*
X515806D01*
X515001Y151317D01*
X514279Y150900D01*
X513690Y150311D01*
X513273Y149589D01*
X513057Y148784D01*
Y147951D01*
X513273Y147145D01*
X513690Y146424D01*
X514279Y145834D01*
X515001Y145418D01*
X515806Y145202D01*
X516640D01*
X517445Y145418D01*
X518166Y145834D01*
X518756Y146424D01*
X519172Y147145D01*
X519388Y147951D01*
Y148784D01*
X519172Y149589D01*
X518756Y150311D01*
X518166Y150900D01*
X517445Y151317D01*
X516640Y151533D01*
D02*
G37*
G36*
X749645Y171820D02*
X741864D01*
Y168439D01*
X744551D01*
Y157970D01*
X738104Y151524D01*
X733477D01*
Y145193D01*
X739807D01*
Y149821D01*
X746606Y156620D01*
X746606Y156620D01*
X746868Y157010D01*
X746959Y157471D01*
Y168439D01*
X749645D01*
Y171820D01*
D02*
G37*
G36*
X729185Y151524D02*
X728351D01*
X727546Y151308D01*
X726824Y150891D01*
X726235Y150302D01*
X725818Y149580D01*
X725602Y148775D01*
Y147942D01*
X725818Y147136D01*
X726235Y146415D01*
X726824Y145825D01*
X727546Y145409D01*
X728351Y145193D01*
X729185D01*
X729990Y145409D01*
X730711Y145825D01*
X731301Y146415D01*
X731717Y147136D01*
X731933Y147942D01*
Y148775D01*
X731717Y149580D01*
X731301Y150302D01*
X730711Y150891D01*
X729990Y151308D01*
X729185Y151524D01*
D02*
G37*
G36*
X750055Y114470D02*
X746255D01*
Y112870D01*
X750055D01*
Y114470D01*
D02*
G37*
G36*
X745255D02*
X741455D01*
Y112870D01*
X745255D01*
Y114470D01*
D02*
G37*
G36*
X679242D02*
X675442D01*
Y112870D01*
X679242D01*
Y114470D01*
D02*
G37*
G36*
X674442D02*
X670642D01*
Y112870D01*
X674442D01*
Y114470D01*
D02*
G37*
G36*
X608376Y114470D02*
X604576D01*
Y112870D01*
X608376D01*
Y114470D01*
D02*
G37*
G36*
X603576D02*
X599776D01*
Y112870D01*
X603576D01*
Y114470D01*
D02*
G37*
G36*
X537510D02*
X533710D01*
Y112870D01*
X537510D01*
Y114470D01*
D02*
G37*
G36*
X532710D02*
X528910D01*
Y112870D01*
X532710D01*
Y114470D01*
D02*
G37*
G36*
X723546Y114060D02*
X715764D01*
Y113373D01*
X709752D01*
X709368Y113297D01*
X709043Y113079D01*
X708057Y112094D01*
X704555D01*
Y107370D01*
X709673D01*
Y110872D01*
X710168Y111366D01*
X715764D01*
Y110679D01*
X723546D01*
Y114060D01*
D02*
G37*
G36*
X652733D02*
X644952D01*
Y113373D01*
X638939D01*
X638555Y113297D01*
X638230Y113079D01*
X637245Y112094D01*
X633743D01*
Y107370D01*
X638861D01*
Y110872D01*
X639355Y111366D01*
X644952D01*
Y110679D01*
X652733D01*
Y114060D01*
D02*
G37*
G36*
X581867Y114060D02*
X574086D01*
Y113373D01*
X568073D01*
X567689Y113297D01*
X567364Y113079D01*
X566378Y112094D01*
X562876D01*
Y107370D01*
X567994D01*
Y110872D01*
X568489Y111366D01*
X574086D01*
Y110679D01*
X581867D01*
Y114060D01*
D02*
G37*
G36*
X750055Y111870D02*
X746255D01*
Y110270D01*
X750055D01*
Y111870D01*
D02*
G37*
G36*
X745255D02*
X741455D01*
Y110270D01*
X745255D01*
Y111870D01*
D02*
G37*
G36*
X679242D02*
X675442D01*
Y110270D01*
X679242D01*
Y111870D01*
D02*
G37*
G36*
X674442D02*
X670642D01*
Y110270D01*
X674442D01*
Y111870D01*
D02*
G37*
G36*
X608376Y111870D02*
X604576D01*
Y110270D01*
X608376D01*
Y111870D01*
D02*
G37*
G36*
X603576D02*
X599776D01*
Y110270D01*
X603576D01*
Y111870D01*
D02*
G37*
G36*
X537510D02*
X533710D01*
Y110270D01*
X537510D01*
Y111870D01*
D02*
G37*
G36*
X532710D02*
X528910D01*
Y110270D01*
X532710D01*
Y111870D01*
D02*
G37*
G36*
X776181Y121653D02*
X767126D01*
Y106693D01*
X776181D01*
Y121653D01*
D02*
G37*
G36*
X709673Y105401D02*
X704555D01*
Y104107D01*
X703350D01*
X703019Y104438D01*
X702440Y104678D01*
X701813D01*
X701234Y104438D01*
X700792Y103996D01*
X700552Y103417D01*
Y102790D01*
X700792Y102211D01*
X701234Y101768D01*
X701813Y101529D01*
X702440D01*
X703019Y101768D01*
X703350Y102100D01*
X704555D01*
Y100677D01*
X709673D01*
Y105401D01*
D02*
G37*
G36*
X567994Y105401D02*
X562876D01*
Y103946D01*
X562088D01*
X561756Y104278D01*
X561177Y104518D01*
X560551D01*
X559972Y104278D01*
X559529Y103835D01*
X559289Y103256D01*
Y102630D01*
X559529Y102051D01*
X559972Y101608D01*
X560551Y101368D01*
X561177D01*
X561756Y101608D01*
X562088Y101939D01*
X562876D01*
Y100677D01*
X567994D01*
Y105401D01*
D02*
G37*
G36*
X638861Y105401D02*
X633743D01*
Y103702D01*
X632996D01*
X632664Y104033D01*
X632085Y104273D01*
X631459D01*
X630880Y104033D01*
X630437Y103591D01*
X630197Y103012D01*
Y102385D01*
X630437Y101806D01*
X630880Y101363D01*
X631459Y101124D01*
X632085D01*
X632664Y101363D01*
X632996Y101695D01*
X633743D01*
Y100677D01*
X638861D01*
Y105401D01*
D02*
G37*
G36*
X723546Y104060D02*
X715764D01*
Y103845D01*
X715264Y103638D01*
X715258Y103644D01*
X714679Y103884D01*
X714053D01*
X713474Y103644D01*
X713031Y103201D01*
X712791Y102622D01*
Y101996D01*
X713031Y101417D01*
X713474Y100974D01*
X714053Y100734D01*
X714679D01*
X715258Y100974D01*
X715264Y100980D01*
X715764Y100773D01*
Y100679D01*
X723546D01*
Y104060D01*
D02*
G37*
G36*
X652733D02*
X644952D01*
Y103845D01*
X644452Y103638D01*
X644445Y103644D01*
X643867Y103884D01*
X643240D01*
X642661Y103644D01*
X642218Y103201D01*
X641979Y102622D01*
Y101996D01*
X642218Y101417D01*
X642661Y100974D01*
X643240Y100734D01*
X643867D01*
X644445Y100974D01*
X644452Y100980D01*
X644952Y100773D01*
Y100679D01*
X652733D01*
Y104060D01*
D02*
G37*
G36*
X581867Y104060D02*
X574086D01*
Y103845D01*
X573586Y103638D01*
X573579Y103644D01*
X573000Y103884D01*
X572374D01*
X571795Y103644D01*
X571352Y103201D01*
X571112Y102622D01*
Y101996D01*
X571352Y101417D01*
X571795Y100974D01*
X572374Y100734D01*
X573000D01*
X573579Y100974D01*
X573586Y100980D01*
X574086Y100773D01*
Y100679D01*
X581867D01*
Y104060D01*
D02*
G37*
G36*
X511000D02*
X503219D01*
Y103845D01*
X502719Y103638D01*
X502713Y103644D01*
X502134Y103884D01*
X501508D01*
X500929Y103644D01*
X500486Y103201D01*
X500246Y102622D01*
Y101996D01*
X500486Y101417D01*
X500929Y100974D01*
X501508Y100734D01*
X502134D01*
X502713Y100974D01*
X502719Y100980D01*
X503219Y100773D01*
Y100679D01*
X511000D01*
Y104060D01*
D02*
G37*
G36*
X776590Y86630D02*
X772154D01*
Y79240D01*
X776590D01*
Y86630D01*
D02*
G37*
G36*
X771154D02*
X766716D01*
Y79240D01*
X771154D01*
Y86630D01*
D02*
G37*
G36*
X749646Y104060D02*
X741864D01*
Y100679D01*
X744551D01*
Y90210D01*
X738104Y83763D01*
X733477D01*
Y77433D01*
X739807D01*
Y82060D01*
X746606Y88859D01*
X746606Y88859D01*
X746868Y89250D01*
X746959Y89711D01*
Y100679D01*
X749646D01*
Y104060D01*
D02*
G37*
G36*
X729185Y83763D02*
X728351D01*
X727546Y83548D01*
X726824Y83131D01*
X726235Y82542D01*
X725818Y81820D01*
X725602Y81015D01*
Y80181D01*
X725818Y79376D01*
X726235Y78654D01*
X726824Y78065D01*
X727546Y77648D01*
X728351Y77433D01*
X729185D01*
X729990Y77648D01*
X730712Y78065D01*
X731301Y78654D01*
X731717Y79376D01*
X731933Y80181D01*
Y81015D01*
X731717Y81820D01*
X731301Y82542D01*
X730712Y83131D01*
X729990Y83548D01*
X729185Y83763D01*
D02*
G37*
G36*
X678833Y104060D02*
X671052D01*
Y100679D01*
X673738D01*
Y90210D01*
X667291Y83763D01*
X662664D01*
Y77433D01*
X668995D01*
Y82060D01*
X675794Y88859D01*
X675794Y88859D01*
X676055Y89250D01*
X676146Y89711D01*
Y100679D01*
X678833D01*
Y104060D01*
D02*
G37*
G36*
X658372Y83763D02*
X657538D01*
X656733Y83548D01*
X656011Y83131D01*
X655422Y82542D01*
X655006Y81820D01*
X654790Y81015D01*
Y80181D01*
X655006Y79376D01*
X655422Y78654D01*
X656011Y78065D01*
X656733Y77648D01*
X657538Y77433D01*
X658372D01*
X659177Y77648D01*
X659899Y78065D01*
X660488Y78654D01*
X660905Y79376D01*
X661120Y80181D01*
Y81015D01*
X660905Y81820D01*
X660488Y82542D01*
X659899Y83131D01*
X659177Y83548D01*
X658372Y83763D01*
D02*
G37*
G36*
X607967Y104060D02*
X600185D01*
Y100679D01*
X602872D01*
Y90210D01*
X596425Y83763D01*
X591798D01*
Y77433D01*
X598128D01*
Y82060D01*
X604927Y88859D01*
X604927Y88859D01*
X605189Y89250D01*
X605280Y89711D01*
Y100679D01*
X607967D01*
Y104060D01*
D02*
G37*
G36*
X587506Y83763D02*
X586672D01*
X585867Y83548D01*
X585145Y83131D01*
X584556Y82542D01*
X584139Y81820D01*
X583924Y81015D01*
Y80181D01*
X584139Y79376D01*
X584556Y78654D01*
X585145Y78065D01*
X585867Y77648D01*
X586672Y77433D01*
X587506D01*
X588311Y77648D01*
X589033Y78065D01*
X589622Y78654D01*
X590039Y79376D01*
X590254Y80181D01*
Y81015D01*
X590039Y81820D01*
X589622Y82542D01*
X589033Y83131D01*
X588311Y83548D01*
X587506Y83763D01*
D02*
G37*
G36*
X537100Y104060D02*
X529319D01*
Y100679D01*
X532006D01*
Y90210D01*
X525559Y83763D01*
X520931D01*
Y77433D01*
X527262D01*
Y82060D01*
X534061Y88859D01*
X534061Y88859D01*
X534322Y89250D01*
X534414Y89711D01*
Y100679D01*
X537100D01*
Y104060D01*
D02*
G37*
G36*
X516640Y83763D02*
X515806D01*
X515001Y83548D01*
X514279Y83131D01*
X513690Y82542D01*
X513273Y81820D01*
X513058Y81015D01*
Y80181D01*
X513273Y79376D01*
X513690Y78654D01*
X514279Y78065D01*
X515001Y77648D01*
X515806Y77433D01*
X516640D01*
X517445Y77648D01*
X518166Y78065D01*
X518756Y78654D01*
X519172Y79376D01*
X519388Y80181D01*
Y81015D01*
X519172Y81820D01*
X518756Y82542D01*
X518166Y83131D01*
X517445Y83548D01*
X516640Y83763D01*
D02*
G37*
G36*
X776590Y78240D02*
X772154D01*
Y70850D01*
X776590D01*
Y78240D01*
D02*
G37*
G36*
X771154D02*
X766716D01*
Y70850D01*
X771154D01*
Y78240D01*
D02*
G37*
G36*
X750055Y50446D02*
X746255D01*
Y48846D01*
X750055D01*
Y50446D01*
D02*
G37*
G36*
X745255D02*
X741455D01*
Y48846D01*
X745255D01*
Y50446D01*
D02*
G37*
G36*
X679242D02*
X675442D01*
Y48846D01*
X679242D01*
Y50446D01*
D02*
G37*
G36*
X674442D02*
X670642D01*
Y48846D01*
X674442D01*
Y50446D01*
D02*
G37*
G36*
X608376D02*
X604576D01*
Y48846D01*
X608376D01*
Y50446D01*
D02*
G37*
G36*
X603576D02*
X599776D01*
Y48846D01*
X603576D01*
Y50446D01*
D02*
G37*
G36*
X537510D02*
X533710D01*
Y48846D01*
X537510D01*
Y50446D01*
D02*
G37*
G36*
X532710D02*
X528910D01*
Y48846D01*
X532710D01*
Y50446D01*
D02*
G37*
G36*
X723545Y50037D02*
X715764D01*
Y49350D01*
X709752D01*
X709368Y49273D01*
X709043Y49056D01*
X708057Y48070D01*
X704555D01*
Y43346D01*
X709673D01*
Y46848D01*
X710168Y47343D01*
X715764D01*
Y46656D01*
X723545D01*
Y50037D01*
D02*
G37*
G36*
X652733D02*
X644952D01*
Y49350D01*
X638939D01*
X638555Y49273D01*
X638230Y49056D01*
X637245Y48070D01*
X633743D01*
Y43346D01*
X638861D01*
Y46848D01*
X639355Y47343D01*
X644952D01*
Y46656D01*
X652733D01*
Y50037D01*
D02*
G37*
G36*
X581867D02*
X574086D01*
Y49350D01*
X568073D01*
X567689Y49273D01*
X567364Y49056D01*
X566378Y48070D01*
X562876D01*
Y43346D01*
X567994D01*
Y46848D01*
X568489Y47343D01*
X574086D01*
Y46656D01*
X581867D01*
Y50037D01*
D02*
G37*
G36*
X750055Y47846D02*
X746255D01*
Y46246D01*
X750055D01*
Y47846D01*
D02*
G37*
G36*
X745255D02*
X741455D01*
Y46246D01*
X745255D01*
Y47846D01*
D02*
G37*
G36*
X679242D02*
X675442D01*
Y46246D01*
X679242D01*
Y47846D01*
D02*
G37*
G36*
X674442D02*
X670642D01*
Y46246D01*
X674442D01*
Y47846D01*
D02*
G37*
G36*
X608376D02*
X604576D01*
Y46246D01*
X608376D01*
Y47846D01*
D02*
G37*
G36*
X603576D02*
X599776D01*
Y46246D01*
X603576D01*
Y47846D01*
D02*
G37*
G36*
X537510D02*
X533710D01*
Y46246D01*
X537510D01*
Y47846D01*
D02*
G37*
G36*
X532710D02*
X528910D01*
Y46246D01*
X532710D01*
Y47846D01*
D02*
G37*
G36*
X709673Y41378D02*
X704555D01*
Y40084D01*
X702762D01*
X702430Y40415D01*
X701852Y40655D01*
X701225D01*
X700646Y40415D01*
X700203Y39972D01*
X699964Y39393D01*
Y38767D01*
X700203Y38188D01*
X700646Y37745D01*
X701225Y37505D01*
X701852D01*
X702430Y37745D01*
X702762Y38077D01*
X704555D01*
Y36653D01*
X709673D01*
Y41378D01*
D02*
G37*
G36*
X567994D02*
X562876D01*
Y39956D01*
X562331D01*
X561999Y40288D01*
X561420Y40527D01*
X560794D01*
X560215Y40288D01*
X559772Y39845D01*
X559532Y39266D01*
Y38639D01*
X559772Y38060D01*
X560215Y37617D01*
X560794Y37378D01*
X561420D01*
X561999Y37617D01*
X562331Y37949D01*
X562876D01*
Y36653D01*
X567994D01*
Y41378D01*
D02*
G37*
G36*
X638861D02*
X633743D01*
Y39891D01*
X633243Y39890D01*
X632912Y40220D01*
X632333Y40460D01*
X631707D01*
X631128Y40220D01*
X630685Y39777D01*
X630445Y39199D01*
Y38572D01*
X630685Y37993D01*
X631128Y37550D01*
X631707Y37311D01*
X632333D01*
X632912Y37550D01*
X633243Y37881D01*
X633743Y37880D01*
Y36653D01*
X638861D01*
Y41378D01*
D02*
G37*
G36*
X723545Y40037D02*
X715764D01*
Y39821D01*
X715264Y39614D01*
X715258Y39621D01*
X714679Y39860D01*
X714053D01*
X713474Y39621D01*
X713031Y39178D01*
X712791Y38599D01*
Y37972D01*
X713031Y37394D01*
X713474Y36950D01*
X714053Y36711D01*
X714679D01*
X715258Y36950D01*
X715264Y36957D01*
X715764Y36750D01*
Y36656D01*
X723545D01*
Y40037D01*
D02*
G37*
G36*
X652733D02*
X644952D01*
Y39821D01*
X644452Y39614D01*
X644445Y39621D01*
X643867Y39860D01*
X643240D01*
X642661Y39621D01*
X642218Y39178D01*
X641979Y38599D01*
Y37972D01*
X642218Y37394D01*
X642661Y36950D01*
X643240Y36711D01*
X643867D01*
X644445Y36950D01*
X644452Y36957D01*
X644952Y36750D01*
Y36656D01*
X652733D01*
Y40037D01*
D02*
G37*
G36*
X581867D02*
X574086D01*
Y39821D01*
X573586Y39614D01*
X573579Y39621D01*
X573000Y39860D01*
X572374D01*
X571795Y39621D01*
X571352Y39178D01*
X571112Y38599D01*
Y37972D01*
X571352Y37394D01*
X571795Y36950D01*
X572374Y36711D01*
X573000D01*
X573579Y36950D01*
X573586Y36957D01*
X574086Y36750D01*
Y36656D01*
X581867D01*
Y40037D01*
D02*
G37*
G36*
X511000D02*
X503219D01*
Y39821D01*
X502719Y39614D01*
X502713Y39621D01*
X502134Y39860D01*
X501508D01*
X500929Y39621D01*
X500486Y39178D01*
X500246Y38599D01*
Y37972D01*
X500486Y37394D01*
X500929Y36950D01*
X501508Y36711D01*
X502134D01*
X502713Y36950D01*
X502719Y36957D01*
X503219Y36750D01*
Y36656D01*
X511000D01*
Y40037D01*
D02*
G37*
G36*
X391748Y19701D02*
X387311D01*
Y16248D01*
X391748D01*
Y19701D01*
D02*
G37*
G36*
X749645Y40037D02*
X741864D01*
Y36656D01*
X744551D01*
Y26186D01*
X738104Y19740D01*
X733477D01*
Y13409D01*
X739807D01*
Y18037D01*
X746606Y24836D01*
X746606Y24836D01*
X746868Y25227D01*
X746959Y25688D01*
Y36656D01*
X749645D01*
Y40037D01*
D02*
G37*
G36*
X729185Y19740D02*
X728351D01*
X727546Y19524D01*
X726824Y19107D01*
X726235Y18518D01*
X725818Y17796D01*
X725602Y16991D01*
Y16158D01*
X725818Y15353D01*
X726235Y14631D01*
X726824Y14042D01*
X727546Y13625D01*
X728351Y13409D01*
X729185D01*
X729990Y13625D01*
X730711Y14042D01*
X731301Y14631D01*
X731717Y15353D01*
X731933Y16158D01*
Y16991D01*
X731717Y17796D01*
X731301Y18518D01*
X730711Y19107D01*
X729990Y19524D01*
X729185Y19740D01*
D02*
G37*
G36*
X678833Y40037D02*
X671052D01*
Y36656D01*
X673738D01*
Y26186D01*
X667291Y19740D01*
X662664D01*
Y13409D01*
X668995D01*
Y18037D01*
X675794Y24836D01*
X675794Y24836D01*
X676055Y25227D01*
X676146Y25688D01*
Y36656D01*
X678833D01*
Y40037D01*
D02*
G37*
G36*
X658372Y19740D02*
X657538D01*
X656733Y19524D01*
X656012Y19107D01*
X655422Y18518D01*
X655006Y17796D01*
X654790Y16991D01*
Y16158D01*
X655006Y15353D01*
X655422Y14631D01*
X656012Y14042D01*
X656733Y13625D01*
X657538Y13409D01*
X658372D01*
X659177Y13625D01*
X659899Y14042D01*
X660488Y14631D01*
X660905Y15353D01*
X661121Y16158D01*
Y16991D01*
X660905Y17796D01*
X660488Y18518D01*
X659899Y19107D01*
X659177Y19524D01*
X658372Y19740D01*
D02*
G37*
G36*
X607967Y40037D02*
X600185D01*
Y36656D01*
X602872D01*
Y26186D01*
X596425Y19740D01*
X591798D01*
Y13409D01*
X598128D01*
Y18037D01*
X604927Y24836D01*
X604927Y24836D01*
X605189Y25227D01*
X605280Y25688D01*
Y36656D01*
X607967D01*
Y40037D01*
D02*
G37*
G36*
X587506Y19740D02*
X586672D01*
X585867Y19524D01*
X585145Y19107D01*
X584556Y18518D01*
X584139Y17796D01*
X583924Y16991D01*
Y16158D01*
X584139Y15353D01*
X584556Y14631D01*
X585145Y14042D01*
X585867Y13625D01*
X586672Y13409D01*
X587506D01*
X588311Y13625D01*
X589033Y14042D01*
X589622Y14631D01*
X590039Y15353D01*
X590254Y16158D01*
Y16991D01*
X590039Y17796D01*
X589622Y18518D01*
X589033Y19107D01*
X588311Y19524D01*
X587506Y19740D01*
D02*
G37*
G36*
X537100Y40037D02*
X529319D01*
Y36656D01*
X532006D01*
Y26186D01*
X525559Y19740D01*
X520931D01*
Y13409D01*
X527262D01*
Y18037D01*
X534061Y24836D01*
X534061Y24836D01*
X534322Y25227D01*
X534414Y25688D01*
Y36656D01*
X537100D01*
Y40037D01*
D02*
G37*
G36*
X516640Y19740D02*
X515806D01*
X515001Y19524D01*
X514279Y19107D01*
X513690Y18518D01*
X513273Y17796D01*
X513058Y16991D01*
Y16158D01*
X513273Y15353D01*
X513690Y14631D01*
X514279Y14042D01*
X515001Y13625D01*
X515806Y13409D01*
X516640D01*
X517445Y13625D01*
X518166Y14042D01*
X518756Y14631D01*
X519172Y15353D01*
X519388Y16158D01*
Y16991D01*
X519172Y17796D01*
X518756Y18518D01*
X518166Y19107D01*
X517445Y19524D01*
X516640Y19740D01*
D02*
G37*
G36*
X391748Y15248D02*
X387311D01*
Y11795D01*
X391748D01*
Y15248D01*
D02*
G37*
G36*
X767717Y30545D02*
X766048Y30413D01*
X764422Y30023D01*
X762876Y29383D01*
X761449Y28508D01*
X760177Y27422D01*
X759090Y26149D01*
X758216Y24723D01*
X757576Y23177D01*
X757185Y21550D01*
X757054Y19882D01*
Y19488D01*
X757185Y17820D01*
X757576Y16193D01*
X758216Y14647D01*
X759090Y13221D01*
X760177Y11948D01*
X761449Y10862D01*
X762876Y9988D01*
X764422Y9347D01*
X766048Y8957D01*
X767717Y8825D01*
X769385Y8957D01*
X771011Y9347D01*
X772557Y9988D01*
X773984Y10862D01*
X775256Y11948D01*
X776343Y13221D01*
X777217Y14647D01*
X777857Y16193D01*
X778248Y17820D01*
X778379Y19488D01*
Y19882D01*
X778248Y21550D01*
X777857Y23177D01*
X777217Y24723D01*
X776343Y26149D01*
X775256Y27422D01*
X773984Y28508D01*
X772557Y29383D01*
X771011Y30023D01*
X769385Y30413D01*
X767717Y30545D01*
D02*
G37*
G36*
X433071D02*
X431403Y30413D01*
X429776Y30023D01*
X428230Y29383D01*
X426803Y28508D01*
X425531Y27422D01*
X424444Y26149D01*
X423570Y24723D01*
X422930Y23177D01*
X422539Y21550D01*
X422408Y19882D01*
Y19488D01*
X422539Y17820D01*
X422930Y16193D01*
X423570Y14647D01*
X424444Y13221D01*
X425531Y11948D01*
X426803Y10862D01*
X428230Y9988D01*
X429776Y9347D01*
X431403Y8957D01*
X433071Y8825D01*
X434739Y8957D01*
X436366Y9347D01*
X437912Y9988D01*
X439338Y10862D01*
X440611Y11948D01*
X441697Y13221D01*
X442571Y14647D01*
X443212Y16193D01*
X443602Y17820D01*
X443734Y19488D01*
Y19882D01*
X443602Y21550D01*
X443212Y23177D01*
X442571Y24723D01*
X441697Y26149D01*
X440611Y27422D01*
X439338Y28508D01*
X437912Y29383D01*
X436366Y30023D01*
X434739Y30413D01*
X433071Y30545D01*
D02*
G37*
G36*
X376000Y194209D02*
X372547D01*
Y190657D01*
X376000D01*
Y194209D01*
D02*
G37*
G36*
X363673D02*
X360221D01*
Y190657D01*
X363673D01*
Y194209D01*
D02*
G37*
G36*
X384120Y194334D02*
X382898D01*
Y190366D01*
X386866D01*
Y191589D01*
X386772Y192299D01*
X386498Y192962D01*
X386062Y193530D01*
X385493Y193967D01*
X384831Y194241D01*
X384120Y194334D01*
D02*
G37*
G36*
X381898D02*
X380675D01*
X379964Y194241D01*
X379302Y193967D01*
X378733Y193530D01*
X378297Y192962D01*
X378023Y192299D01*
X377929Y191589D01*
Y190366D01*
X381898D01*
Y194334D01*
D02*
G37*
G36*
X355045Y194334D02*
X353823D01*
Y190366D01*
X357791D01*
Y191589D01*
X357698Y192299D01*
X357423Y192962D01*
X356987Y193530D01*
X356418Y193967D01*
X355756Y194241D01*
X355045Y194334D01*
D02*
G37*
G36*
X352823D02*
X351600D01*
X350890Y194241D01*
X350227Y193967D01*
X349659Y193530D01*
X349222Y192962D01*
X348948Y192299D01*
X348854Y191589D01*
Y190366D01*
X352823D01*
Y194334D01*
D02*
G37*
G36*
X344467Y190213D02*
X341014D01*
Y187941D01*
X344467D01*
Y190213D01*
D02*
G37*
G36*
X340014D02*
X336561D01*
Y187941D01*
X340014D01*
Y190213D01*
D02*
G37*
G36*
X275569D02*
X272116D01*
Y187941D01*
X275569D01*
Y190213D01*
D02*
G37*
G36*
X271116D02*
X267664D01*
Y187941D01*
X271116D01*
Y190213D01*
D02*
G37*
G36*
X134169Y190272D02*
X131405D01*
Y187508D01*
X134169D01*
Y190272D01*
D02*
G37*
G36*
X130405D02*
X127642D01*
Y187508D01*
X130405D01*
Y190272D01*
D02*
G37*
G36*
X376000Y189657D02*
X372547D01*
Y186106D01*
X376000D01*
Y189657D01*
D02*
G37*
G36*
X371547Y194209D02*
X364673D01*
Y190157D01*
Y186106D01*
X371547D01*
Y190157D01*
Y194209D01*
D02*
G37*
G36*
X363673Y189657D02*
X360221D01*
Y186106D01*
X363673D01*
Y189657D01*
D02*
G37*
G36*
X386866Y189366D02*
X382898D01*
Y185398D01*
X384120D01*
X384831Y185491D01*
X385493Y185766D01*
X386062Y186202D01*
X386498Y186771D01*
X386772Y187433D01*
X386866Y188144D01*
Y189366D01*
D02*
G37*
G36*
X381898D02*
X377929D01*
Y188144D01*
X378023Y187433D01*
X378297Y186771D01*
X378733Y186202D01*
X379302Y185766D01*
X379964Y185491D01*
X380675Y185398D01*
X381898D01*
Y189366D01*
D02*
G37*
G36*
X357791Y189366D02*
X353823D01*
Y185398D01*
X355045D01*
X355756Y185491D01*
X356418Y185766D01*
X356987Y186202D01*
X357423Y186771D01*
X357698Y187433D01*
X357791Y188144D01*
Y189366D01*
D02*
G37*
G36*
X352823D02*
X348854D01*
Y188144D01*
X348948Y187433D01*
X349222Y186771D01*
X349659Y186202D01*
X350227Y185766D01*
X350890Y185491D01*
X351600Y185398D01*
X352823D01*
Y189366D01*
D02*
G37*
G36*
X259465Y188598D02*
X254043D01*
Y184949D01*
X259465D01*
Y188598D01*
D02*
G37*
G36*
X253043D02*
X247622D01*
Y184949D01*
X253043D01*
Y188598D01*
D02*
G37*
G36*
X421907Y188380D02*
X416486D01*
Y184730D01*
X421907D01*
Y188380D01*
D02*
G37*
G36*
X415486D02*
X410065D01*
Y184730D01*
X415486D01*
Y188380D01*
D02*
G37*
G36*
X173835Y188008D02*
X168413D01*
Y184358D01*
X173835D01*
Y188008D01*
D02*
G37*
G36*
X167413D02*
X161992D01*
Y184358D01*
X167413D01*
Y188008D01*
D02*
G37*
G36*
X79527Y193408D02*
X74803D01*
Y188289D01*
X79527D01*
Y189845D01*
X90650D01*
Y184153D01*
X96358D01*
Y189845D01*
X97149D01*
X98796Y188198D01*
X98746Y188110D01*
X98551Y187384D01*
Y186632D01*
X98746Y185906D01*
X99121Y185255D01*
X99653Y184724D01*
X100304Y184348D01*
X101030Y184153D01*
X101781D01*
X102507Y184348D01*
X103158Y184724D01*
X103690Y185255D01*
X104065Y185906D01*
X104260Y186632D01*
Y187384D01*
X104065Y188110D01*
X103690Y188760D01*
X103158Y189292D01*
X102507Y189668D01*
X101781Y189862D01*
X101030D01*
X100304Y189668D01*
X100216Y189617D01*
X98274Y191558D01*
X97949Y191776D01*
X97565Y191852D01*
X79527D01*
Y193408D01*
D02*
G37*
G36*
X209858Y190370D02*
X203528D01*
Y188208D01*
X200984D01*
X200600Y188132D01*
X200275Y187914D01*
X194172Y181812D01*
X193955Y181486D01*
X193878Y181102D01*
Y179724D01*
X192717D01*
Y175394D01*
X197047D01*
Y179724D01*
X195885D01*
Y180687D01*
X201400Y186201D01*
X203528D01*
Y184039D01*
X209858D01*
Y190370D01*
D02*
G37*
G36*
X344467Y186941D02*
X336561D01*
Y184669D01*
X336971D01*
Y184040D01*
X336471Y183833D01*
X336428Y183875D01*
X335849Y184115D01*
X335223D01*
X334644Y183875D01*
X334201Y183432D01*
X333962Y182853D01*
Y182227D01*
X334201Y181648D01*
X334644Y181205D01*
X335223Y180965D01*
X335849D01*
X336428Y181205D01*
X336471Y181248D01*
X336971Y181041D01*
X336971Y179941D01*
X336971Y179579D01*
Y175303D01*
X336971Y174941D01*
X336971Y174579D01*
Y170303D01*
X336971Y169941D01*
X336971Y169579D01*
Y168604D01*
X336379D01*
X336048Y168936D01*
X335469Y169176D01*
X334842D01*
X334263Y168936D01*
X333820Y168493D01*
X333581Y167914D01*
Y167287D01*
X333820Y166709D01*
X334263Y166266D01*
X334842Y166026D01*
X335469D01*
X336048Y166266D01*
X336194Y166412D01*
X336802D01*
X336971Y166244D01*
X336971Y164941D01*
X336971Y164579D01*
Y160303D01*
X336971Y159941D01*
X336971Y159579D01*
Y155303D01*
X336971Y154941D01*
X336971Y154153D01*
X336713Y154004D01*
X336471Y153915D01*
X335943Y154134D01*
X335317D01*
X334738Y153894D01*
X334295Y153451D01*
X334055Y152872D01*
Y152246D01*
X334295Y151667D01*
X334738Y151224D01*
X335317Y150984D01*
X335943D01*
X336471Y151203D01*
X336713Y151114D01*
X336971Y150966D01*
X336971Y149941D01*
X336971Y149231D01*
X336713Y149083D01*
X336471Y148994D01*
X335943Y149213D01*
X335317D01*
X334738Y148973D01*
X334295Y148530D01*
X334055Y147951D01*
Y147325D01*
X334295Y146746D01*
X334738Y146303D01*
X335317Y146063D01*
X335943D01*
X336471Y146282D01*
X336713Y146193D01*
X336971Y146044D01*
X336971Y144941D01*
X336971Y144579D01*
Y143801D01*
X336471Y143594D01*
X336391Y143673D01*
X335812Y143913D01*
X335186D01*
X334607Y143673D01*
X334164Y143230D01*
X333924Y142652D01*
Y142025D01*
X334164Y141446D01*
X334607Y141003D01*
X335186Y140764D01*
X335812D01*
X336391Y141003D01*
X336471Y141083D01*
X336971Y140876D01*
X336971Y139941D01*
X336971Y139579D01*
Y135303D01*
X336971Y134941D01*
X336971Y134579D01*
Y133444D01*
X327620D01*
X315964Y145101D01*
Y171020D01*
X316296Y171352D01*
X316535Y171931D01*
Y172557D01*
X316296Y173136D01*
X315853Y173579D01*
X315274Y173819D01*
X314647D01*
X314069Y173579D01*
X313626Y173136D01*
X313386Y172557D01*
Y171931D01*
X313626Y171352D01*
X313957Y171020D01*
Y144685D01*
X314034Y144301D01*
X314251Y143975D01*
X326495Y131731D01*
X326821Y131514D01*
X327205Y131437D01*
X336617D01*
X336971Y131084D01*
X336971Y129941D01*
X336971Y129579D01*
Y128105D01*
X304462D01*
X304166Y128402D01*
X303587Y128641D01*
X302960D01*
X302382Y128402D01*
X301939Y127959D01*
X301699Y127380D01*
Y126753D01*
X301939Y126174D01*
X302382Y125731D01*
X302960Y125492D01*
X302894Y125019D01*
X301597D01*
X289961Y136655D01*
Y137124D01*
X289721Y137703D01*
X289278Y138146D01*
X288699Y138386D01*
X288073D01*
X287494Y138146D01*
X287051Y137703D01*
X286811Y137124D01*
Y136498D01*
X287051Y135919D01*
X287494Y135476D01*
X288073Y135236D01*
X288541D01*
X300471Y123306D01*
X300797Y123089D01*
X301181Y123012D01*
X330293D01*
X337391Y115914D01*
X337717Y115696D01*
X338101Y115620D01*
X392397D01*
X392414Y115608D01*
X392798Y115532D01*
X410827D01*
Y114173D01*
X415945D01*
Y118898D01*
X414429D01*
Y121671D01*
X419175Y126418D01*
X420265D01*
Y125731D01*
X429246D01*
Y129112D01*
X420265D01*
Y128425D01*
X418760D01*
X418376Y128348D01*
X418050Y128131D01*
X417323Y127403D01*
X415308Y129418D01*
X415354Y129530D01*
Y130313D01*
X415104Y130918D01*
X415326Y131418D01*
X420265D01*
Y130731D01*
X429246D01*
Y131418D01*
X429665D01*
X430049Y131494D01*
X430375Y131712D01*
X431418Y132755D01*
X431636Y133080D01*
X431712Y133465D01*
Y140729D01*
X446850D01*
X447234Y140805D01*
X447560Y141023D01*
X451616Y145079D01*
X465158D01*
Y154134D01*
X450197D01*
Y146498D01*
X446435Y142736D01*
X431712D01*
Y144095D01*
X433071D01*
Y149213D01*
X428817D01*
X428504Y149213D01*
X428262Y149678D01*
X429569Y150984D01*
X433071D01*
Y156102D01*
X428346D01*
Y152600D01*
X424339Y148593D01*
X421009D01*
Y154724D01*
X406049D01*
Y145669D01*
X421009D01*
Y146586D01*
X423752D01*
Y139112D01*
X420265D01*
Y138799D01*
X418546D01*
X418215Y139130D01*
X417636Y139370D01*
X417010D01*
X416431Y139130D01*
X415988Y138687D01*
X415748Y138109D01*
Y137482D01*
X415988Y136903D01*
X416431Y136460D01*
X417010Y136221D01*
X417636D01*
X418215Y136460D01*
X418546Y136792D01*
X420265D01*
Y135731D01*
X429205D01*
X429246Y135731D01*
X429705Y135633D01*
Y134210D01*
X429246Y134112D01*
Y134112D01*
X420265D01*
Y133425D01*
X389648D01*
X388505Y134568D01*
X388179Y134785D01*
X387795Y134862D01*
X373051D01*
Y137795D01*
X372974Y138179D01*
X372757Y138505D01*
X364626Y146636D01*
Y149173D01*
X365125Y149380D01*
X365250Y149256D01*
X365828Y149016D01*
X366455D01*
X367034Y149256D01*
X367477Y149698D01*
X367717Y150277D01*
Y150746D01*
X368820Y151849D01*
X369037Y152175D01*
X369114Y152559D01*
Y173812D01*
Y176279D01*
X369666D01*
Y151710D01*
X369450Y151495D01*
X369210Y150916D01*
Y150289D01*
X369450Y149710D01*
X369893Y149267D01*
X370472Y149028D01*
X371098D01*
X371677Y149267D01*
X372120Y149710D01*
X372360Y150289D01*
Y150916D01*
X372120Y151495D01*
X371677Y151937D01*
X371673Y151939D01*
Y176279D01*
X374606D01*
Y176614D01*
X375101Y176774D01*
X375822Y176292D01*
X376673Y176123D01*
X377453D01*
Y179528D01*
Y182932D01*
X376673D01*
X375822Y182763D01*
X375101Y182281D01*
X374606Y182441D01*
Y182776D01*
X364779D01*
Y183185D01*
X363492D01*
Y179528D01*
Y175870D01*
X364779D01*
Y176279D01*
X367107D01*
Y173812D01*
Y152975D01*
X366297Y152165D01*
X365828D01*
X365250Y151926D01*
X365125Y151801D01*
X364626Y152008D01*
Y165906D01*
X364549Y166290D01*
X364332Y166615D01*
X352599Y178347D01*
X352274Y178565D01*
X351890Y178641D01*
X344411D01*
X344057Y178995D01*
X344057Y179941D01*
X344057Y180303D01*
Y184669D01*
X344467D01*
Y186941D01*
D02*
G37*
G36*
X134169Y186508D02*
X131405D01*
Y183744D01*
X134169D01*
Y186508D01*
D02*
G37*
G36*
X130405D02*
X127642D01*
Y183744D01*
X130405D01*
Y186508D01*
D02*
G37*
G36*
X69919Y185237D02*
X67619D01*
Y182587D01*
X69919D01*
Y185237D01*
D02*
G37*
G36*
X66619D02*
X64319D01*
Y182587D01*
X66619D01*
Y185237D01*
D02*
G37*
G36*
X362492Y183185D02*
X361205D01*
Y182826D01*
X360705Y182558D01*
X360398Y182763D01*
X359547Y182932D01*
X358768D01*
Y179528D01*
Y176123D01*
X359547D01*
X360398Y176292D01*
X360705Y176497D01*
X361205Y176229D01*
Y175870D01*
X362492D01*
Y179528D01*
Y183185D01*
D02*
G37*
G36*
X259465Y183949D02*
X254043D01*
Y180299D01*
X259465D01*
Y183949D01*
D02*
G37*
G36*
X253043D02*
X247622D01*
Y180299D01*
X253043D01*
Y183949D01*
D02*
G37*
G36*
X432571Y188396D02*
X431339Y188299D01*
X429649Y187894D01*
X428044Y187229D01*
X426562Y186321D01*
X425241Y185192D01*
X424112Y183871D01*
X423204Y182389D01*
X422539Y180784D01*
X422407Y180235D01*
X421907Y180294D01*
X421907Y180541D01*
X421907Y180541D01*
X421907Y180560D01*
Y183730D01*
X416486D01*
Y180081D01*
X421488D01*
X421856Y180081D01*
X422320Y179869D01*
X422134Y179095D01*
X422021Y177665D01*
X432571D01*
Y188396D01*
D02*
G37*
G36*
X415486Y183730D02*
X410065D01*
Y180081D01*
X415486D01*
Y183730D01*
D02*
G37*
G36*
X379232Y182932D02*
X378453D01*
Y180028D01*
X381456D01*
Y180709D01*
X381287Y181560D01*
X380805Y182281D01*
X380083Y182763D01*
X379232Y182932D01*
D02*
G37*
G36*
X357768D02*
X356988D01*
X356137Y182763D01*
X355416Y182281D01*
X354934Y181560D01*
X354764Y180709D01*
Y180028D01*
X357768D01*
Y182932D01*
D02*
G37*
G36*
X173835Y183358D02*
X168413D01*
Y179709D01*
X173835D01*
Y183358D01*
D02*
G37*
G36*
X167413D02*
X161992D01*
Y179709D01*
X167413D01*
Y183358D01*
D02*
G37*
G36*
X460646Y186508D02*
X456209D01*
Y179118D01*
X460646D01*
Y186508D01*
D02*
G37*
G36*
X455209D02*
X450772D01*
Y179118D01*
X455209D01*
Y186508D01*
D02*
G37*
G36*
X69919Y181587D02*
X67619D01*
Y178937D01*
X69919D01*
Y181587D01*
D02*
G37*
G36*
X66619D02*
X64319D01*
Y178937D01*
X66619D01*
Y181587D01*
D02*
G37*
G36*
X433571Y188396D02*
Y177665D01*
X444121D01*
X444008Y179095D01*
X443602Y180784D01*
X442937Y182389D01*
X442029Y183871D01*
X440901Y185192D01*
X439580Y186321D01*
X438098Y187229D01*
X436493Y187894D01*
X434803Y188299D01*
X433571Y188396D01*
D02*
G37*
G36*
X20185D02*
Y177665D01*
X30735D01*
X30622Y179095D01*
X30217Y180784D01*
X29552Y182389D01*
X28644Y183871D01*
X27515Y185192D01*
X26194Y186321D01*
X24712Y187229D01*
X23107Y187894D01*
X21417Y188299D01*
X20185Y188396D01*
D02*
G37*
G36*
X19185D02*
X17953Y188299D01*
X16263Y187894D01*
X14658Y187229D01*
X13176Y186321D01*
X11855Y185192D01*
X10726Y183871D01*
X9819Y182389D01*
X9154Y180784D01*
X8748Y179095D01*
X8635Y177665D01*
X19185D01*
Y188396D01*
D02*
G37*
G36*
X381456Y179028D02*
X378453D01*
Y176123D01*
X379232D01*
X380083Y176292D01*
X380805Y176774D01*
X381287Y177495D01*
X381456Y178347D01*
Y179028D01*
D02*
G37*
G36*
X357768D02*
X354764D01*
Y178347D01*
X354934Y177495D01*
X355416Y176774D01*
X356137Y176292D01*
X356988Y176123D01*
X357768D01*
Y179028D01*
D02*
G37*
G36*
X73638Y175409D02*
X70776D01*
Y172744D01*
X73638D01*
Y175409D01*
D02*
G37*
G36*
X69776D02*
X66913D01*
Y172744D01*
X69776D01*
Y175409D01*
D02*
G37*
G36*
X181102Y173819D02*
X176378D01*
Y172263D01*
X175436D01*
X175105Y172595D01*
X174526Y172835D01*
X173899D01*
X173321Y172595D01*
X172878Y172152D01*
X172638Y171573D01*
Y170947D01*
X172878Y170368D01*
X173321Y169925D01*
X173899Y169685D01*
X174526D01*
X175105Y169925D01*
X175436Y170256D01*
X176378D01*
Y168701D01*
X181102D01*
Y173819D01*
D02*
G37*
G36*
X197457Y173835D02*
X195382D01*
Y171760D01*
X197457D01*
Y173835D01*
D02*
G37*
G36*
X194382D02*
X192307D01*
Y171760D01*
X194382D01*
Y173835D01*
D02*
G37*
G36*
X73638Y171744D02*
X70776D01*
Y169079D01*
X73638D01*
Y171744D01*
D02*
G37*
G36*
X69776D02*
X66913D01*
Y169079D01*
X69776D01*
Y171744D01*
D02*
G37*
G36*
X444121Y176665D02*
X433571D01*
Y165934D01*
X434803Y166031D01*
X436493Y166437D01*
X438098Y167102D01*
X439580Y168010D01*
X440901Y169138D01*
X442029Y170460D01*
X442937Y171941D01*
X443602Y173547D01*
X444008Y175236D01*
X444121Y176665D01*
D02*
G37*
G36*
X432571D02*
X422021D01*
X422134Y175236D01*
X422539Y173547D01*
X423204Y171941D01*
X424112Y170460D01*
X425241Y169138D01*
X426562Y168010D01*
X428044Y167102D01*
X429649Y166437D01*
X431339Y166031D01*
X432571Y165934D01*
Y176665D01*
D02*
G37*
G36*
X30735D02*
X20185D01*
Y165934D01*
X21417Y166031D01*
X23107Y166437D01*
X24712Y167102D01*
X26194Y168010D01*
X27515Y169138D01*
X28644Y170460D01*
X29552Y171941D01*
X30217Y173547D01*
X30622Y175236D01*
X30735Y176665D01*
D02*
G37*
G36*
X19185D02*
X8635D01*
X8748Y175236D01*
X9154Y173547D01*
X9819Y171941D01*
X10726Y170460D01*
X11855Y169138D01*
X13176Y168010D01*
X14658Y167102D01*
X16263Y166437D01*
X17953Y166031D01*
X19185Y165934D01*
Y176665D01*
D02*
G37*
G36*
X133858Y172835D02*
X129134D01*
Y167717D01*
X130492D01*
Y166929D01*
X129134D01*
Y165810D01*
X128634Y165603D01*
X128479Y165757D01*
X127901Y165997D01*
X127274D01*
X126695Y165757D01*
X126252Y165314D01*
X126013Y164736D01*
Y164109D01*
X126252Y163530D01*
X126695Y163087D01*
X127274Y162848D01*
X127901D01*
X128479Y163087D01*
X128634Y163242D01*
X129134Y163035D01*
Y161811D01*
X133858D01*
Y166929D01*
X132500D01*
Y167717D01*
X133858D01*
Y172835D01*
D02*
G37*
G36*
X308443Y166827D02*
X306171D01*
Y164555D01*
X308443D01*
Y166827D01*
D02*
G37*
G36*
X294148D02*
X291876D01*
Y164555D01*
X294148D01*
Y166827D01*
D02*
G37*
G36*
X305171D02*
X300660D01*
Y164055D01*
X299660D01*
Y166827D01*
X295148D01*
Y164055D01*
X294648D01*
Y163555D01*
X291876D01*
Y161284D01*
Y159043D01*
X294648D01*
Y158043D01*
X291876D01*
Y155772D01*
Y153532D01*
X294648D01*
Y153032D01*
X295148D01*
Y150260D01*
X299660D01*
Y153032D01*
X300660D01*
Y150260D01*
X305171D01*
Y153032D01*
X305672D01*
Y153532D01*
X308443D01*
Y155772D01*
Y158043D01*
X305672D01*
Y159043D01*
X308443D01*
Y161284D01*
Y163555D01*
X305672D01*
Y164055D01*
X305171D01*
Y166827D01*
D02*
G37*
G36*
X51394Y190370D02*
X45063D01*
Y184039D01*
X47225D01*
Y173075D01*
X47301Y172691D01*
X47519Y172366D01*
X55201Y164684D01*
Y162869D01*
X58382D01*
Y166050D01*
X56673D01*
X49232Y173491D01*
Y184039D01*
X51394D01*
Y190370D01*
D02*
G37*
G36*
X54642Y156650D02*
X51461D01*
Y153469D01*
X51461D01*
X51618Y152969D01*
X51462Y152594D01*
Y151967D01*
X51702Y151389D01*
X52145Y150946D01*
X52724Y150706D01*
X53350D01*
X53929Y150946D01*
X54372Y151389D01*
X54612Y151967D01*
Y152594D01*
X54456Y152969D01*
X54642Y153469D01*
X54642D01*
Y156650D01*
D02*
G37*
G36*
X62122D02*
X58941D01*
Y153469D01*
X62122D01*
Y153646D01*
X62622Y153853D01*
X62850Y153624D01*
X63429Y153385D01*
X64056D01*
X64635Y153624D01*
X65078Y154068D01*
X65317Y154646D01*
Y155273D01*
X65078Y155852D01*
X64635Y156295D01*
X64056Y156534D01*
X63429D01*
X62850Y156295D01*
X62622Y156066D01*
X62122Y156074D01*
Y156650D01*
D02*
G37*
G36*
X439764Y156102D02*
X435039D01*
Y150984D01*
X436398D01*
Y149213D01*
X435039D01*
Y144095D01*
X439764D01*
Y149213D01*
X438405D01*
Y150984D01*
X439764D01*
Y152181D01*
X440264Y152380D01*
X440454Y152190D01*
X441033Y151950D01*
X441659D01*
X442238Y152190D01*
X442681Y152633D01*
X442921Y153212D01*
Y153838D01*
X442681Y154417D01*
X442238Y154860D01*
X441659Y155100D01*
X441033D01*
X440454Y154860D01*
X440264Y154670D01*
X439764Y154870D01*
Y156102D01*
D02*
G37*
G36*
X41354Y156724D02*
X35933D01*
Y150434D01*
X41354D01*
Y156724D01*
D02*
G37*
G36*
X19701D02*
X14279D01*
Y150434D01*
X19701D01*
Y156724D01*
D02*
G37*
G36*
X34933D02*
X29512D01*
Y150434D01*
X34933D01*
Y156724D01*
D02*
G37*
G36*
X13280D02*
X7858D01*
Y150434D01*
X13280D01*
Y156724D01*
D02*
G37*
G36*
X308443Y152532D02*
X306171D01*
Y150260D01*
X308443D01*
Y152532D01*
D02*
G37*
G36*
X294148D02*
X291876D01*
Y150260D01*
X294148D01*
Y152532D01*
D02*
G37*
G36*
X73725Y150274D02*
X73098D01*
X72520Y150035D01*
X72077Y149592D01*
X71837Y149013D01*
Y148386D01*
X72077Y147808D01*
X72520Y147364D01*
X73098Y147125D01*
X73725D01*
X74304Y147364D01*
X74747Y147808D01*
X74986Y148386D01*
Y149013D01*
X74747Y149592D01*
X74304Y150035D01*
X73725Y150274D01*
D02*
G37*
G36*
X393030Y153150D02*
X392403D01*
X391825Y152910D01*
X391382Y152467D01*
X391142Y151888D01*
Y151262D01*
X391382Y150683D01*
X391713Y150351D01*
Y149803D01*
X390559D01*
Y145472D01*
X394890D01*
Y149803D01*
X393720D01*
Y150351D01*
X394052Y150683D01*
X394291Y151262D01*
Y151888D01*
X394052Y152467D01*
X393609Y152910D01*
X393030Y153150D01*
D02*
G37*
G36*
X377282D02*
X376655D01*
X376077Y152910D01*
X375633Y152467D01*
X375394Y151888D01*
Y151262D01*
X375633Y150683D01*
X375965Y150351D01*
Y149803D01*
X374803D01*
Y145472D01*
X379134D01*
Y149803D01*
X377972D01*
Y150351D01*
X378304Y150683D01*
X378543Y151262D01*
Y151888D01*
X378304Y152467D01*
X377861Y152910D01*
X377282Y153150D01*
D02*
G37*
G36*
X41354Y149434D02*
X35933D01*
Y143144D01*
X41354D01*
Y149434D01*
D02*
G37*
G36*
X34933D02*
X29512D01*
Y143144D01*
X34933D01*
Y149434D01*
D02*
G37*
G36*
X19701D02*
X14279D01*
Y143144D01*
X19701D01*
Y149434D01*
D02*
G37*
G36*
X13280D02*
X7858D01*
Y143144D01*
X13280D01*
Y149434D01*
D02*
G37*
G36*
X255906Y141339D02*
X251181D01*
Y139783D01*
X249255D01*
X248923Y140115D01*
X248345Y140354D01*
X247718D01*
X247139Y140115D01*
X246696Y139672D01*
X246457Y139093D01*
Y138466D01*
X246696Y137888D01*
X247139Y137444D01*
X247718Y137205D01*
X248345D01*
X248923Y137444D01*
X249255Y137776D01*
X251181D01*
Y136221D01*
X255906D01*
Y141339D01*
D02*
G37*
G36*
X87906Y139532D02*
X80325D01*
Y139025D01*
X78754D01*
X78648Y139130D01*
X78069Y139370D01*
X77443D01*
X76864Y139130D01*
X76421Y138687D01*
X76181Y138109D01*
Y137482D01*
X76421Y136903D01*
X76864Y136460D01*
X77443Y136221D01*
X78069D01*
X78648Y136460D01*
X79091Y136903D01*
X79138Y137018D01*
X79972D01*
X80125Y136865D01*
X80055Y136276D01*
X79916Y136202D01*
X79916Y136133D01*
X79916Y136133D01*
Y134702D01*
X88316D01*
Y136133D01*
X88316Y136133D01*
Y136202D01*
X87906Y136420D01*
X87906Y136702D01*
Y139532D01*
D02*
G37*
G36*
X385433Y149803D02*
X381102D01*
Y145472D01*
X382264D01*
Y143632D01*
X381137D01*
Y138514D01*
X385861D01*
Y143632D01*
X384271D01*
Y145472D01*
X385433D01*
Y149803D01*
D02*
G37*
G36*
X401189D02*
X396859D01*
Y145472D01*
X398260D01*
Y143551D01*
X396902D01*
Y138433D01*
X401626D01*
Y143551D01*
X400267D01*
Y145472D01*
X401189D01*
Y149803D01*
D02*
G37*
G36*
X448255Y139521D02*
X443855D01*
Y137921D01*
X448255D01*
Y139521D01*
D02*
G37*
G36*
X442855D02*
X438455D01*
Y137921D01*
X442855D01*
Y139521D01*
D02*
G37*
G36*
X191929Y150610D02*
X152559D01*
X152175Y150533D01*
X151849Y150316D01*
X146170Y144637D01*
X145953Y144311D01*
X145876Y143927D01*
Y141071D01*
X142352D01*
Y126111D01*
X151407D01*
Y141071D01*
X147883D01*
Y143511D01*
X152975Y148603D01*
X191514D01*
X192756Y147360D01*
Y145124D01*
X192776Y145027D01*
Y140793D01*
X193133D01*
X193341Y140293D01*
X193201Y140153D01*
X192961Y139575D01*
Y138948D01*
X193201Y138369D01*
X193644Y137926D01*
X194223Y137687D01*
X194850D01*
X195428Y137926D01*
X195871Y138369D01*
X196111Y138948D01*
Y139575D01*
X195871Y140153D01*
X195732Y140293D01*
X195939Y140793D01*
X196319D01*
Y147880D01*
X194743D01*
X194687Y148160D01*
X194469Y148485D01*
X192639Y150316D01*
X192313Y150533D01*
X191929Y150610D01*
D02*
G37*
G36*
X191319Y147880D02*
X187776D01*
Y147657D01*
X171383D01*
X170999Y147581D01*
X170673Y147363D01*
X165220Y141910D01*
X165003Y141585D01*
X164926Y141201D01*
Y141071D01*
X161190D01*
Y126111D01*
X170245D01*
Y141071D01*
X167873D01*
X167682Y141533D01*
X171799Y145650D01*
X187776D01*
Y140793D01*
X187993D01*
X188200Y140293D01*
X188055Y140148D01*
X187816Y139569D01*
Y138943D01*
X188055Y138364D01*
X188498Y137921D01*
X189077Y137681D01*
X189704D01*
X190282Y137921D01*
X190726Y138364D01*
X190965Y138943D01*
Y139569D01*
X190726Y140148D01*
X190581Y140293D01*
X190788Y140793D01*
X191319D01*
Y147880D01*
D02*
G37*
G36*
X93972Y143256D02*
X93345D01*
X92767Y143016D01*
X92324Y142573D01*
X92084Y141994D01*
Y141368D01*
X92324Y140789D01*
X92655Y140457D01*
Y139532D01*
X89325D01*
Y136351D01*
X96906D01*
Y139532D01*
X94662D01*
Y140457D01*
X94994Y140789D01*
X95234Y141368D01*
Y141994D01*
X94994Y142573D01*
X94551Y143016D01*
X93972Y143256D01*
D02*
G37*
G36*
X379168Y143632D02*
X374444D01*
Y138514D01*
X374858D01*
X375192Y138014D01*
X375106Y137806D01*
Y137180D01*
X375346Y136601D01*
X375789Y136158D01*
X376368Y135918D01*
X376994D01*
X377573Y136158D01*
X378016Y136601D01*
X378256Y137180D01*
Y137806D01*
X378170Y138014D01*
X378504Y138514D01*
X379168D01*
Y143632D01*
D02*
G37*
G36*
X201319Y147880D02*
X197776D01*
Y140793D01*
X198116D01*
X198323Y140293D01*
X198191Y140160D01*
X197951Y139582D01*
Y139113D01*
X194684Y135846D01*
X188802D01*
X183661Y140986D01*
Y144488D01*
X178543D01*
Y143130D01*
X177559D01*
X177175Y143053D01*
X176849Y142836D01*
X173503Y139489D01*
X173285Y139164D01*
X173209Y138779D01*
Y123802D01*
X163599Y114192D01*
X158211D01*
X158165Y114304D01*
X157611Y114858D01*
X156888Y115157D01*
X156105D01*
X155381Y114858D01*
X154827Y114304D01*
X154528Y113581D01*
Y112797D01*
X154827Y112074D01*
X155381Y111520D01*
X156105Y111221D01*
X156888D01*
X157611Y111520D01*
X158165Y112074D01*
X158211Y112185D01*
X164015D01*
X164399Y112262D01*
X164725Y112479D01*
X174922Y122677D01*
X175140Y123003D01*
X175216Y123387D01*
Y138364D01*
X177975Y141122D01*
X178543D01*
Y139764D01*
X182045D01*
X183514Y138295D01*
X183307Y137795D01*
X178543D01*
Y133071D01*
X179210D01*
X179544Y132571D01*
X179454Y132354D01*
Y131727D01*
X179669Y131209D01*
X179568Y130942D01*
X179426Y130709D01*
X178543D01*
Y125984D01*
X183661D01*
Y130709D01*
X182632D01*
X182490Y130942D01*
X182389Y131209D01*
X182604Y131727D01*
Y132354D01*
X182514Y132571D01*
X182848Y133071D01*
X183661D01*
Y137441D01*
X184161Y137648D01*
X187676Y134133D01*
X188002Y133915D01*
X188386Y133839D01*
X195100D01*
X195484Y133915D01*
X195809Y134133D01*
X199370Y137693D01*
X199839D01*
X200418Y137933D01*
X200861Y138376D01*
X201100Y138955D01*
Y139582D01*
X200861Y140160D01*
X200728Y140293D01*
X200935Y140793D01*
X201319D01*
Y147880D01*
D02*
G37*
G36*
X448255Y136921D02*
X443855D01*
Y135321D01*
X448255D01*
Y136921D01*
D02*
G37*
G36*
X442855D02*
X438455D01*
Y135321D01*
X442855D01*
Y136921D01*
D02*
G37*
G36*
X394933Y143551D02*
X390209D01*
Y138433D01*
X391467D01*
X391611Y137933D01*
X391382Y137703D01*
X391142Y137124D01*
Y136498D01*
X391382Y135919D01*
X391825Y135476D01*
X392403Y135236D01*
X393030D01*
X393609Y135476D01*
X394052Y135919D01*
X394291Y136498D01*
Y137124D01*
X394052Y137703D01*
X393822Y137933D01*
X393966Y138433D01*
X394933D01*
Y143551D01*
D02*
G37*
G36*
X403781Y187970D02*
X392758D01*
Y180490D01*
X397627D01*
Y158456D01*
X397704Y158072D01*
X397921Y157746D01*
X403524Y152143D01*
Y137050D01*
X403193Y136719D01*
X402953Y136140D01*
Y135513D01*
X403193Y134935D01*
X403636Y134492D01*
X404214Y134252D01*
X404841D01*
X405420Y134492D01*
X405863Y134935D01*
X406102Y135513D01*
Y136140D01*
X405863Y136719D01*
X405531Y137050D01*
Y152559D01*
X405455Y152943D01*
X405237Y153269D01*
X399634Y158872D01*
Y180490D01*
X403781D01*
Y187970D01*
D02*
G37*
G36*
X75394Y143307D02*
X60433D01*
Y134252D01*
X75394D01*
Y143307D01*
D02*
G37*
G36*
X114509Y143307D02*
X99549D01*
Y134252D01*
X114509D01*
Y143307D01*
D02*
G37*
G36*
X227544Y141071D02*
X218489D01*
Y126111D01*
X227544D01*
Y132855D01*
X257635D01*
X257966Y132523D01*
X258545Y132283D01*
X259172D01*
X259750Y132523D01*
X260193Y132966D01*
X260433Y133545D01*
Y134171D01*
X260193Y134750D01*
X259750Y135193D01*
X259172Y135433D01*
X258545D01*
X257966Y135193D01*
X257635Y134862D01*
X227544D01*
Y141071D01*
D02*
G37*
G36*
X88316Y133702D02*
X79916D01*
Y132271D01*
X79916Y132271D01*
Y132202D01*
X80325Y131983D01*
X80325Y131702D01*
Y130925D01*
X78979D01*
X78648Y131256D01*
X78069Y131496D01*
X77443D01*
X76864Y131256D01*
X76421Y130813D01*
X76181Y130235D01*
Y129608D01*
X76421Y129029D01*
X76864Y128586D01*
X77443Y128347D01*
X78069D01*
X78648Y128586D01*
X78979Y128918D01*
X80325D01*
Y128871D01*
X87906D01*
X87906Y131983D01*
X88316Y132202D01*
X88316Y132271D01*
X88316Y132271D01*
Y133702D01*
D02*
G37*
G36*
X447846Y134112D02*
X438865D01*
Y130731D01*
X447846D01*
Y134112D01*
D02*
G37*
G36*
X96906Y132052D02*
X89325D01*
Y128871D01*
X96906D01*
Y132052D01*
D02*
G37*
G36*
X458268Y132677D02*
X450787D01*
Y128986D01*
X450226Y128425D01*
X447846D01*
Y129112D01*
X438865D01*
Y125731D01*
X447846D01*
Y126418D01*
X450642D01*
X451026Y126494D01*
X451351Y126712D01*
X452180Y127540D01*
X452953D01*
X453050Y127559D01*
X458268D01*
Y132677D01*
D02*
G37*
G36*
X206319Y147880D02*
X202776D01*
Y140793D01*
X203544D01*
Y138034D01*
X193965Y128455D01*
X193465Y128248D01*
X192886Y128488D01*
X192260D01*
X191681Y128248D01*
X191238Y127805D01*
X190998Y127226D01*
Y126600D01*
X191238Y126021D01*
X191681Y125578D01*
X192260Y125338D01*
X192763D01*
X193063Y125057D01*
X193155Y124909D01*
X193110Y124758D01*
X192776D01*
Y117672D01*
X196319D01*
Y124758D01*
X195551D01*
Y127202D01*
X205257Y136908D01*
X205474Y137234D01*
X205551Y137618D01*
Y140793D01*
X206319D01*
Y147880D01*
D02*
G37*
G36*
X191319Y124758D02*
X187776D01*
Y122219D01*
X183661D01*
Y124016D01*
X178543D01*
Y119291D01*
X180099D01*
Y118350D01*
X179767Y118018D01*
X179528Y117439D01*
Y116813D01*
X179767Y116234D01*
X180210Y115791D01*
X180789Y115551D01*
X181416D01*
X181994Y115791D01*
X182437Y116234D01*
X182677Y116813D01*
Y117439D01*
X182437Y118018D01*
X182106Y118350D01*
Y119291D01*
X183661D01*
Y120211D01*
X187776D01*
Y117672D01*
X191319D01*
Y124758D01*
D02*
G37*
G36*
X201728Y125168D02*
X200047D01*
Y121715D01*
X201728D01*
Y125168D01*
D02*
G37*
G36*
X199047D02*
X197366D01*
Y121715D01*
X199047D01*
Y125168D01*
D02*
G37*
G36*
X429246Y124112D02*
X420265D01*
Y120731D01*
X429246D01*
Y121367D01*
X431348D01*
X432480Y120234D01*
Y119765D01*
X432720Y119187D01*
X433163Y118744D01*
X433742Y118504D01*
X434368D01*
X434947Y118744D01*
X435390Y119187D01*
X435630Y119765D01*
Y120392D01*
X435390Y120971D01*
X434947Y121414D01*
X434368Y121653D01*
X433899D01*
X432473Y123080D01*
X432148Y123298D01*
X431763Y123374D01*
X429246D01*
Y124112D01*
D02*
G37*
G36*
X447846D02*
X438865D01*
Y120731D01*
X447846D01*
Y121418D01*
X450391D01*
X450787Y121022D01*
Y117323D01*
X458268D01*
Y122441D01*
X452207D01*
X451517Y123131D01*
X451191Y123348D01*
X450807Y123425D01*
X447846D01*
Y124112D01*
D02*
G37*
G36*
X201728Y120715D02*
X200047D01*
Y117262D01*
X201728D01*
Y120715D01*
D02*
G37*
G36*
X199047D02*
X197366D01*
Y117262D01*
X199047D01*
Y120715D01*
D02*
G37*
G36*
X40945Y135974D02*
X29921D01*
Y123213D01*
X34213D01*
Y122442D01*
X33747Y121976D01*
X33340Y121272D01*
X33130Y120486D01*
Y119672D01*
X33340Y118886D01*
X33747Y118181D01*
X34323Y117606D01*
X35028Y117199D01*
X35814Y116988D01*
X36627D01*
X37413Y117199D01*
X38118Y117606D01*
X38693Y118181D01*
X39100Y118886D01*
X39311Y119672D01*
Y120486D01*
X39100Y121272D01*
X38693Y121976D01*
X38227Y122442D01*
Y123213D01*
X40945D01*
Y135974D01*
D02*
G37*
G36*
X19291D02*
X8268D01*
Y123213D01*
X11772D01*
Y122442D01*
X11306Y121976D01*
X10900Y121272D01*
X10689Y120486D01*
Y119672D01*
X10900Y118886D01*
X11306Y118181D01*
X11882Y117606D01*
X12587Y117199D01*
X13373Y116988D01*
X14186D01*
X14972Y117199D01*
X15677Y117606D01*
X16253Y118181D01*
X16659Y118886D01*
X16870Y119672D01*
Y120486D01*
X16659Y121272D01*
X16253Y121976D01*
X15787Y122442D01*
Y123213D01*
X19291D01*
Y135974D01*
D02*
G37*
G36*
X140236Y116205D02*
X137374D01*
Y112705D01*
X140236D01*
Y116205D01*
D02*
G37*
G36*
X136374D02*
X133512D01*
Y112705D01*
X136374D01*
Y116205D01*
D02*
G37*
G36*
X207006Y115748D02*
X206380D01*
X205801Y115508D01*
X205358Y115065D01*
X205118Y114487D01*
Y113860D01*
X205358Y113281D01*
X205801Y112838D01*
X206380Y112598D01*
X207006D01*
X207585Y112838D01*
X208028Y113281D01*
X208268Y113860D01*
Y114487D01*
X208028Y115065D01*
X207585Y115508D01*
X207006Y115748D01*
D02*
G37*
G36*
X40992Y115220D02*
X33811D01*
Y109315D01*
X40992D01*
Y115220D01*
D02*
G37*
G36*
X31150D02*
X23968D01*
Y109315D01*
X31150D01*
Y115220D01*
D02*
G37*
G36*
X415945Y112205D02*
X410827D01*
Y107480D01*
X415945D01*
Y108680D01*
X416431Y108901D01*
X417010Y108661D01*
X417636D01*
X418215Y108901D01*
X418658Y109344D01*
X418898Y109923D01*
Y110549D01*
X418658Y111128D01*
X418215Y111571D01*
X417636Y111811D01*
X417010D01*
X416431Y111571D01*
X415945Y111793D01*
Y112205D01*
D02*
G37*
G36*
X140236Y111705D02*
X137374D01*
Y108205D01*
X140236D01*
Y111705D01*
D02*
G37*
G36*
X136374D02*
X133512D01*
Y108205D01*
X136374D01*
Y111705D01*
D02*
G37*
G36*
X41402Y107630D02*
X37902D01*
Y104768D01*
X41402D01*
Y107630D01*
D02*
G37*
G36*
X31559D02*
X28059D01*
Y104768D01*
X31559D01*
Y107630D01*
D02*
G37*
G36*
X27059D02*
X23559D01*
Y104768D01*
X27059D01*
Y107630D01*
D02*
G37*
G36*
X36902D02*
X33402D01*
Y104768D01*
X36902D01*
Y107630D01*
D02*
G37*
G36*
X41402Y103768D02*
X37902D01*
Y100906D01*
X41402D01*
Y103768D01*
D02*
G37*
G36*
X36902D02*
X33402D01*
Y100906D01*
X36902D01*
Y103768D01*
D02*
G37*
G36*
X31559D02*
X28059D01*
Y100906D01*
X31559D01*
Y103768D01*
D02*
G37*
G36*
X27059D02*
X23559D01*
Y100906D01*
X27059D01*
Y103768D01*
D02*
G37*
G36*
X470195Y101591D02*
X466791D01*
Y100205D01*
X470195D01*
Y101591D01*
D02*
G37*
G36*
X465791D02*
X462388D01*
Y100205D01*
X465791D01*
Y101591D01*
D02*
G37*
G36*
X162008Y99213D02*
X156890D01*
Y97854D01*
X155118D01*
Y99213D01*
X150000D01*
Y94488D01*
X155118D01*
Y95847D01*
X156890D01*
Y94488D01*
X162008D01*
Y99213D01*
D02*
G37*
G36*
X148638Y99622D02*
X146169D01*
Y97350D01*
X148638D01*
Y99622D01*
D02*
G37*
G36*
X145169D02*
X142701D01*
Y97350D01*
X145169D01*
Y99622D01*
D02*
G37*
G36*
X168898Y99213D02*
X163779D01*
Y94488D01*
X168898D01*
Y95415D01*
X169398Y95609D01*
X169404Y95603D01*
X169983Y95363D01*
X170609D01*
X171188Y95603D01*
X171631Y96046D01*
X171871Y96624D01*
Y97251D01*
X171631Y97830D01*
X171188Y98273D01*
X170609Y98513D01*
X169983D01*
X169404Y98273D01*
X169398Y98266D01*
X168898Y98473D01*
Y99213D01*
D02*
G37*
G36*
X220786Y100000D02*
X220159D01*
X219580Y99760D01*
X219137Y99317D01*
X218898Y98738D01*
Y98112D01*
X219137Y97533D01*
X219369Y97302D01*
Y95157D01*
X215671D01*
Y97302D01*
X215902Y97533D01*
X216142Y98112D01*
Y98738D01*
X215902Y99317D01*
X215459Y99760D01*
X214880Y100000D01*
X214254D01*
X213675Y99760D01*
X213232Y99317D01*
X212992Y98738D01*
Y98112D01*
X213232Y97533D01*
X213463Y97302D01*
Y95157D01*
X211479D01*
Y83976D01*
X223160D01*
Y95157D01*
X221576D01*
Y97302D01*
X221808Y97533D01*
X222047Y98112D01*
Y98738D01*
X221808Y99317D01*
X221364Y99760D01*
X220786Y100000D01*
D02*
G37*
G36*
X148638Y96350D02*
X146169D01*
Y94079D01*
X148638D01*
Y96350D01*
D02*
G37*
G36*
X145169D02*
X142701D01*
Y94079D01*
X145169D01*
Y96350D01*
D02*
G37*
G36*
X168898Y92520D02*
X163779D01*
Y91161D01*
X162008D01*
Y92520D01*
X156890D01*
Y87795D01*
X162008D01*
Y89154D01*
X163779D01*
Y87795D01*
X168898D01*
Y92520D01*
D02*
G37*
G36*
X131827Y115795D02*
X125921D01*
Y108614D01*
X128227D01*
Y106102D01*
X126378D01*
Y100591D01*
X128227D01*
Y98228D01*
X126378D01*
Y92716D01*
X127739D01*
X127895Y92430D01*
X127971Y92216D01*
X127749Y91680D01*
Y91053D01*
X127989Y90474D01*
X128431Y90031D01*
X129010Y89792D01*
X129637D01*
X130216Y90031D01*
X130659Y90474D01*
X130898Y91053D01*
Y91680D01*
X130676Y92216D01*
X130752Y92430D01*
X130908Y92716D01*
X132283D01*
Y98228D01*
X130435D01*
Y100591D01*
X132283D01*
Y106102D01*
X130435D01*
Y108614D01*
X131827D01*
Y115795D01*
D02*
G37*
G36*
X10249Y101516D02*
X9436D01*
X8650Y101305D01*
X7945Y100898D01*
X7369Y100323D01*
X6963Y99618D01*
X6752Y98832D01*
Y98018D01*
X6963Y97232D01*
X7369Y96527D01*
X7835Y96062D01*
Y95157D01*
X2776D01*
Y88701D01*
X16909D01*
Y95157D01*
X11850D01*
Y96062D01*
X12316Y96527D01*
X12722Y97232D01*
X12933Y98018D01*
Y98832D01*
X12722Y99618D01*
X12316Y100323D01*
X11740Y100898D01*
X11035Y101305D01*
X10249Y101516D01*
D02*
G37*
G36*
X201378Y97047D02*
X186417D01*
Y87992D01*
X201378D01*
Y97047D01*
D02*
G37*
G36*
X113779D02*
X98819D01*
Y87992D01*
X113779D01*
Y97047D01*
D02*
G37*
G36*
X90535Y95598D02*
X89908D01*
X89329Y95358D01*
X88886Y94915D01*
X88647Y94336D01*
Y93710D01*
X88886Y93131D01*
X88653Y92658D01*
X88074D01*
Y86476D01*
X92255D01*
Y87882D01*
X92361Y87986D01*
X92755Y88173D01*
X93191Y87992D01*
X93817D01*
X94396Y88232D01*
X94839Y88675D01*
X95079Y89254D01*
Y89880D01*
X94839Y90459D01*
X94396Y90902D01*
X93817Y91142D01*
X93191D01*
X92755Y90961D01*
X92361Y91148D01*
X92255Y91252D01*
Y92658D01*
X91790D01*
X91557Y93131D01*
X91796Y93710D01*
Y94336D01*
X91557Y94915D01*
X91114Y95358D01*
X90535Y95598D01*
D02*
G37*
G36*
X313545Y97047D02*
X298585D01*
Y87992D01*
X313545D01*
Y97047D01*
D02*
G37*
G36*
X139370Y106102D02*
X133465D01*
Y100591D01*
X135414D01*
Y98228D01*
X133465D01*
Y92716D01*
X137921D01*
X141189Y89448D01*
X141515Y89230D01*
X141899Y89154D01*
X142311D01*
X142503Y88692D01*
X139399Y85589D01*
X138899Y85796D01*
Y86475D01*
X139130Y86706D01*
X139370Y87285D01*
Y87912D01*
X139130Y88490D01*
X138687Y88933D01*
X138109Y89173D01*
X137482D01*
X136903Y88933D01*
X136460Y88490D01*
X136221Y87912D01*
Y87285D01*
X136460Y86706D01*
X136691Y86475D01*
Y83854D01*
X136217Y83644D01*
X135918Y83879D01*
Y83952D01*
X135679Y84531D01*
X135236Y84974D01*
X134657Y85214D01*
X134030D01*
X133452Y84974D01*
X133009Y84531D01*
X132769Y83952D01*
Y83325D01*
X132790Y83274D01*
X132366Y82991D01*
X132273Y83084D01*
X131694Y83324D01*
X131068D01*
X130489Y83084D01*
X130046Y82641D01*
X129806Y82062D01*
Y81436D01*
X130046Y80857D01*
X130489Y80414D01*
X131068Y80174D01*
X131395D01*
X131526Y80043D01*
Y77894D01*
X130347D01*
Y76335D01*
X129937D01*
Y75303D01*
X132630D01*
Y74303D01*
X129937D01*
Y73335D01*
X132630D01*
Y72335D01*
X129937D01*
Y71870D01*
X128543D01*
Y73320D01*
X123425D01*
Y71438D01*
X122939Y71217D01*
X122361Y71457D01*
X121734D01*
X121155Y71217D01*
X120712Y70774D01*
X120472Y70195D01*
Y69569D01*
X120712Y68990D01*
X121155Y68547D01*
X121734Y68307D01*
X122361D01*
X122939Y68547D01*
X122943Y68551D01*
X123425Y68595D01*
Y68595D01*
X128543D01*
Y69863D01*
X130347D01*
Y66029D01*
X129906Y65589D01*
X129437D01*
X129043Y65426D01*
X128592Y65662D01*
X128543Y65719D01*
Y66627D01*
X125132D01*
X124766Y66993D01*
X124375Y67254D01*
X123914Y67346D01*
X123914Y67346D01*
X117913D01*
Y69291D01*
X111221D01*
Y64173D01*
X117913D01*
Y64937D01*
X123416D01*
X123425Y64928D01*
Y61902D01*
X128543D01*
Y62341D01*
X129043Y62603D01*
X129437Y62440D01*
X130064D01*
X130643Y62679D01*
X130942Y62979D01*
X131366Y63009D01*
X131549Y62935D01*
X131911Y62574D01*
X132490Y62334D01*
X133116D01*
X133695Y62574D01*
X134138Y63016D01*
X134205Y63177D01*
X134705Y63078D01*
Y61449D01*
X134823D01*
Y60455D01*
X134624Y60255D01*
X117913D01*
Y61811D01*
X111221D01*
Y56693D01*
X117913D01*
Y58248D01*
X135039D01*
X135423Y58325D01*
X135749Y58542D01*
X136536Y59330D01*
X136754Y59655D01*
X136830Y60039D01*
Y61449D01*
X140729D01*
Y56880D01*
X139388D01*
Y51762D01*
X140782D01*
Y49989D01*
X139423D01*
Y44870D01*
X144148D01*
Y49989D01*
X142789D01*
Y51762D01*
X144112D01*
Y56880D01*
X142736D01*
Y61449D01*
X146791D01*
Y65807D01*
X148109D01*
Y64516D01*
X147878Y64284D01*
X147638Y63706D01*
Y63079D01*
X147878Y62500D01*
X148321Y62057D01*
X148900Y61818D01*
X149526D01*
X150105Y62057D01*
X150548Y62500D01*
X150788Y63079D01*
Y63706D01*
X150548Y64284D01*
X150317Y64516D01*
Y65009D01*
X150779Y65200D01*
X151399Y64580D01*
Y62090D01*
X151224Y61916D01*
X150984Y61337D01*
Y60710D01*
X151224Y60132D01*
X151667Y59689D01*
X152246Y59449D01*
X152872D01*
X153451Y59689D01*
X153894Y60132D01*
X154134Y60710D01*
Y61337D01*
X153894Y61916D01*
X153606Y62204D01*
Y65038D01*
X153522Y65460D01*
X153283Y65818D01*
X151431Y67670D01*
X151150Y67858D01*
Y69762D01*
X153292D01*
Y69151D01*
X153061Y68920D01*
X152821Y68341D01*
Y67715D01*
X153061Y67136D01*
X153504Y66693D01*
X154083Y66453D01*
X154709D01*
X155288Y66693D01*
X155731Y67136D01*
X155971Y67715D01*
Y68341D01*
X155731Y68920D01*
X155500Y69151D01*
Y69762D01*
X156236D01*
X156869Y69130D01*
X156869Y69129D01*
X158858Y67140D01*
Y63189D01*
X160904D01*
Y60630D01*
X159646D01*
Y55512D01*
X163899D01*
X164212Y55512D01*
X164454Y55047D01*
X163148Y53740D01*
X159646D01*
Y48622D01*
X164370D01*
Y52124D01*
X165839Y53593D01*
X166339Y53386D01*
Y48622D01*
X171063D01*
Y52124D01*
X173938Y54999D01*
X174155Y55325D01*
X174232Y55709D01*
Y61614D01*
X174155Y61998D01*
X173938Y62324D01*
X171850Y64411D01*
Y68701D01*
X167936D01*
Y68894D01*
X167860Y69278D01*
X167642Y69604D01*
X166486Y70760D01*
X166693Y71260D01*
X171063D01*
Y76378D01*
X167561D01*
X165911Y78027D01*
X166119Y78527D01*
X168398D01*
Y81193D01*
X165535D01*
Y79134D01*
X165102Y78865D01*
X164764Y79075D01*
Y84449D01*
X158858D01*
Y82696D01*
X157480D01*
X157096Y82620D01*
X156771Y82402D01*
X152143Y77775D01*
X151150D01*
Y77894D01*
X147201D01*
Y79469D01*
X145669D01*
Y79969D01*
X145169D01*
Y82661D01*
X144138D01*
Y82252D01*
X143433D01*
X143226Y82752D01*
X144529Y84055D01*
X144998D01*
X145577Y84295D01*
X146020Y84738D01*
X146260Y85317D01*
Y85943D01*
X146020Y86522D01*
X145577Y86965D01*
X145044Y87186D01*
X144981Y87245D01*
X144784Y87705D01*
X144843Y87795D01*
X148228D01*
Y89154D01*
X150000D01*
Y87795D01*
X155118D01*
Y92520D01*
X150000D01*
Y91161D01*
X148228D01*
Y92520D01*
X143110D01*
Y91161D01*
X142315D01*
X139370Y94106D01*
Y98228D01*
X137421D01*
Y100591D01*
X139370D01*
Y106102D01*
D02*
G37*
G36*
X86749Y95157D02*
X75068D01*
Y83976D01*
X86749D01*
Y95157D01*
D02*
G37*
G36*
X289961Y84449D02*
X284842D01*
Y83090D01*
X283071D01*
Y84449D01*
X277953D01*
Y79724D01*
X283071D01*
Y81083D01*
X284842D01*
Y79724D01*
X289961D01*
Y84449D01*
D02*
G37*
G36*
X172260Y84858D02*
X169398D01*
Y82193D01*
X172260D01*
Y84858D01*
D02*
G37*
G36*
X168398D02*
X165535D01*
Y82193D01*
X168398D01*
Y84858D01*
D02*
G37*
G36*
X210155Y92658D02*
X205973D01*
Y86476D01*
X206841D01*
Y84474D01*
X206710Y84343D01*
X206470Y83764D01*
Y83138D01*
X206710Y82559D01*
X207153Y82116D01*
X207732Y81876D01*
X208359D01*
X208937Y82116D01*
X209380Y82559D01*
X209620Y83138D01*
Y83764D01*
X209380Y84343D01*
X209249Y84474D01*
Y86476D01*
X210155D01*
Y92658D01*
D02*
G37*
G36*
X147201Y82661D02*
X146169D01*
Y80468D01*
X147201D01*
Y82661D01*
D02*
G37*
G36*
X206319Y124758D02*
X202776D01*
Y117672D01*
X206319D01*
Y120211D01*
X237621D01*
X258381Y99452D01*
X255977Y97047D01*
X242451D01*
Y87992D01*
X257412D01*
Y95644D01*
X259800Y98032D01*
X272308Y85524D01*
Y84449D01*
X271063D01*
Y79724D01*
X276181D01*
Y84449D01*
X274315D01*
Y85940D01*
X274239Y86324D01*
X274021Y86650D01*
X260510Y100161D01*
X238747Y121925D01*
X238421Y122142D01*
X238037Y122219D01*
X206319D01*
Y124758D01*
D02*
G37*
G36*
X172260Y81193D02*
X169398D01*
Y78527D01*
X172260D01*
Y81193D01*
D02*
G37*
G36*
X354346Y80055D02*
X349909D01*
Y76602D01*
X354346D01*
Y80055D01*
D02*
G37*
G36*
X348909D02*
X344472D01*
Y76602D01*
X348909D01*
Y80055D01*
D02*
G37*
G36*
X115630Y78803D02*
X112768D01*
Y75303D01*
X115630D01*
Y78803D01*
D02*
G37*
G36*
X111768D02*
X108905D01*
Y75303D01*
X111768D01*
Y78803D01*
D02*
G37*
G36*
X289961Y77756D02*
X284842D01*
Y73032D01*
X286298D01*
Y66929D01*
X286382Y66507D01*
X286621Y66149D01*
X288625Y64145D01*
X288983Y63906D01*
X289405Y63822D01*
X290163D01*
Y62621D01*
X290012Y62310D01*
X289730Y62205D01*
X284842D01*
X284842Y59646D01*
X284457Y59370D01*
X279648D01*
X274856Y64161D01*
Y73032D01*
X276181D01*
Y74390D01*
X277953D01*
Y73032D01*
X283071D01*
Y77756D01*
X277953D01*
Y76397D01*
X276181D01*
Y77756D01*
X271063D01*
Y73032D01*
X272849D01*
Y63746D01*
X272925Y63362D01*
X273143Y63036D01*
X278523Y57657D01*
X278848Y57439D01*
X279232Y57363D01*
X284315D01*
X284404Y57125D01*
X284386Y57073D01*
X284080Y56787D01*
X270079D01*
Y58661D01*
X268720D01*
Y60433D01*
X270079D01*
Y65551D01*
X265354D01*
Y60433D01*
X266713D01*
Y58661D01*
X265354D01*
Y54014D01*
X265354Y53701D01*
X264889Y53459D01*
X263386Y54962D01*
Y58661D01*
X258661D01*
Y53543D01*
X261967D01*
X262867Y52643D01*
X262675Y52181D01*
X261524D01*
Y49713D01*
X263795D01*
Y51061D01*
X264257Y51253D01*
X265354Y50156D01*
Y46654D01*
X270079D01*
Y51772D01*
X266577D01*
X265270Y53078D01*
X265281Y53100D01*
X265281Y53100D01*
X265512Y53543D01*
X265789Y53543D01*
X270079D01*
Y54780D01*
X284433D01*
Y53748D01*
X287402D01*
Y53248D01*
X287902D01*
Y51559D01*
X289999D01*
X290158Y51559D01*
X290158Y51458D01*
Y46752D01*
X294776D01*
X295276Y46752D01*
X295776Y46752D01*
X297425D01*
Y46343D01*
X298614D01*
Y49311D01*
X299114D01*
Y49811D01*
X300803D01*
Y51559D01*
X302650D01*
Y53248D01*
X303150D01*
Y53748D01*
X306118D01*
Y54937D01*
X305709D01*
X305709Y57087D01*
X305709Y57587D01*
X305709Y59646D01*
X305709Y60146D01*
Y62205D01*
X300832D01*
X300541Y62314D01*
X300399Y62625D01*
Y67485D01*
X298036D01*
X297829Y67985D01*
X297884Y68040D01*
X298124Y68619D01*
Y69245D01*
X297884Y69824D01*
X297441Y70267D01*
X296862Y70507D01*
X296236D01*
X295657Y70267D01*
X295214Y69824D01*
X294974Y69245D01*
Y68619D01*
X295214Y68040D01*
X295269Y67985D01*
X295062Y67485D01*
X294781Y67485D01*
X290163D01*
Y66436D01*
X289663Y66229D01*
X288506Y67386D01*
Y73032D01*
X289961D01*
Y74331D01*
X291037D01*
X291369Y73999D01*
X291948Y73759D01*
X292574D01*
X293153Y73999D01*
X293596Y74442D01*
X293836Y75021D01*
Y75647D01*
X293596Y76226D01*
X293153Y76669D01*
X292574Y76909D01*
X291948D01*
X291369Y76669D01*
X291037Y76338D01*
X289961D01*
Y77756D01*
D02*
G37*
G36*
X187321Y82284D02*
X186695D01*
X186116Y82044D01*
X185673Y81601D01*
X185433Y81022D01*
Y80395D01*
X185673Y79817D01*
X185904Y79585D01*
Y78803D01*
X183417D01*
Y72898D01*
X190598D01*
Y78803D01*
X188112D01*
Y79585D01*
X188343Y79817D01*
X188583Y80395D01*
Y81022D01*
X188343Y81601D01*
X187900Y82044D01*
X187321Y82284D01*
D02*
G37*
G36*
X354346Y75602D02*
X349909D01*
Y72150D01*
X354346D01*
Y75602D01*
D02*
G37*
G36*
X348909D02*
X344472D01*
Y72150D01*
X348909D01*
Y75602D01*
D02*
G37*
G36*
X115630Y74303D02*
X112768D01*
Y70803D01*
X115630D01*
Y74303D01*
D02*
G37*
G36*
X111768D02*
X108905D01*
Y70803D01*
X111768D01*
Y74303D01*
D02*
G37*
G36*
X191008Y71213D02*
X187508D01*
Y68350D01*
X191008D01*
Y71213D01*
D02*
G37*
G36*
X186508D02*
X183008D01*
Y68350D01*
X186508D01*
Y71213D01*
D02*
G37*
G36*
X283778Y68504D02*
X283151D01*
X282573Y68264D01*
X282130Y67821D01*
X281890Y67242D01*
Y66616D01*
X282130Y66037D01*
X282573Y65594D01*
X283151Y65354D01*
X283778D01*
X284357Y65594D01*
X284800Y66037D01*
X285039Y66616D01*
Y67242D01*
X284800Y67821D01*
X284357Y68264D01*
X283778Y68504D01*
D02*
G37*
G36*
X107220Y78394D02*
X101315D01*
Y71213D01*
X104048D01*
Y65551D01*
X102559D01*
Y64999D01*
X98425D01*
Y67520D01*
X90551D01*
Y58465D01*
X98425D01*
Y60985D01*
X102559D01*
Y60433D01*
X109252D01*
Y65551D01*
X106456D01*
Y71213D01*
X107220D01*
Y78394D01*
D02*
G37*
G36*
X191008Y67350D02*
X187508D01*
Y64488D01*
X191008D01*
Y67350D01*
D02*
G37*
G36*
X186508D02*
X183008D01*
Y64488D01*
X186508D01*
Y67350D01*
D02*
G37*
G36*
X10218Y69811D02*
X9467D01*
X8741Y69617D01*
X8090Y69241D01*
X7559Y68709D01*
X7183Y68058D01*
X6988Y67333D01*
Y66581D01*
X7183Y65855D01*
X7559Y65204D01*
X8090Y64673D01*
X8741Y64297D01*
X9467Y64102D01*
X10218D01*
X10944Y64297D01*
X11595Y64673D01*
X12127Y65204D01*
X12502Y65855D01*
X12697Y66581D01*
Y67333D01*
X12502Y68058D01*
X12127Y68709D01*
X11595Y69241D01*
X10944Y69617D01*
X10218Y69811D01*
D02*
G37*
G36*
X233677Y67929D02*
X229831D01*
Y63492D01*
X233677D01*
Y67929D01*
D02*
G37*
G36*
X228831D02*
X224984D01*
Y63492D01*
X228831D01*
Y67929D01*
D02*
G37*
G36*
X454150Y65961D02*
X451878D01*
Y63492D01*
X454150D01*
Y65961D01*
D02*
G37*
G36*
X450878D02*
X448606D01*
Y63492D01*
X450878D01*
Y65961D01*
D02*
G37*
G36*
X438779Y67520D02*
X434055D01*
Y62402D01*
X438779D01*
Y63523D01*
X439280Y63730D01*
X439445Y63565D01*
X440024Y63325D01*
X440650D01*
X441229Y63565D01*
X441672Y64008D01*
X441912Y64587D01*
Y65213D01*
X441672Y65792D01*
X441229Y66235D01*
X440650Y66475D01*
X440024D01*
X439445Y66235D01*
X439280Y66070D01*
X438779Y66277D01*
Y67520D01*
D02*
G37*
G36*
X390354Y69646D02*
X381299D01*
Y62559D01*
X390354D01*
Y69646D01*
D02*
G37*
G36*
X353937D02*
X344882D01*
Y62559D01*
X353937D01*
Y69646D01*
D02*
G37*
G36*
X69211Y70472D02*
X68584D01*
X68006Y70233D01*
X67563Y69790D01*
X67323Y69211D01*
Y68584D01*
X67563Y68006D01*
X67343Y67520D01*
X64961D01*
Y58465D01*
X67343D01*
X67563Y57979D01*
X67323Y57400D01*
Y56773D01*
X67563Y56195D01*
X68006Y55752D01*
X68584Y55512D01*
X69211D01*
X69790Y55752D01*
X70233Y56195D01*
X70472Y56773D01*
Y57400D01*
X70233Y57979D01*
X70452Y58465D01*
X72835D01*
Y61154D01*
X73335Y61488D01*
X73506Y61417D01*
X74132D01*
X74711Y61657D01*
X75154Y62100D01*
X75394Y62679D01*
Y63305D01*
X75154Y63884D01*
X74711Y64327D01*
X74132Y64567D01*
X73506D01*
X73335Y64496D01*
X72835Y64830D01*
Y67520D01*
X70452D01*
X70233Y68006D01*
X70472Y68584D01*
Y69211D01*
X70233Y69790D01*
X69790Y70233D01*
X69211Y70472D01*
D02*
G37*
G36*
X207677Y67520D02*
X199803D01*
Y58465D01*
X202186D01*
X202405Y57979D01*
X202165Y57400D01*
Y56773D01*
X202405Y56195D01*
X202848Y55752D01*
X203427Y55512D01*
X204053D01*
X204632Y55752D01*
X205075Y56195D01*
X205315Y56773D01*
Y57400D01*
X205075Y57979D01*
X205294Y58465D01*
X207677D01*
Y61470D01*
X208177Y61656D01*
X208288Y61545D01*
X208867Y61305D01*
X209494D01*
X210072Y61545D01*
X210515Y61988D01*
X210755Y62567D01*
Y63193D01*
X210515Y63772D01*
X210072Y64215D01*
X209494Y64455D01*
X208867D01*
X208288Y64215D01*
X208270Y64196D01*
X207677D01*
Y67520D01*
D02*
G37*
G36*
X250392Y71850D02*
X249608D01*
X248885Y71551D01*
X248331Y70997D01*
X248031Y70274D01*
Y69490D01*
X248331Y68767D01*
X248885Y68213D01*
X249608Y67913D01*
X250392D01*
X250503Y67960D01*
X256097Y62366D01*
X256422Y62149D01*
X256806Y62072D01*
X258661D01*
Y60433D01*
X263386D01*
Y65551D01*
X262298D01*
X262091Y66051D01*
X262275Y66235D01*
X262515Y66814D01*
Y67441D01*
X262275Y68019D01*
X261832Y68462D01*
X261253Y68702D01*
X260627D01*
X260048Y68462D01*
X259605Y68019D01*
X259365Y67441D01*
Y66814D01*
X259605Y66235D01*
X259789Y66051D01*
X259582Y65551D01*
X258661D01*
Y64079D01*
X257222D01*
X251922Y69379D01*
X251969Y69490D01*
Y70274D01*
X251669Y70997D01*
X251115Y71551D01*
X250392Y71850D01*
D02*
G37*
G36*
X450878Y62492D02*
X448606D01*
Y60024D01*
X450878D01*
Y62492D01*
D02*
G37*
G36*
X233677Y62492D02*
X229831D01*
Y58055D01*
X233677D01*
Y62492D01*
D02*
G37*
G36*
X228831D02*
X224984D01*
Y58055D01*
X228831D01*
Y62492D01*
D02*
G37*
G36*
X353937Y59646D02*
X344882D01*
Y57206D01*
X343643D01*
X343412Y57437D01*
X342833Y57677D01*
X342206D01*
X341628Y57437D01*
X341185Y56994D01*
X340945Y56416D01*
Y55789D01*
X341185Y55210D01*
X341628Y54767D01*
X342206Y54528D01*
X342833D01*
X343412Y54767D01*
X343643Y54998D01*
X344882D01*
Y52559D01*
X353937D01*
Y59646D01*
D02*
G37*
G36*
X137419Y56880D02*
X132695D01*
Y55699D01*
X132195Y55492D01*
X132062Y55625D01*
X131483Y55864D01*
X130856D01*
X130278Y55625D01*
X129835Y55182D01*
X129595Y54603D01*
Y53976D01*
X129835Y53398D01*
X130278Y52955D01*
X130856Y52715D01*
X131483D01*
X132062Y52955D01*
X132195Y53088D01*
X132695Y52881D01*
Y51762D01*
X137419D01*
Y56880D01*
D02*
G37*
G36*
X306118Y52748D02*
X303650D01*
Y51559D01*
X306118D01*
Y52748D01*
D02*
G37*
G36*
X286902Y52748D02*
X284433D01*
Y51559D01*
X286902D01*
Y52748D01*
D02*
G37*
G36*
X260524Y52181D02*
X258252D01*
Y49713D01*
X260524D01*
Y52181D01*
D02*
G37*
G36*
X137455Y49989D02*
X132730D01*
Y48248D01*
X132129D01*
X131798Y48579D01*
X131219Y48819D01*
X130592D01*
X130014Y48579D01*
X129570Y48136D01*
X129331Y47557D01*
Y46931D01*
X129570Y46352D01*
X130014Y45909D01*
X130592Y45669D01*
X131219D01*
X131798Y45909D01*
X132129Y46241D01*
X132730D01*
Y44870D01*
X137455D01*
Y49989D01*
D02*
G37*
G36*
X300803Y48811D02*
X299614D01*
Y46343D01*
X300803D01*
Y48811D01*
D02*
G37*
G36*
X263795Y48713D02*
X261524D01*
Y46244D01*
X263795D01*
Y48713D01*
D02*
G37*
G36*
X260524D02*
X258252D01*
Y46244D01*
X260524D01*
Y48713D01*
D02*
G37*
G36*
X303472Y46144D02*
X302846D01*
X302267Y45904D01*
X301824Y45461D01*
X301584Y44882D01*
Y44256D01*
X301824Y43677D01*
X302267Y43234D01*
X302846Y42994D01*
X303472D01*
X304051Y43234D01*
X304494Y43677D01*
X304733Y44256D01*
Y44882D01*
X304494Y45461D01*
X304051Y45904D01*
X303472Y46144D01*
D02*
G37*
G36*
X13795Y47260D02*
X9358D01*
Y39870D01*
X13795D01*
Y47260D01*
D02*
G37*
G36*
X8358D02*
X3921D01*
Y39870D01*
X8358D01*
Y47260D01*
D02*
G37*
G36*
X13795Y38870D02*
X9358D01*
Y31480D01*
X13795D01*
Y38870D01*
D02*
G37*
G36*
X8358D02*
X3921D01*
Y31480D01*
X8358D01*
Y38870D01*
D02*
G37*
G36*
X354921Y29291D02*
X345866D01*
Y22205D01*
X354921D01*
Y29291D01*
D02*
G37*
G36*
X20185Y30916D02*
Y20185D01*
X30735D01*
X30622Y21614D01*
X30217Y23304D01*
X29552Y24909D01*
X28644Y26391D01*
X27515Y27712D01*
X26194Y28841D01*
X24712Y29748D01*
X23107Y30413D01*
X21417Y30819D01*
X20185Y30916D01*
D02*
G37*
G36*
X19185D02*
X17953Y30819D01*
X16263Y30413D01*
X14658Y29748D01*
X13176Y28841D01*
X11855Y27712D01*
X10726Y26391D01*
X9819Y24909D01*
X9154Y23304D01*
X8748Y21614D01*
X8635Y20185D01*
X19185D01*
Y30916D01*
D02*
G37*
G36*
X48244Y13795D02*
X40854D01*
Y9358D01*
X48244D01*
Y13795D01*
D02*
G37*
G36*
X39854D02*
X32465D01*
Y9358D01*
X39854D01*
Y13795D01*
D02*
G37*
G36*
X30735Y19185D02*
X20185D01*
Y8454D01*
X21417Y8551D01*
X23107Y8957D01*
X24712Y9622D01*
X26194Y10530D01*
X27515Y11658D01*
X28644Y12979D01*
X29552Y14461D01*
X30217Y16066D01*
X30622Y17756D01*
X30735Y19185D01*
D02*
G37*
G36*
X19185D02*
X8635D01*
X8748Y17756D01*
X9154Y16066D01*
X9819Y14461D01*
X10726Y12979D01*
X11855Y11658D01*
X13176Y10530D01*
X14658Y9622D01*
X16263Y8957D01*
X17953Y8551D01*
X19185Y8454D01*
Y19185D01*
D02*
G37*
G36*
X48244Y8358D02*
X40854D01*
Y3921D01*
X48244D01*
Y8358D01*
D02*
G37*
G36*
X39854D02*
X32465D01*
Y3921D01*
X39854D01*
Y8358D01*
D02*
G37*
%LPD*%
G36*
X362618Y165490D02*
Y151810D01*
X362417Y151394D01*
X362118Y151394D01*
X359752D01*
Y148031D01*
Y144669D01*
X362417D01*
Y145352D01*
X362896Y145506D01*
X362917Y145506D01*
X371044Y137380D01*
Y133858D01*
Y130337D01*
X370954Y130247D01*
X370256D01*
Y133268D01*
X363169D01*
Y132795D01*
X356892D01*
X356532Y133178D01*
X356572Y133601D01*
X356990Y134018D01*
X357229Y134597D01*
Y135224D01*
X356990Y135802D01*
X356547Y136246D01*
X355968Y136485D01*
X355341D01*
X354763Y136246D01*
X354320Y135802D01*
X353891Y135717D01*
X347460Y142148D01*
Y160433D01*
X347384Y160817D01*
X347166Y161143D01*
X344962Y163347D01*
X344636Y163565D01*
X344252Y163641D01*
X344057Y163836D01*
X344057Y164941D01*
X344057Y165303D01*
Y169579D01*
X344057Y169941D01*
X344057Y170603D01*
X344519Y170794D01*
X344882Y170431D01*
Y169962D01*
X345122Y169384D01*
X345565Y168940D01*
X346143Y168701D01*
X346770D01*
X347349Y168940D01*
X347792Y169384D01*
X348031Y169962D01*
Y170589D01*
X347792Y171168D01*
X347349Y171611D01*
X346770Y171850D01*
X346301D01*
X344884Y173268D01*
X344558Y173485D01*
X344174Y173562D01*
X344057Y173679D01*
X344057Y174941D01*
X344057Y175303D01*
Y176634D01*
X351474D01*
X362618Y165490D01*
D02*
G37*
G36*
X353668Y127196D02*
X353668Y127196D01*
X354901Y125964D01*
X355226Y125746D01*
X355610Y125670D01*
X363169D01*
Y122638D01*
X370256D01*
Y123104D01*
X374587D01*
X374796Y122599D01*
X375239Y122156D01*
X375818Y121917D01*
X376445D01*
X377023Y122156D01*
X377466Y122599D01*
X377706Y123178D01*
Y123805D01*
X377466Y124383D01*
X377023Y124826D01*
X376445Y125066D01*
X375818D01*
X375642Y124993D01*
X375580Y125035D01*
X375196Y125111D01*
X370256D01*
Y128240D01*
X371370D01*
X371754Y128316D01*
X372079Y128534D01*
X372757Y129212D01*
X372974Y129537D01*
X373051Y129921D01*
Y132855D01*
X379335D01*
Y132291D01*
X383287D01*
X387250D01*
X387740Y132494D01*
X388523Y131712D01*
X388848Y131494D01*
X389232Y131418D01*
X411445D01*
X411668Y130918D01*
X411417Y130313D01*
Y129530D01*
X411717Y128806D01*
X412271Y128252D01*
X412994Y127953D01*
X413777D01*
X413889Y127999D01*
X415904Y125984D01*
X412716Y122796D01*
X412498Y122471D01*
X412422Y122087D01*
Y118898D01*
X410827D01*
Y117539D01*
X393112D01*
X393095Y117551D01*
X392711Y117627D01*
X342018D01*
X341811Y118127D01*
X341886Y118202D01*
X342126Y118781D01*
Y119408D01*
X342055Y119579D01*
X342389Y120079D01*
X344057D01*
Y124579D01*
X344057Y124941D01*
X344057Y125303D01*
Y129579D01*
X344057Y129941D01*
X344057Y130303D01*
Y134579D01*
X344057Y134941D01*
X344057Y135303D01*
Y136122D01*
X344557Y136307D01*
X353668Y127196D01*
D02*
G37*
%LPC*%
G36*
X357993Y164947D02*
X357366D01*
X356787Y164707D01*
X356344Y164264D01*
X356104Y163685D01*
Y163059D01*
X356344Y162480D01*
X356787Y162037D01*
X357366Y161797D01*
X357993D01*
X358571Y162037D01*
X359014Y162480D01*
X359254Y163059D01*
Y163685D01*
X359014Y164264D01*
X358571Y164707D01*
X357993Y164947D01*
D02*
G37*
G36*
X352676Y161024D02*
X352049D01*
X351470Y160784D01*
X351027Y160341D01*
X350787Y159762D01*
Y159136D01*
X351027Y158557D01*
X350806Y158071D01*
X348622D01*
Y152165D01*
X354134D01*
Y154115D01*
X356496D01*
Y152165D01*
X362008D01*
Y158071D01*
X356496D01*
Y156122D01*
X354134D01*
Y158071D01*
X353918D01*
X353697Y158557D01*
X353937Y159136D01*
Y159762D01*
X353697Y160341D01*
X353254Y160784D01*
X352676Y161024D01*
D02*
G37*
G36*
X358752Y151394D02*
X356087D01*
Y148531D01*
X358752D01*
Y151394D01*
D02*
G37*
G36*
X354543Y151394D02*
X351878D01*
Y148531D01*
X354543D01*
Y151394D01*
D02*
G37*
G36*
X350878D02*
X348213D01*
Y148531D01*
X350878D01*
Y151394D01*
D02*
G37*
G36*
X358752Y147531D02*
X356087D01*
Y144669D01*
X358752D01*
Y147531D01*
D02*
G37*
G36*
X354543Y147531D02*
X351878D01*
Y144669D01*
X354543D01*
Y147531D01*
D02*
G37*
G36*
X350878D02*
X348213D01*
Y144669D01*
X350878D01*
Y147531D01*
D02*
G37*
G36*
X387240Y131291D02*
X383287D01*
X379335D01*
Y129905D01*
Y129732D01*
X383287D01*
X387240D01*
Y131291D01*
D02*
G37*
G36*
Y128732D02*
X383287D01*
X379335D01*
Y127347D01*
Y127173D01*
X383287D01*
X387240D01*
Y127347D01*
Y128732D01*
D02*
G37*
G36*
Y126173D02*
X383287D01*
X379335D01*
Y124787D01*
Y124614D01*
X383287D01*
X387240D01*
Y124787D01*
Y126173D01*
D02*
G37*
G36*
Y123614D02*
X383787D01*
Y122228D01*
X387240D01*
Y123614D01*
D02*
G37*
G36*
X382787D02*
X379335D01*
Y122228D01*
X382787D01*
Y123614D01*
D02*
G37*
%LPD*%
D11*
X301048Y152922D02*
X303804D01*
X300191Y153401D02*
Y156157D01*
X294655Y152889D02*
Y155645D01*
X305708Y162846D02*
X305708Y160090D01*
X305649Y157413D02*
X305649Y154657D01*
X296088Y153071D02*
X298844Y153071D01*
X299967Y153058D02*
X302723Y153058D01*
X300227Y158542D02*
X300227Y155786D01*
X297395Y158535D02*
X300151Y158535D01*
X294448Y158549D02*
X297204Y158549D01*
X294655Y155841D02*
Y158597D01*
X294648Y158346D02*
Y161102D01*
X300160Y159921D02*
Y161299D01*
Y164055D02*
X305672D01*
X295148D02*
X297404D01*
X300160Y161299D02*
Y164055D01*
X297404D02*
X300160D01*
X294648Y161299D02*
Y164055D01*
Y163555D02*
X295148Y164055D01*
X300160Y159921D02*
X300160Y159921D01*
X301538Y158543D02*
X305672D01*
X300160Y159921D02*
X301538D01*
Y158543D02*
Y159921D01*
Y158543D02*
X301538Y158543D01*
X355383Y134911D02*
X355655D01*
X354331Y133858D02*
X355383Y134911D01*
X376681Y137493D02*
Y140948D01*
X376806Y141073D01*
X417323Y137795D02*
X424381D01*
X424755Y137421D02*
Y137795D01*
Y147590D01*
X424381Y137795D02*
X424755Y137421D01*
X404528Y135827D02*
Y152559D01*
X398631Y158456D02*
X404528Y152559D01*
X398631Y158456D02*
Y184028D01*
X354331Y133858D02*
X356398Y131791D01*
X346457Y141732D02*
X354331Y133858D01*
X372047D02*
Y137795D01*
Y129921D02*
Y133858D01*
X387795D01*
X389232Y132421D01*
X424755D01*
X366724Y129244D02*
X371370D01*
X372047Y129921D01*
X363622Y146221D02*
X372047Y137795D01*
X707050Y103103D02*
X707114Y103039D01*
X702127Y103103D02*
X707050D01*
X707050Y39080D02*
X707114Y39015D01*
X701538Y39080D02*
X707050D01*
X707046Y170867D02*
X707114Y170799D01*
X702189Y170867D02*
X707046D01*
X498696Y86614D02*
X499016D01*
X466291Y86910D02*
X498401D01*
X498696Y86614D01*
X466291Y84350D02*
X496358D01*
X499016Y81693D01*
X493996Y81791D02*
X499016Y76772D01*
X466291Y81791D02*
X493996D01*
X466291Y79232D02*
X491634D01*
X499016Y71850D01*
X636172Y38886D02*
X636302Y39015D01*
X632020Y38886D02*
X636172D01*
X635961Y102698D02*
X636302Y103039D01*
X631772Y102698D02*
X635961D01*
X493996Y89468D02*
X494095Y89567D01*
X466291Y89468D02*
X493996D01*
X636122Y170629D02*
X636302Y170808D01*
X630803Y170629D02*
X636122D01*
X561107Y38952D02*
X565373D01*
X565436Y39015D01*
X466291Y92028D02*
X490034D01*
X494435Y96429D01*
X565339Y102943D02*
X565436Y103039D01*
X560864Y102943D02*
X565339D01*
X560673Y170688D02*
X565315D01*
X565435Y170808D01*
X466291Y76673D02*
X472539D01*
X474409Y74803D01*
X466291Y74114D02*
X471161D01*
X474409Y70866D01*
X490168Y38948D02*
X494502D01*
X494569Y39015D01*
X492994Y101549D02*
Y101661D01*
X466291Y94587D02*
X486032D01*
X492994Y101661D02*
X494373Y103039D01*
X494569D01*
X486032Y94587D02*
X492994Y101549D01*
X488189Y164428D02*
X494569Y170808D01*
X488189Y106299D02*
Y164428D01*
X479035Y97146D02*
X488189Y106299D01*
X466291Y97146D02*
X479035D01*
X238037Y121215D02*
X259800Y99452D01*
X256428Y96063D02*
Y96079D01*
X259736Y99388D01*
X259800Y99452D02*
X273312Y85940D01*
X249932Y92520D02*
X252885D01*
X256428Y96063D01*
X714366Y38285D02*
X719594D01*
X709752Y48346D02*
X719655D01*
X719594Y38285D02*
X719655Y38346D01*
X707114Y45708D02*
X709752Y48346D01*
X719594Y102309D02*
X719655Y102370D01*
X714366Y102309D02*
X719594D01*
X709752Y112370D02*
X719655D01*
X707114Y109732D02*
X709752Y112370D01*
X719594Y170069D02*
X719655Y170130D01*
X714366Y170069D02*
X719594D01*
X709752Y180130D02*
X719655D01*
X707114Y177492D02*
X709752Y180130D01*
X648782Y38285D02*
X648842Y38346D01*
X643553Y38285D02*
X648782D01*
X638939Y48346D02*
X648842D01*
X636302Y45708D02*
X638939Y48346D01*
X648781Y102309D02*
X648842Y102370D01*
X643553Y102309D02*
X648781D01*
X638939Y112370D02*
X648842D01*
X636302Y109732D02*
X638939Y112370D01*
X648781Y170078D02*
X648842Y170139D01*
X643553Y170078D02*
X648781D01*
X638939Y180139D02*
X648842D01*
X636302Y177501D02*
X638939Y180139D01*
X577915Y38285D02*
X577976Y38346D01*
X572687Y38285D02*
X577915D01*
X568073Y48346D02*
X577976D01*
X565436Y45708D02*
X568073Y48346D01*
X577915Y102309D02*
X577976Y102370D01*
X572687Y102309D02*
X577915D01*
X568073Y112370D02*
X577976D01*
X565436Y109732D02*
X568073Y112370D01*
X577915Y170078D02*
X577976Y170139D01*
X572687Y170078D02*
X577915D01*
X568073Y180139D02*
X577976D01*
X565435Y177501D02*
X568073Y180139D01*
X507049Y38285D02*
X507110Y38346D01*
X501821Y38285D02*
X507049D01*
X497207Y48346D02*
X507110D01*
X494569Y45708D02*
X497207Y48346D01*
X507049Y102309D02*
X507110Y102370D01*
X501821Y102309D02*
X507049D01*
X497207Y112370D02*
X507110D01*
X494569Y109732D02*
X497207Y112370D01*
X494569Y177501D02*
X497207Y180139D01*
X507110D01*
X507049Y170078D02*
X507110Y170139D01*
X501821Y170078D02*
X507049D01*
X388453Y111560D02*
X412414Y87598D01*
X329963Y114961D02*
X333365Y111560D01*
X388453D01*
X323585Y112439D02*
X326684Y109340D01*
X387707D01*
X414370Y82677D01*
X412414Y87598D02*
X430118D01*
X328585Y116339D02*
Y117520D01*
X329963Y114961D02*
X329963D01*
X328585Y116339D02*
X329963Y114961D01*
X414370Y82677D02*
X430118D01*
X323585Y112439D02*
Y117520D01*
X443157Y89468D02*
X447736D01*
X455709Y97441D01*
X454657Y81791D02*
X455543Y82677D01*
X455709D01*
X443157Y81791D02*
X454657D01*
X452461Y84350D02*
X455709Y87598D01*
X443157Y84350D02*
X452461D01*
X450098Y86910D02*
X455709Y92520D01*
X443157Y86910D02*
X450098D01*
X456616Y61417D02*
X456693D01*
X452285Y57087D02*
X456616Y61417D01*
X427984Y57087D02*
X452285D01*
X456693Y61417D02*
X458071Y62795D01*
Y62992D01*
X466291Y66685D02*
Y71555D01*
X462598Y62992D02*
X466291Y66685D01*
X458071Y62992D02*
X462598D01*
X271616Y108305D02*
Y122441D01*
Y108305D02*
X278523Y101398D01*
X383673D01*
X427984Y57087D01*
X436417Y64961D02*
X436478Y64900D01*
X440337D01*
X414075Y74114D02*
X443157D01*
X429724Y64961D02*
Y74023D01*
X276237Y108606D02*
Y126322D01*
X275118Y127441D02*
X276237Y126322D01*
X271616Y127441D02*
X275118D01*
X276237Y108606D02*
X281496Y103347D01*
X384842D01*
X284449Y105315D02*
X385827D01*
X279528Y110236D02*
X284449Y105315D01*
X279528Y110236D02*
Y129921D01*
X293111Y109056D02*
X294884Y107283D01*
X288585Y113583D02*
X293111Y109056D01*
X294914Y110859D01*
X294986D01*
X386811Y107283D02*
X414862Y79232D01*
X443157D01*
X385827Y105315D02*
X414468Y76673D01*
X443157D01*
X384842Y103347D02*
X414075Y74114D01*
X443067Y68067D02*
Y71465D01*
X443157Y71555D01*
X294884Y107283D02*
X386811D01*
X277008Y132441D02*
X279528Y129921D01*
X271616Y132441D02*
X277008D01*
X288585Y113583D02*
Y117520D01*
X452953Y128543D02*
X454528Y130118D01*
X450642Y127421D02*
X451764Y128543D01*
X452953D01*
X443355Y127421D02*
X450642D01*
X443355Y122421D02*
X450807D01*
X453346Y119882D01*
X454528D01*
X413386Y109843D02*
X413779Y110236D01*
X417323D01*
X413425Y122087D02*
X418760Y127421D01*
X413386Y129921D02*
X417323Y125984D01*
X413425Y116575D02*
Y122087D01*
X392798Y116535D02*
X413386D01*
X418760Y127421D02*
X424755D01*
X392711Y116623D02*
X392798Y116535D01*
X338101Y116623D02*
X392711D01*
X330709Y124016D02*
X338101Y116623D01*
X301181Y124016D02*
X330709D01*
X288386Y136811D02*
X301181Y124016D01*
X431763Y122371D02*
X434055Y120079D01*
X424806Y122371D02*
X431763D01*
X424755Y122421D02*
X424806Y122371D01*
X430709Y141732D02*
X446850D01*
X454724Y149606D01*
X457677D01*
X430709Y141732D02*
Y146653D01*
Y133465D02*
Y141732D01*
X416136Y147590D02*
X424755D01*
X413529Y150197D02*
X416136Y147590D01*
X429665Y132421D02*
X430709Y133465D01*
X424755Y132421D02*
X429665D01*
X424755Y147590D02*
X430709Y153543D01*
X437402Y146653D02*
Y153543D01*
X437420Y153525D01*
X441346D01*
X354378Y127906D02*
Y127906D01*
X355576Y129105D01*
X354378Y127906D02*
X355610Y126673D01*
X344843Y137441D02*
X354378Y127906D01*
X355610Y126673D02*
X366713D01*
X375812Y123491D02*
X376131D01*
X375196Y124108D02*
X375812Y123491D01*
X366719Y124108D02*
X375196D01*
X366713Y129232D02*
X366724Y129244D01*
X356398Y131791D02*
X366713D01*
X383287Y129232D02*
Y131791D01*
Y126673D02*
Y129232D01*
Y124114D02*
Y126673D01*
X340514Y137441D02*
X344843D01*
X346457Y141732D02*
Y160433D01*
X344252Y162638D02*
X346457Y160433D01*
X340711Y162638D02*
X344252D01*
X340514Y162441D02*
X340711Y162638D01*
X363622Y146221D02*
Y165906D01*
X351890Y177638D02*
X363622Y165906D01*
X340711Y177638D02*
X351890D01*
X340514Y177441D02*
X340711Y177638D01*
X368110Y152559D02*
Y173812D01*
X370669Y150718D02*
Y179528D01*
Y150718D02*
X370785Y150602D01*
X368110Y173812D02*
Y179528D01*
X366142Y150591D02*
X368110Y152559D01*
X200984Y187205D02*
X206693D01*
X194882Y181102D02*
X200984Y187205D01*
X194882Y177559D02*
Y181102D01*
X275717Y142441D02*
X280089Y146814D01*
X267679Y142441D02*
X275717D01*
X280089Y146814D02*
X280140D01*
X340631Y172558D02*
X344174D01*
X340514Y172441D02*
X340631Y172558D01*
X266732Y147638D02*
X271420D01*
X267194Y137441D02*
X271616D01*
X269685Y177638D02*
X271420D01*
X335536Y182540D02*
X340415D01*
X271616Y147441D02*
X275887D01*
X335630Y152559D02*
X340396D01*
X269685Y162638D02*
X271420D01*
X269685Y152638D02*
X271420D01*
X269685Y157638D02*
X271420D01*
X335499Y142338D02*
X340411D01*
X269685Y167638D02*
X271420D01*
X338546Y167601D02*
X340354D01*
X335155D02*
X338546D01*
X269685Y172638D02*
X271420D01*
X335630Y147638D02*
X340317D01*
X303309Y127101D02*
X340174D01*
X327205Y132441D02*
X340514D01*
Y122441D02*
X340551Y122404D01*
Y119882D02*
Y122404D01*
X271420Y147638D02*
X271616Y147441D01*
X271420Y167638D02*
X271616Y167441D01*
X340415Y182540D02*
X340514Y182441D01*
X271420Y177638D02*
X271616Y177441D01*
X340396Y152559D02*
X340514Y152441D01*
X271420Y162638D02*
X271616Y162441D01*
X271420Y152638D02*
X271616Y152441D01*
X271420Y157638D02*
X271616Y157441D01*
X340411Y142338D02*
X340514Y142441D01*
X340354Y167601D02*
X340514Y167441D01*
X271420Y172638D02*
X271616Y172441D01*
X340317Y147638D02*
X340514Y147441D01*
X340174Y127101D02*
X340514Y127441D01*
X263779Y138541D02*
X267679Y142441D01*
X263779Y115157D02*
Y138541D01*
X314961Y144685D02*
Y172244D01*
Y144685D02*
X327205Y132441D01*
X264173Y172638D02*
X269685D01*
X258858Y167323D02*
X264173Y172638D01*
X189111Y167323D02*
X258858D01*
X186811Y169623D02*
X189111Y167323D01*
X186811Y169623D02*
Y169882D01*
X185433Y171260D02*
X186811Y169882D01*
X264094Y167638D02*
X269685D01*
X259842Y163386D02*
X264094Y167638D01*
X143701Y163386D02*
X259842D01*
X92159Y157638D02*
X269685D01*
X88481Y161316D02*
X92159Y157638D01*
X88481Y161316D02*
Y161316D01*
X260827Y152638D02*
X269685D01*
X265000Y162638D02*
X269685D01*
X261811Y159449D02*
X265000Y162638D01*
X142871Y159449D02*
X261811D01*
X139567Y162753D02*
X142871Y159449D01*
X139567Y162753D02*
Y162992D01*
X138189Y164370D02*
X139567Y162992D01*
X277554Y154860D02*
X277621Y154927D01*
X277554Y149108D02*
Y154860D01*
X275887Y147441D02*
X277554Y149108D01*
X263268Y177638D02*
X269685D01*
X258858Y173228D02*
X263268Y177638D01*
X236204Y173228D02*
X258858D01*
X266732Y136980D02*
X267194Y137441D01*
X266732Y99410D02*
Y136980D01*
X260562Y141468D02*
X266732Y147638D01*
X260562Y139106D02*
Y141468D01*
X260236Y138779D02*
X260562Y139106D01*
X344174Y172558D02*
X346457Y170276D01*
X256806Y63076D02*
X260940D01*
X250000Y69882D02*
X256806Y63076D01*
X204547Y121215D02*
X238037D01*
X273312Y82397D02*
Y85940D01*
X247558Y94893D02*
X249932Y92520D01*
X273312Y82397D02*
X273622Y82087D01*
X260940Y63076D02*
Y67127D01*
X267717Y56102D02*
X268036Y55783D01*
X267717Y56102D02*
Y62992D01*
X268036Y55783D02*
X287378D01*
X261024Y55906D02*
X267717Y49213D01*
X299114Y49311D02*
Y50079D01*
X299410Y50374D01*
X301762Y52953D02*
X302058Y53248D01*
X303150D01*
X279232Y58366D02*
X287402D01*
X273853Y63746D02*
Y75163D01*
Y63746D02*
X279232Y58366D01*
X287461Y75334D02*
X292261D01*
X273622Y75394D02*
X274083D01*
X275197D01*
X280512D01*
X287402Y82087D02*
X287402Y82087D01*
X280512Y82087D02*
X287402D01*
X287402Y75394D02*
X287461Y75334D01*
X223284Y133858D02*
X258858D01*
X223017Y133591D02*
X223284Y133858D01*
X164015Y113189D02*
X174213Y123387D01*
X156496Y113189D02*
X164015D01*
X174213Y123387D02*
Y138779D01*
X177559Y142126D02*
X181102D01*
X174213Y138779D02*
X177559Y142126D01*
X165718Y133591D02*
X165930Y133803D01*
Y141201D02*
X171383Y146653D01*
X188760D01*
X165930Y133803D02*
Y141201D01*
X146880Y143927D02*
X152559Y149606D01*
X191929D01*
X146880Y133591D02*
Y143927D01*
X193760Y145124D02*
Y147776D01*
Y145124D02*
X194547Y144336D01*
X191929Y149606D02*
X193760Y147776D01*
X189547Y144336D02*
Y145866D01*
X188760Y146653D02*
X189547Y145866D01*
X181029Y132677D02*
Y135360D01*
X181102Y135433D01*
X181029Y132040D02*
X181049Y132020D01*
Y128400D02*
Y132020D01*
Y128400D02*
X181102Y128347D01*
X195100Y134843D02*
X199526Y139268D01*
X188386Y134843D02*
X195100D01*
X181102Y142126D02*
X188386Y134843D01*
X181102Y121215D02*
X189547D01*
X181102Y117126D02*
X181102Y117126D01*
Y121215D01*
X192573Y126913D02*
X192628Y126969D01*
X194547D01*
X204547Y137618D02*
Y144336D01*
X199547Y139290D02*
Y144336D01*
X199526Y139268D02*
X199547Y139290D01*
X189391Y139256D02*
Y144179D01*
X194547Y121215D02*
Y126969D01*
X194536Y139261D02*
Y144325D01*
X189391Y144179D02*
X189547Y144336D01*
X194536Y144325D02*
X194547Y144336D01*
Y127618D02*
X204547Y137618D01*
X194547Y126969D02*
Y127618D01*
X141750Y54321D02*
X141785Y54286D01*
Y47429D02*
Y54286D01*
X134907Y47244D02*
X135092Y47429D01*
X130905Y47244D02*
X134907D01*
X131170Y54290D02*
X131201Y54321D01*
X135057D01*
X141750D02*
Y54448D01*
X141732Y54465D02*
X141750Y54448D01*
X141732Y54465D02*
Y63732D01*
X124909Y69882D02*
X125984Y70957D01*
X122047Y69882D02*
X124909D01*
X141732Y63732D02*
X143701D01*
X139764D02*
X141732D01*
X137795D02*
X139764D01*
X173228Y55709D02*
Y61614D01*
X168701Y51181D02*
X173228Y55709D01*
X168898Y65945D02*
X173228Y61614D01*
X168701Y57874D02*
Y58071D01*
X162008Y51181D02*
X168701Y57874D01*
X135827Y60039D02*
Y63732D01*
X114567Y59252D02*
X135039D01*
X135827Y60039D01*
X153511Y72829D02*
X156491D01*
X157480Y73819D01*
X162008D01*
X132803Y63909D02*
Y66756D01*
X148866Y76772D02*
X152559D01*
X157480Y81693D01*
X131588Y66929D02*
X132492D01*
X129751Y64014D02*
X131450Y65714D01*
X129431Y64014D02*
X129751D01*
X126076Y70866D02*
X132630D01*
X139764Y84534D02*
X144009Y88779D01*
X139764Y79969D02*
Y84534D01*
X148866Y74803D02*
X154279D01*
X155331Y75855D01*
Y76025D01*
X141732Y82677D02*
X144643Y85588D01*
X132630Y74803D02*
X137795D01*
X131450Y65714D02*
Y66791D01*
X131588Y66929D01*
X148866Y72835D02*
X153506D01*
X153511Y72829D01*
X132630Y66929D02*
X132803Y66756D01*
X132492Y66929D02*
X132630Y67067D01*
X141732Y79969D02*
Y82677D01*
X132630Y72835D02*
X139764D01*
X140748Y71850D02*
X145669Y76772D01*
Y79969D01*
X144291Y88779D02*
X145669Y90158D01*
X144009Y88779D02*
X144291D01*
X125984Y70957D02*
X126076Y70866D01*
X157480Y81693D02*
X161811D01*
X166933Y67716D02*
Y68894D01*
Y67716D02*
X168704Y65945D01*
X168898D01*
X163583Y72244D02*
X166933Y68894D01*
X162008Y73622D02*
X163386Y72244D01*
X162008Y73622D02*
Y73819D01*
X163386Y72244D02*
X163583D01*
X159449Y90158D02*
X166339D01*
X152559Y96850D02*
X159449D01*
X146429Y90158D02*
X152559D01*
X145387D02*
X146429D01*
X141899D02*
X145387D01*
X138386Y93671D02*
X141899Y90158D01*
X138386Y93671D02*
Y93701D01*
X136614Y95472D02*
X138386Y93701D01*
X136417Y95472D02*
X136614D01*
X136417D02*
Y103347D01*
X63645Y155057D02*
X63742Y154959D01*
X60529Y155057D02*
X63645D01*
X53051Y152295D02*
Y155060D01*
X157061Y77756D02*
X164764D01*
X155331Y76025D02*
X157061Y77756D01*
X167323Y75394D02*
X168701Y74016D01*
Y73819D02*
Y74016D01*
X167126Y75394D02*
X167323D01*
X164764Y77756D02*
X167126Y75394D01*
X107283Y121063D02*
X138858Y152638D01*
X260827D01*
X56102Y121063D02*
X107283D01*
X68898Y62992D02*
X68898Y62992D01*
X68898Y62992D02*
X68898Y62992D01*
X125984Y64265D02*
X129181D01*
X129431Y64014D01*
X9647Y108858D02*
X9843Y109054D01*
X9620Y108831D02*
X13477D01*
X6181Y108858D02*
X9647D01*
X248031Y138779D02*
X253543D01*
X260827Y149213D02*
Y152638D01*
X260236Y148622D02*
X260827Y149213D01*
X248031Y148622D02*
X253543D01*
X79331Y170466D02*
X88481Y161316D01*
X83661Y156496D02*
X88481Y161316D01*
X83576Y129921D02*
X84116Y130462D01*
X77756Y129921D02*
X83576D01*
X93659Y138485D02*
Y141681D01*
X93116Y137942D02*
X93659Y138485D01*
X84036Y138021D02*
X84116Y137942D01*
X77982Y138021D02*
X84036D01*
X77756Y137795D02*
X77982Y138021D01*
X56739Y164512D02*
X56791D01*
X56185Y165066D02*
X56739Y164512D01*
X48228Y173075D02*
X56185Y165119D01*
X48228Y173075D02*
Y187205D01*
X56185Y165066D02*
Y165119D01*
X71850Y186024D02*
X74038Y183836D01*
X79120D02*
X80519Y182437D01*
X74038Y183836D02*
X79120D01*
X80519Y175229D02*
Y182437D01*
X71850Y186024D02*
Y189471D01*
X97565Y190849D02*
X101406Y187008D01*
X77165Y190849D02*
X97565D01*
X70472D02*
X71850Y189471D01*
X77559Y172244D02*
X79331Y174016D01*
X77534Y172244D02*
X77559D01*
X79331Y174016D02*
Y174041D01*
X80519Y175229D01*
X77559Y172244D02*
X79331Y170472D01*
X77362Y172244D02*
X77559D01*
X79331Y170466D02*
Y170472D01*
X131444Y164422D02*
X131496Y164370D01*
X127587Y164422D02*
X131444D01*
X138189Y164370D02*
Y164567D01*
X139567Y165945D01*
X139640D02*
X146705Y173010D01*
Y187008D01*
X139567Y165945D02*
X139640D01*
X138807Y170894D02*
Y187008D01*
X138189Y170276D02*
X138807Y170894D01*
X131496Y164370D02*
Y170276D01*
X224016Y175150D02*
X224022Y175156D01*
X224016Y171260D02*
Y175150D01*
X185433Y171260D02*
Y183661D01*
X185630Y183858D01*
X178740Y171260D02*
X178740Y171260D01*
X174213Y171260D02*
X178740D01*
X236204Y171260D02*
Y173228D01*
Y184133D01*
X230709Y171260D02*
X236204D01*
X235888Y184449D02*
X236204Y184133D01*
X235827Y184449D02*
X235888D01*
X383268Y141305D02*
X383499Y141073D01*
X383268Y141305D02*
Y147638D01*
X351378Y155118D02*
X359252D01*
X359252Y155118D01*
X352362Y156102D02*
Y159449D01*
X351378Y155118D02*
X352362Y156102D01*
X376969Y147638D02*
Y151575D01*
X392717Y147646D02*
X392725Y147638D01*
X392717Y147646D02*
Y151575D01*
X399024Y147638D02*
X399264Y147398D01*
Y140992D02*
Y147398D01*
X392571Y140992D02*
X392717Y140846D01*
Y136811D02*
Y140846D01*
X13477Y108831D02*
X15748Y111102D01*
X3937D02*
X6181Y108858D01*
D12*
X745755Y25688D02*
Y38346D01*
Y48346D02*
X745926Y48175D01*
X736642Y16575D02*
X745755Y25688D01*
X745755Y112370D02*
X745926Y112199D01*
X745755Y89711D02*
Y102370D01*
X736642Y80598D02*
X745755Y89711D01*
X745755Y180130D02*
X745926Y179959D01*
X745755Y157471D02*
Y170130D01*
X736642Y148358D02*
X745755Y157471D01*
X674942Y48346D02*
X675113Y48175D01*
X674942Y25688D02*
Y38346D01*
X665829Y16575D02*
X674942Y25688D01*
X674942Y112370D02*
X675113Y112199D01*
X674942Y89711D02*
Y102370D01*
X665829Y80598D02*
X674942Y89711D01*
X674942Y180139D02*
X675113Y179968D01*
X674942Y157480D02*
Y170139D01*
X665829Y148367D02*
X674942Y157480D01*
X604076Y48346D02*
X604247Y48175D01*
X604076Y25688D02*
Y38346D01*
X594963Y16575D02*
X604076Y25688D01*
Y112370D02*
X604247Y112199D01*
X604076Y89711D02*
Y102370D01*
X594963Y80598D02*
X604076Y89711D01*
X604076Y180139D02*
X604247Y179968D01*
X604076Y157480D02*
Y170139D01*
X594963Y148367D02*
X604076Y157480D01*
X533210Y48346D02*
X533381Y48175D01*
X533210Y25688D02*
Y38346D01*
X524097Y16575D02*
X533210Y25688D01*
Y112370D02*
X533381Y112199D01*
X533210Y89711D02*
Y102370D01*
X524097Y80598D02*
X533210Y89711D01*
X533210Y157480D02*
Y170139D01*
X524097Y148367D02*
X533210Y157480D01*
Y180139D02*
X533381Y179968D01*
X386811Y35748D02*
X387126Y35433D01*
X392717D01*
X386811Y15748D02*
X387106Y15453D01*
X266826Y182614D02*
X271443D01*
X271616Y182441D01*
X208045Y83451D02*
Y89548D01*
X208064Y89567D01*
X203740Y62992D02*
X203740Y62992D01*
X203740Y57087D02*
Y62992D01*
X203740Y62992D02*
X209068D01*
X209180Y62880D01*
X134344Y83639D02*
X134490D01*
X148866Y67378D02*
Y68633D01*
X132630Y67067D02*
Y68622D01*
X105252Y63646D02*
Y73819D01*
X104268Y74803D02*
X105252Y73819D01*
Y63646D02*
X105905Y62992D01*
X68898Y62992D02*
Y68898D01*
X68898Y62992D02*
X73819D01*
X68898Y57087D02*
Y62992D01*
X90221Y89624D02*
Y94023D01*
X90164Y89567D02*
X90221Y89624D01*
X90164Y89567D02*
X93504D01*
X114567Y66732D02*
X115158Y66142D01*
X123914D02*
X124606Y65450D01*
X125787Y64265D02*
X125984D01*
X124606Y65446D02*
X125787Y64265D01*
X115158Y66142D02*
X123914D01*
X124606Y65446D02*
Y65450D01*
X15748Y111102D02*
Y114173D01*
X9843Y109054D02*
Y114173D01*
X3937Y111102D02*
Y114173D01*
D16*
X293726Y55537D02*
D03*
Y58637D02*
D03*
X296826Y55537D02*
D03*
Y58637D02*
D03*
D70*
X466291Y79232D02*
D03*
Y81791D02*
D03*
Y84350D02*
D03*
Y86910D02*
D03*
Y71555D02*
D03*
Y74114D02*
D03*
Y76673D02*
D03*
Y89468D02*
D03*
Y92028D02*
D03*
Y94587D02*
D03*
Y97146D02*
D03*
Y99705D02*
D03*
X443157D02*
D03*
Y97146D02*
D03*
Y94587D02*
D03*
Y92028D02*
D03*
Y89468D02*
D03*
Y86910D02*
D03*
Y84350D02*
D03*
Y81791D02*
D03*
Y79232D02*
D03*
Y76673D02*
D03*
Y74114D02*
D03*
Y71555D02*
D03*
D71*
X385827Y56102D02*
D03*
Y66102D02*
D03*
X349410D02*
D03*
Y56102D02*
D03*
X385827Y76102D02*
D03*
X349409Y76102D02*
D03*
X350394Y35748D02*
D03*
X386811Y35748D02*
D03*
X350394Y15748D02*
D03*
Y25748D02*
D03*
X386811D02*
D03*
Y15748D02*
D03*
D72*
X745755Y48346D02*
D03*
Y38346D02*
D03*
X719655D02*
D03*
Y48346D02*
D03*
X533210Y112370D02*
D03*
Y102370D02*
D03*
X507110D02*
D03*
Y112370D02*
D03*
X533210Y48346D02*
D03*
Y38346D02*
D03*
X507110D02*
D03*
Y48346D02*
D03*
X604076Y180139D02*
D03*
Y170139D02*
D03*
X577976D02*
D03*
Y180139D02*
D03*
X604076Y112370D02*
D03*
Y102370D02*
D03*
X577976D02*
D03*
Y112370D02*
D03*
X604076Y48346D02*
D03*
Y38346D02*
D03*
X577976D02*
D03*
Y48346D02*
D03*
X674942Y180139D02*
D03*
Y170139D02*
D03*
X648842D02*
D03*
Y180139D02*
D03*
X674942Y112370D02*
D03*
Y102370D02*
D03*
X648842D02*
D03*
Y112370D02*
D03*
X674942Y48346D02*
D03*
Y38346D02*
D03*
X648842D02*
D03*
Y48346D02*
D03*
X745755Y180130D02*
D03*
Y170130D02*
D03*
X719655D02*
D03*
Y180130D02*
D03*
X745755Y112370D02*
D03*
Y102370D02*
D03*
X719655D02*
D03*
Y112370D02*
D03*
X533210Y180139D02*
D03*
Y170139D02*
D03*
X507110D02*
D03*
Y180139D02*
D03*
D73*
X494569Y103039D02*
D03*
Y109732D02*
D03*
Y39015D02*
D03*
Y45708D02*
D03*
X565435Y170808D02*
D03*
Y177501D02*
D03*
X565436Y103039D02*
D03*
Y109732D02*
D03*
Y39015D02*
D03*
Y45708D02*
D03*
X636302Y170808D02*
D03*
Y177501D02*
D03*
X636302Y103039D02*
D03*
Y109732D02*
D03*
X636302Y39015D02*
D03*
Y45708D02*
D03*
X707114Y170799D02*
D03*
Y177492D02*
D03*
X707114Y103039D02*
D03*
Y109732D02*
D03*
X707114Y39015D02*
D03*
Y45708D02*
D03*
X494569Y170808D02*
D03*
Y177501D02*
D03*
X413386Y116535D02*
D03*
Y109843D02*
D03*
X287402Y75394D02*
D03*
Y82087D02*
D03*
X280512Y82087D02*
D03*
Y75394D02*
D03*
X273622D02*
D03*
Y82087D02*
D03*
X181102Y142126D02*
D03*
Y135433D02*
D03*
X181102Y121653D02*
D03*
Y128347D02*
D03*
X145669Y90158D02*
D03*
Y96850D02*
D03*
X159449Y96850D02*
D03*
Y90158D02*
D03*
X152559Y96850D02*
D03*
Y90158D02*
D03*
X166339Y96850D02*
D03*
Y90158D02*
D03*
X125984Y70957D02*
D03*
Y64265D02*
D03*
D74*
X429724Y64961D02*
D03*
X436417D02*
D03*
X451378Y62992D02*
D03*
X458071D02*
D03*
X430709Y146653D02*
D03*
X437402D02*
D03*
X430709Y153543D02*
D03*
X437402D02*
D03*
X267717Y49213D02*
D03*
X261024D02*
D03*
X261024Y56102D02*
D03*
X267717Y56102D02*
D03*
Y62992D02*
D03*
X261024D02*
D03*
X141785Y47429D02*
D03*
X135092D02*
D03*
X135057Y54321D02*
D03*
X141750D02*
D03*
X168701Y51181D02*
D03*
X162008D02*
D03*
X162008Y58071D02*
D03*
X168701D02*
D03*
X168701Y73819D02*
D03*
X162008D02*
D03*
X260236Y138779D02*
D03*
X253543D02*
D03*
X260236Y148622D02*
D03*
X253543D02*
D03*
X77165Y190849D02*
D03*
X70472D02*
D03*
X138189Y164370D02*
D03*
X131496D02*
D03*
X138189Y170276D02*
D03*
X131496D02*
D03*
X185433Y171260D02*
D03*
X178740D02*
D03*
X224016Y171260D02*
D03*
X230709D02*
D03*
X392571Y140992D02*
D03*
X399264D02*
D03*
X376806Y141073D02*
D03*
X383499D02*
D03*
D75*
X479134Y125000D02*
D03*
D76*
X454528Y119882D02*
D03*
Y130118D02*
D03*
D77*
X424755Y122421D02*
D03*
Y127421D02*
D03*
Y132421D02*
D03*
Y137421D02*
D03*
X443355D02*
D03*
Y132421D02*
D03*
Y127421D02*
D03*
Y122421D02*
D03*
D78*
X383287Y129232D02*
D03*
X366713Y124114D02*
D03*
Y126673D02*
D03*
Y129232D02*
D03*
Y131791D02*
D03*
X383287D02*
D03*
Y126673D02*
D03*
Y124114D02*
D03*
D79*
X194882Y177559D02*
D03*
Y171260D02*
D03*
D80*
X305672Y153032D02*
D03*
X300160D02*
D03*
X294648D02*
D03*
X305672Y158543D02*
D03*
X300160D02*
D03*
X294648D02*
D03*
X305672Y164055D02*
D03*
X300160D02*
D03*
X294648D02*
D03*
D81*
X340514Y187441D02*
D03*
Y182441D02*
D03*
Y177441D02*
D03*
Y172441D02*
D03*
Y167441D02*
D03*
Y162441D02*
D03*
Y157441D02*
D03*
Y152441D02*
D03*
Y147441D02*
D03*
Y142441D02*
D03*
Y137441D02*
D03*
Y132441D02*
D03*
Y127441D02*
D03*
Y122441D02*
D03*
X271616D02*
D03*
Y127441D02*
D03*
Y132441D02*
D03*
Y137441D02*
D03*
Y142441D02*
D03*
Y147441D02*
D03*
Y152441D02*
D03*
Y157441D02*
D03*
Y162441D02*
D03*
Y167441D02*
D03*
Y172441D02*
D03*
Y177441D02*
D03*
Y182441D02*
D03*
Y187441D02*
D03*
D82*
X328585Y117520D02*
D03*
X323585D02*
D03*
X318585D02*
D03*
X313585D02*
D03*
X308585D02*
D03*
X303585D02*
D03*
X298585D02*
D03*
X293585D02*
D03*
X288585D02*
D03*
X283585D02*
D03*
D83*
X413386Y129921D02*
D03*
X250000Y69882D02*
D03*
X156496Y113189D02*
D03*
X83661Y156496D02*
D03*
D84*
X293996Y49311D02*
D03*
X296555D02*
D03*
X291437D02*
D03*
X299114D02*
D03*
X294002Y64926D02*
D03*
X296561D02*
D03*
X291443D02*
D03*
X299120D02*
D03*
D85*
X303150Y53248D02*
D03*
Y55807D02*
D03*
Y58366D02*
D03*
Y60925D02*
D03*
X287402Y53248D02*
D03*
Y55807D02*
D03*
Y58366D02*
D03*
Y60925D02*
D03*
D86*
X295276Y57087D02*
D03*
D87*
X306065Y92520D02*
D03*
X457677Y149606D02*
D03*
X413529Y150197D02*
D03*
X249932Y92520D02*
D03*
X106299Y92520D02*
D03*
X193898D02*
D03*
X107029Y138779D02*
D03*
X40354Y8858D02*
D03*
X67913Y138779D02*
D03*
D88*
X187008Y67850D02*
D03*
Y75850D02*
D03*
X37402Y112268D02*
D03*
Y104268D02*
D03*
X27559Y112268D02*
D03*
Y104268D02*
D03*
D89*
X204547Y121215D02*
D03*
X199547D02*
D03*
X194547D02*
D03*
X189547D02*
D03*
Y144336D02*
D03*
X194547D02*
D03*
X199547D02*
D03*
X204547Y144336D02*
D03*
D90*
X208064Y89567D02*
D03*
X90164D02*
D03*
D91*
X217320D02*
D03*
X80909D02*
D03*
D92*
X229331Y62992D02*
D03*
X203740D02*
D03*
X94488D02*
D03*
X68898D02*
D03*
D93*
X114567Y59252D02*
D03*
X105905Y62992D02*
D03*
X114567Y66732D02*
D03*
D94*
X135827Y63732D02*
D03*
Y79969D02*
D03*
X137795D02*
D03*
X139764D02*
D03*
X141732D02*
D03*
X143701D02*
D03*
X145669D02*
D03*
Y63732D02*
D03*
X143701D02*
D03*
X141732D02*
D03*
X139764D02*
D03*
X137795D02*
D03*
D95*
X148866Y76772D02*
D03*
Y74803D02*
D03*
Y72835D02*
D03*
Y70866D02*
D03*
Y68898D02*
D03*
Y66929D02*
D03*
X132630D02*
D03*
Y68898D02*
D03*
Y70866D02*
D03*
Y72835D02*
D03*
Y74803D02*
D03*
Y76772D02*
D03*
D96*
X140748Y71850D02*
D03*
D97*
X161811Y65945D02*
D03*
X168898D02*
D03*
X136417Y103347D02*
D03*
X129331D02*
D03*
X136417Y95472D02*
D03*
X129331D02*
D03*
X168898Y81693D02*
D03*
X161811D02*
D03*
X70276Y172244D02*
D03*
X77362D02*
D03*
D98*
X128874Y112205D02*
D03*
X136874D02*
D03*
X104268Y74803D02*
D03*
X112268D02*
D03*
D99*
X53051Y155060D02*
D03*
X60532D02*
D03*
X56791Y164460D02*
D03*
D100*
X93116Y137942D02*
D03*
Y130462D02*
D03*
X84116D02*
D03*
Y134202D02*
D03*
Y137942D02*
D03*
D101*
X80519Y182087D02*
D03*
X67119D02*
D03*
D102*
X185630Y183858D02*
D03*
X167913D02*
D03*
X253543Y184449D02*
D03*
X235827D02*
D03*
X398270Y184230D02*
D03*
X415986D02*
D03*
D103*
X399024Y147638D02*
D03*
X392725D02*
D03*
X383268D02*
D03*
X376969D02*
D03*
D104*
X359252Y148031D02*
D03*
Y155118D02*
D03*
X351378Y155118D02*
D03*
Y148031D02*
D03*
D105*
X223017Y133591D02*
D03*
X165718Y133591D02*
D03*
X146880Y133591D02*
D03*
X455709Y187008D02*
D03*
X771654Y78740D02*
D03*
Y114173D02*
D03*
X8858Y39370D02*
D03*
D106*
X35433Y129593D02*
D03*
Y149934D02*
D03*
X13780Y129593D02*
D03*
Y149934D02*
D03*
D107*
X9843Y91929D02*
D03*
Y108858D02*
D03*
D108*
X362992Y179528D02*
D03*
X365551D02*
D03*
X368110D02*
D03*
X370669D02*
D03*
X373228D02*
D03*
D109*
X372047Y190157D02*
D03*
X364173D02*
D03*
D110*
X362205Y46864D02*
Y58071D01*
X380236Y76102D02*
X385827D01*
X362205Y58071D02*
X380236Y76102D01*
X353346Y38006D02*
X362205Y46864D01*
X373031Y44291D02*
X384842Y56102D01*
X373031Y31496D02*
Y44291D01*
X384842Y56102D02*
X385827D01*
X357283Y15748D02*
X373031Y31496D01*
X350394Y15748D02*
X357283D01*
X350394Y35748D02*
X351378D01*
X353346Y37716D01*
Y38006D01*
D111*
X261024Y55906D02*
Y56102D01*
X296549Y64938D02*
X296561Y64926D01*
X296549Y64938D02*
Y68932D01*
X289405Y64926D02*
X291443D01*
X296555Y49311D02*
Y55807D01*
X287402Y66929D02*
Y75394D01*
Y66929D02*
X289405Y64926D01*
X342520Y56102D02*
X349410D01*
X187008Y75850D02*
Y80709D01*
X220472Y92720D02*
Y98425D01*
X217320Y89567D02*
X220472Y92720D01*
X214567Y92320D02*
Y98425D01*
Y92320D02*
X217320Y89567D01*
X152502Y61080D02*
X152559Y61024D01*
X152502Y61080D02*
Y65038D01*
X150650Y66890D02*
X152502Y65038D01*
X149213Y63392D02*
Y66890D01*
X148866Y66929D02*
X149173D01*
X149213Y66890D01*
X150008D02*
X150650D01*
X149969Y66929D02*
X150008Y66890D01*
X154396Y70866D02*
X156693D01*
X148866D02*
X154396D01*
Y68028D02*
Y70866D01*
X131381Y81749D02*
X132630Y80500D01*
Y76901D02*
Y80500D01*
X156693Y70866D02*
X157649Y69910D01*
Y69910D02*
X162008Y65551D01*
X157649Y69910D02*
Y69910D01*
X137795Y79969D02*
Y87598D01*
X137795Y79969D02*
X137795Y79969D01*
X134490Y83639D02*
X135827Y82302D01*
Y79969D02*
Y82302D01*
X132630Y79943D02*
X135768D01*
X162008Y58071D02*
Y65551D01*
X128874Y112205D02*
X129331Y111748D01*
Y103347D02*
Y111748D01*
X166339Y96850D02*
X170209D01*
X170296Y96938D01*
X129331Y95472D02*
Y103347D01*
Y91374D02*
Y95472D01*
X129323Y91366D02*
X129331Y91374D01*
D112*
X94488Y62992D02*
X105905D01*
X35680Y129865D02*
X36220Y129324D01*
X9843Y91929D02*
Y98425D01*
X36220Y120079D02*
Y129324D01*
X35433Y129618D02*
X35680Y129865D01*
X13780Y120079D02*
Y129593D01*
D113*
X524097Y80598D02*
D03*
Y16575D02*
D03*
X594963Y148367D02*
D03*
X594963Y80598D02*
D03*
Y16575D02*
D03*
X665829Y148367D02*
D03*
X665829Y80598D02*
D03*
X665829Y16575D02*
D03*
X736642Y148358D02*
D03*
X736642Y80598D02*
D03*
X736642Y16575D02*
D03*
X524097Y148367D02*
D03*
X206693Y187205D02*
D03*
X48228D02*
D03*
D114*
X516223Y80598D02*
D03*
Y16575D02*
D03*
X587089Y148367D02*
D03*
X587089Y80598D02*
D03*
Y16575D02*
D03*
X657955Y148367D02*
D03*
X657955Y80598D02*
D03*
X657955Y16575D02*
D03*
X728768Y148358D02*
D03*
X728768Y80598D02*
D03*
X728768Y16575D02*
D03*
X516223Y148367D02*
D03*
X214567Y187205D02*
D03*
X56102D02*
D03*
D115*
X302916Y153032D02*
D03*
X300160Y155787D02*
D03*
X294648D02*
D03*
X297404Y158543D02*
D03*
X300160Y161299D02*
D03*
X297404Y164055D02*
D03*
X294648Y161299D02*
D03*
X302916Y158543D02*
D03*
X305672Y161299D02*
D03*
Y155787D02*
D03*
X302916Y164055D02*
D03*
X297404Y153032D02*
D03*
D116*
X136909Y71850D02*
D03*
X140748Y68012D02*
D03*
X144587Y71850D02*
D03*
X140748Y75689D02*
D03*
Y71850D02*
D03*
D117*
X146705Y187008D02*
D03*
X138807D02*
D03*
X101406D02*
D03*
X109303D02*
D03*
X9843Y66957D02*
D03*
Y74854D02*
D03*
D118*
X130905Y187008D02*
D03*
X93504D02*
D03*
D119*
X9843Y59055D02*
D03*
D120*
X19685Y19685D02*
D03*
Y177165D02*
D03*
X433071Y19685D02*
D03*
Y177165D02*
D03*
X767717D02*
D03*
X767717Y19685D02*
D03*
D121*
X353323Y189866D02*
D03*
X382398Y189866D02*
D03*
D122*
X377953Y179528D02*
D03*
X358268D02*
D03*
D123*
X355655Y134911D02*
D03*
X376681Y137493D02*
D03*
X417323Y137795D02*
D03*
X404528Y135827D02*
D03*
X376013Y130485D02*
D03*
X388779Y127953D02*
D03*
X702127Y103103D02*
D03*
X701538Y39080D02*
D03*
X702189Y170867D02*
D03*
X499016Y86614D02*
D03*
Y81693D02*
D03*
Y76772D02*
D03*
Y71850D02*
D03*
X632020Y38886D02*
D03*
X771623Y78594D02*
D03*
X771606Y114095D02*
D03*
X631772Y102698D02*
D03*
X494095Y89567D02*
D03*
X630803Y170629D02*
D03*
X561107Y38952D02*
D03*
X494435Y96429D02*
D03*
X560864Y102943D02*
D03*
X560673Y170688D02*
D03*
X455709Y97441D02*
D03*
X474409Y74803D02*
D03*
Y70866D02*
D03*
X490168Y38948D02*
D03*
X455877Y186712D02*
D03*
X714366Y38285D02*
D03*
X714366Y102309D02*
D03*
X714366Y170069D02*
D03*
X643553Y38285D02*
D03*
X643553Y102309D02*
D03*
X643553Y170078D02*
D03*
X572687Y38285D02*
D03*
Y102309D02*
D03*
X572687Y170078D02*
D03*
X501821Y38285D02*
D03*
Y102309D02*
D03*
X501821Y170078D02*
D03*
X466273Y102891D02*
D03*
X430118Y87598D02*
D03*
Y82677D02*
D03*
X455709D02*
D03*
Y87598D02*
D03*
Y92520D02*
D03*
X440337Y64900D02*
D03*
X301624Y110400D02*
D03*
X294986Y110859D02*
D03*
X287402Y111221D02*
D03*
X443067Y68067D02*
D03*
X333661Y92520D02*
D03*
X446850Y62992D02*
D03*
X457315Y74707D02*
D03*
X454198Y130155D02*
D03*
X454044Y120008D02*
D03*
X417323Y110236D02*
D03*
X288386Y136811D02*
D03*
X434055Y120079D02*
D03*
X435863Y136918D02*
D03*
X441346Y153525D02*
D03*
X355576Y129105D02*
D03*
X356299Y124016D02*
D03*
X376131Y123491D02*
D03*
X368110Y189961D02*
D03*
X370785Y150602D02*
D03*
X392717Y35433D02*
D03*
X306223Y92394D02*
D03*
X198819Y171260D02*
D03*
X280140Y146814D02*
D03*
X291339Y142717D02*
D03*
X314961Y172244D02*
D03*
X260940Y67127D02*
D03*
X260989Y44820D02*
D03*
X283465Y43307D02*
D03*
X287402Y45276D02*
D03*
X283160Y47702D02*
D03*
X303159Y44569D02*
D03*
X283465Y66929D02*
D03*
X303150Y50197D02*
D03*
X266732Y99410D02*
D03*
X292261Y75334D02*
D03*
X349410Y81693D02*
D03*
X342520Y75787D02*
D03*
Y56102D02*
D03*
X296549Y68932D02*
D03*
X287402Y50197D02*
D03*
X226378Y53150D02*
D03*
X181102Y67913D02*
D03*
X187008Y80709D02*
D03*
X186969Y63165D02*
D03*
X193898Y92520D02*
D03*
X258858Y133858D02*
D03*
X335630Y152559D02*
D03*
X181029Y132040D02*
D03*
X283465Y112205D02*
D03*
X181102Y117126D02*
D03*
X192573Y126913D02*
D03*
X206693Y114173D02*
D03*
X200640Y127352D02*
D03*
X303274Y127066D02*
D03*
X335484Y187583D02*
D03*
X223425Y57087D02*
D03*
X335499Y142338D02*
D03*
X40334Y8511D02*
D03*
X263779Y115157D02*
D03*
X130905Y47244D02*
D03*
X199526Y139268D02*
D03*
X194536Y139261D02*
D03*
X189391Y139256D02*
D03*
X229331Y57087D02*
D03*
X223425Y62992D02*
D03*
X229331Y68898D02*
D03*
X229422Y62945D02*
D03*
X208045Y83451D02*
D03*
X220472Y98425D02*
D03*
X214567D02*
D03*
X203740Y57087D02*
D03*
X209180Y62880D02*
D03*
X203740Y62992D02*
D03*
X152559Y61024D02*
D03*
X131170Y54290D02*
D03*
X117126Y71850D02*
D03*
Y76772D02*
D03*
X112441Y79961D02*
D03*
X122047Y69882D02*
D03*
X149213Y63392D02*
D03*
X154396Y68028D02*
D03*
X145669Y100394D02*
D03*
X170296Y96938D02*
D03*
X141732Y112205D02*
D03*
X136811Y118110D02*
D03*
X141732Y117126D02*
D03*
X140212Y121798D02*
D03*
X145669Y114173D02*
D03*
X129323Y91366D02*
D03*
X73412Y148700D02*
D03*
X63742Y154959D02*
D03*
X53037Y152281D02*
D03*
X155331Y76025D02*
D03*
X153543Y84646D02*
D03*
X173450Y81705D02*
D03*
X149606Y84646D02*
D03*
X144685Y85630D02*
D03*
X106564Y92036D02*
D03*
X73819Y62992D02*
D03*
X68898D02*
D03*
X68898Y68898D02*
D03*
Y57087D02*
D03*
X117081Y81471D02*
D03*
X122028Y81221D02*
D03*
X126787Y81158D02*
D03*
X137795Y87598D02*
D03*
X93504Y89567D02*
D03*
X90221Y94023D02*
D03*
X129751Y64014D02*
D03*
X134344Y83639D02*
D03*
X131381Y81749D02*
D03*
X132803Y63909D02*
D03*
X277621Y154927D02*
D03*
X253863Y131120D02*
D03*
X254347Y155494D02*
D03*
X248031Y148622D02*
D03*
Y138779D02*
D03*
X107313Y138305D02*
D03*
X67913Y138779D02*
D03*
X56102Y121063D02*
D03*
X84646Y125000D02*
D03*
X93504D02*
D03*
X78740Y133858D02*
D03*
X77756Y137795D02*
D03*
Y129921D02*
D03*
X93659Y141681D02*
D03*
X70866Y182087D02*
D03*
X65550Y172192D02*
D03*
X127587Y164422D02*
D03*
X143701Y163386D02*
D03*
X224022Y175156D02*
D03*
X185084Y183857D02*
D03*
X174213Y171260D02*
D03*
X168008Y183771D02*
D03*
X236204Y184133D02*
D03*
X253371Y184436D02*
D03*
X253657Y176306D02*
D03*
X285919Y190949D02*
D03*
X266826Y182614D02*
D03*
X266700Y188002D02*
D03*
X340594Y191225D02*
D03*
X340551Y119095D02*
D03*
X415363Y184028D02*
D03*
X398631D02*
D03*
X353346Y142717D02*
D03*
X376969Y151575D02*
D03*
X392717D02*
D03*
Y136811D02*
D03*
X357679Y163372D02*
D03*
X352362Y159449D02*
D03*
X357283Y143701D02*
D03*
X345520Y187269D02*
D03*
X346457Y170276D02*
D03*
X335630Y147638D02*
D03*
X335155Y167601D02*
D03*
X366142Y150591D02*
D03*
X335536Y182540D02*
D03*
X37402Y99213D02*
D03*
X27559D02*
D03*
X37402Y112205D02*
D03*
X27559Y112205D02*
D03*
X15748Y114173D02*
D03*
X9843D02*
D03*
X3937D02*
D03*
X8858Y39370D02*
D03*
D124*
X80948Y89425D02*
D03*
X35433Y149934D02*
D03*
X36220Y120079D02*
D03*
X13780D02*
D03*
Y149934D02*
D03*
X14026Y129865D02*
D03*
X35680D02*
D03*
X9620Y108831D02*
D03*
X9843Y91929D02*
D03*
Y98425D02*
D03*
M02*
